<svg id="Calque_1" data-name="Calque 1" xmlns="http://www.w3.org/2000/svg" viewBox="0 0 1185.54 901.27"><defs><style>.cls-1{fill:#11d150;}</style></defs><g id="esWnp2.tif"><path class="cls-1" d="M1241.88,326c-1.22,1.08-2.52,2.1-3.67,3.25q-277.08,277-554.14,554-86.52,86.52-172.87,173.19c-3.16,3.18-4.71,3.2-7.89,0q-81.42-81.72-163.1-163.19Q199.48,752.54,58.68,611.92c-3.07-3.06-3.15-4.45,0-7.56q81.37-81,162.44-162.42c2.68-2.69,4-2.89,6.83-.08q41.34,41.64,83,83Q407.14,621,503.3,717.23c3.25,3.27,4.84,3.1,8-.06Q789,439.37,1066.77,161.73c5.59-5.59,5.59-5.59,11.34.16q79.82,79.79,159.65,159.56c1.28,1.28,2.25,3,4.12,3.58Z" transform="translate(-56.34 -157.56)"/></g></svg>