<?xml version="1.0" encoding="utf-8"?>
<!-- Generator: Adobe Illustrator 24.1.2, SVG Export Plug-In . SVG Version: 6.00 Build 0)  -->
<svg version="1.1" id="a1564cff-f165-45d5-b330-5a55512dec45"
	 xmlns="http://www.w3.org/2000/svg" xmlns:xlink="http://www.w3.org/1999/xlink" x="0px" y="0px" viewBox="0 0 817.2 523.6"
	 style="enable-background:new 0 0 817.2 523.6;" xml:space="preserve">
<style type="text/css">
	.st0{fill:#E6E6E6;}
	.st1{fill:#FFFFFF;}
	.st2{fill:#B96C55;}
	.st3{fill:#9F616A;}
	.st4{fill:#2F2E41;}
	.st5{fill:#575A89;}
	.st6{fill:#A05C5C;}
	.st7{fill:#FBBEBE;}
	.st8{fill:#FFB8B8;}
	.st9{fill:#D0CDE1;}
</style>
<rect x="0.3" y="0.5" class="st0" width="816.9" height="523.2"/>
<rect x="23.7" y="66.1" class="st1" width="770.2" height="426.6"/>
<rect class="st2" width="816.9" height="34.7"/>
<circle class="st1" cx="25.8" cy="17.7" r="6.4"/>
<circle class="st1" cx="50.2" cy="17.7" r="6.4"/>
<circle class="st1" cx="74.6" cy="17.7" r="6.4"/>
<rect x="118.5" y="101.2" class="st0" width="150.6" height="163.4"/>
<rect x="333.5" y="101.2" class="st0" width="150.6" height="163.4"/>
<rect x="548.5" y="101.2" class="st0" width="150.6" height="163.4"/>
<rect x="118.5" y="294.2" class="st0" width="150.6" height="163.4"/>
<rect x="333.5" y="294.2" class="st0" width="150.6" height="163.4"/>
<rect x="548.5" y="294.2" class="st0" width="150.6" height="163.4"/>
<circle class="st3" cx="177" cy="174.5" r="25.5"/>
<path class="st3" d="M167,194c0,0,3.2,15.1,3.2,16.7s15.1,8.8,15.1,8.8l13.5-2.4l4.8-14.3c0,0-8-11.9-8-16.7L167,194z"/>
<path class="st4" d="M154.9,154c0,0,8.1-17.5,23.6-13.5s24.3,10.1,24.9,16.2s-0.3,15.2-0.3,15.2s-1.7-12.5-12.5-9.8
	s-27.6,0.7-27.6,0.7l-2.7,24.3c0,0-3-4.4-6.4-1.7S144.1,159.4,154.9,154z"/>
<path class="st2" d="M257.7,258.5l-6.4-28.6c-3.2-9.5-11.1-17.5-11.1-17.5L201,198.5h0c-0.2,7.1-4.9,13.3-11.7,15.4
	c-11.9,4-20.2-9.4-20.2-9.4L136,229.8c0,0-10.3,8.8-9.5,25.5l-1.1,9.3h135.5L257.7,258.5z"/>
<ellipse class="st4" cx="391.4" cy="176" rx="34.6" ry="36.7"/>
<circle class="st4" cx="422.1" cy="213.3" r="18.2"/>
<polygon class="st3" points="409.4,189 419.1,214.3 394.5,224.7 392.3,219.8 384.7,202.6 "/>
<circle class="st3" cx="389.9" cy="183.8" r="21.8"/>
<path class="st4" d="M372.1,181.4c13.7-9.1,17.8-11.3,33.4-7.8l0.9-22.9l-40.5,8.5L372.1,181.4z"/>
<path class="st5" d="M460,233.1l-0.6,0.1c0,0,0,0,0-0.1c-2.4-2.4-13.7-6.7-22.2-9.7h0c-5.4-1.9-9.6-3.3-9.6-3.3l-10.2-10.5
	c-2.6,2.9-8,5.1-13.2,6.7c-4,1.2-8,2.2-12.1,2.9h0l-2.1,6.8c0,0-24,18.2-26,20.1h0v0c-0.2,0.2-0.2,0.5-0.2,0.8v0
	c-1.2,5.8-1.8,11.7-1.9,17.6h104.6v-6.1C466.5,250,460,233.1,460,233.1z"/>
<path class="st4" d="M652.5,264.6h-51.7l-2.8-28.1l-0.2-1.7l-0.3-3.4l-1.4-14.2l-1.8,15.2l-3.8,32.2H581l0.3-10l0.3-10.1l0.2-4.1
	l1.9-55.6c-0.1-8.8,2.6-17.4,7.9-24.5c6-7.8,15.2-12.2,25-12.1c10,0,19.4,4.6,25.4,12.5c5.5,7.1,8.4,15.9,8.3,24.9l0.9,33.7
	L652.5,264.6z"/>
<circle class="st6" cx="616.7" cy="181.8" r="22.8"/>
<path class="st6" d="M605.3,198.1c0,0,6.5,21.9,0,28.4s-8.1,8.9-8.1,8.9l18.7,25.2l32.5-39.8c0,0-22.8-6.5-17.1-24.4L605.3,198.1z"
	/>
<polygon class="st7" points="675.5,264.6 656.3,264.6 656,261.3 655.7,258.3 664.5,257.1 675.2,255.8 675.3,259.2 "/>
<path class="st2" d="M676.8,259.1c0,0-3.3-20.3-5.7-28.4s-4.9-8.1-4.9-8.1h0l0,0c-2.9-2.9-9.8-3.4-15-3.3c-3.6,0-6.4,0.4-6.4,0.4
	l-29,30.6l-14.6-19.4v0c-1.3,0.1-2.6,0.3-3.9,0.7c-1.1,0.3-2.2,0.6-3.2,1c-4.5,1.9-8.7,4.6-12.3,7.9h0c-2.1,1.9-3.3,3.3-3.3,3.3
	c-3.2,6.7-5.6,13.7-7.2,21h92.9l0.2-4.2v0L676.8,259.1z"/>
<path class="st4" d="M597.6,178.2c14.7-7.9,20.7-7.6,39,0l4.9-11.9c0-4.7-3.8-8.4-8.4-8.4h-32.7c-4.7,0-8.4,3.8-8.4,8.4L597.6,178.2
	z"/>
<path class="st4" d="M191.8,333.7c-1.2-0.1-2.4,0.2-3.5,0.8c-1,0.9-1.8,1.9-2.4,3.1c-2.5,4.5-6,8.4-10.1,11.4c-3,2.2-6.8,4.9-6.3,9
	c0.3,1.3,0.8,2.6,1.5,3.8c2.8,5.6,10.3,9.9,9.6,16.3c2.8-4.6-0.9-6.9,1.8-11.5c1.3-2.2,3.6-4.7,5.6-3.3c0.7,0.5,1.1,1.3,1.8,1.7
	c1.6,1,3.4-0.9,4.9-2.2c5-4.5,12.2-3.3,18.4-1.9c3,0.7,6.2,1.5,7.9,4.4c2.3,3.7-2.2,7.7-3.3,11.9c-0.3,1.2,0.4,2.5,1.6,2.8
	c0.3,0.1,0.5,0.1,0.8,0.1c1.9-0.2,4.1-0.3,4.2-1.2c2.4,0.1,5.3-0.2,6.3-2.6c0.3-1,0.5-2,0.5-3c0.4-4.1,2.1-7.9,3.3-11.8
	s1.7-8.5-0.3-12c-0.7-1.2-1.6-2.2-2.6-3.1C220.4,335.5,205.8,333.7,191.8,333.7z"/>
<path class="st3" d="M183,386.2c0,0,2.4,20.2-6.5,21.8s8.1,29,8.1,29l40.3,4.8l-9.7-32.3c0,0-6.5-2.4-2.4-18.6S183,386.2,183,386.2z
	"/>
<circle class="st3" cx="201.2" cy="375.3" r="24.2"/>
<path class="st2" d="M159.5,457.6c4.3-16.8,10.2-39.5,10.2-39.5s2.3,0.5,5.9,1c5.3,0.8,10.6,1.3,16,1.5c6.8,0.2,14-0.3,19.6-2.2
	c2.1-0.7,4.1-1.7,5.8-3.1c0.7-0.6,1.4-1.3,1.9-2c9.7-12.9,13.7,36.3,13.7,36.3l0.8,8H159.5z"/>
<path class="st8" d="M236.8,509.6c-0.3,0-0.6,0-1,0l0.5-0.9C236.5,509,236.7,509.3,236.8,509.6z"/>
<path class="st4" d="M193,340.1c-1-0.1-2,0.1-2.8,0.5c-0.8,0.6-1.4,1.3-1.9,2.2c-2.2,3.2-5,6-8.2,8.1c-2.4,1.6-5.6,3.5-5.1,6.4
	c0.2,1,0.6,1.9,1.2,2.7c2.3,4,3.2,8.6,2.6,13.2l6.7-9.8c1.1-1.6,2.9-3.3,4.5-2.3c0.5,0.3,0.9,0.9,1.5,1.2c1.3,0.7,2.8-0.6,4-1.5
	c4.1-3.2,9.9-2.4,15-1.4c2.4,0.5,5,1.1,6.5,3.1c2.4,3.3-0.1,8.1,1.3,11.9c0.8-0.5,1.3-1.4,1.5-2.3c1.9,0.1,4.3-0.1,5.1-1.9
	c0.3-0.7,0.4-1.4,0.4-2.1c0.3-2.9,1.7-5.6,2.7-8.4s1.4-6-0.2-8.5c-0.6-0.8-1.3-1.6-2.1-2.2C216.3,341.3,204.4,340,193,340.1z"/>
<path class="st4" d="M190.7,418.9c-5.5-6.3-8.8-15.5-9-15.9v0c0,0-8.8-5-11.2-0.2s-25,16.9-27.4,16.9c0,0,0,0-0.1,0
	c-1,0.3-13,4.7-16.1,21c-0.8,5.6-1.3,11.2-1.3,16.9h65.8c0.7-7.1,1.2-13.8,1.4-19.6c0.3-8,0-14.3-1.2-17.5
	C191.4,419.9,191.1,419.4,190.7,418.9z"/>
<path class="st4" d="M247.2,423.4c0-0.2-0.1-0.3-0.1-0.5c-0.1-0.4-0.3-0.8-0.5-1.2c0,0,0,0,0,0c-4.7-7.2-34.6-17.2-34.6-17.2
	l-1.1,3.9c0,0,0.1,3.8,0.3,9.9c0.2,5.7,0.4,13.5,0.7,22c0.2,5.5,0.3,11.4,0.4,17.3h44.8C254.6,446,251.3,434.6,247.2,423.4z"/>
<path class="st5" d="M666.7,457.6l3.4-16.8l3.2-1.3l0,0c0.3,0.1,3.8,1.6,3.8,7.2c0,1.1-0.2,5.2-0.5,11L666.7,457.6z"/>
<circle class="st6" cx="630.7" cy="371.2" r="27.9"/>
<polygon class="st6" points="648.1,387.4 645.7,435 609.8,414.1 614.4,387.4 "/>
<polygon class="st2" points="658.5,437.3 656.2,457.6 637.3,457.6 616.8,418.2 611,407.1 608.2,405.3 611.4,404.6 614,406.4 
	642.3,426.9 646.8,413.3 646.9,412.9 648.1,409.5 "/>
<path class="st4" d="M613.8,343.9c0,0,3.5-17.4,23.2-13.9l-2.3,1.2c0,0,18.6-2.3,16.2,8.1c0,0,15.1,9.3,11.6,19.7
	c-2,6.1-3.6,12.3-4.6,18.6l-3.5-3.5c0,0-3.5-23.2-24.4-20.9c-15.7,1.7-22.1,9.1-23.7,14.5c-0.8,2.5-1.7,4.9-2.9,7.3l-1.3,0.3
	C602.2,375.3,595.3,349.7,613.8,343.9z"/>
<path class="st4" d="M673.3,439.5L673.3,439.5l-14.8-13.8v-9.3l-11.4-9l-0.2,5.5l-1.2,37.2l-19-26.1L614,406.4l-2.3-3.2l0.6-3
	l-7.1,8l-25.7,19.2l-2.2,1.7c-2.5,2.5-4.9,5.2-7,8.1c-0.7,1-3.8,9.2-7.9,20.2h114.2c0.3-5.8,0.5-9.8,0.5-11
	C677.1,441.1,673.6,439.6,673.3,439.5z"/>
<path class="st4" d="M406.5,340.6L406.5,340.6c-18.9,0-34.2,17-34.2,37.9v26.6h8.2l4.7-9.9l-1.2,9.9h52.6l4.3-9l-1.1,9h5.9v-20.9
	C445.8,360.1,428.2,340.6,406.5,340.6z"/>
<path class="st9" d="M378.9,457.6h-22.2l-0.2-18.1c0-0.2,0-0.4,0-0.6l4.5-5l0.1-0.1l17,10.8L378.9,457.6z"/>
<circle class="st6" cx="403.5" cy="377.1" r="24.3"/>
<path class="st6" d="M389.5,391.7c0,0,7.1,37,3.9,40.9s34.4-7.1,34.4-7.1s-12.3-25.3-5.8-39.6L389.5,391.7z"/>
<path class="st2" d="M455.5,416.7L455.5,416.7c-0.6-1.2-1.6-2.2-2.8-2.7c-4.8-2-8.9-3.5-12.3-4.7c-6-2.1-12.5-1.8-18.3,0.6
	c-0.6,0.2-1.1,0.5-1.7,0.8c0,0-23.8,4.5-26.6,4c-0.2,0-0.4-0.1-0.6-0.1c-0.4-0.1-0.9-0.1-1.3-0.1c-5.5-0.3-11,1.1-15.8,3.9
	c-7.8,4.5-19.4,12.6-19.6,20.4l-0.2,0.2l0.2,18.7h104.4c0.2-17.9,0.3-31.4,0.3-32.3C461.2,422.5,455.5,416.7,455.5,416.7z"/>
<path class="st4" d="M416.2,351c-3.3-4.5-8.6-7.1-14.1-7.2h-0.7c-12.9,0-23.4,11.7-23.4,26.1v0h4.3l0.7-5.3l1,5.3h25.7l2.2-4.5
	l-0.5,4.5h5.1c2.4,11.7-1,23.4-10.2,35.2h8.6l4.3-9l-1.1,9h16.4l3.2-20.7C437.7,368.9,428.7,355.7,416.2,351z"/>
<circle class="st4" cx="420.9" cy="340.4" r="12.8"/>
</svg>
