<?xml version="1.0" encoding="utf-8"?>
<!-- Generator: Adobe Illustrator 24.1.2, SVG Export Plug-In . SVG Version: 6.00 Build 0)  -->
<svg version="1.1" id="Calque_1" xmlns="http://www.w3.org/2000/svg" xmlns:xlink="http://www.w3.org/1999/xlink" x="0px" y="0px"
	 viewBox="0 0 541.2 162.5" style="enable-background:new 0 0 541.2 162.5;" xml:space="preserve">
<style type="text/css">
	.st0{fill:#FFFFFF;}
</style>
<g>
	<path class="st0" d="M541.2,162.5c-182,0-364,0-546,0c0-54.17,0-108.33,0-162.5c182,0,364,0,546,0
		C541.2,54.17,541.2,108.33,541.2,162.5z M345.24,66.85c0.09,1.43,0.21,2.06,0.17,2.67c-0.69,9.42-1.53,18.84-2.06,28.27
		c-0.77,13.68-1.14,27.36,0.62,41.01c0.97,7.54,4.69,13.16,11.52,16.63c2.93,1.49,4.08,1.23,5.78-1.53c1.47-2.4,2.7-4.94,3.99-7.44
		c12.78-24.91,25.47-49.87,38.38-74.72c5.39-10.37,11.27-20.48,16.86-30.74c3.21-5.89,3.79-12.32,3.14-18.84
		c-0.21-2.06-1.03-4.22-2.14-5.98c-2.03-3.21-3.8-3.18-6.18-0.26c-1.1,1.35-2.12,2.78-3.02,4.27c-4.94,8.16-10.14,16.18-14.68,24.56
		c-11.39,21.06-22.46,42.3-33.67,63.46c-0.45,0.86-0.98,1.67-1.48,2.5c-0.51-1.63-0.6-3.01-0.5-4.39c0.75-10,1.46-20,2.35-29.99
		c0.6-6.76,1.45-13.49,2.26-20.23c0.89-7.39,2.03-14.75,2.77-22.15c0.89-8.92-3.76-14.94-10.9-19.48c-1.95-1.24-3.68-0.89-5.03,0.85
		c-1.42,1.83-2.82,3.72-3.94,5.74c-9.73,17.54-19.82,34.9-28.96,52.75c-9.09,17.75-17.33,35.95-25.65,54.08
		c-2.59,5.64-4.35,11.8-2.78,18.09c0.78,3.11,2.28,6.23,4.18,8.82c2.02,2.76,4.41,2.2,6-0.84c0.61-1.17,1.12-2.4,1.59-3.64
		c10.58-27.51,24.02-53.64,38.6-79.21C343.18,69.85,344.04,68.68,345.24,66.85z M156.6,106.46c1.58-0.56,2.65-1.01,3.76-1.32
		c11.9-3.36,22.98-8.53,33.47-15.02c11.81-7.3,21.77-16.36,27.84-29.12c4.17-8.76,5.08-17.75,1.7-26.96
		c-3.46-9.43-9.11-16.8-19.46-19.22c-5.63-1.32-11.43-1.44-17.04-0.01c-10.34,2.63-20.57,5.66-30.89,8.39
		c-4.23,1.12-8.57,1.82-12.84,2.83c-3.33,0.79-3.77,1.94-2.03,4.93c2.27,3.9,5.62,6.47,9.89,7.89c0.84,0.28,1.65,0.62,2.83,1.07
		c-1.38,2.45-2.57,4.69-3.88,6.86c-13.71,22.65-26.05,46-36.07,70.51c-3.6,8.82-7.18,17.68-6.24,27.56
		c0.38,4.01,2.17,7.28,5.08,9.92c1.77,1.61,3.3,1.22,4.41-0.87c0.54-1.02,1.01-2.08,1.49-3.14c5.61-12.27,11.21-24.55,16.82-36.82
		c0.32-0.7,0.73-1.36,1.35-2.49c5.36,6.67,10.44,12.91,15.43,19.22c6.54,8.27,12.99,16.62,19.54,24.89
		c1.76,2.23,3.22,2.31,4.71-0.07c1.36-2.17,2.53-4.68,2.95-7.19c0.87-5.22-0.99-10.08-3.72-14.38c-4.47-7.08-9.32-13.92-14.07-20.82
		C160.15,110.92,158.46,108.89,156.6,106.46z M455.77,81.51c-0.18-0.19-0.36-0.39-0.54-0.58c0.64-1.24,1.25-2.5,1.93-3.72
		c5.57-10.08,11.25-20.11,16.7-30.26c3.04-5.67,4.85-11.76,4.98-18.27c0.08-4.05-0.42-7.95-2.73-11.41
		c-2.34-3.49-4.42-3.71-7.02-0.46c-2.02,2.52-4,5.14-5.54,7.96c-10.63,19.49-21.48,38.88-31.59,58.64
		c-7.15,13.99-13.45,28.42-19.7,42.84c-2.87,6.63-4.38,13.8-2.78,21.1c0.61,2.76,1.74,5.54,3.24,7.94c1.73,2.77,4.44,2.4,6.01-0.48
		c0.71-1.31,1.31-2.68,1.95-4.03c6.17-13.11,12.33-26.22,18.5-39.33c0.38-0.8,0.83-1.57,1.43-2.71c0.72,1.01,1.27,1.71,1.74,2.46
		c3.98,6.32,8.08,12.56,11.88,18.99c4.6,7.78,8.86,15.75,13.42,23.55c2.12,3.62,4.63,3.62,7.12,0.23c2.17-2.95,3.26-6.32,3.38-9.96
		c0.21-6.75-2.06-12.89-5.16-18.69c-3.78-7.09-7.85-14.04-11.96-20.95c-1.09-1.84-0.95-2.94,0.73-4.15
		c2.69-1.95,5.28-4.03,7.94-6.03c20.27-15.18,39.6-31.42,56.65-50.22c4.07-4.49,6.96-9.7,9.1-15.31c1.35-3.53,1.78-7.26,0.67-10.97
		c-1.15-3.82-3.26-4.4-6.11-1.62c-2.86,2.78-5.51,5.77-8.25,8.67C504.5,42.94,485,58.64,465.39,74.21
		C462.24,76.71,458.98,79.08,455.77,81.51z M20.09,116.26c-0.27-7.05,1.01-14.03,2.83-20.94c4.8-18.17,14.5-33.51,27.42-46.93
		c8.34-8.66,17.41-16.46,28.41-21.62c2.77-1.3,5.95-1.92,9.01-2.35c2.37-0.33,4.02,1.34,3.88,3.77c-0.15,2.69-0.5,5.45-1.32,8
		c-2.15,6.77-4.87,13.36-6.84,20.17c-1.71,5.89-1.19,11.73,3.17,16.58c5.65,6.28,9.14,5.54,12.19-2.23
		c2.78-7.08,5.87-14.04,8.82-21.06c1.81-4.3,2.55-8.78,1.51-13.35c-1.86-8.16-6.56-14.56-12.87-19.9
		c-4.58-3.87-10.03-5.17-15.81-4.77c-8.06,0.56-15.68,2.89-22.5,7.25C33.33,34.69,15.04,55.81,4.99,83.52
		c-4.73,13.05-6.74,26.54-3.16,40.23c6.21,23.73,23,33.36,45.48,30.04c18.31-2.71,30.56-13.91,38.66-30.04
		c1.94-3.87,2.68-8.07,1.99-12.33c-0.36-2.21-1.22-4.5-2.45-6.36c-1.67-2.53-4.1-2.39-5.93,0.07c-1.28,1.73-2.25,3.68-3.47,5.46
		c-4.16,6.09-8.07,12.39-12.64,18.16c-5.13,6.48-11.23,12.04-19.2,15.05c-9.2,3.47-16.26,0.7-20.7-8.06c-0.37-0.74-0.68-1.51-1-2.27
		C20.25,127.99,20.01,122.22,20.09,116.26z M267.76,9.53c-0.31-0.11-0.61-0.22-0.92-0.32c-0.43,0.95-0.89,1.88-1.27,2.85
		c-6.52,16.55-13.02,33.1-19.54,49.65c-0.33,0.85-0.51,1.89-1.13,2.45c-0.68,0.63-1.77,0.81-2.68,1.19
		c-0.3-0.76-0.87-1.52-0.84-2.27c0.03-1.04,0.45-2.09,0.78-3.1c5.61-17.03,11.24-34.06,16.85-51.1c0.23-0.71,0.38-1.44,0.56-2.16
		c-0.21-0.07-0.43-0.13-0.64-0.2c-0.34,0.79-0.7,1.56-1.01,2.36c-2.9,7.57-5.78,15.14-8.68,22.71
		c-5.97,15.6-12.01,31.17-17.87,46.81c-0.91,2.43-0.6,5.11,1.04,7.36c1.12,1.54,2.3,3.06,3.58,4.48
		c9.78,10.86,8.29,25.95-0.66,35.97c-2.27,2.54-4.57,5.06-7.03,7.42c-5.61,5.38-4.57,16.23,0.44,20.99
		c4.17,3.97,8.96,4.85,14.25,4.27c6.01-0.66,11.89-7.48,11.9-13.48c0.01-4.82-0.15-9.64,0.03-14.45c0.23-6.12,2.24-11.67,6.25-16.39
		c4.79-5.65,11.22-7.99,18.33-8.95c4.6-0.62,8.31-2.24,10.1-7.13c8.28-22.5,16.73-44.94,25.1-67.41c0.4-1.07,0.58-2.22,0.86-3.33
		c-0.82,0.67-1.23,1.46-1.56,2.27c-4.82,11.62-9.62,23.24-14.45,34.85c-2.35,5.65-4.75,11.29-7.15,16.92c-0.5,1.17-1.22,2-2.7,1.3
		c-1.3-0.62-1.66-1.52-1.02-2.83c0.22-0.44,0.32-0.93,0.49-1.4c5.79-16.63,11.59-33.25,17.37-49.88c0.49-1.4,0.85-2.84,1.26-4.26
		c-0.21-0.07-0.43-0.15-0.64-0.22c-0.4,0.86-0.83,1.7-1.18,2.58c-3.32,8.29-6.63,16.59-9.95,24.89c-3.5,8.76-6.98,17.52-10.53,26.26
		c-0.33,0.82-1.06,1.83-1.81,2.06c-2.27,0.69-3.68-1.05-2.85-3.43c5.76-16.55,11.54-33.09,17.29-49.64
		c0.62-1.79,1.06-3.64,1.59-5.47c-0.2-0.07-0.39-0.14-0.59-0.21c-0.35,0.7-0.75,1.38-1.04,2.1c-1.54,3.75-3.05,7.51-4.56,11.27
		c-5.43,13.5-10.85,27.01-16.3,40.51c-0.86,2.12-2.87,2.76-4.1,1.15c-0.55-0.72-0.39-2.31-0.04-3.33
		c5.65-16.41,11.39-32.78,17.08-49.18c0.6-1.72,1-3.51,1.5-5.27c-0.22-0.08-0.45-0.16-0.67-0.24c-0.82,1.93-1.67,3.86-2.45,5.81
		c-6.46,16.03-12.9,32.08-19.37,48.11c-0.85,2.1-2.93,2.71-4.1,1.07c-0.54-0.75-0.36-2.33,0-3.37
		c5.97-17.26,12.03-34.49,18.06-51.73c0.3-0.87,0.54-1.76,0.8-2.64c-0.21-0.08-0.42-0.17-0.62-0.25c-0.44,0.84-0.94,1.64-1.3,2.51
		c-2.5,6.04-4.98,12.09-7.43,18.14c-4.46,11.04-8.88,22.1-13.4,33.12c-0.34,0.83-1.26,1.86-2.04,1.98
		c-2.05,0.31-3.04-1.19-2.31-3.31c6.1-17.56,12.23-35.12,18.34-52.68c0.29-0.83,0.46-1.7,0.69-2.56c-0.22-0.07-0.44-0.13-0.65-0.2
		c-0.59,1.24-1.25,2.44-1.77,3.71c-4.48,11.13-8.92,22.27-13.38,33.4c-2.31,5.76-4.66,11.5-6.9,17.29c-0.74,1.91-2.1,1.57-3.47,1.22
		c-1.56-0.4-1.41-1.63-1.13-2.81c0.15-0.64,0.43-1.25,0.65-1.87c5.94-17.1,11.88-34.2,17.81-51.3
		C267.29,11.31,267.5,10.41,267.76,9.53z"/>
	<path class="st0" d="M345.24,66.85c-1.2,1.84-2.06,3-2.77,4.25c-14.58,25.57-28.02,51.7-38.6,79.21c-0.47,1.23-0.98,2.47-1.59,3.64
		c-1.59,3.05-3.98,3.6-6,0.84c-1.9-2.59-3.41-5.71-4.18-8.82c-1.57-6.29,0.19-12.45,2.78-18.09c8.32-18.13,16.56-36.33,25.65-54.08
		c9.14-17.85,19.23-35.21,28.96-52.75c1.12-2.02,2.52-3.91,3.94-5.74c1.35-1.73,3.08-2.09,5.03-0.85
		c7.14,4.55,11.79,10.57,10.9,19.48c-0.74,7.4-1.88,14.76-2.77,22.15c-0.81,6.74-1.66,13.47-2.26,20.23
		c-0.89,9.99-1.6,19.99-2.35,29.99c-0.1,1.37-0.01,2.76,0.5,4.39c0.49-0.83,1.02-1.65,1.48-2.5c11.21-21.16,22.28-42.39,33.67-63.46
		c4.53-8.38,9.74-16.4,14.68-24.56c0.9-1.49,1.92-2.92,3.02-4.27c2.38-2.92,4.15-2.95,6.18,0.26c1.11,1.76,1.94,3.92,2.14,5.98
		c0.65,6.52,0.07,12.94-3.14,18.84c-5.59,10.27-11.48,20.37-16.86,30.74c-12.91,24.85-25.59,49.81-38.38,74.72
		c-1.29,2.5-2.52,5.05-3.99,7.44c-1.69,2.77-2.84,3.02-5.78,1.53c-6.82-3.47-10.54-9.09-11.52-16.63
		c-1.76-13.65-1.4-27.33-0.62-41.01c0.53-9.43,1.38-18.85,2.06-28.27C345.45,68.9,345.34,68.28,345.24,66.85z"/>
	<path class="st0" d="M156.6,106.46c1.86,2.43,3.55,4.47,5.04,6.63c4.75,6.9,9.6,13.74,14.07,20.82c2.72,4.31,4.59,9.16,3.72,14.38
		c-0.42,2.5-1.59,5.01-2.95,7.19c-1.49,2.38-2.95,2.3-4.71,0.07c-6.55-8.27-13-16.62-19.54-24.89
		c-4.99-6.31-10.07-12.55-15.43-19.22c-0.62,1.13-1.03,1.79-1.35,2.49c-5.61,12.27-11.21,24.55-16.82,36.82
		c-0.48,1.05-0.95,2.12-1.49,3.14c-1.11,2.08-2.64,2.47-4.41,0.87c-2.91-2.64-4.7-5.91-5.08-9.92c-0.94-9.88,2.63-18.75,6.24-27.56
		c10.02-24.52,22.36-47.87,36.07-70.51c1.31-2.17,2.5-4.41,3.88-6.86c-1.18-0.45-1.99-0.79-2.83-1.07
		c-4.27-1.42-7.63-3.99-9.89-7.89c-1.74-2.99-1.3-4.14,2.03-4.93c4.26-1.01,8.6-1.71,12.84-2.83c10.31-2.73,20.55-5.75,30.89-8.39
		c5.61-1.43,11.41-1.31,17.04,0.01c10.35,2.43,16,9.79,19.46,19.22c3.38,9.22,2.47,18.2-1.7,26.96
		c-6.07,12.76-16.03,21.82-27.84,29.12c-10.49,6.49-21.57,11.66-33.47,15.02C159.25,105.45,158.18,105.9,156.6,106.46z M147.98,90.8
		c0.34,0.23,0.42,0.32,0.48,0.31c0.32-0.04,0.65-0.07,0.96-0.15c14.11-3.62,27.18-9.5,38.96-18.1c7.45-5.44,13.99-11.75,18.46-19.93
		c2.37-4.33,3.99-8.9,3.72-13.95c-0.36-6.81-4.74-10.43-11.36-8.72c-8.71,2.25-17.29,4.98-25.9,7.61c-0.61,0.19-1.26,1.23-1.35,1.94
		c-0.78,6.25-2.92,12.06-5.84,17.55c-5.47,10.31-11.15,20.51-16.74,30.75C148.89,89.01,148.43,89.93,147.98,90.8z"/>
	<path class="st0" d="M455.77,81.51c3.21-2.43,6.47-4.8,9.62-7.3c19.61-15.56,39.1-31.27,56.37-49.49c2.74-2.9,5.39-5.89,8.25-8.67
		c2.85-2.78,4.96-2.2,6.11,1.62c1.12,3.7,0.68,7.43-0.67,10.97c-2.14,5.61-5.03,10.82-9.1,15.31
		c-17.06,18.79-36.38,35.03-56.65,50.22c-2.66,1.99-5.25,4.08-7.94,6.03c-1.67,1.21-1.82,2.31-0.73,4.15
		c4.11,6.91,8.17,13.86,11.96,20.95c3.1,5.8,5.37,11.94,5.16,18.69c-0.11,3.64-1.21,7.01-3.38,9.96c-2.49,3.39-5.01,3.39-7.12-0.23
		c-4.56-7.8-8.82-15.78-13.42-23.55c-3.8-6.42-7.9-12.67-11.88-18.99c-0.47-0.75-1.02-1.44-1.74-2.46c-0.6,1.14-1.05,1.91-1.43,2.71
		c-6.17,13.11-12.34,26.22-18.5,39.33c-0.63,1.35-1.23,2.72-1.95,4.03c-1.57,2.88-4.28,3.26-6.01,0.48c-1.5-2.4-2.63-5.18-3.24-7.94
		c-1.61-7.3-0.09-14.47,2.78-21.1c6.25-14.42,12.55-28.85,19.7-42.84c10.1-19.76,20.95-39.15,31.59-58.64
		c1.54-2.82,3.52-5.44,5.54-7.96c2.61-3.24,4.69-3.03,7.02,0.46c2.32,3.46,2.81,7.37,2.73,11.41c-0.13,6.51-1.94,12.61-4.98,18.27
		c-5.45,10.15-11.12,20.18-16.7,30.26c-0.68,1.22-1.29,2.48-1.93,3.72C455.41,81.12,455.59,81.31,455.77,81.51z"/>
	<path class="st0" d="M20.09,116.26c-0.08,5.96,0.16,11.74,2.49,17.21c0.32,0.76,0.63,1.53,1,2.27c4.43,8.76,11.49,11.53,20.7,8.06
		c7.96-3.01,14.06-8.57,19.2-15.05c4.57-5.77,8.48-12.07,12.64-18.16c1.22-1.78,2.19-3.73,3.47-5.46c1.83-2.46,4.25-2.6,5.93-0.07
		c1.23,1.86,2.09,4.15,2.45,6.36c0.69,4.25-0.05,8.46-1.99,12.33c-8.1,16.13-20.35,27.33-38.66,30.04
		c-22.47,3.33-39.27-6.3-45.48-30.04c-3.58-13.69-1.57-27.19,3.16-40.23c10.05-27.7,28.34-48.82,53.02-64.62
		c6.82-4.36,14.45-6.69,22.5-7.25c5.78-0.4,11.23,0.9,15.81,4.77c6.31,5.33,11.01,11.74,12.87,19.9c1.04,4.57,0.3,9.05-1.51,13.35
		c-2.95,7.01-6.04,13.98-8.82,21.06c-3.05,7.77-6.54,8.51-12.19,2.23c-4.37-4.86-4.88-10.69-3.17-16.58
		c1.97-6.81,4.69-13.41,6.84-20.17c0.81-2.56,1.17-5.31,1.32-8c0.13-2.43-1.51-4.11-3.88-3.77c-3.06,0.43-6.24,1.05-9.01,2.35
		c-10.99,5.16-20.07,12.96-28.41,21.62C37.43,61.81,27.72,77.15,22.92,95.32C21.1,102.22,19.82,109.21,20.09,116.26z"/>
	<path class="st0" d="M267.76,9.53c-0.25,0.88-0.47,1.78-0.77,2.64c-5.93,17.1-11.87,34.2-17.81,51.3
		c-0.22,0.62-0.49,1.23-0.65,1.87c-0.28,1.18-0.43,2.41,1.13,2.81c1.38,0.36,2.73,0.69,3.47-1.22c2.24-5.78,4.6-11.53,6.9-17.29
		c4.46-11.13,8.91-22.27,13.38-33.4c0.51-1.27,1.17-2.48,1.77-3.71c0.22,0.07,0.44,0.13,0.65,0.2c-0.23,0.85-0.4,1.72-0.69,2.56
		c-6.11,17.56-12.24,35.11-18.34,52.68c-0.74,2.12,0.25,3.62,2.31,3.31c0.78-0.12,1.7-1.15,2.04-1.98
		c4.52-11.02,8.93-22.08,13.4-33.12c2.45-6.06,4.94-12.1,7.43-18.14c0.36-0.87,0.86-1.68,1.3-2.51c0.21,0.08,0.42,0.17,0.62,0.25
		c-0.27,0.88-0.5,1.77-0.8,2.64c-6.03,17.24-12.08,34.47-18.06,51.73c-0.36,1.03-0.54,2.61,0,3.37c1.17,1.64,3.25,1.04,4.1-1.07
		c6.47-16.03,12.91-32.07,19.37-48.11c0.78-1.95,1.63-3.87,2.45-5.81c0.22,0.08,0.45,0.16,0.67,0.24c-0.49,1.76-0.9,3.55-1.5,5.27
		c-5.69,16.39-11.43,32.77-17.08,49.18c-0.35,1.02-0.51,2.62,0.04,3.33c1.23,1.6,3.24,0.97,4.1-1.15c5.45-13.5,10.87-27,16.3-40.51
		c1.51-3.76,3.03-7.52,4.56-11.27c0.3-0.72,0.69-1.4,1.04-2.1c0.2,0.07,0.39,0.14,0.59,0.21c-0.53,1.82-0.97,3.68-1.59,5.47
		c-5.75,16.55-11.54,33.09-17.29,49.64c-0.83,2.38,0.58,4.12,2.85,3.43c0.75-0.23,1.48-1.24,1.81-2.06
		c3.56-8.73,7.04-17.5,10.53-26.26c3.31-8.3,6.62-16.6,9.95-24.89c0.35-0.88,0.79-1.72,1.18-2.58c0.21,0.07,0.43,0.15,0.64,0.22
		c-0.42,1.42-0.78,2.86-1.26,4.26c-5.78,16.63-11.58,33.26-17.37,49.88c-0.16,0.47-0.27,0.96-0.49,1.4
		c-0.64,1.31-0.28,2.21,1.02,2.83c1.47,0.7,2.2-0.12,2.7-1.3c2.4-5.63,4.8-11.27,7.15-16.92c4.83-11.61,9.63-23.24,14.45-34.85
		c0.34-0.82,0.75-1.6,1.56-2.27c-0.28,1.11-0.46,2.26-0.86,3.33c-8.37,22.47-16.82,44.91-25.1,67.41c-1.8,4.89-5.51,6.51-10.1,7.13
		c-7.11,0.96-13.53,3.3-18.33,8.95c-4.01,4.73-6.02,10.27-6.25,16.39c-0.18,4.81-0.02,9.64-0.03,14.45
		c-0.01,6.01-5.89,12.83-11.9,13.48c-5.28,0.58-10.08-0.31-14.25-4.27c-5-4.76-6.05-15.61-0.44-20.99c2.46-2.36,4.76-4.88,7.03-7.42
		c8.96-10.02,10.44-25.11,0.66-35.97c-1.28-1.42-2.45-2.93-3.58-4.48c-1.63-2.25-1.95-4.93-1.04-7.36
		c5.86-15.64,11.9-31.21,17.87-46.81c2.9-7.57,5.78-15.14,8.68-22.71c0.31-0.8,0.67-1.58,1.01-2.36c0.21,0.07,0.43,0.13,0.64,0.2
		c-0.19,0.72-0.33,1.46-0.56,2.16c-5.61,17.03-11.24,34.06-16.85,51.1c-0.33,1.02-0.75,2.06-0.78,3.1
		c-0.02,0.75,0.54,1.52,0.84,2.27c0.91-0.38,2-0.56,2.68-1.19c0.61-0.56,0.79-1.61,1.13-2.45c6.51-16.55,13.02-33.1,19.54-49.65
		c0.38-0.97,0.85-1.9,1.27-2.85C267.15,9.31,267.45,9.42,267.76,9.53z M235.39,143.43c-0.04,2.88,1.52,4.65,4.18,4.73
		c2.62,0.08,4.81-1.8,4.9-4.21c0.09-2.48-2.13-4.9-4.56-4.97C237.24,138.91,235.43,140.69,235.39,143.43z"/>
	<path class="st0" d="M147.98,90.8c0.45-0.87,0.91-1.79,1.4-2.69c5.59-10.25,11.27-20.44,16.74-30.75
		c2.91-5.49,5.05-11.31,5.84-17.55c0.09-0.71,0.74-1.75,1.35-1.94c8.6-2.63,17.19-5.36,25.9-7.61c6.62-1.71,11.01,1.91,11.36,8.72
		c0.26,5.05-1.35,9.62-3.72,13.95c-4.48,8.17-11.01,14.49-18.46,19.93c-11.78,8.61-24.85,14.49-38.96,18.1
		c-0.31,0.08-0.64,0.12-0.96,0.15C148.4,91.12,148.32,91.03,147.98,90.8z"/>
	<path class="st0" d="M235.39,143.43c0.04-2.74,1.85-4.52,4.52-4.45c2.43,0.07,4.66,2.49,4.56,4.97c-0.09,2.41-2.28,4.29-4.9,4.21
		C236.9,148.07,235.34,146.31,235.39,143.43z"/>
</g>
</svg>
