<?xml version="1.0" encoding="utf-8"?>
<!-- Generator: Adobe Illustrator 24.1.2, SVG Export Plug-In . SVG Version: 6.00 Build 0)  -->
<svg version="1.1" id="Calque_1" xmlns="http://www.w3.org/2000/svg" xmlns:xlink="http://www.w3.org/1999/xlink" x="0px" y="0px"
	 viewBox="0 0 546 145.93" style="enable-background:new 0 0 546 145.93;" xml:space="preserve">
<style type="text/css">
	.st0{fill:#FFFFFF;}
	.st1{fill:#464E54;}
</style>
<g>
	<path class="st0" d="M546,153.14c-182,0-364,0-546,0C0,98.97,0,44.81,0-9.36c182,0,364,0,546,0C546,44.81,546,98.97,546,153.14z
		 M349.13,58.62c0.16,0.06,0.31,0.12,0.47,0.19c0.04,0.62,0.15,1.24,0.11,1.85c-0.69,9.42-1.53,18.84-2.06,28.27
		c-0.77,13.68-1.14,27.36,0.62,41.01c0.97,7.54,4.69,13.16,11.52,16.63c2.93,1.49,4.06,1.22,5.78-1.54c1.31-2.1,2.4-4.35,3.54-6.55
		c13.46-26.15,26.83-52.34,40.39-78.44c4.89-9.41,10.23-18.59,15.29-27.91c3.2-5.9,3.8-12.32,3.14-18.84
		c-0.21-2.06-1.03-4.22-2.14-5.98c-2.03-3.21-3.8-3.18-6.18-0.25c-1.1,1.35-2.12,2.78-3.02,4.27c-4.94,8.16-10.14,16.18-14.68,24.56
		c-11.39,21.06-22.46,42.3-33.67,63.46c-0.45,0.85-0.98,1.67-1.48,2.5c-0.51-1.63-0.6-3.02-0.49-4.39c0.75-10,1.46-20,2.35-29.99
		c0.6-6.76,1.45-13.49,2.26-20.23c0.89-7.39,2.03-14.75,2.77-22.15c0.89-8.92-3.77-14.94-10.91-19.48
		c-1.95-1.24-3.68-0.88-5.03,0.85c-1.42,1.83-2.82,3.72-3.94,5.74c-9.73,17.54-19.82,34.9-28.96,52.75
		c-9.09,17.75-17.33,35.95-25.65,54.08c-2.59,5.64-4.35,11.8-2.77,18.09c0.78,3.11,2.29,6.23,4.19,8.82c2.02,2.76,4.41,2.2,6-0.85
		c0.61-1.17,1.12-2.4,1.59-3.64c10.58-27.51,24.02-53.64,38.61-79.21C347.49,60.98,348.34,59.82,349.13,58.62z M161.08,97.71
		c0.56-0.3,0.83-0.48,1.12-0.58c0.85-0.31,1.71-0.62,2.58-0.87c13.18-3.8,25.38-9.67,36.79-17.24c10.74-7.13,19.48-16.02,24.85-27.9
		c3.58-7.91,4.47-16.08,1.75-24.41c-3.28-10.04-8.86-18.05-19.84-20.71c-5.71-1.38-11.58-1.48-17.28-0.02
		c-9.69,2.48-19.29,5.35-28.96,7.89c-4.79,1.26-9.69,2.12-14.52,3.27c-3.5,0.83-3.94,1.95-2.1,5.06c2.25,3.79,5.55,6.32,9.72,7.75
		c0.9,0.31,1.79,0.67,2.97,1.11c-1.43,2.51-2.65,4.76-3.97,6.94c-14.09,23.38-26.85,47.44-36.95,72.83
		c-3,7.54-5.79,15.12-5.38,23.52c0.18,3.68,1.27,6.81,3.35,9.67c2.85,3.91,5.06,3.7,7.06-0.65c5.83-12.72,11.61-25.46,17.42-38.18
		c0.33-0.72,0.74-1.41,1.3-2.48c0.76,0.9,1.3,1.51,1.81,2.14c5.22,6.46,10.47,12.9,15.64,19.41c5.94,7.48,11.77,15.05,17.71,22.53
		c1.68,2.12,3.11,2.2,4.55-0.07c1.38-2.17,2.53-4.66,3.02-7.16c0.81-4.11-0.3-8.15-2.32-11.73c-3.05-5.41-6.31-10.72-9.78-15.87
		C168.38,107.16,164.73,102.62,161.08,97.71z M460.17,72.65c-0.21-0.17-0.43-0.35-0.64-0.52c0.54-1.08,1.05-2.17,1.63-3.23
		c5.5-9.93,11.1-19.82,16.5-29.81c3.89-7.19,6.29-14.86,5.24-23.12c-0.35-2.77-1.51-5.59-2.94-8.02c-1.86-3.16-3.95-3.19-6.31-0.32
		c-2.15,2.62-4.25,5.37-5.86,8.34c-10.94,20.08-22.06,40.07-32.49,60.41c-6.82,13.32-12.77,27.09-18.69,40.84
		c-2.86,6.64-4.45,13.79-2.84,21.09c0.63,2.84,1.79,5.69,3.32,8.16c1.65,2.66,4.37,2.29,5.88-0.44c0.76-1.38,1.38-2.83,2.05-4.25
		c6.17-13.11,12.33-26.22,18.51-39.33c0.37-0.78,0.81-1.52,1.37-2.56c0.73,0.97,1.26,1.59,1.69,2.28
		c4.69,7.53,9.47,15.02,14.01,22.64c3.94,6.62,7.52,13.46,11.43,20.11c2.06,3.49,4.52,3.51,6.98,0.25c2.2-2.92,3.32-6.3,3.46-9.93
		c0.26-6.84-2.06-13.05-5.21-18.93c-3.79-7.09-7.87-14.02-11.96-20.95c-1.01-1.72-0.93-2.8,0.67-3.97c2.75-2,5.42-4.13,8.14-6.18
		c20.39-15.3,39.87-31.63,56.95-50.62c4.09-4.55,7.25-9.8,8.84-15.69c0.85-3.15,0.98-6.74,0.44-9.97c-0.67-4.05-3.15-4.59-6.1-1.7
		c-2.79,2.73-5.39,5.66-8.07,8.5c-16.56,17.51-35.21,32.66-54.01,47.65C468.21,66.55,464.17,69.57,460.17,72.65z M24.19,107.68
		c0.24-3.39,0.41-6.78,0.76-10.16c0.23-2.21,0.64-4.42,1.16-6.59c7.48-31.25,26.27-54.14,53.06-71.01c2.97-1.87,6.38-3.3,9.78-4.17
		c4.44-1.13,7.9-0.04,6.98,5.65c-0.63,3.87-1.99,7.64-3.15,11.42c-1.81,5.91-4.02,11.72-5.49,17.71c-1.57,6.38,1.79,13.4,7.32,16.71
		c3.03,1.82,6.24,0.83,7.58-2.4c3.16-7.64,6.37-15.26,9.36-22.96c1.06-2.74,1.97-5.67,2.21-8.58c0.79-9.48-4.17-16.62-10.24-23.13
		c-3.72-3.99-8.23-6.51-13.82-7.18c-5.52-0.67-10.75,0.37-15.91,1.93c-10.25,3.09-18.73,9.24-26.64,16.15
		c-17.76,15.51-31.7,33.71-38.81,56.5c-4.36,13.95-5.85,28.06-0.72,42.15c3.89,10.7,10.29,19.31,21.53,23.32
		c8.01,2.86,16.22,3.35,24.51,1.54c18.78-4.08,31.03-15.77,37.87-33.28c1.84-4.7,1.66-9.83-1.11-14.4c-1.98-3.27-4.71-3.3-6.89-0.16
		c-1.23,1.77-2.19,3.72-3.41,5.5c-4.07,5.95-7.91,12.1-12.39,17.73c-5.15,6.47-11.25,12.03-19.22,15.02
		c-9.08,3.41-16.13,0.66-20.55-7.95c-0.38-0.74-0.71-1.5-1.03-2.26C24.61,119.29,24.3,113.52,24.19,107.68z M272.06,0.67
		c-0.31-0.11-0.61-0.22-0.92-0.32c-0.43,0.95-0.89,1.88-1.27,2.85c-6.52,16.55-13.02,33.1-19.54,49.65
		c-0.33,0.85-0.51,1.89-1.13,2.45c-0.68,0.63-1.77,0.81-2.68,1.19c-0.3-0.76-0.87-1.52-0.84-2.27c0.03-1.04,0.45-2.09,0.78-3.1
		c5.61-17.03,11.24-34.06,16.85-51.1c0.23-0.71,0.38-1.44,0.56-2.16c-0.22-0.07-0.43-0.13-0.65-0.2c-0.34,0.79-0.7,1.56-1.01,2.36
		c-2.9,7.57-5.78,15.14-8.68,22.71c-5.97,15.6-12.01,31.17-17.87,46.81c-0.91,2.43-0.6,5.11,1.04,7.36c1.12,1.54,2.3,3.06,3.58,4.48
		c9.78,10.86,8.29,25.95-0.66,35.97c-2.27,2.54-4.57,5.06-7.03,7.42c-5.61,5.38-4.57,16.23,0.44,20.99
		c4.17,3.97,8.96,4.85,14.25,4.27c6.01-0.66,11.89-7.48,11.9-13.48c0.01-4.82-0.15-9.64,0.03-14.45c0.23-6.12,2.24-11.67,6.25-16.39
		c4.8-5.65,11.22-7.99,18.33-8.95c4.6-0.62,8.31-2.24,10.1-7.13c8.28-22.5,16.73-44.94,25.1-67.41c0.4-1.07,0.58-2.22,0.86-3.33
		c-0.82,0.67-1.23,1.46-1.56,2.28c-4.82,11.62-9.62,23.24-14.45,34.85c-2.35,5.65-4.75,11.29-7.15,16.92c-0.5,1.17-1.22,2-2.7,1.3
		c-1.3-0.62-1.65-1.52-1.02-2.83c0.22-0.44,0.32-0.93,0.49-1.4c5.79-16.63,11.59-33.25,17.37-49.88c0.49-1.4,0.85-2.84,1.26-4.26
		c-0.21-0.08-0.43-0.15-0.64-0.23c-0.4,0.86-0.84,1.71-1.19,2.58c-3.32,8.29-6.63,16.59-9.95,24.89
		c-3.5,8.76-6.98,17.52-10.53,26.26c-0.33,0.82-1.06,1.83-1.81,2.06c-2.27,0.69-3.68-1.05-2.85-3.43
		c5.76-16.55,11.54-33.09,17.3-49.64c0.62-1.79,1.06-3.64,1.59-5.47c-0.2-0.07-0.39-0.14-0.59-0.21c-0.35,0.7-0.75,1.38-1.04,2.1
		c-1.54,3.75-3.05,7.51-4.56,11.27c-5.43,13.5-10.85,27.01-16.3,40.51c-0.86,2.12-2.87,2.76-4.1,1.15
		c-0.55-0.72-0.39-2.31-0.04-3.33c5.65-16.41,11.39-32.78,17.08-49.18c0.6-1.72,1-3.51,1.5-5.27c-0.22-0.08-0.45-0.16-0.67-0.24
		c-0.82,1.93-1.67,3.86-2.45,5.81c-6.46,16.03-12.9,32.08-19.37,48.11c-0.85,2.1-2.93,2.71-4.1,1.07c-0.54-0.75-0.36-2.33,0-3.37
		c5.97-17.26,12.03-34.49,18.06-51.73c0.3-0.87,0.54-1.76,0.8-2.64c-0.21-0.08-0.42-0.17-0.62-0.25c-0.44,0.84-0.94,1.64-1.3,2.51
		c-2.5,6.04-4.98,12.09-7.43,18.14c-4.46,11.04-8.88,22.1-13.4,33.12c-0.34,0.83-1.26,1.86-2.04,1.98c-2.05,0.31-3.04-1.19-2.3-3.31
		c6.1-17.56,12.23-35.12,18.34-52.68c0.29-0.83,0.46-1.7,0.69-2.56c-0.22-0.07-0.44-0.13-0.65-0.2c-0.59,1.24-1.26,2.45-1.77,3.71
		c-4.48,11.13-8.92,22.27-13.38,33.4c-2.31,5.76-4.66,11.5-6.9,17.29c-0.74,1.91-2.1,1.57-3.47,1.22c-1.56-0.4-1.41-1.63-1.13-2.81
		c0.15-0.64,0.43-1.25,0.65-1.87c5.94-17.1,11.88-34.2,17.81-51.3C271.59,2.45,271.81,1.55,272.06,0.67z"/>
	<path class="st1" d="M349.13,58.62c-0.79,1.2-1.64,2.36-2.35,3.61c-14.59,25.57-28.02,51.7-38.61,79.21
		c-0.48,1.23-0.98,2.47-1.59,3.64c-1.59,3.05-3.97,3.61-6,0.85c-1.9-2.59-3.41-5.71-4.19-8.82c-1.57-6.29,0.19-12.45,2.77-18.09
		c8.32-18.13,16.56-36.33,25.65-54.08c9.14-17.85,19.23-35.21,28.96-52.75c1.12-2.02,2.52-3.91,3.94-5.74
		c1.34-1.73,3.07-2.1,5.03-0.85c7.14,4.55,11.79,10.57,10.91,19.48c-0.74,7.4-1.88,14.76-2.77,22.15
		c-0.81,6.74-1.66,13.47-2.26,20.23c-0.89,9.99-1.6,19.99-2.35,29.99c-0.1,1.37-0.01,2.76,0.49,4.39c0.5-0.83,1.03-1.64,1.48-2.5
		c11.21-21.16,22.28-42.39,33.67-63.46c4.53-8.38,9.74-16.4,14.68-24.56c0.9-1.49,1.92-2.92,3.02-4.27
		c2.38-2.92,4.15-2.95,6.18,0.25c1.11,1.76,1.94,3.92,2.14,5.98c0.66,6.52,0.06,12.94-3.14,18.84c-5.06,9.32-10.41,18.5-15.29,27.91
		c-13.55,26.1-26.93,52.29-40.39,78.44c-1.14,2.21-2.23,4.45-3.54,6.55c-1.72,2.76-2.85,3.03-5.78,1.54
		c-6.82-3.47-10.55-9.08-11.52-16.63c-1.76-13.65-1.4-27.33-0.62-41.01c0.53-9.43,1.38-18.85,2.06-28.27
		c0.04-0.61-0.07-1.23-0.11-1.85C349.44,58.75,349.29,58.68,349.13,58.62z"/>
	<path class="st1" d="M161.08,97.71c3.66,4.91,7.3,9.44,10.54,14.25c3.47,5.15,6.73,10.46,9.78,15.87
		c2.02,3.58,3.14,7.62,2.32,11.73c-0.5,2.5-1.64,4.99-3.02,7.16c-1.44,2.27-2.87,2.18-4.55,0.07c-5.94-7.48-11.77-15.05-17.71-22.53
		c-5.17-6.51-10.42-12.94-15.64-19.41c-0.51-0.63-1.05-1.24-1.81-2.14c-0.56,1.07-0.97,1.75-1.3,2.48
		c-5.81,12.73-11.59,25.46-17.42,38.18c-1.99,4.35-4.2,4.57-7.06,0.65c-2.08-2.85-3.17-5.98-3.35-9.67
		c-0.41-8.4,2.38-15.98,5.38-23.52C127.35,85.44,140.1,61.38,154.2,38c1.32-2.19,2.54-4.44,3.97-6.94c-1.18-0.44-2.07-0.8-2.97-1.11
		c-4.17-1.43-7.46-3.95-9.72-7.75c-1.84-3.11-1.41-4.23,2.1-5.06c4.83-1.15,9.73-2.01,14.52-3.27c9.68-2.55,19.27-5.41,28.96-7.89
		c5.7-1.46,11.56-1.37,17.28,0.02c10.98,2.66,16.56,10.67,19.84,20.71c2.72,8.34,1.83,16.5-1.75,24.41
		c-5.37,11.88-14.11,20.77-24.85,27.9c-11.41,7.57-23.61,13.44-36.79,17.24c-0.87,0.25-1.73,0.57-2.58,0.87
		C161.9,97.24,161.64,97.42,161.08,97.71z M151.93,82.36c0.99-0.12,1.31-0.12,1.61-0.19c14.1-3.64,27.19-9.47,38.99-18.05
		c7.18-5.23,13.53-11.26,18.03-19.01c2.65-4.56,4.52-9.38,4.32-14.79c-0.27-6.94-4.66-10.63-11.41-8.9
		c-8.63,2.21-17.13,4.93-25.65,7.55c-0.68,0.21-1.45,1.28-1.55,2.03c-0.81,6.24-3,12.02-5.85,17.55
		c-3.53,6.84-7.23,13.59-10.91,20.35C157.13,73.23,154.66,77.52,151.93,82.36z"/>
	<path class="st1" d="M460.17,72.65c4-3.08,8.05-6.1,11.99-9.24c18.8-14.98,37.45-30.14,54.01-47.65c2.69-2.84,5.28-5.77,8.07-8.5
		c2.95-2.88,5.43-2.34,6.1,1.7c0.54,3.23,0.41,6.81-0.44,9.97c-1.59,5.88-4.75,11.13-8.84,15.69c-17.08,19-36.56,35.32-56.95,50.62
		c-2.73,2.04-5.39,4.17-8.14,6.18c-1.6,1.16-1.69,2.25-0.67,3.97c4.09,6.92,8.17,13.86,11.96,20.95c3.14,5.87,5.46,12.09,5.21,18.93
		c-0.14,3.64-1.25,7.01-3.46,9.93c-2.45,3.25-4.92,3.24-6.98-0.25c-3.91-6.64-7.48-13.48-11.43-20.11
		c-4.54-7.63-9.32-15.11-14.01-22.64c-0.43-0.69-0.96-1.3-1.69-2.28c-0.56,1.03-1,1.78-1.37,2.56
		c-6.18,13.11-12.34,26.22-18.51,39.33c-0.67,1.42-1.29,2.88-2.05,4.25c-1.51,2.73-4.23,3.1-5.88,0.44
		c-1.53-2.47-2.69-5.32-3.32-8.16c-1.62-7.31-0.02-14.46,2.84-21.09c5.92-13.75,11.87-27.53,18.69-40.84
		c10.42-20.35,21.54-40.34,32.49-60.41c1.62-2.97,3.71-5.71,5.86-8.34c2.36-2.88,4.45-2.84,6.31,0.32c1.43,2.43,2.59,5.25,2.94,8.02
		c1.05,8.26-1.35,15.93-5.24,23.12c-5.4,9.99-11,19.87-16.5,29.81c-0.58,1.05-1.09,2.15-1.63,3.23
		C459.74,72.3,459.95,72.48,460.17,72.65z"/>
	<path class="st1" d="M24.19,107.68c0.11,5.84,0.42,11.61,2.73,17.08c0.32,0.76,0.65,1.52,1.03,2.26
		c4.42,8.6,11.47,11.36,20.55,7.95c7.97-2.99,14.07-8.55,19.22-15.02c4.48-5.63,8.32-11.78,12.39-17.73
		c1.22-1.78,2.18-3.73,3.41-5.5c2.18-3.13,4.9-3.11,6.89,0.16c2.77,4.57,2.95,9.71,1.11,14.4c-6.85,17.51-19.09,29.2-37.87,33.28
		c-8.29,1.8-16.5,1.32-24.51-1.54C17.89,139.01,11.5,130.4,7.6,119.71c-5.13-14.09-3.64-28.2,0.72-42.15
		c7.12-22.79,21.05-40.99,38.81-56.5c7.91-6.91,16.39-13.06,26.64-16.15c5.16-1.55,10.4-2.59,15.91-1.93
		c5.59,0.68,10.11,3.19,13.82,7.18c6.07,6.51,11.03,13.65,10.24,23.13c-0.24,2.91-1.15,5.84-2.21,8.58
		c-2.99,7.7-6.2,15.32-9.36,22.96c-1.34,3.23-4.55,4.22-7.58,2.4c-5.52-3.31-8.89-10.33-7.32-16.71c1.47-5.99,3.68-11.8,5.49-17.71
		c1.15-3.78,2.52-7.54,3.15-11.42c0.92-5.69-2.54-6.78-6.98-5.65c-3.4,0.87-6.81,2.3-9.78,4.17C52.38,36.79,33.59,59.68,26.11,90.94
		c-0.52,2.17-0.92,4.38-1.16,6.59C24.6,100.9,24.44,104.3,24.19,107.68z"/>
	<path class="st1" d="M272.06,0.67c-0.25,0.88-0.47,1.78-0.77,2.64c-5.93,17.1-11.87,34.2-17.81,51.3
		c-0.22,0.62-0.49,1.23-0.65,1.87c-0.28,1.18-0.43,2.41,1.13,2.81c1.37,0.36,2.73,0.69,3.47-1.22c2.24-5.78,4.6-11.53,6.9-17.29
		c4.46-11.13,8.91-22.27,13.38-33.4c0.51-1.27,1.17-2.48,1.77-3.71c0.22,0.07,0.44,0.13,0.65,0.2c-0.23,0.85-0.4,1.72-0.69,2.56
		c-6.11,17.56-12.24,35.11-18.34,52.68c-0.74,2.12,0.25,3.62,2.3,3.31c0.78-0.12,1.7-1.15,2.04-1.98
		c4.52-11.02,8.93-22.08,13.4-33.12c2.45-6.06,4.94-12.1,7.43-18.14c0.36-0.87,0.86-1.68,1.3-2.51c0.21,0.08,0.42,0.17,0.62,0.25
		c-0.27,0.88-0.5,1.77-0.8,2.64c-6.03,17.24-12.08,34.47-18.06,51.73c-0.36,1.03-0.54,2.61,0,3.37c1.17,1.64,3.25,1.04,4.1-1.07
		c6.47-16.03,12.91-32.07,19.37-48.11c0.78-1.95,1.63-3.87,2.45-5.81c0.22,0.08,0.45,0.16,0.67,0.24c-0.49,1.76-0.9,3.55-1.5,5.27
		c-5.69,16.39-11.43,32.77-17.08,49.18c-0.35,1.02-0.51,2.62,0.04,3.33c1.23,1.6,3.24,0.97,4.1-1.15c5.45-13.5,10.87-27,16.3-40.51
		c1.51-3.76,3.03-7.52,4.56-11.27c0.3-0.72,0.69-1.4,1.04-2.1c0.2,0.07,0.39,0.14,0.59,0.21c-0.53,1.82-0.97,3.68-1.59,5.47
		c-5.75,16.55-11.54,33.09-17.3,49.64c-0.83,2.38,0.58,4.12,2.85,3.43c0.75-0.23,1.48-1.24,1.81-2.06
		c3.56-8.73,7.04-17.5,10.53-26.26c3.31-8.3,6.62-16.6,9.95-24.89c0.35-0.88,0.79-1.72,1.19-2.58c0.21,0.08,0.43,0.15,0.64,0.23
		c-0.42,1.42-0.78,2.86-1.26,4.26c-5.78,16.63-11.58,33.26-17.37,49.88c-0.16,0.47-0.27,0.96-0.49,1.4
		c-0.64,1.31-0.28,2.21,1.02,2.83c1.47,0.7,2.2-0.12,2.7-1.3c2.4-5.63,4.8-11.27,7.15-16.92c4.83-11.61,9.63-23.24,14.45-34.85
		c0.34-0.82,0.75-1.6,1.56-2.28c-0.28,1.11-0.46,2.26-0.86,3.33c-8.37,22.47-16.82,44.91-25.1,67.41c-1.8,4.89-5.51,6.51-10.1,7.13
		c-7.11,0.96-13.53,3.3-18.33,8.95c-4.01,4.73-6.02,10.27-6.25,16.39c-0.18,4.81-0.02,9.64-0.03,14.45
		c-0.01,6.01-5.89,12.83-11.9,13.48c-5.28,0.58-10.08-0.31-14.25-4.27c-5-4.76-6.05-15.61-0.44-20.99c2.46-2.36,4.76-4.88,7.03-7.42
		c8.96-10.02,10.44-25.11,0.66-35.97c-1.28-1.42-2.45-2.93-3.58-4.48c-1.63-2.25-1.95-4.93-1.04-7.36
		c5.86-15.64,11.9-31.21,17.87-46.81c2.9-7.57,5.78-15.14,8.68-22.71c0.31-0.8,0.67-1.58,1.01-2.36c0.22,0.07,0.43,0.13,0.65,0.2
		c-0.19,0.72-0.33,1.46-0.56,2.16c-5.61,17.03-11.24,34.06-16.85,51.1c-0.33,1.02-0.75,2.06-0.78,3.1
		c-0.02,0.75,0.54,1.52,0.84,2.27c0.91-0.38,2-0.56,2.68-1.19c0.61-0.56,0.79-1.61,1.13-2.45c6.51-16.55,13.02-33.1,19.54-49.65
		c0.38-0.97,0.85-1.9,1.27-2.85C271.45,0.45,271.75,0.56,272.06,0.67z M244.14,139.31c2.48-0.01,4.56-1.92,4.64-4.23
		c0.08-2.6-2.27-5.01-4.83-4.95c-2.64,0.06-4.28,1.88-4.26,4.71C239.72,137.63,241.4,139.32,244.14,139.31z"/>
	<path class="st0" d="M151.93,82.36c2.72-4.84,5.19-9.13,7.56-13.47c3.68-6.76,7.38-13.51,10.91-20.35
		c2.85-5.53,5.05-11.31,5.85-17.55c0.1-0.75,0.87-1.82,1.55-2.03c8.52-2.62,17.02-5.34,25.65-7.55c6.76-1.73,11.15,1.96,11.41,8.9
		c0.21,5.41-1.66,10.23-4.32,14.79c-4.5,7.75-10.85,13.79-18.03,19.01c-11.8,8.59-24.89,14.41-38.99,18.05
		C153.24,82.24,152.92,82.24,151.93,82.36z"/>
	<path class="st0" d="M244.14,139.31c-2.74,0.01-4.42-1.68-4.45-4.47c-0.03-2.84,1.61-4.65,4.26-4.71c2.56-0.06,4.91,2.35,4.83,4.95
		C248.7,137.39,246.62,139.29,244.14,139.31z"/>
</g>
</svg>
