<svg xmlns="http://www.w3.org/2000/svg" viewBox="0 0 537.26 152.97"><defs><style>.cls-1{fill:#fff;}</style></defs><g id="Calque_1" data-name="Calque 1"><path class="cls-1" d="M737.39,706.92c-3.75,5-6.61,10.38-9.55,15.75-11.7,21.38-22.49,43.18-31.17,66-.3.77-.64,1.53-1,2.28-.84,1.8-1.49,4-3.84,4.15s-3.84-1.8-5-3.64c-3.41-5.38-3.77-11.21-2.39-17.28,1.9-8.34,5.59-16,9.15-23.66a1026.9,1026.9,0,0,1,48.77-92.57,23.16,23.16,0,0,1,3.74-5,3.41,3.41,0,0,1,4.54-.61c8.08,4.87,12.66,11.46,11.49,21.18-1.89,15.65-4.45,31.21-5.61,46.94-.66,9-1.68,18-1.74,27.37a4.94,4.94,0,0,0,1.78-2.53c14.05-28.29,28.85-56.17,45.38-83.11a49.26,49.26,0,0,1,6.14-8.76c2.24-2.33,3.66-2.23,5.71.33,3.05,3.82,2.86,8.36,2.77,12.85-.15,7.69-3.75,14.22-7.41,20.64-18.5,32.42-36,65.33-51.89,99.12a50.25,50.25,0,0,1-3.24,5.89c-1.88,2.92-3.46,3.35-6.5,1.68-5.56-3.05-9.53-7.38-10.89-13.82a96.17,96.17,0,0,1-1.82-17.56A417.13,417.13,0,0,1,737,712.86C737.21,710.89,737.27,708.9,737.39,706.92Z" transform="translate(-392.07 -644.8)"/><path class="cls-1" d="M618.12,683.78c.06,9.16-3.77,16.9-8.76,24.21-7.73,11.33-18.78,18.67-30.52,25.14A128.53,128.53,0,0,1,552.34,744c-2.89.84-2.93.92-1,3.33,6.26,8,12.38,16.07,17.26,25,2.7,4.93,4.8,10.09,3.51,15.94a12.43,12.43,0,0,1-2.67,5.55c-2.32,2.7-3.51,2.74-5.76,0s-4.62-5.68-6.86-8.57c-8.38-10.85-16.64-21.8-25.5-32.28-2.19-2.59-2.15-2.6-3.61.33-5.6,11.23-10.53,22.76-15.56,34.25-.7,1.6-1.43,3.19-2.24,4.73-1.27,2.43-2.91,2.82-5,1a14.51,14.51,0,0,1-5-9.2c-1.23-8.74,1.5-16.77,4.61-24.69,10.29-26.21,23.45-51,38-75.07.73-1.21,1.41-2.45,2.16-3.64,1-1.66.82-2.6-1.24-3.22A16.74,16.74,0,0,1,533,669c-1.42-2.71-1-4.33,2-4.82,15.8-2.66,30.65-9.08,46.41-11.75,10.34-1.76,20.25-.48,27.77,7.88A35.08,35.08,0,0,1,618.12,683.78Zm-15.39-5c0-7.7-3.19-10.61-10.72-10a19,19,0,0,0-2.7.43c-7.8,1.8-15.3,4.57-22.9,7-.91.29-1.7.63-1.81,1.77-.94,9.52-5.49,17.7-9.89,25.89-4.09,7.6-8.42,15.09-12.62,22.64-.34.62-1.09,1.33-.57,2s1.39.13,2.08-.06A113.53,113.53,0,0,0,563,721.35c12.38-5.9,23.58-13.39,32.11-24.34C599.33,691.61,602.29,685.64,602.73,678.82Z" transform="translate(-392.07 -644.8)"/><path class="cls-1" d="M848.5,718.41c4.57-2.31,8.37-5.52,12.26-8.62,17.62-14,35.1-28.28,50.84-44.48,2.83-2.93,5.56-6,8.34-8.93a16.08,16.08,0,0,1,1.93-1.94c1.34-1,2.54-2.83,4.52-1.86s2.64,2.93,2.82,5a22.6,22.6,0,0,1-1.94,11.9,58.13,58.13,0,0,1-10.06,15.07c-17.46,18.76-37.11,35-57.63,50.27-1.6,1.19-3.16,2.46-4.79,3.6-1.82,1.26-2.13,2.46-.83,4.51a236.14,236.14,0,0,1,12.2,21.44c2.85,5.78,5,11.77,4.65,18.39a16.54,16.54,0,0,1-3.74,10.1c-2.59,3-5.15,2.93-7.15-.48-4.43-7.52-8.6-15.18-13-22.73-4-6.84-8.15-13.53-12.51-20.12-1.11-1.68-1.62-1.63-2.52.15q-10.26,20.25-19.26,41.07a26.63,26.63,0,0,1-1.34,2.67c-1.74,3-4.09,3.25-6.36.57-2.83-3.33-3.63-7.4-3.87-11.61-.42-7.21,1.54-14,4.12-20.6,5.12-13.18,11.48-25.8,17.81-38.43,10.46-20.87,21-41.73,33.32-61.59a42.16,42.16,0,0,1,5.42-7.44c2.46-2.51,4.57-2.37,6.58.52,3.73,5.36,3.84,11.32,2.75,17.47-1.41,7.92-5.23,14.83-9.11,21.72q-6.3,11.18-12.55,22.4C849.08,717.06,848.81,717.74,848.5,718.41Z" transform="translate(-392.07 -644.8)"/><path class="cls-1" d="M412.72,756.5c.14,5.45.53,12.56,4.41,19,4.22,7,10,9.31,17.84,6.91s13.71-7.67,19.08-13.56a114.63,114.63,0,0,0,14.37-20.32c.62-1.08,1.25-2.16,1.91-3.21,1.21-1.89,2.27-4.13,5-3.8s3.83,2.72,4.65,5c1.88,5.23,1.12,10.39-1.16,15.26-9,19.32-27,33-50.82,31.15-17.52-1.38-28.65-11.22-34-30.21-3.64-12.9-1.81-25.69,2.13-38.24,6.77-21.53,19.76-39,36.17-54.08a105.74,105.74,0,0,1,17.29-13.06,51.88,51.88,0,0,1,21.51-7.49c7.79-.81,14.66,1.08,20.25,6.88S501.5,669,502.33,677.4a21.1,21.1,0,0,1-1.48,9.51c-3.19,8.56-7.49,16.66-10.46,25.33-1.23,3.59-4.71,4.38-8,2.35-5.78-3.57-8.52-10.34-7.3-17.81.93-5.71,3.26-11,5.27-16.32a60.13,60.13,0,0,0,3.23-10.2,15.91,15.91,0,0,0,.25-3.71,3.55,3.55,0,0,0-3.67-3.62,14.47,14.47,0,0,0-6.54,1.38c-8.22,3.32-15.21,8.55-21.81,14.31-14.29,12.47-25.8,27-32.8,44.83A89.45,89.45,0,0,0,412.72,756.5Z" transform="translate(-392.07 -644.8)"/><path class="cls-1" d="M616.58,782.12a13.74,13.74,0,0,1,3.44-9.85c2.88-3.34,6.29-6.18,8.94-9.73,8.09-10.88,7.78-23.5-.89-33.88q-1.76-2.1-3.41-4.29a8.08,8.08,0,0,1-1-8.07c9.05-22.69,17.15-45.73,26.07-68.46.46-1.17.5-3.46,2.19-3,1,.29-.11,2.37-.5,3.55-5.33,16.17-10.73,32.32-16.09,48.48-.47,1.41-.89,2.85-1.22,4.31-.19.81-.24,1.75.76,2.12a1.76,1.76,0,0,0,2.26-1.06,19.68,19.68,0,0,0,.8-1.82q9.9-25.16,19.83-50.31c.39-1,.61-2.93,1.86-2.51,1.65.56.36,2.18,0,3.2q-8.7,25.2-17.51,50.36c-.3.86-.54,1.74-.84,2.6a1.71,1.71,0,0,0,1.26,2.5,1.89,1.89,0,0,0,2.66-1.08c.36-.84.71-1.68,1-2.53q9.21-23.16,18.42-46.31c.59-1.46,1.27-2.89,2-4.31.27-.56.49-1.52,1.3-1.22,1,.37.44,1.28.22,1.94-.88,2.68-1.8,5.35-2.73,8L649.93,705c-.14.39-.25.8-.41,1.18-.58,1.36-.4,2.4,1.11,3s2.14-.34,2.61-1.48c1.69-4.07,3.38-8.13,5-12.22q7.47-18.62,14.92-37.24a18.69,18.69,0,0,1,1.12-2.5c.43-.73.59-2.2,1.63-1.83s.23,1.57,0,2.38-.51,1.58-.78,2.37q-8.73,24.92-17.44,49.85c-.29.84-.88,1.7-.42,2.62a2.37,2.37,0,0,0,2.06,1.23c1.17.07,1.51-.89,1.86-1.72,2.47-6,5-12,7.38-18,4.52-11.25,9-22.53,13.5-33.78.35-.86.52-2.47,1.64-2.1s.26,1.76,0,2.57c-5.2,16.47-11.45,32.59-16.93,49-.42,1.26-.87,2.51-1.29,3.77s-.6,2.45,1,3.08,2.26-.4,2.76-1.64c2.45-6,4.94-12,7.35-18,4.17-10.41,8.29-20.83,12.44-31.25.37-.93.69-1.88,1.14-2.77s.47-2.18,1.63-1.75c1,.35.25,1.52,0,2.22-2.44,7.32-4.9,14.64-7.44,21.94-3.55,10.19-7.18,20.36-10.75,30.55-.46,1.33-1.52,2.88.71,3.73s2.78-.82,3.37-2.29q7.95-19.89,15.85-39.82c1.53-3.86,3.07-7.72,4.68-11.55.31-.74.41-2.24,1.57-1.78s.26,1.67,0,2.45q-5.49,16-11.06,32-3.64,10.47-7.37,20.91c-.52,1.45-.65,2.71,1.19,3.08,1.48.3,1.7-1.07,2.09-2q6.71-16,13.36-32L706,668.39c.29-.69.6-1.37.94-2,.19-.35.41-.83.92-.67.68.21.45.8.31,1.24-.75,2.38-1.48,4.76-2.33,7.1-7.39,20.47-15.18,40.79-22.79,61.18-2,5.48-5.41,8.38-11.2,9.07-7.68.92-14.52,3.72-19.21,10.29a27.31,27.31,0,0,0-5.09,15.37c-.13,4.4,0,8.81,0,13.21a14.92,14.92,0,0,1-15.12,14.61A15.7,15.7,0,0,1,618.5,790C617,787.56,616.69,784.86,616.58,782.12Zm15.67-4.53a4.27,4.27,0,0,0-4.21,4.27,4.22,4.22,0,0,0,4.1,4.37,3.92,3.92,0,0,0,4.19-3.91A4.52,4.52,0,0,0,632.25,777.59Z" transform="translate(-392.07 -644.8)"/></g></svg>