<svg id="Calque_1" data-name="Calque 1" xmlns="http://www.w3.org/2000/svg" viewBox="0 0 536.3 152.58"><defs><style>.cls-1{fill:#464e54;}.cls-2{fill:#fff;}</style></defs><path class="cls-1" d="M344.78,61c-.79,1.2-1.64,2.36-2.35,3.61-14.59,25.57-28,51.7-38.61,79.21a34.56,34.56,0,0,1-1.59,3.64c-1.59,3-4,3.61-6,.85a26.07,26.07,0,0,1-4.19-8.82c-1.57-6.29.19-12.45,2.77-18.09,8.32-18.13,16.56-36.33,25.65-54.08s19.23-35.21,29-52.75a45.93,45.93,0,0,1,3.94-5.74,3.43,3.43,0,0,1,4.72-1.05,2.83,2.83,0,0,1,.28.2c7.14,4.55,11.79,10.57,10.91,19.48-.74,7.4-1.88,14.76-2.77,22.15-.81,6.74-1.66,13.47-2.26,20.23-.89,10-1.6,20-2.35,30a11.65,11.65,0,0,0,.49,4.39c.5-.83,1-1.64,1.48-2.5,11.2-21.17,22.27-42.35,33.66-63.47,4.53-8.38,9.74-16.4,14.68-24.56a37.23,37.23,0,0,1,3-4.27c2.38-2.92,4.15-2.95,6.18.25a14.16,14.16,0,0,1,2.14,6c.66,6.52.06,12.94-3.14,18.84C415.36,43.82,410,53,405.13,62.41c-13.55,26.1-26.93,52.29-40.39,78.44-1.14,2.21-2.23,4.45-3.54,6.55-1.72,2.76-2.85,3-5.78,1.54-6.82-3.47-10.55-9.08-11.52-16.63-1.76-13.65-1.4-27.33-.62-41,.53-9.43,1.38-18.85,2.06-28.27a14.25,14.25,0,0,0-.11-1.85A3.1,3.1,0,0,0,344.78,61Z" transform="translate(-0.02)"/><path class="cls-1" d="M156.73,100.07c3.66,4.91,7.3,9.44,10.54,14.25,3.47,5.15,6.73,10.46,9.78,15.87a17,17,0,0,1,2.32,11.73,21.72,21.72,0,0,1-3,7.16c-1.44,2.27-2.87,2.18-4.55.07-5.94-7.48-11.77-15-17.71-22.53-5.17-6.51-10.42-12.94-15.64-19.41-.51-.63-1.05-1.24-1.81-2.14-.56,1.07-1,1.75-1.3,2.48l-17.42,38.18c-2,4.35-4.2,4.57-7.06.65a17.22,17.22,0,0,1-3.35-9.67c-.41-8.4,2.38-16,5.38-23.52,10.11-25.39,22.86-49.45,37-72.83,1.32-2.19,2.54-4.44,4-6.94-1.18-.44-2.07-.8-3-1.11a17.49,17.49,0,0,1-9.72-7.75c-1.84-3.11-1.41-4.23,2.1-5.06,4.83-1.15,9.73-2,14.52-3.27,9.68-2.55,19.27-5.41,29-7.89a35.58,35.58,0,0,1,17.28,0c11,2.66,16.56,10.67,19.84,20.71,2.72,8.34,1.83,16.5-1.75,24.41-5.47,11.9-14.21,20.79-25,27.9A133,133,0,0,1,160.44,98.6c-.87.25-1.73.57-2.58.87A12.21,12.21,0,0,0,156.73,100.07Zm-9.15-15.35c1-.12,1.31-.12,1.61-.19a113.87,113.87,0,0,0,39-18c7.18-5.23,13.53-11.26,18-19,2.65-4.56,4.52-9.38,4.32-14.79-.27-6.94-4.66-10.63-11.41-8.9-8.63,2.21-17.13,4.93-25.65,7.55a2.87,2.87,0,0,0-1.55,2,53.14,53.14,0,0,1-5.85,17.55c-3.53,6.84-7.23,13.59-10.91,20.35-2.36,4.3-4.83,8.59-7.56,13.43Z" transform="translate(-0.02)"/><path class="cls-1" d="M455.82,75c4-3.08,8.05-6.1,12-9.24,18.8-15,37.45-30.14,54-47.65,2.69-2.84,5.28-5.77,8.07-8.5,3-2.88,5.43-2.34,6.1,1.7a24.27,24.27,0,0,1-.44,10A38.67,38.67,0,0,1,526.71,37c-17.08,19-36.56,35.32-57,50.62-2.73,2-5.39,4.17-8.14,6.18-1.6,1.16-1.69,2.25-.67,4,4.09,6.92,8.17,13.86,12,21,3.14,5.87,5.46,12.09,5.21,18.93a17.21,17.21,0,0,1-3.51,9.82c-2.45,3.25-4.92,3.24-7-.25-3.91-6.64-7.48-13.48-11.43-20.11-4.54-7.63-9.32-15.11-14-22.64-.43-.69-1-1.3-1.69-2.28-.56,1-1,1.78-1.37,2.56q-9.27,19.66-18.51,39.33c-.67,1.42-1.29,2.88-2,4.25-1.51,2.73-4.23,3.1-5.88.44a26.87,26.87,0,0,1-3.32-8.16c-1.62-7.31,0-14.46,2.84-21.09,5.92-13.75,11.87-27.53,18.69-40.84,10.39-20.35,21.51-40.34,32.46-60.41A54.88,54.88,0,0,1,469.3,10c2.35-2.88,4.45-2.84,6.35.34a21.72,21.72,0,0,1,2.94,8c1.05,8.26-1.35,15.93-5.24,23.12-5.4,10-11,19.87-16.5,29.81-.58,1-1.09,2.15-1.63,3.23C455.39,74.66,455.65,74.84,455.82,75Z" transform="translate(-0.02)"/><path class="cls-1" d="M19.84,110c.11,5.84.42,11.61,2.73,17.08.32.76.65,1.52,1,2.26,4.42,8.6,11.47,11.36,20.55,8,8-3,14.07-8.55,19.22-15,4.48-5.63,8.32-11.78,12.39-17.73,1.22-1.78,2.18-3.73,3.41-5.5C81.32,96,84,96,86,99.31a16,16,0,0,1,1.11,14.4c-6.85,17.51-19.09,29.2-37.87,33.28a43.93,43.93,0,0,1-24.48-1.63c-11.25-4-17.64-12.6-21.54-23.29C-1.88,108-.35,93.87,4,79.92c7.12-22.79,21.05-41,38.81-56.5,7.87-6.91,16.39-13.06,26.64-16.15,5.16-1.55,10.4-2.59,15.91-1.91a22,22,0,0,1,13.82,7.18c6.07,6.51,11,13.65,10.24,23.13a31.43,31.43,0,0,1-2.21,8.58c-3,7.7-6.2,15.32-9.36,23-1.34,3.23-4.55,4.22-7.58,2.4-5.52-3.31-8.89-10.33-7.32-16.71,1.47-6,3.68-11.8,5.49-17.71a88.55,88.55,0,0,0,3.15-11.42c.92-5.69-2.54-6.78-7-5.65a34.94,34.94,0,0,0-9.78,4.17c-26.77,16.88-45.56,39.77-53,71a53.85,53.85,0,0,0-1.13,6.56C20.25,103.26,20.09,106.66,19.84,110Z" transform="translate(-0.02)"/><path class="cls-1" d="M267.71,3c-.25.88-.47,1.78-.77,2.64Q258,31.37,249.13,57c-.22.62-.49,1.23-.65,1.87-.28,1.18-.43,2.41,1.13,2.81,1.37.36,2.73.69,3.47-1.22,2.24-5.78,4.6-11.53,6.9-17.29l13.38-33.4c.51-1.27,1.17-2.48,1.77-3.71l.65.2c-.23.85-.4,1.72-.69,2.56L256.75,61.47c-.74,2.12.25,3.62,2.3,3.31a3.46,3.46,0,0,0,2-2c4.52-11,8.93-22.08,13.4-33.12q3.68-9.09,7.43-18.14c.36-.87.86-1.68,1.3-2.51l.62.25c-.27.88-.5,1.77-.8,2.64q-9,25.86-18.06,51.73c-.36,1-.54,2.61,0,3.37,1.17,1.64,3.25,1,4.1-1.07q9.7-24,19.37-48.11c.78-2,1.63-3.87,2.45-5.81l.67.24c-.49,1.76-.9,3.55-1.5,5.27-5.65,16.41-11.38,32.84-17,49.2-.35,1-.51,2.62,0,3.33,1.23,1.6,3.24,1,4.1-1.15q8.18-20.25,16.3-40.51,2.26-5.64,4.56-11.27c.3-.72.69-1.4,1-2.1l.59.21c-.53,1.82-1,3.68-1.59,5.47q-8.54,24.83-17.22,49.66c-.83,2.38.58,4.12,2.85,3.43a3.7,3.7,0,0,0,1.81-2.06c3.56-8.73,7-17.5,10.53-26.26q5-12.45,10-24.89c.35-.88.79-1.72,1.19-2.58l.64.23c-.42,1.42-.78,2.86-1.26,4.26q-8.72,24.93-17.42,49.87a11.61,11.61,0,0,1-.49,1.4,1.85,1.85,0,0,0,.47,2.57,1.74,1.74,0,0,0,.53.26c1.47.7,2.2-.12,2.7-1.3,2.4-5.63,4.8-11.27,7.15-16.92Q306.65,41,313.9,23.51a5.61,5.61,0,0,1,1.56-2.28,31.67,31.67,0,0,1-.81,3.33C306.28,47,297.83,69.47,289.55,92c-1.8,4.89-5.51,6.51-10.1,7.13-7.11,1-13.53,3.3-18.33,9a26.23,26.23,0,0,0-6.25,16.39c-.18,4.81,0,9.64,0,14.45,0,6-5.89,12.83-11.9,13.48-5.28.58-10.08-.31-14.25-4.27-5-4.76-6.05-15.61-.44-21,2.46-2.36,4.76-4.88,7-7.42,9-10,10.44-25.11.66-36a57.1,57.1,0,0,1-3.58-4.48,7.71,7.71,0,0,1-1-7.36c5.86-15.64,11.9-31.21,17.87-46.81q4.26-11.35,8.59-22.72c.31-.8.67-1.58,1-2.36l.65.2c-.19.72-.33,1.46-.56,2.16q-8.42,25.55-16.85,51.1a11.86,11.86,0,0,0-.78,3.1,6.62,6.62,0,0,0,.84,2.27,9.08,9.08,0,0,0,2.68-1.19,6.76,6.76,0,0,0,1.13-2.45q9.78-24.82,19.55-49.65c.38-1,.85-1.9,1.27-2.85ZM239.79,141.67a4.57,4.57,0,0,0,4.64-4.23,5,5,0,0,0-4.83-5c-2.64.06-4.28,1.88-4.26,4.71a4.13,4.13,0,0,0,3.71,4.51A3.65,3.65,0,0,0,239.79,141.67Z" transform="translate(-0.02)"/><path class="cls-2" d="M239.79,141.67a4.13,4.13,0,0,1-4.45-3.78,4,4,0,0,1,0-.69c0-2.84,1.61-4.65,4.26-4.71a5,5,0,0,1,4.83,5A4.59,4.59,0,0,1,239.79,141.67Z" transform="translate(-0.02)"/></svg>