<svg id="Calque_1" data-name="Calque 1" xmlns="http://www.w3.org/2000/svg" viewBox="0 0 799.58 779.84"><defs><style>.cls-1{fill:#fff;}</style></defs><path class="cls-1" d="M720.6,428.25c-220.77,0-399.79,179-399.79,399.79,0,176.64,114.55,326.5,273.4,379.36,20,3.7,27.32-8.67,27.32-19.23,0-9.53-.37-41-.55-74.43-111.22,24.18-134.69-47.17-134.69-47.17-18.18-46.21-44.39-58.5-44.39-58.5-36.27-24.81,2.74-24.3,2.74-24.3,40.14,2.82,61.28,41.19,61.28,41.19,35.66,61.12,93.53,43.45,116.34,33.24,3.59-25.84,14-43.48,25.38-53.46-88.8-10.11-182.14-44.39-182.14-197.58,0-43.65,15.61-79.31,41.19-107.31-4.15-10.07-17.84-50.73,3.87-105.8,0,0,33.57-10.75,110,41a379.29,379.29,0,0,1,200.22,0c76.31-51.73,109.84-41,109.84-41,21.76,55.07,8.07,95.73,3.92,105.8,25.63,28,41.14,63.66,41.14,107.31,0,153.55-93.52,187.36-182.55,197.26,14.34,12.41,27.12,36.74,27.12,74,0,53.49-.46,96.54-.46,109.71,0,10.64,7.19,23.11,27.46,19.18C1006,1154.43,1120.39,1004.62,1120.39,828,1120.39,607.24,941.39,428.25,720.6,428.25Z" transform="translate(-320.81 -428.25)"/></svg>