<svg xmlns="http://www.w3.org/2000/svg" viewBox="0 0 510.9 511"><defs><style>.cls-1{fill:#fff;}</style></defs><g id="Calque_2" data-name="Calque 2"><g id="Calque_1" data-name="Calque 1"><path class="cls-1" d="M924.53,606c-1.2-27.16-5.59-45.82-11.88-62a130.86,130.86,0,0,0-74.77-74.76c-16.27-6.29-34.84-10.68-62-11.88-27.35-1.3-36-1.6-105.42-1.6s-78.06.3-105.31,1.5-45.82,5.59-62,11.87a130.89,130.89,0,0,0-74.77,74.78c-6.29,16.27-10.68,34.83-11.88,62-1.29,27.36-1.6,36-1.6,105.42s.31,78.06,1.5,105.31,5.59,45.82,11.88,62a130.86,130.86,0,0,0,74.77,74.76c16.27,6.29,34.84,10.68,62,11.88s35.94,1.5,105.32,1.5,78.06-.3,105.31-1.5,45.82-5.59,62-11.88a130.71,130.71,0,0,0,74.77-74.76c6.29-16.28,10.68-34.84,11.88-62s1.5-35.93,1.5-105.31S925.72,633.22,924.53,606Zm-46,208.63c-1.1,24.95-5.29,38.43-8.78,47.41a84.78,84.78,0,0,1-48.52,48.52c-9,3.49-22.56,7.69-47.42,8.78-26.95,1.2-35,1.5-103.21,1.5s-76.37-.3-103.22-1.5c-25-1.09-38.44-5.29-47.42-8.78a78.56,78.56,0,0,1-29.35-19.07,79.57,79.57,0,0,1-19.07-29.34c-3.49-9-7.68-22.57-8.78-47.42-1.2-27-1.49-35-1.49-103.22s.29-76.37,1.49-103.22c1.1-25,5.29-38.43,8.78-47.41a77.8,77.8,0,0,1,19.17-29.36A79.46,79.46,0,0,1,520,512.43c9-3.49,22.56-7.69,47.42-8.78,26.95-1.2,35-1.5,103.21-1.5s76.37.3,103.22,1.5c25,1.09,38.44,5.29,47.42,8.78a78.66,78.66,0,0,1,29.35,19.06,79.57,79.57,0,0,1,19.07,29.36c3.49,9,7.68,22.55,8.78,47.41,1.2,27,1.5,35,1.5,103.22S879.71,787.65,878.51,814.6Z" transform="translate(-414.92 -455.73)"/><path class="cls-1" d="M670.47,580A131.27,131.27,0,1,0,801.74,711.28,131.3,131.3,0,0,0,670.47,580Zm0,216.42a85.15,85.15,0,1,1,85.16-85.15A85.17,85.17,0,0,1,670.47,796.43Z" transform="translate(-414.92 -455.73)"/><path class="cls-1" d="M837.58,574.82a30.65,30.65,0,1,1-30.65-30.64A30.65,30.65,0,0,1,837.58,574.82Z" transform="translate(-414.92 -455.73)"/></g></g></svg>