<svg xmlns="http://www.w3.org/2000/svg" viewBox="0 0 512 512"><defs><style>.cls-1{fill:#fff;}</style></defs><g id="Calque_2" data-name="Calque 2"><g id="Calque_1" data-name="Calque 1"><path class="cls-1" d="M975,1077.74v0h.13V889.94c0-91.86-19.78-162.62-127.17-162.62-51.63,0-86.27,28.33-100.41,55.19h-1.5V735.9H644.26v341.82h106V908.46c0-44.56,8.45-87.66,63.64-87.66,54.38,0,55.19,50.86,55.19,90.52v166.42Z" transform="translate(-463.16 -565.74)"/><path class="cls-1" d="M471.61,735.92H577.76v341.82H471.61Z" transform="translate(-463.16 -565.74)"/><path class="cls-1" d="M524.64,565.74a61.5,61.5,0,0,0-61.48,61.48c0,33.95,27.54,62.06,61.48,62.06s61.48-28.11,61.48-62.06A61.52,61.52,0,0,0,524.64,565.74Z" transform="translate(-463.16 -565.74)"/></g></g></svg>