<?xml version="1.0" encoding="utf-8"?>
<!-- Generator: Adobe Illustrator 24.1.2, SVG Export Plug-In . SVG Version: 6.00 Build 0)  -->
<svg version="1.1" id="effa29f7-1903-425a-b28d-f3a5dd58d661"
	 xmlns="http://www.w3.org/2000/svg" xmlns:xlink="http://www.w3.org/1999/xlink" x="0px" y="0px" viewBox="0 0 930.3 652"
	 style="enable-background:new 0 0 930.3 652;" xml:space="preserve">
<style type="text/css">
	.st0{fill:#F2F2F2;}
	.st1{fill:#3F3D56;}
	.st2{fill:#B96C55;}
	.st3{fill:none;stroke:#3F3D56;stroke-width:2;stroke-miterlimit:10;}
	.st4{fill:url(#SVGID_1_);}
	.st5{fill:#2F2E41;}
	.st6{opacity:0.1;}
	.st7{fill:#A05C5C;}
	.st8{fill:#FBBEBE;}
	.st9{opacity:0.9;fill:#A05C5C;enable-background:new    ;}
	.st10{fill:#D0CDE1;}
	.st11{opacity:0.1;enable-background:new    ;}
	.st12{fill:none;stroke:#B96C55;stroke-width:2;stroke-miterlimit:10;}
</style>
<polygon class="st0" points="560,652 0,652 0,4 560,178 "/>
<rect x="52.1" y="423" class="st1" width="440" height="205"/>
<circle class="st2" cx="396.8" cy="323.5" r="61.2"/>
<line class="st3" x1="396.3" y1="434.1" x2="396.8" y2="323.1"/>
<circle class="st1" cx="396.8" cy="323.1" r="15.7"/>
<path class="st1" d="M396.5,391.5c0,0-2-48.2-48-42.8"/>
<circle class="st2" cx="140.5" cy="200.6" r="61.2"/>
<line class="st3" x1="137.1" y1="426.5" x2="140.6" y2="200.6"/>
<circle class="st1" cx="140.6" cy="200.6" r="15.7"/>
<path class="st1" d="M139.6,264.5c0,0-1.5-48.3-47.5-43.4"/>
<path class="st3" d="M137.1,422.2c0,0,11.5-92.6-46.7-98"/>
<circle class="st1" cx="90.4" cy="324.2" r="15.7"/>
<circle class="st2" cx="272.1" cy="64.8" r="61.2"/>
<line class="st3" x1="272.1" y1="435.2" x2="272.1" y2="65"/>
<circle class="st1" cx="272.1" cy="64.8" r="15.7"/>
<circle class="st1" cx="223.9" cy="332.7" r="15.7"/>
<path class="st1" d="M272.1,145c0,0-2.2-48.2-48.2-42.6"/>
<path class="st1" d="M272.1,281.7c0,0-2.2-48.2-48.2-42.6"/>
<path class="st3" d="M272.1,430.9c0,0,10.1-93.7-48.2-98.2"/>
<circle class="st1" cx="321.3" cy="185.5" r="15.7"/>
<path class="st3" d="M273.1,278.7c0,0-10.1-88.7,48.2-93.2"/>
<circle class="st1" cx="569" cy="422" r="13"/>
<path class="st1" d="M560,652V423h-93c0,107.1-86.9,194-194,194S79,530.1,79,423H0v229H560z"/>
<path class="st2" d="M273,617c107.1,0,194-86.9,194-194H79C79,530.1,165.9,617,273,617z"/>
<path class="st1" d="M823.8,504.6c95.6-48.4,133.9-165.1,85.5-260.7L563.1,419C611.5,514.6,728.2,552.9,823.8,504.6z"/>
<linearGradient id="SVGID_1_" gradientUnits="userSpaceOnUse" x1="795.5302" y1="375.7307" x2="795.5302" y2="387.8901" gradientTransform="matrix(1 0 0 -1 33.1293 530)">
	<stop  offset="0" style="stop-color:#808080;stop-opacity:0.25"/>
	<stop  offset="0.5351" style="stop-color:#808080;stop-opacity:0.12"/>
	<stop  offset="1" style="stop-color:#808080;stop-opacity:0.1"/>
</linearGradient>
<path class="st4" d="M830.8,143.5c0.6-0.4,1.3-0.9,1.9-1.4c-1.3,3.8-3.3,7.3-6,10.2l0,0c-0.6,0.7-1.3,1.3-2,2c0-0.2,0-0.3,0-0.5
	c-0.1-1.5,0-3.1,0.1-4.7C827.1,147.7,829.2,145.8,830.8,143.5z"/>
<path class="st5" d="M840.2,87.7c5-8.4,2.2-19.2-6.2-24.2c-8.4-5-19.2-2.2-24.2,6.2c-2.2,3.7-3,8-2.2,12.2
	c-10.3,4.9-16.7,15.5-16.1,27c-8.6,13.1-4.8,30.7,8.3,39.3c13.1,8.6,30.7,4.8,39.3-8.3c3-4.6,4.6-10,4.6-15.5c0-0.5,0-0.9,0-1.3
	C850.9,111.9,849.4,97.2,840.2,87.7L840.2,87.7z"/>
<g class="st6">
	<path d="M807.4,77.4c0.1,0,0.2-0.1,0.2-0.1c-0.1-0.3-0.1-0.6-0.1-0.9c0,0.1,0,0.1,0,0.2C807.4,76.9,807.4,77.1,807.4,77.4z"/>
	<path d="M848,106.3c-0.5,4.3-2,8.5-4.4,12.1c0,0.4,0,0.9,0,1.3c0,15.7-12.7,28.4-28.4,28.4c-14.8,0-27.1-11.4-28.3-26.1
		c-0.1,0.8-0.1,1.5-0.1,2.3c0,15.7,12.7,28.4,28.4,28.4s28.4-12.7,28.4-28.4l0,0c0-0.5,0-0.9,0-1.3c3.4-5.3,5-11.5,4.5-17.8
		C848.1,105.6,848.1,105.9,848,106.3z"/>
	<path d="M842.5,76.4c-0.3,2.4-1.1,4.7-2.3,6.7c0.5,0.5,1,1,1.4,1.6C842.6,82,842.9,79.2,842.5,76.4L842.5,76.4z"/>
</g>
<path class="st7" d="M725.8,392.1c0.1,1.6,0.6,3.2,1.3,4.6c0.7,1.5,2.1,2.5,3.8,2.8c1.5,0,2.9-0.4,4.2-1.2c2.5-1.3,5.1-2.9,6.5-5.4
	c1.3-2.4,1.1-5.4,0.9-8.1l-1.7-21.6c-4.1-0.1-8.2-0.1-12.3,0.1c-4,0.2-4.8,1.2-4.2,5.1C725.3,376.3,724.8,384.3,725.8,392.1z"/>
<path class="st7" d="M845.7,406.8l9.7,15.7c0.4,0.9,1.2,1.6,2.1,2c0.7,0.1,1.4,0,2-0.4c3.2-1.4,5.7-4.1,8.1-6.7
	c1.6-1.8,3.3-3.6,3.9-6c0.6-2.6-0.1-5.3-1.9-7.2c-1.1-1-2.4-1.9-3.7-2.6c-7.7-5.2-11.2-15-18.7-20.4c-0.4-0.4-1-0.6-1.5-0.7
	c-0.6,0-1.1,0.2-1.6,0.5c-3.5,1.9-6.9,3.8-10.4,5.7c-4.5,2.5-3.1,2.7,0.3,5.4C839.1,396.1,842.3,401.6,845.7,406.8z"/>
<path class="st5" d="M746.9,379.6c-1.4-0.4-3-0.9-4.4-0.2c-1.3,0.8-2.1,2.1-2.3,3.6c-0.3,1.4-0.2,2.9-0.6,4.4
	c-0.7,2.4-2.5,4.2-4.2,6c-0.7,0.8-1.6,1.5-2.7,1.9c-1.4,0.4-2.9-0.3-4.3,0c-1.7,0.4-3,1.8-3.4,3.5c-0.4,1.7-0.4,3.4-0.2,5.1
	l1.1,12.1c0.2,1.5,0.2,3,0,4.4c-0.4,2.7-1.9,5-2.8,7.5s-0.8,5.8,1.3,7.4c1.5,1,3.4,1.2,5.1,0.5c1.6-0.7,3.1-1.8,4.2-3.2
	c6.5-7.1,9.5-16.8,14.6-25.1c1.3-1.9,2.5-3.9,3.5-6c0.7-1.6,1.1-3.3,1.7-5c0.8-2.2,1.7-4.4,2.8-6.4c0.6-1.2,2.9-4,2.4-5.4
	C758.1,382.3,749.1,380.3,746.9,379.6z"/>
<path class="st5" d="M865,412.9c-1.5,2.8-3.9,4.9-6.9,5.9c-0.9,0.2-1.7,0.6-2.3,1.2c-0.9,1.1-1.1,2.7-0.4,4c0.7,1.2,1.6,2.4,2.6,3.3
	c5.9,6.2,9.8,14.1,11.2,22.5c0.3,2.1,0.6,4.4,1.9,6.1c2.5,3.4,7.8,3.2,11.5,1.2c1.1-0.5,2.1-1.3,2.9-2.3c0.6-1.1,1-2.3,1.2-3.6
	c0.7-3.1,1-6.3,1.1-9.4c-0.1-6-2.3-11.7-3.4-17.6c-1.5-8.4-0.8-17.4-4.7-25c-0.4-0.9-1-1.7-1.8-2.2c-1-0.5-2.1-0.8-3.2-0.7
	c-3.5-0.1-7-0.2-10.6-0.1c-1,0-2.1,0.1-2.7,1c-0.5,0.9-0.1,2,0.4,2.9C864.1,404.3,867.6,407.8,865,412.9z"/>
<path class="st5" d="M781.4,262.8c-2,1.7-2.6,4.6-1.3,6.9c0.8,1.3,2.2,2.5,1.9,4c-0.3,1.5-2.2,2.1-3.8,2.3
	c-13.7,2.2-26.9,6.2-40.2,10.2l-13.9,4.2c-4,1.2-8.1,2.4-11.5,4.8c-3.2,2.2-5.7,5.2-7.3,8.7c-1.6,3.6-2.1,7.5-2.7,11.3
	c-2.1,14.2-4.7,28.5-11.1,41.4l33.7,11c3.3,1.2,6.6,2.1,10.1,2.5c3.3,0.3,6.6,0.1,9.8-0.5c-0.2-7.5-0.3-15.3-0.5-22.8
	c0-2.4-0.2-4.7-0.5-7.1c-0.5-3.6-1.6-7.1-2-10.7c1.6-1.3,3.8-1,5.8-0.9c4.6,0.1,9.1-1.5,13.2-3.6s7.9-4.7,12-6.9
	c6.8-3.6,14.5-6,19.6-11.6c-2.6,10-8.9,18.8-10.1,29.1c-1.2,10.4,3,20.6,7.2,30.2l13.3,30.8c1.5,3.4,3.4,7.2,7,8
	c2.2,0.5,4.6-0.3,6.7-1.3c12.2-5.7,22-16.5,35-19.9c-1-6.4-6.1-11.8-9-17.6c-2.4-4.9-3.2-10.5-4.9-15.7s-4.4-10.6-9.3-13.1
	c-2.3-1.2-5.5-2.2-5.7-4.8c0-0.8,0.2-1.7,0.5-2.4c1.7-4.4,4.5-8.3,7.9-11.5c0.4-0.3,0.8-0.8,1-1.3c0.1-0.5,0.2-1,0.1-1.6
	c-0.2-4.2,2-8.1,4.5-11.5s5.4-6.6,6.8-10.5c2.4-6.8,0-14.3-2.4-21.1c-1-2.7-2-5.6-4-7.7c-3.1-3.3-8-4.3-12.5-4.8
	C810.3,257.6,793,253.8,781.4,262.8z"/>
<g class="st6">
	<path d="M779.8,264.9c1-0.2,1.8-0.9,2.1-1.9c0-0.2,0-0.4,0-0.6c-0.2,0.2-0.4,0.3-0.6,0.5C780.7,263.4,780.2,264.1,779.8,264.9z"/>
</g>
<path class="st8" d="M804.6,156.4c0.2,3.4-0.8,6.9-3.4,9.1c-0.8,0.7-1.8,1.2-2.6,1.9c-2.7,2.8-2.6,7.2,0.1,9.9
	c0.3,0.3,0.6,0.5,0.9,0.7c2.7,1.6,6.1,1.2,9.2,0.7c4.1-0.6,8.2-1.6,12-3.1c3.9-1.5,7.2-4.3,9.5-7.8c-3.4-1.9-5.2-5.8-5.4-9.7
	c-0.2-3.9,0.9-8.2-1.6-11.2c-2.4-2.9-6.8-2.9-10.4-1.9c-1.8,0.5-3.5,1.2-5.3,1.7c-0.9,0.2-3.9,0.3-4.5,0.9
	C802,148.8,804.5,154.4,804.6,156.4z"/>
<path class="st9" d="M804.6,156.4c0.2,3.4-0.8,6.9-3.4,9.1c-0.8,0.7-1.8,1.2-2.6,1.9c-2.7,2.8-2.6,7.2,0.1,9.9
	c0.3,0.3,0.6,0.5,0.9,0.7c2.7,1.6,6.1,1.2,9.2,0.7c4.1-0.6,8.2-1.6,12-3.1c3.9-1.5,7.2-4.3,9.5-7.8c-3.4-1.9-5.2-5.8-5.4-9.7
	c-0.2-3.9,0.9-8.2-1.6-11.2c-2.4-2.9-6.8-2.9-10.4-1.9c-1.8,0.5-3.5,1.2-5.3,1.7c-0.9,0.2-3.9,0.3-4.5,0.9
	C802,148.8,804.5,154.4,804.6,156.4z"/>
<circle class="st7" cx="814.9" cy="136.2" r="19.9"/>
<path class="st7" d="M752,289.2c-0.4,1.6-1,3.1-1.9,4.4c-2.3,4.1-3.2,8.9-2.4,13.6c0.9,4.7,4,8.7,8.4,10.6c1.9,0.7,4.2,0.9,5.7-0.4
	c-2.7-3.5-2.8-8.2-2.6-12.6c0-0.8,0.1-1.6,0.6-2.3c0.4-0.7,1.3-0.9,2-0.4c0,0,0.1,0,0.1,0.1c-0.1,2.8,0.5,5.5,1.6,8
	c0.4,1,1.1,2,2.2,2c1.5,0,1.9-2.1,1.9-3.6c-0.2-6.2-0.5-12.6-3.5-18c-1.1-2-2.5-3.8-3-6.1c0-0.8-0.3-1.5-0.8-2.1
	c-0.3-0.3-0.7-0.4-1.1-0.5c-1.7-0.5-5.8-2-7.2-0.4C750.4,283.2,752.2,287.2,752,289.2z"/>
<path class="st10" d="M781.6,183.3c-2.3-0.3-4.1,1.8-5.3,3.8c-4.7,7.2-8,15.2-9.9,23.5c-1,4.3-1.6,8.7-3.6,12.6
	c-0.5,0.8-0.9,1.7-1.2,2.6c-0.2,1.4-0.2,2.7-0.2,4.1c-0.2,2.5-1.7,4.7-2.2,7.2c-0.3,1.5-0.2,3-0.5,4.4c-0.5,2.6-1.9,4.9-2.8,7.3
	c-1.6,4.3-1.6,9-2.7,13.5c-0.1,0.7-0.5,1.4-0.9,2c-0.8,0.9-2.1,1.1-3.1,1.6c-1.7,1-2.8,2.7-3.1,4.6c-0.3,1.9-0.3,3.8-0.1,5.7
	l0.9,11.8c0.9-0.4,1.6-1.5,2.3-2.1c1.4-1.2,3.6-0.9,5.4-0.6l2.7,0.5c2.7,0.5,5.7,1.1,7.5,3.3c1.4-2.2,0.6-5.4,2.8-6.9
	c0.7-0.5,1.6-0.6,2.3-1c1.4-0.9,2.3-2.5,2.3-4.1c0-1.7-0.2-3.3-0.7-4.9c3.5-1.5,5.6-5,6.9-8.4c1.5-4.2,2.6-8.6,3.2-13
	c3.1-17.5,6-35.2,6.3-53c0.2-3-0.1-6-1-8.8C785.9,186,784.5,183.6,781.6,183.3z"/>
<path class="st10" d="M831.8,164.2c-3.3,3.5-7.5,5.9-12.1,7c-4.6,1.1-9.3,1.8-14,2.1c-1.5,0.2-3,0.1-4.3-0.4
	c-1.3-0.6-2.4-2.2-1.8-3.6c0.3-0.4,0.4-0.9,0.5-1.4c0-1.2-1.8-1.3-3-1c-7.7,2.4-15,7.1-18.6,14.3c-2,4.1-2.7,8.7-3.3,13.1
	c-1.7,11.8-3.3,23.9-1.1,35.6c1.2,6.3,3.5,12.3,3.6,18.7c0.1,3.6-0.5,7.1-0.5,10.7c-0.1,1.2,0.2,2.5,0.9,3.5c0.6,0.6,1.4,1,1.8,1.8
	c0.6,1.3-0.2,3,0.6,4.1c1,1.4,3.2,0.4,4.7-0.6c7.2-4.9,16-7.1,24.7-6.2c10.5,1.1,20.8,6.7,31,3.9c-0.5-0.8-1-1.6-1.3-2.4
	c-5.1-16.6-4.7-35.2,2.9-50.8c2.6-5.3,6-10.4,7-16.3c0.4-2.7,0.4-5.5,0.1-8.3c-0.5-5.3-1.8-10.7-4.7-15.1S837.1,164.7,831.8,164.2z"
	/>
<path class="st7" d="M783.6,294.3c-0.8,2.2-1.2,4.5-1.1,6.8c-0.1,2.2,0,4.4,0.3,6.6c0.2,1.9,0.8,3.7,1.9,5.2c1.2,1.5,3.1,2.2,5,1.8
	c1.5-0.6,2.6-1.8,3-3.3c0.4-1.5,0.7-3,0.9-4.5c0.9-4.5,3.3-8.8,3.3-13.4c0-0.5-0.1-1.1-0.3-1.6c-0.9-1.9-5.1-4-7.2-3.7
	C786.9,288.6,784.5,292.2,783.6,294.3z"/>
<path class="st11" d="M841.1,181c-0.4,4,3.4,7,5,10.6c0.6,1.7,1,3.5,1,5.4c1.1,12.7,0.2,25.4-0.6,38.1c-0.2,4.2-0.7,8.4-1.6,12.6
	c-2.1,8.7-7.4,16.2-12.6,23.5c-1.8,2.9-4.5,5.2-7.7,6.3l-17.7,8.6c-2.2,1-4.3,2.2-6.3,3.6c-2.3,1.8-4.1,4.1-5.2,6.8
	c-3.4-1.8-7-3.3-10.4-5.1c-0.8-0.4-1.7-0.9-1.8-1.8c-0.2-1.2,1.1-2,1.9-2.9c1.6-1.6,2.1-4,3-6c2.8-6.8,10-11.2,12.6-18.1
	c1-2.7,1.3-5.7,3.1-7.9c1-1.1,2.1-2.1,3.4-3c2.7-2.3,5.2-4.9,7.5-7.7c1-1,1.8-2.3,2.4-3.6c0.8-2,0.5-4.2,0.6-6.3
	c0.1-6.9,3.3-13.4,5.2-20c1.8-6.3,2.6-12.8,4.9-18.9S834.8,182.7,841.1,181z"/>
<path class="st10" d="M843.4,181c-0.4,4,3.4,7,5,10.6c0.6,1.7,1,3.5,1,5.4c1.1,12.7,0.2,25.4-0.6,38.1c-0.2,4.2-0.7,8.4-1.6,12.6
	c-2.1,8.7-7.4,16.2-12.6,23.5c-1.8,2.9-4.5,5.2-7.7,6.3l-17.7,8.6c-2.2,1-4.3,2.2-6.3,3.6c-2.3,1.8-4.1,4.1-5.2,6.8
	c-3.4-1.8-7-3.3-10.4-5.1c-0.8-0.4-1.7-0.9-1.8-1.8c-0.2-1.2,1.1-2,1.9-2.9c1.6-1.6,2.1-4,3-6c2.8-6.8,10-11.2,12.6-18.1
	c1-2.7,1.3-5.7,3.1-7.9c1-1.1,2.1-2.1,3.4-3c2.7-2.3,5.2-4.9,7.5-7.7c1-1,1.8-2.3,2.4-3.6c0.8-2,0.5-4.2,0.6-6.3
	c0.1-6.9,3.3-13.4,5.2-20c1.8-6.3,2.6-12.8,4.9-18.9S837.1,182.7,843.4,181z"/>
<path class="st5" d="M824.8,105.4c-6.1-0.8-12.4,0.5-17.7,3.7c0.8,0,1.6,0.1,2.4,0.2c15.6,1.9,26.6,16,24.8,31.6
	c-1.1,8.8-6.2,16.6-13.9,21.1c15.7,0.6,28.8-11.7,29.4-27.3C850.3,119.9,839.4,107.2,824.8,105.4z"/>
<path class="st5" d="M833.5,121.2c1.4,3.2,1.5,6.7,0.2,9.9c-0.1-0.4-0.3-0.8-0.5-1.2c-3.5-7.8-14.3-11-24.1-7.2
	c-5.8,2.2-9.9,6.4-11.7,11.1c-2.5-7.5,2.6-16.2,11.9-19.8C819.2,110.2,830,113.4,833.5,121.2z"/>
<g class="st6">
	<path d="M833.6,130.5c-0.9-11.2-8.4-20.8-19-24.5c-2.6,0.7-5.2,1.7-7.5,3.1c0.8,0,1.6,0.1,2.4,0.2
		C821.1,110.7,830.7,119.1,833.6,130.5z"/>
	<path d="M838.2,109.8c-0.9-11.2-8.4-20.8-19-24.5c-2.6,0.7-5.2,1.7-7.5,3.1c0.8,0,1.6,0.1,2.4,0.2C825.7,90,835.3,98.4,838.2,109.8
		z"/>
	<path d="M838.3,78.9c-0.6-6.8-5-12.5-11.4-14.8c-1.6,0.4-3.1,1-4.5,1.8c0.5,0,1,0.1,1.4,0.1C830.8,66.9,836.6,72,838.3,78.9z"/>
	<path d="M848.9,126.7c1.1,14.1-8.2,26.8-22,30c-1.9,2.1-4.1,3.9-6.6,5.3c15.7,0.6,28.8-11.7,29.4-27.3
		C849.8,131.9,849.6,129.3,848.9,126.7L848.9,126.7z"/>
</g>
<line class="st12" x1="760.7" y1="308.5" x2="757" y2="197.5"/>
<circle class="st2" cx="757" cy="197.5" r="15.7"/>
<path class="st2" d="M759.2,265.9c0,0-3.8-48.1-49.6-41"/>
</svg>
