<?xml version="1.0" encoding="utf-8"?>
<!-- Generator: Adobe Illustrator 24.1.2, SVG Export Plug-In . SVG Version: 6.00 Build 0)  -->
<svg version="1.1" id="Calque_1" xmlns="http://www.w3.org/2000/svg" xmlns:xlink="http://www.w3.org/1999/xlink" x="0px" y="0px"
	 viewBox="0 0 1055 800" style="enable-background:new 0 0 1055 800;" xml:space="preserve">
<style type="text/css">
	.st0{opacity:0.13;}
	.st1{fill:none;stroke:#000000;stroke-width:2;stroke-linecap:round;stroke-linejoin:round;}
	.st2{opacity:0.13;fill:#FFFFFF;stroke:#000000;stroke-width:2;stroke-miterlimit:10;enable-background:new    ;}
	.st3{opacity:0.13;fill:none;stroke:#000000;stroke-width:2;stroke-miterlimit:10;enable-background:new    ;}
</style>
<g id="g1KDu2.tif" class="st0">
	<path class="st1" d="M120.8,155.3c0-3.6,0-7.2,0-10.8c0-6.1,0-12.1-0.1-18.2c-0.1-3.8,0-7.5-0.1-11.3c-0.3-5.3-1.3-10.6-3.2-15.6
		c-0.9-2.5-2.4-4.8-4.3-6.6c-1.6-1.3-3-2.9-4.1-4.6c-1.2-2.3-1.8-4.9-1.7-7.6c-0.1-3.1,0.6-6.2,2.2-8.8c0.5-0.7,0.9-1.4,1.4-2.1
		c1.3-1.9,2-4.2,2.1-6.5c0.2-3.1-0.3-6.2-1.5-9c-1.3-3-3.7-5.4-6.7-6.7c-2.7-1.2-5.6-1.7-8.6-1.3c-2.7,0.3-5.3,1.3-7.4,3.1
		c-1.8,1.4-3.2,3.3-4.1,5.4"/>
	<path class="st1" d="M81.7,62.1c0,2.6,1.1,4.8,2.2,7.1c1.4,2.3,2.4,4.7,3.2,7.2c0.4,2,0.5,4,0.3,6c-0.1,3.6-1.8,6.4-4.3,9
		c-4.2,4.4-7,9.9-8.1,15.9c-0.6,3-0.8,6.1-0.8,9.2c0,4.4,0.1,8.9,0,13.3c-0.1,4.4-0.4,9-0.2,13.6c0.2,4-0.2,8,0,12"/>
	<path class="st1" d="M89.7,114.5v41"/>
	<path class="st1" d="M94.9,114.5v41"/>
	<path class="st1" d="M100,114.5v41"/>
	<path class="st1" d="M105.2,114.5v41"/>
	<path class="st1" d="M79.3,114.5c-0.3,13.6,0,27.2-0.1,40.8"/>
	<path class="st1" d="M84.5,114.5c-0.3,12.8,0,25.6-0.1,38.4c0,0.8,0,1.6,0,2.4"/>
	<path class="st1" d="M110.4,114.5c0.3,12.8,0.1,25.6,0.1,38.4v2.4"/>
	<path class="st1" d="M115.6,114.5c0.3,13.6,0,27.2,0.1,40.8"/>
	<path class="st1" d="M116.6,108.9H78.3"/>
</g>
<path class="st2" d="M254.4,55h3.3c2.2,1.2,3.6,3.3,4,5.8c3.6-4.7,7.6-4.4,10.1,0.4c0.4,0.8,0.5,1,1.6,0.7c4.2-1.4,6.9,0.3,7.2,4.7
	c0.1,1.4,0.7,1.4,1.7,1.3c5.5-0.5,7.6,1.6,6.9,7c-0.1,0.8-0.1,1,0.8,1.1c5.5,0.9,7.1,4.6,4.2,9.6c4.9,2.2,5.8,4.5,3.4,9.4
	c-0.3,0.6-0.6,1,0.2,1.3c1.9,0.8,2.5,2.5,3.5,4v2.8c-0.7,1-1.5,1.8-2.4,2.6c-1.1,0.8-1.5,1.3-0.6,2.7c1.5,2.3,0.9,5.5-1.5,7
	c-1.1,0.8-1.3,1.3-0.6,2.6c1.5,2.5,0.7,5.9-1.8,7.4c-0.5,0.3-1.1,0.5-1.7,0.7c-1.1,0.3-1.4,0.4-1.2,1.7c0.6,3.9-1.7,6.6-5.5,6.6
	c-1.2,0-1.5,0.2-1.6,1.4c-0.5,3.9-2.6,5.6-6.4,5.3c-0.7-0.1-1.2-0.4-1.3,0.7c-0.2,2.5-1.9,3.9-3.9,5h-2.8c-2.3-2.2-4.8-2.1-7.8-1.4
	c-4.1,0.9-8.3,0.9-12.4,0c-2.9-0.6-5.5-0.8-7.8,1.4h-2.8c-2-1.1-3.7-2.5-3.9-5c-0.1-0.6-0.1-0.8-1-0.8c-4.6,0.1-6-1-6.7-5.4
	c-0.1-0.9-0.3-1.1-1.3-1.1c-4.4-0.2-6.2-2.4-5.8-6.9c0.1-0.7,0.3-1-0.7-1.4c-4.8-1.7-5.9-4.2-3.9-8.6c0.4-0.9,0.3-1.1-0.4-1.7
	c-2.9-2.5-3.3-4.4-1.7-7.8c0.2-0.4,1.2-1,0-1.5c-1.6-0.6-2-2.4-3.2-3.3v-3.3c1.2-1,1.7-2.9,3.4-3.5c0.7-0.2,0.5-0.7,0.2-1.3
	c-2.4-5-1.7-6.8,3.5-9.6c-1.6-1.7-2-4.1-1-6.2c1.2-2.6,3.4-3.4,6.2-3.3c-1-2.7-0.8-4.9,1.2-6.8s4.3-1.8,7-0.5
	c-0.2-1-0.2-2.1,0.1-3.2c0.8-2.9,3.7-4.9,6.4-3.8c1.8,0.7,2.4,0.3,3.1-1.4c0.6-1.3,1.8-2.3,3.2-2.5c2.9-0.8,4.8,0.8,6.6,3.2
	C250.8,58.4,252.3,56.2,254.4,55z"/>
<g id="n1Gy6z.tif" class="st0">
	<path class="st1" d="M405.9,90.9H398c-0.2,0-0.5,0.1-0.7,0c-1.1-0.6-2.1-0.1-3.2,0.1c-1.5,0.4-2.6,1.7-2.7,3.2
		c0,7.6-0.1,15.2,0,22.8c0.1,5.6,2.2,10.9,5.9,15.1c3.1,3.7,7.3,6.4,11.9,7.8c2.5,0.8,5.1,1.1,7.7,1.1c14.6,0,29.1,0,43.7,0
		c7.2,0.1,14-2.8,18.9-8.2c3.5-3.7,5.6-8.4,6.3-13.4c0.2-1.3,0-2.7,1-3.8"/>
	<path class="st1" d="M486.8,95.6c-0.4-0.6-0.6-1.2-0.8-1.9c-0.4-1.4-1.5-2.4-2.9-2.7c-1.2-0.4-2.3-0.1-3.5-0.1c-2.8,0-5.6,0-8.4,0
		h-60.5"/>
	<path class="st1" d="M475.6,80.5c-0.1-2.4-0.9-4.7-2.2-6.7c-2.2-3.6-5.2-6.7-8.7-9.1c-1.7-1.2-3.5-2.3-5.4-3.3
		c-1.8-1-4.1-0.7-5.7,0.6c-2.4,2.2-5.2,4-8.1,5.3c-4.2,2-8.7,3.5-13.3,4.4c-3.5,0.7-7,1.2-10.5,1.4c-2.9,0.2-5.8,0.3-8.6,0.3
		c-3.4-0.1-6.7,0.9-9.5,2.8c-1.4,1-2.6,2.2-2.5,4.1"/>
	<path class="st1" d="M396,90.4v-7c0-1.5,0.6-2.2,2.1-2.3c1,0.1,1.9-0.1,2.8-0.5c0.1-0.1,0.3-0.1,0.5,0c0.8,0.4,1.7,0.6,2.6,0.5
		c23.1,0,46.3,0,69.4,0c0.9,0,1.7-0.6,2.6-0.3c0.8,0.2,1.7,0.3,2.6,0.3c0.5,0,1,0,1.4,0.1c1,0.1,1.7,0.9,1.6,1.9c0,0,0,0.1,0,0.1
		v7.2"/>
	<path class="st1" d="M412.4,103.3c-1.3,0.3-1.4,0.5-1.4,1.8c0,4.9,0,9.8,0,14.8c0,1.3,0.4,1.6,1.6,1.7c0.2,0,0.4,0,0.6,0h51.2
		c0.1,0,0.2,0,0.3,0c1.8-0.2,1.9-0.3,1.9-1.9c0-4.8,0-9.5,0-14.3c0-1.9-0.2-2.1-2.1-2.1h-51.9"/>
</g>
<g id="_5FouJC.tif" class="st0">
	<path class="st1" d="M589.8,70c-0.8,0.5-1.6,0.9-2.4,1.2c-4.5,1.7-8,5.2-9.6,9.7c-0.6,1.5-0.9,3.1-0.9,4.7c0,19.1,0,38.1,0,57.2
		c0,2.3,0.8,3.3,3.1,3.8c0.2,0.1,0.4,0.1,0.6,0.2"/>
	<path class="st1" d="M617.1,146.6c0.7-0.1,1.4-0.3,2-0.6c1-0.5,1.6-1.5,1.6-2.6c0-0.2,0-0.3,0-0.5V86c0-4-1.5-7.8-4.3-10.7
		c-1.7-1.9-3.8-3.3-6.2-4.1c-0.9-0.3-1.6-1-2.4-1.2s-1.7,0.2-2.5,0.2c-4.1,0-8.3,0-12.4,0c-0.9,0-1.9-0.1-2.8-0.3"/>
	<path class="st1" d="M607.6,69.9c0.2-0.9,0.3-1.9,0.3-2.8c0-3.1,0-6.2,0-9.4c-0.1-2.5-0.2-2.6-2.6-2.6c-4.4-0.1-8.8-0.1-13.2,0
		c-2.3,0-2.5,0.2-2.5,2.5c-0.1,3.2,0,6.3,0,9.5c0,0.9,0.1,1.9,0.3,2.8"/>
	<path class="st1" d="M589,96.8c-1.9,0.1-3.6,1.4-4.1,3.3c-0.1,0.6-0.2,1.2-0.2,1.9c0,7.1,0,14.2,0,21.4c0,2,0.6,3.8,2.5,4.8
		c0.5,0.3,1.2,0.4,1.8,0.4h19.4c2.2,0,4-1.6,4.3-3.8c0.1-0.6,0.1-1.2,0.1-1.8c0-7,0-14,0-21c0-0.8-0.1-1.7-0.4-2.4
		c-0.7-1.8-2.6-2.9-4.5-2.7h-18.8"/>
</g>
<path class="st3" d="M716.2,149.8h-2.4c-1.2-0.9-2.7-1.5-3.2-3.1v-1.9c1-1.3,2.6-2,4.2-2c1.4-0.1,2.9-0.2,4.3-0.5
	c9.1-1.8,16.7-6.7,24.2-11.6c0.1,0,0.1-0.2,0.1-0.3c-0.1-0.1-0.2-0.2-0.3-0.2c-0.2-0.1-0.4-0.1-0.6-0.2c-8.6-2.1-15.6-8.5-18.4-16.9
	c-2.8-7.7-0.8-15,3.3-21.9c6.5-10.9,16.1-18.1,27.9-22.8c6.4-2.5,13.1-4.3,19.6-6.5c6-2,11.8-4.4,16.2-9.2c1.1-1.2,1.4-0.5,1.7,0.5
	c3.2,10,5.5,20.3,7,30.7c0.3,2.6,1.1,8.7,1.1,9v1.9c0,2.8,0,5.6,0,8.4c0,0.8-0.4,3.2-0.4,3.7c-0.5,5.2-1.5,10.4-3.2,15.4
	c-2.8,8.1-7.1,15.1-14.5,20c-10.7,7-23.7,2.9-29.3-3.1c-1.7-1.9-1.7-1.9,0.1-3.6c14-13.1,23.4-28.9,29.5-46.7
	c0.4-0.7,0.4-1.5,0.1-2.2C768.8,115.9,747.1,137.6,716.2,149.8z"/>
<g id="_5weMXC.tif" class="st0">
	<path class="st1" d="M903,105.7c1.5,0,2.9,0.4,4.2,1.2c2.7,1.3,5.5,2.1,8.5,2.5c3.7,0.5,7.4,0.3,10.9-0.7c0.8-0.3,1.7-0.3,2.6,0
		c0.6,0.3,1.4,0.2,1.9-0.2c2.7-1.9,6-2.4,9.1-3.2c9.6-2.4,19.2-4.8,28.7-7.2c0.6-0.2,1.2-0.2,1.7-0.4c1.3-0.5,1.5-0.8,1.5-2.1
		s0-3,0-4.5V67c0-1.8-0.3-2.2-2-2.7c-5.2-1.3-10.4-2.6-15.5-3.9c-5.4-1.3-10.8-2.6-16.2-4c-4.2-1-8.4-2.2-12.7-3.2
		c-2.7-0.6-5.5-0.8-8.3-0.6c-3.8,0.2-7.6,1.3-11,3.1c-7.4,3.7-12.7,10.5-14.6,18.5c-0.8,3-1.1,6.1-0.8,9.2
		c0.5,6.4,3.2,12.5,7.7,17.2c1.4,1.4,2.6,3,3.8,4.5c0.2,0.2,0.4,0.4,0.3,0.8c-0.4,1.4-0.4,2.9,0,4.4c0.3,2.1,0.3,4.2,0,6.3
		c-0.1,1-0.2,1.9-0.2,2.9c-0.1,2.1-0.5,4.1-0.8,6.1c-0.3,2.4-0.8,4.8-1.2,7.2c-0.4,1.9-0.7,3.8-0.8,5.7c-0.1,4.3,2.3,6.8,5.7,8.1
		c2,0.6,4,1,6,1.3c1.9,0.4,3.8,0.8,5.8,0.9c2.2,0.2,4.5,0.4,6.7-0.4s2.3-2.9,1.6-4.5c-0.6-1.3-1.5-2.4-2-3.8c-0.8-2.3-1-4.8-0.5-7.2
		c0.9-5.5,2.7-10.7,4.2-16c0.4-1.7,1.1-3.3,2-4.7c0.5-1,0.8-2.1,0.9-3.2"/>
	<path class="st1" d="M932.6,81.1c0.2-6.6-5.7-13.4-13.6-13.1c-7.3,0.4-12.8,6.6-12.5,13.9c0.4,6.9,6,12.4,13,12.5
		c7.2,0,13-5.7,13.1-12.9C932.6,81.3,932.6,81.2,932.6,81.1"/>
	<path class="st1" d="M998.5,74.5c-1.8-0.1-3.6,0.1-5.4-0.2c-1.9-0.2-3.7-0.9-5.2-1.9c-2.3-1.5-5-2.3-7.7-2.2h-1.7"/>
	<path class="st1" d="M998.5,85.6c-2.4,0.1-4.7-0.1-7.1-0.5c-1.1-0.3-2.2-0.7-3.2-1.4c-2.5-1.7-5.5-2.6-8.5-2.5c-0.4,0-0.9,0-1.3,0"
		/>
	<path class="st1" d="M998.5,96.5c-2.4,0.1-4.9-0.1-7.3-0.5c-1.1-0.2-2.1-0.7-3-1.3c-3-2-6.6-2.9-10.2-2.4"/>
</g>
<g id="g1KDu2.tif-2" class="st0">
	<path class="st1" d="M632.4,354.6c0-3.6,0-7.2,0-10.8c0-6,0-12.1-0.1-18.1c-0.1-3.8,0-7.5-0.1-11.3c-0.3-5.3-1.3-10.6-3.2-15.6
		c-0.9-2.5-2.4-4.8-4.3-6.6c-1.6-1.3-3-2.9-4.2-4.6c-1.2-2.3-1.8-4.9-1.7-7.5c-0.1-3.1,0.6-6.2,2.2-8.8c0.5-0.7,0.9-1.4,1.4-2.1
		c1.3-1.9,2-4.2,2.1-6.5c0.2-3.1-0.3-6.2-1.5-9c-1.3-3-3.7-5.4-6.7-6.7c-2.7-1.2-5.6-1.7-8.6-1.3c-5.1,0.6-9.5,3.8-11.5,8.5"/>
	<path class="st1" d="M593.3,261.4c0.2,2.5,0.9,4.9,2.2,7.1c1.2,2.3,2.6,4.6,3.2,7.2c0.4,2,0.5,4,0.3,6c-0.1,3.6-1.8,6.4-4.3,9
		c-4.2,4.4-7,9.9-8,15.9c-0.6,3-0.8,6.1-0.8,9.2c0,4.4,0.1,8.9,0,13.3s-0.4,9-0.2,13.5c0.2,4-0.2,8,0,12"/>
	<path class="st1" d="M601.3,313.9v41"/>
	<path class="st1" d="M606.5,313.9v41"/>
	<path class="st1" d="M611.6,313.9v41"/>
	<path class="st1" d="M616.8,313.9v41"/>
	<path class="st1" d="M590.9,313.9c-0.3,13.6,0,27.2-0.1,40.8"/>
	<path class="st1" d="M596.1,313.9c-0.3,12.8,0,25.6-0.1,38.4v2.4"/>
	<path class="st1" d="M622,313.9c0.3,12.8,0,25.6,0.1,38.4c0,0.8,0,1.6,0,2.4"/>
	<path class="st1" d="M627.1,313.9c0.3,13.6,0,27.2,0.1,40.8"/>
	<path class="st1" d="M628.2,308.2h-38.3"/>
</g>
<path class="st2" d="M766,254.4h3.3c2.2,1.2,3.7,3.3,4,5.8c3.6-4.7,7.6-4.4,10.1,0.4c0.4,0.8,0.5,1,1.6,0.7c4.2-1.4,6.9,0.3,7.2,4.7
	c0.1,1.4,0.7,1.4,1.7,1.4c5.5-0.5,7.6,1.6,6.9,7c-0.1,0.9-0.1,1,0.8,1.1c5.5,0.9,7.1,4.6,4.2,9.6c4.9,2.2,5.8,4.5,3.4,9.4
	c-0.3,0.6-0.5,1,0.2,1.3c1.8,0.8,2.5,2.5,3.5,4v2.8c-0.7,1-1.5,1.8-2.3,2.6c-1.1,0.8-1.5,1.3-0.6,2.7c1.5,2.3,0.8,5.5-1.5,7
	c-1.1,0.8-1.3,1.3-0.6,2.5c1.5,2.5,0.7,5.9-1.8,7.4c-0.5,0.3-1.1,0.5-1.7,0.7c-1.1,0.3-1.4,0.4-1.2,1.7c0.6,3.9-1.7,6.6-5.5,6.6
	c-1.2,0-1.5,0.2-1.6,1.4c-0.5,3.9-2.6,5.6-6.4,5.3c-0.7-0.1-1.2-0.4-1.3,0.7c-0.2,2.5-1.9,3.9-3.9,5h-2.8c-2.3-2.2-4.8-2.1-7.8-1.4
	c-4.1,0.9-8.3,0.9-12.4,0c-2.9-0.6-5.5-0.8-7.8,1.4H751c-2-1.1-3.7-2.5-3.9-5c-0.1-0.6-0.1-0.8-1-0.8c-4.6,0.1-6-1-6.7-5.4
	c-0.2-0.9-0.3-1.1-1.3-1.1c-4.4-0.2-6.2-2.4-5.8-6.9c0.1-0.7,0.3-1-0.7-1.4c-4.8-1.7-5.9-4.2-3.9-8.6c0.4-0.9,0.3-1.1-0.4-1.7
	c-2.9-2.5-3.3-4.4-1.7-7.8c0.2-0.4,1.2-1,0-1.5c-1.5-0.6-2-2.4-3.2-3.3v-3.4c1.2-1,1.7-2.9,3.4-3.5c0.7-0.2,0.5-0.7,0.2-1.3
	c-2.4-5-1.7-6.8,3.5-9.6c-1.6-1.7-2-4.1-1-6.2c1.2-2.6,3.4-3.4,6.2-3.3c-1-2.7-0.8-5,1.2-6.8s4.3-1.8,7-0.5c-0.2-1-0.2-2.1,0.1-3.2
	c0.8-2.9,3.7-4.9,6.4-3.8c1.8,0.7,2.4,0.3,3.1-1.4c0.6-1.3,1.8-2.2,3.2-2.5c2.9-0.9,4.8,0.8,6.6,3.2
	C762.3,257.8,763.8,255.5,766,254.4z"/>
<g id="n1Gy6z.tif-2" class="st0">
	<path class="st1" d="M917.5,290.2h-8c-0.2,0-0.5,0.1-0.7,0c-1.1-0.6-2.1-0.1-3.2,0.1c-1.5,0.4-2.6,1.7-2.7,3.2
		c0,7.6-0.2,15.2,0,22.8c0.2,5.6,2.3,10.9,6,15.1c3.1,3.7,7.3,6.4,11.9,7.8c2.5,0.7,5.1,1.1,7.8,1.1c14.6,0,29.1,0,43.7,0
		c7.2,0.1,14-2.8,18.8-8.2c3.5-3.7,5.6-8.4,6.3-13.4c0.2-1.3,0.1-2.7,1-3.8"/>
	<path class="st1" d="M998.3,294.9c-0.4-0.6-0.6-1.2-0.8-1.9c-0.4-1.4-1.5-2.4-2.9-2.7c-1.2-0.4-2.3-0.1-3.5,0c-2.8,0-5.6,0-8.4,0
		h-60.5"/>
	<path class="st1" d="M987.2,279.9c-0.1-2.4-0.9-4.7-2.2-6.7c-2.2-3.6-5.2-6.7-8.7-9.1c-1.7-1.2-3.5-2.3-5.4-3.3
		c-1.8-1-4.1-0.7-5.7,0.6c-2.4,2.2-5.2,4-8.1,5.3c-4.2,2-8.7,3.5-13.3,4.3c-3.5,0.7-7,1.2-10.5,1.4c-2.9,0.2-5.7,0.3-8.6,0.3
		c-3.4-0.1-6.7,0.9-9.5,2.9c-1.4,1-2.6,2.2-2.5,4.1"/>
	<path class="st1" d="M907.5,289.7c0-2.3,0-4.7,0-7c0-1.5,0.6-2.2,2.1-2.3c1,0.1,1.9-0.1,2.8-0.5c0.1-0.1,0.3-0.1,0.5,0
		c0.8,0.4,1.7,0.6,2.6,0.5c23.1,0,46.3,0,69.5,0c0.9,0,1.7-0.6,2.6-0.3c0.8,0.2,1.7,0.3,2.6,0.3c0.5,0,1,0,1.4,0.1
		c1,0.1,1.7,0.9,1.6,1.9c0,0,0,0.1,0,0.1c0,2.4,0,4.8,0,7.2"/>
	<path class="st1" d="M924,302.6c-1.3,0.3-1.4,0.5-1.4,1.8c0,4.9,0,9.8,0,14.8c0,1.3,0.4,1.6,1.6,1.7h52c1.8-0.2,1.9-0.3,1.9-1.9
		c0-4.8,0-9.5,0-14.3c0-1.9-0.2-2.1-2.1-2.1h-51.9"/>
</g>
<g id="_5FouJC.tif-2" class="st0">
	<path class="st1" d="M86.9,269.3c-0.8,0.5-1.6,0.9-2.4,1.2c-4.5,1.7-8,5.2-9.6,9.7c-0.6,1.5-0.9,3.1-0.9,4.7c0,19,0,38.1,0,57.1
		c0,2.3,0.8,3.3,3.1,3.8c0.2,0,0.4,0.1,0.6,0.2"/>
	<path class="st1" d="M114.2,346c0.7-0.1,1.4-0.3,2-0.6c1-0.5,1.6-1.5,1.6-2.6c0-0.2,0-0.3,0-0.5v-57c0-4-1.5-7.8-4.3-10.7
		c-1.7-1.9-3.8-3.3-6.2-4.1c-0.9-0.3-1.6-1-2.4-1.2s-1.7,0.2-2.5,0.2c-4.1,0-8.3,0-12.4,0c-0.9,0-1.9-0.1-2.8-0.3"/>
	<path class="st1" d="M104.8,269.2c0.2-0.9,0.3-1.9,0.3-2.8c0-3.1,0-6.2,0-9.4c-0.1-2.5-0.2-2.6-2.6-2.6c-4.4-0.1-8.8-0.1-13.2,0
		c-2.3,0-2.4,0.2-2.5,2.5c-0.1,3.1,0,6.3,0,9.5c0,0.9,0.1,1.9,0.3,2.8"/>
	<path class="st1" d="M86.2,296.2c-1.9,0.1-3.6,1.4-4.1,3.3c-0.1,0.6-0.2,1.2-0.2,1.9c0,7.1,0,14.2,0,21.4c0,2,0.6,3.8,2.5,4.8
		c0.5,0.3,1.2,0.4,1.8,0.4h19.4c2.2,0,4-1.6,4.3-3.8c0.1-0.6,0.1-1.2,0.1-1.8c0-7,0-14,0-21c0-0.8-0.1-1.7-0.4-2.4
		c-0.7-1.8-2.6-2.9-4.5-2.7L86.2,296.2"/>
</g>
<path class="st3" d="M213.3,349.1H211c-1.2-0.9-2.7-1.5-3.1-3.1v-1.9c1-1.3,2.6-2,4.2-2c1.4-0.1,2.9-0.2,4.3-0.5
	c9.1-1.8,16.7-6.7,24.2-11.6c0.1,0,0.1-0.2,0.1-0.3c-0.1-0.1-0.2-0.2-0.3-0.2c-0.2-0.1-0.4-0.1-0.6-0.2c-8.6-2.1-15.6-8.5-18.4-17
	c-2.8-7.7-0.8-15,3.3-21.9c6.5-10.8,16.1-18.1,27.9-22.7c6.4-2.5,13.1-4.3,19.6-6.5c6-2,11.8-4.4,16.1-9.2c1.1-1.2,1.4-0.5,1.7,0.6
	c3.2,10,5.5,20.3,7,30.7c0.4,2.6,1.1,8.6,1.1,9v1.9c0,2.8,0,5.6,0,8.5c0,0.8-0.4,3.2-0.4,3.7c-0.5,5.2-1.5,10.4-3.2,15.4
	c-2.8,8.1-7.1,15.1-14.5,20c-10.6,7-23.8,2.9-29.3-3.1c-1.7-1.9-1.7-1.9,0.1-3.6c14-13.1,23.4-28.9,29.5-46.7
	c0.4-0.7,0.4-1.5,0.1-2.2C266,315.3,244.3,336.9,213.3,349.1z"/>
<g id="_5weMXC.tif-2" class="st0">
	<path class="st1" d="M400.2,305.1c1.5,0,2.9,0.4,4.2,1.2c2.7,1.3,5.5,2.1,8.5,2.5c3.7,0.5,7.4,0.3,10.9-0.6c0.8-0.3,1.7-0.3,2.6,0
		c0.6,0.3,1.4,0.2,1.9-0.2c2.7-1.9,6-2.4,9.1-3.2c9.6-2.4,19.1-4.8,28.7-7.2c0.6-0.1,1.2-0.2,1.7-0.4c1.3-0.5,1.5-0.8,1.5-2.1
		s0-3,0-4.5v-24c0-1.8-0.3-2.2-2-2.7c-5.2-1.3-10.4-2.6-15.5-3.9c-5.4-1.3-10.8-2.6-16.2-4c-4.2-1.1-8.4-2.2-12.6-3.2
		c-2.7-0.6-5.5-0.8-8.3-0.6c-3.8,0.2-7.6,1.3-11,3.1c-7.4,3.7-12.8,10.5-14.7,18.6c-0.8,3-1,6.1-0.8,9.2c0.5,6.4,3.2,12.5,7.7,17.1
		c1.4,1.4,2.6,3,3.8,4.5c0.2,0.2,0.4,0.4,0.3,0.9c-0.4,1.4-0.4,2.9,0,4.4c0.3,2.1,0.3,4.2,0,6.3c-0.1,1-0.2,1.9-0.2,2.9
		c-0.1,2.1-0.5,4.1-0.8,6.1c-0.3,2.4-0.8,4.8-1.2,7.2c-0.4,1.9-0.7,3.8-0.8,5.7c-0.1,4.3,2.3,6.7,5.7,8.1c2,0.6,4,1,6,1.3
		c1.9,0.4,3.9,0.8,5.8,1c2.2,0.2,4.5,0.4,6.6-0.4s2.3-2.9,1.6-4.5c-0.6-1.3-1.5-2.4-2-3.8c-0.8-2.3-1-4.8-0.5-7.2
		c0.9-5.5,2.6-10.7,4.2-16c0.4-1.7,1.1-3.3,2-4.7c0.5-1,0.8-2.1,0.9-3.2"/>
	<path class="st1" d="M429.8,280.4c0.2-6.6-5.7-13.4-13.6-13.1c-7.3,0.4-12.8,6.6-12.5,13.9c0.4,6.9,6,12.4,13,12.5
		c7.2,0,13-5.7,13.1-12.9c0-0.1,0-0.2,0-0.2"/>
	<path class="st1" d="M495.6,273.9c-1.8-0.1-3.6,0.1-5.4-0.2c-1.9-0.2-3.7-0.9-5.2-1.9c-2.3-1.5-5-2.3-7.7-2.2c-0.6,0-1.1,0-1.7,0"
		/>
	<path class="st1" d="M495.6,284.9c-2.4,0.1-4.7-0.1-7.1-0.5c-1.1-0.3-2.2-0.7-3.2-1.4c-2.5-1.7-5.5-2.6-8.5-2.5h-1.3"/>
	<path class="st1" d="M495.6,295.8c-2.4,0.1-4.9-0.1-7.3-0.5c-1.1-0.3-2.1-0.7-3-1.3c-3-2-6.6-2.9-10.2-2.4"/>
</g>
<path class="st2" d="M632.2,653h3.4c2.2,1.2,3.6,3.3,4,5.8c3.6-4.7,7.6-4.4,10.1,0.4c0.4,0.8,0.5,1,1.6,0.7c4.2-1.4,6.9,0.3,7.2,4.7
	c0.1,1.4,0.7,1.4,1.7,1.3c5.5-0.5,7.6,1.6,6.9,7c-0.1,0.8-0.1,1,0.8,1.1c5.5,0.9,7.1,4.6,4.2,9.6c4.9,2.2,5.8,4.5,3.4,9.4
	c-0.3,0.6-0.6,1,0.2,1.3c1.8,0.8,2.5,2.5,3.4,4v2.8c-0.7,1-1.5,1.8-2.3,2.6c-1.1,0.8-1.5,1.3-0.6,2.7c1.5,2.3,0.8,5.5-1.5,7
	c-1.1,0.8-1.3,1.3-0.6,2.5c1.5,2.5,0.7,5.8-1.8,7.4c-0.5,0.3-1.1,0.6-1.8,0.7c-1.1,0.3-1.4,0.4-1.2,1.7c0.6,3.9-1.7,6.6-5.5,6.6
	c-1.2,0-1.5,0.2-1.6,1.4c-0.5,3.9-2.6,5.6-6.4,5.3c-0.7-0.1-1.2-0.4-1.3,0.7c-0.2,2.5-1.9,3.9-3.9,5h-2.8c-2.3-2.2-4.8-2.1-7.8-1.4
	c-4.1,0.9-8.3,0.9-12.4,0c-2.9-0.7-5.5-0.8-7.8,1.4h-2.8c-2-1.1-3.7-2.5-3.9-5c0-0.6-0.1-0.8-1-0.8c-4.6,0.1-6-1-6.7-5.4
	c-0.2-0.9-0.3-1.1-1.3-1.1c-4.4-0.2-6.2-2.4-5.8-6.9c0.1-0.7,0.3-1-0.7-1.4c-4.8-1.7-5.9-4.2-3.9-8.6c0.4-0.9,0.3-1.1-0.4-1.7
	c-2.9-2.5-3.3-4.4-1.7-7.8c0.2-0.4,1.2-1,0-1.5c-1.5-0.6-2-2.4-3.2-3.3v-3.3c1.2-1,1.7-2.9,3.4-3.5c0.7-0.2,0.5-0.7,0.2-1.3
	c-2.3-5-1.7-6.8,3.5-9.6c-1.6-1.7-2-4.1-1-6.2c1.2-2.6,3.4-3.4,6.2-3.3c-1-2.7-0.8-5,1.2-6.8s4.3-1.8,7-0.5c-0.2-1-0.2-2.1,0.1-3.2
	c0.8-2.9,3.7-4.9,6.4-3.8c1.8,0.7,2.4,0.3,3.1-1.4c0.6-1.3,1.8-2.2,3.2-2.5c2.9-0.8,4.8,0.8,6.6,3.2
	C628.5,656.4,630,654.2,632.2,653z"/>
<g id="n1Gy6z.tif-3" class="st0">
	<path class="st1" d="M783.7,688.9h-8c-0.2,0-0.5,0.1-0.7,0c-1.1-0.6-2.1-0.1-3.2,0.1c-1.5,0.4-2.6,1.7-2.7,3.2
		c0,7.6-0.1,15.2,0,22.8c0.1,5.6,2.2,10.9,5.9,15.1c3.1,3.7,7.3,6.4,11.9,7.8c2.5,0.7,5.1,1.1,7.8,1.1c14.6,0,29.1,0,43.7,0
		c7.2,0.1,14-2.8,18.8-8.2c3.5-3.7,5.7-8.4,6.3-13.4c0.2-1.3,0.1-2.7,1-3.8"/>
	<path class="st1" d="M864.6,693.6c-0.4-0.6-0.6-1.2-0.8-1.9c-0.4-1.4-1.5-2.4-2.8-2.8c-1.2-0.4-2.3,0-3.5,0c-2.8,0-5.6,0-8.4,0
		h-60.6"/>
	<path class="st1" d="M853.4,678.5c-0.1-2.4-0.9-4.7-2.2-6.7c-2.2-3.6-5.2-6.7-8.7-9.1c-1.7-1.2-3.5-2.3-5.4-3.3
		c-1.8-1-4.1-0.7-5.7,0.6c-2.4,2.2-5.2,4-8.1,5.3c-4.2,2-8.7,3.5-13.3,4.4c-3.5,0.7-7,1.2-10.5,1.4c-2.9,0.2-5.7,0.3-8.6,0.3
		c-3.4-0.1-6.7,0.9-9.5,2.8c-1.4,1-2.6,2.2-2.5,4.1"/>
	<path class="st1" d="M773.8,688.4v-7c0-1.5,0.6-2.2,2.1-2.3c1,0.1,1.9-0.1,2.8-0.5c0.1-0.1,0.3-0.1,0.5,0c0.8,0.4,1.7,0.6,2.6,0.5
		c23.1,0,46.3,0,69.5,0c0.9,0,1.7-0.6,2.6-0.3c0.8,0.2,1.7,0.3,2.6,0.3c0.5,0,1,0,1.4,0.1c1,0.1,1.7,0.9,1.6,1.9c0,0,0,0.1,0,0.1
		c0,2.4,0,4.8,0,7.2"/>
	<path class="st1" d="M790.2,701.3c-1.3,0.3-1.4,0.5-1.4,1.8c0,4.9,0,9.8,0,14.8c0,1.3,0.4,1.6,1.6,1.7h52c1.8-0.2,1.9-0.3,1.9-1.9
		c0-4.8,0-9.5,0-14.3c0-1.9-0.2-2.1-2.1-2.1L790.2,701.3"/>
</g>
<g id="_5FouJC.tif-3" class="st0">
	<path class="st1" d="M967.6,668c-0.8,0.5-1.6,0.9-2.4,1.2c-4.5,1.7-8,5.2-9.6,9.7c-0.6,1.5-0.9,3.1-0.9,4.7c0,19,0,38.1,0,57.2
		c0,2.3,0.8,3.3,3.1,3.8c0.2,0,0.4,0.1,0.6,0.2"/>
	<path class="st1" d="M994.9,744.7c0.7-0.1,1.4-0.3,2-0.6c1-0.5,1.6-1.5,1.6-2.6c0-0.2,0-0.3,0-0.5v-57c0-4-1.5-7.8-4.3-10.7
		c-1.7-1.8-3.8-3.3-6.2-4.1c-0.9-0.3-1.6-1-2.4-1.2s-1.7,0.2-2.5,0.2c-4.1,0-8.3,0-12.4,0c-0.9,0-1.9-0.1-2.8-0.3"/>
	<path class="st1" d="M985.5,667.9c0.2-0.9,0.3-1.9,0.3-2.8c0-3.1,0-6.2,0-9.4c0-2.5-0.2-2.6-2.6-2.6c-4.4-0.1-8.8-0.1-13.2,0
		c-2.3,0-2.4,0.2-2.5,2.5c-0.1,3.2,0,6.3,0,9.5c0,0.9,0.1,1.9,0.3,2.8"/>
	<path class="st1" d="M966.8,694.9c-1.9,0.1-3.6,1.4-4.1,3.3c-0.1,0.6-0.2,1.2-0.2,1.9c0,7.1,0,14.2,0,21.4c0,2,0.6,3.8,2.5,4.8
		c0.6,0.3,1.2,0.4,1.8,0.4h19.3c2.2,0,4-1.6,4.3-3.8c0.1-0.6,0.1-1.2,0.1-1.8v-21c0-0.8-0.1-1.7-0.4-2.4c-0.8-1.8-2.6-2.9-4.5-2.7
		L966.8,694.9"/>
</g>
<g id="g1KDu2.tif-3" class="st0">
	<path class="st1" d="M498.6,753.3c0-3.6,0-7.2,0-10.8c0-6,0-12.1-0.1-18.2c-0.1-3.8,0-7.5-0.1-11.3c-0.3-5.3-1.3-10.6-3.2-15.5
		c-0.9-2.5-2.4-4.8-4.3-6.6c-1.6-1.3-3-2.9-4.1-4.6c-1.2-2.3-1.8-4.9-1.7-7.5c-0.1-3.1,0.6-6.2,2.2-8.8c0.5-0.7,0.9-1.4,1.4-2.1
		c1.3-1.9,2-4.2,2.1-6.5c0.2-3.1-0.3-6.2-1.5-9c-1.3-3-3.7-5.4-6.7-6.7c-2.7-1.2-5.6-1.7-8.6-1.3c-2.7,0.3-5.3,1.3-7.4,3.1
		c-1.8,1.4-3.2,3.3-4.1,5.4"/>
	<path class="st1" d="M459.5,660.1c0.2,2.5,0.9,4.9,2.2,7.1c1.2,2.3,2.6,4.6,3.2,7.2c0.4,2,0.5,4,0.3,6c-0.1,3.6-1.8,6.4-4.3,9
		c-4.2,4.4-7,9.9-8,15.9c-0.6,3-0.8,6.1-0.8,9.2c0,4.4,0.1,8.9,0,13.3s-0.4,9-0.2,13.5c0.2,4-0.2,8,0,12"/>
	<path class="st1" d="M467.5,712.5v41"/>
	<path class="st1" d="M472.7,712.5v41"/>
	<path class="st1" d="M477.8,712.5v41"/>
	<path class="st1" d="M483,712.5v41"/>
	<path class="st1" d="M457.2,712.5c-0.3,13.6,0,27.2-0.1,40.8"/>
	<path class="st1" d="M462.3,712.5c-0.3,12.8,0,25.6-0.1,38.4v2.4"/>
	<path class="st1" d="M488.2,712.5c0.3,12.8,0,25.6,0.1,38.4c0,0.8,0,1.6,0,2.4"/>
	<path class="st1" d="M493.4,712.5c0.3,13.6,0,27.2,0.1,40.8"/>
	<path class="st1" d="M494.4,706.9h-38.3"/>
</g>
<path class="st3" d="M79.6,747.8h-2.4c-1.2-0.9-2.7-1.5-3.2-3.1v-1.9c1-1.3,2.6-2,4.2-2c1.4-0.1,2.9-0.2,4.3-0.5
	c9.1-1.8,16.7-6.7,24.2-11.6c0.1,0,0.1-0.2,0.1-0.3c-0.1-0.1-0.2-0.2-0.3-0.2c-0.2-0.1-0.4-0.1-0.6-0.2c-8.6-2.1-15.6-8.5-18.4-16.9
	c-2.8-7.8-0.8-15,3.3-21.9c6.5-10.9,16.1-18.1,27.9-22.8c6.4-2.5,13-4.3,19.6-6.5c6-2,11.8-4.4,16.1-9.2c1.1-1.2,1.4-0.5,1.7,0.5
	c3.2,10,5.5,20.3,7,30.7c0.4,2.6,1.1,8.6,1.1,9v1.9c0,2.8,0,5.6,0,8.5c0,0.8-0.4,3.2-0.4,3.7c-0.5,5.2-1.5,10.4-3.2,15.4
	c-2.8,8.1-7.1,15.1-14.5,20c-10.6,7-23.8,2.8-29.3-3.1c-1.7-1.9-1.7-1.9,0.1-3.6c14-13.1,23.4-28.9,29.5-46.7
	c0.4-0.7,0.4-1.5,0.1-2.2C132.2,714,110.5,735.6,79.6,747.8z"/>
<g id="_5weMXC.tif-3" class="st0">
	<path class="st1" d="M266.4,703.7c1.5,0,2.9,0.4,4.2,1.2c2.7,1.3,5.5,2.1,8.5,2.5c3.7,0.5,7.4,0.3,10.9-0.7c0.8-0.3,1.7-0.3,2.6,0
		c0.6,0.3,1.4,0.2,2-0.2c2.7-1.9,6-2.4,9.1-3.2c9.6-2.4,19.2-4.8,28.7-7.2c0.6-0.2,1.2-0.2,1.7-0.4c1.3-0.5,1.5-0.8,1.5-2.1
		s0-3,0-4.5v-24c0-1.8-0.3-2.2-2-2.7c-5.2-1.3-10.3-2.6-15.5-3.9c-5.4-1.3-10.8-2.6-16.2-4c-4.2-1-8.4-2.2-12.7-3.2
		c-2.7-0.6-5.5-0.8-8.3-0.6c-3.8,0.2-7.6,1.3-11,3.1c-7.3,3.7-12.7,10.5-14.6,18.5c-0.8,3-1.1,6.1-0.8,9.2
		c0.5,6.4,3.2,12.5,7.7,17.2c1.4,1.4,2.6,3,3.8,4.5c0.2,0.2,0.4,0.4,0.2,0.8c-0.4,1.4-0.4,2.9,0,4.4c0.3,2.1,0.3,4.2,0,6.3
		c-0.1,1-0.2,1.9-0.2,2.9c-0.1,2.1-0.5,4.1-0.8,6.1c-0.3,2.4-0.8,4.8-1.2,7.2c-0.4,1.9-0.7,3.8-0.8,5.7c-0.1,4.3,2.3,6.7,5.7,8.1
		c2,0.6,4,1,6,1.3c1.9,0.4,3.9,0.8,5.8,0.9c2.2,0.2,4.5,0.5,6.6-0.4s2.3-2.8,1.6-4.5c-0.6-1.3-1.5-2.4-2-3.8c-0.8-2.3-1-4.8-0.5-7.2
		c0.9-5.5,2.6-10.7,4.2-16c0.4-1.7,1.1-3.3,2-4.7c0.5-1,0.8-2.1,0.9-3.2"/>
	<path class="st1" d="M296,679.1c0.2-6.6-5.7-13.4-13.6-13.1c-7.3,0.4-12.8,6.6-12.5,13.9c0.4,6.9,6.1,12.4,13,12.5
		c7.2,0,13-5.7,13.1-12.9C296,679.3,296,679.3,296,679.1"/>
	<path class="st1" d="M361.8,672.5c-1.8-0.1-3.6,0.1-5.4-0.2c-1.9-0.2-3.7-0.9-5.2-1.9c-2.3-1.6-5-2.3-7.7-2.2c-0.6,0-1.1,0-1.7,0"
		/>
	<path class="st1" d="M361.8,683.6c-2.4,0.1-4.7-0.1-7.1-0.5c-1.1-0.3-2.2-0.7-3.2-1.4c-2.5-1.7-5.5-2.6-8.5-2.5c-0.4,0-0.9,0-1.3,0
		"/>
	<path class="st1" d="M361.8,694.5c-2.4,0.1-4.9-0.1-7.3-0.5c-1.1-0.3-2.1-0.7-3-1.3c-3-2-6.6-2.9-10.2-2.4"/>
</g>
<g id="n1Gy6z.tif-4" class="st0">
	<path class="st1" d="M603.4,489.5h-8c-0.2,0-0.5,0.1-0.7,0c-1.1-0.6-2.1-0.1-3.2,0.1c-1.5,0.4-2.6,1.7-2.7,3.2
		c0,7.6-0.2,15.2,0,22.8c0.1,5.6,2.2,10.9,5.9,15.1c3.1,3.7,7.3,6.4,11.9,7.8c2.5,0.7,5.1,1.1,7.8,1.1c14.6,0,29.1,0,43.7,0
		c7.2,0.1,14-2.8,18.8-8.2c3.5-3.7,5.6-8.4,6.3-13.4c0.2-1.3,0-2.7,1-3.8"/>
	<path class="st1" d="M684.3,494.2c-0.4-0.6-0.6-1.2-0.8-1.9c-0.4-1.4-1.5-2.4-2.9-2.7c-1.2-0.4-2.3-0.1-3.5,0c-2.8,0-5.6,0-8.4,0
		h-60.5"/>
	<path class="st1" d="M673.1,479.2c-0.1-2.4-0.9-4.7-2.2-6.7c-2.2-3.6-5.2-6.7-8.7-9.1c-1.7-1.2-3.5-2.3-5.4-3.3
		c-1.8-1-4.1-0.7-5.7,0.6c-2.4,2.2-5.2,4-8.1,5.3c-4.2,2-8.7,3.5-13.3,4.4c-3.5,0.7-7,1.2-10.5,1.4c-2.9,0.2-5.8,0.3-8.6,0.3
		c-3.4-0.1-6.7,0.9-9.5,2.9c-1.4,1-2.6,2.2-2.5,4.1"/>
	<path class="st1" d="M593.5,489.1v-7c0-1.5,0.6-2.2,2.1-2.3c1,0.1,1.9-0.1,2.8-0.5c0.1-0.1,0.3-0.1,0.5,0c0.8,0.4,1.7,0.6,2.6,0.5
		c23.2,0,46.3,0,69.5,0c0.9,0,1.7-0.6,2.6-0.3c0.8,0.2,1.7,0.3,2.6,0.3c0.5,0,1,0,1.4,0.1c1,0.1,1.7,0.9,1.6,1.9c0,0,0,0.1,0,0.1
		v7.2"/>
	<path class="st1" d="M609.9,502c-1.3,0.3-1.4,0.5-1.4,1.8c0,4.9,0,9.8,0,14.8c0,1.3,0.4,1.6,1.6,1.7h52c1.8-0.2,1.9-0.3,1.9-1.9
		c0-4.8,0-9.5,0-14.3c0-1.9-0.2-2.1-2.1-2.1L609.9,502"/>
</g>
<g id="_5FouJC.tif-4" class="st0">
	<path class="st1" d="M787.3,468.6c-0.8,0.5-1.6,0.9-2.4,1.2c-4.5,1.7-8,5.2-9.6,9.7c-0.6,1.5-0.9,3.1-0.9,4.7c0,19,0,38.1,0,57.1
		c0,2.3,0.8,3.3,3.1,3.8c0.2,0,0.4,0.1,0.6,0.2"/>
	<path class="st1" d="M814.6,545.3c0.7-0.1,1.4-0.3,2-0.6c1-0.5,1.6-1.5,1.6-2.6c0-0.2,0-0.3,0-0.5v-57c0-4-1.6-7.8-4.3-10.6
		c-1.7-1.9-3.8-3.3-6.2-4.1c-0.9-0.3-1.6-1-2.4-1.2s-1.7,0.2-2.5,0.2c-4.1,0-8.3,0-12.4,0c-0.9,0-1.9-0.1-2.8-0.3"/>
	<path class="st1" d="M805.1,468.5c0.2-0.9,0.3-1.9,0.3-2.8c0-3.1,0-6.2,0-9.4c-0.1-2.5-0.2-2.6-2.6-2.6c-4.4-0.1-8.8-0.1-13.2,0
		c-2.3,0-2.5,0.2-2.5,2.5c-0.1,3.1,0,6.3,0,9.5c0,0.9,0.1,1.9,0.3,2.8"/>
	<path class="st1" d="M786.5,495.5c-1.9,0.1-3.6,1.4-4.1,3.3c-0.1,0.6-0.2,1.2-0.2,1.9c0,7.1,0,14.2,0,21.4c0,2,0.6,3.8,2.5,4.8
		c0.5,0.3,1.2,0.4,1.8,0.4h19.4c2.2,0,4-1.6,4.3-3.8c0.1-0.6,0.1-1.2,0.1-1.8c0-7,0-14,0-21c0-0.8-0.1-1.7-0.4-2.4
		c-0.7-1.8-2.6-2.9-4.5-2.7H786.5"/>
</g>
<path class="st3" d="M913.7,548.4h-2.4c-1.2-0.9-2.7-1.5-3.2-3.1v-1.9c1-1.3,2.6-2,4.2-2c1.4-0.1,2.9-0.2,4.3-0.5
	c9.1-1.8,16.7-6.7,24.2-11.6c0.1,0,0.1-0.2,0.1-0.3c-0.1-0.1-0.2-0.2-0.3-0.2c-0.2-0.1-0.4-0.1-0.6-0.2c-8.6-2.1-15.6-8.5-18.4-16.9
	c-2.8-7.7-0.8-15,3.3-21.9c6.5-10.8,16.1-18.1,27.9-22.7c6.4-2.5,13.1-4.3,19.6-6.5c6-2,11.8-4.4,16.2-9.2c1.1-1.2,1.4-0.5,1.7,0.5
	c3.2,10,5.5,20.3,7,30.7c0.3,2.6,1.1,8.6,1.1,9v1.9c0,2.8,0,5.6,0,8.5c0,0.8-0.4,3.2-0.4,3.7c-0.5,5.2-1.5,10.4-3.2,15.4
	c-2.8,8.1-7.1,15.1-14.5,20c-10.7,7-23.7,2.8-29.3-3.1c-1.7-1.9-1.7-1.9,0.1-3.6c14-13.1,23.4-28.9,29.5-46.7
	c0.4-0.7,0.4-1.5,0.1-2.2C966.3,514.6,944.6,536.2,913.7,548.4z"/>
<g id="g1KDu2.tif-4" class="st0">
	<path class="st1" d="M318.3,554c0-3.6,0-7.2,0-10.8c0-6,0-12.1-0.1-18.2c-0.1-3.8,0-7.5-0.1-11.3c-0.3-5.3-1.3-10.6-3.2-15.5
		c-0.9-2.5-2.4-4.8-4.3-6.6c-1.6-1.3-3-2.9-4.1-4.6c-1.2-2.3-1.8-4.9-1.7-7.5c-0.1-3.1,0.6-6.2,2.2-8.8c0.5-0.7,0.9-1.4,1.4-2.1
		c1.3-1.9,2-4.2,2.1-6.5c0.2-3.1-0.3-6.2-1.5-9c-1.3-3-3.7-5.4-6.7-6.7c-2.7-1.2-5.6-1.7-8.6-1.3c-2.7,0.3-5.3,1.3-7.4,3.1
		c-1.8,1.4-3.2,3.3-4.1,5.4"/>
	<path class="st1" d="M279.2,460.8c0,2.6,1.1,4.8,2.2,7.1c1.4,2.3,2.4,4.7,3.2,7.2c0.4,2,0.5,4,0.3,6c-0.1,3.6-1.8,6.4-4.3,9
		c-4.2,4.4-7,9.9-8,15.9c-0.6,3-0.8,6.1-0.8,9.2c0,4.4,0.1,8.9,0,13.3s-0.4,9-0.2,13.5c0.2,4-0.2,8,0,12"/>
	<path class="st1" d="M287.2,513.2v41"/>
	<path class="st1" d="M292.4,513.2v41"/>
	<path class="st1" d="M297.5,513.2v41"/>
	<path class="st1" d="M302.7,513.2v41"/>
	<path class="st1" d="M276.9,513.2c-0.3,13.6,0,27.2-0.1,40.8"/>
	<path class="st1" d="M282,513.2c-0.3,12.8,0,25.6-0.1,38.4c0,0.8,0,1.6,0,2.4"/>
	<path class="st1" d="M307.9,513.2c0.3,12.8,0,25.6,0.1,38.4v2.4"/>
	<path class="st1" d="M313,513.2c0.3,13.6,0,27.2,0.1,40.8"/>
	<path class="st1" d="M314.1,507.6h-38.3"/>
</g>
<path class="st2" d="M452,453.7h3.4c2.2,1.2,3.6,3.3,4,5.8c3.6-4.7,7.6-4.4,10.1,0.4c0.4,0.8,0.5,1,1.6,0.7c4.2-1.4,6.9,0.3,7.2,4.7
	c0.1,1.4,0.7,1.4,1.7,1.4c5.5-0.5,7.6,1.6,6.9,7c-0.1,0.9-0.1,1,0.8,1.1c5.5,0.9,7.1,4.6,4.2,9.6c4.9,2.2,5.8,4.5,3.4,9.4
	c-0.3,0.6-0.6,1,0.2,1.3c1.9,0.8,2.5,2.5,3.5,4v2.8c-0.7,1-1.5,1.8-2.4,2.6c-1.1,0.8-1.5,1.3-0.6,2.7c1.5,2.3,0.9,5.5-1.5,7
	c-1.1,0.8-1.3,1.3-0.6,2.5c1.5,2.5,0.7,5.9-1.8,7.4c-0.5,0.3-1.1,0.5-1.7,0.7c-1.1,0.3-1.4,0.4-1.2,1.7c0.6,3.9-1.7,6.6-5.5,6.6
	c-1.2,0-1.5,0.2-1.6,1.4c-0.5,3.9-2.6,5.6-6.4,5.3c-0.7-0.1-1.2-0.4-1.3,0.7c-0.2,2.5-1.9,3.9-3.9,5h-2.8c-2.3-2.2-4.8-2.1-7.8-1.4
	c-4.1,0.9-8.3,0.9-12.4,0c-2.9-0.7-5.5-0.8-7.8,1.4h-2.8c-2-1.1-3.7-2.5-3.9-5c-0.1-0.6-0.1-0.8-1-0.8c-4.6,0.1-6-1-6.7-5.4
	c-0.1-0.9-0.3-1.1-1.3-1.1c-4.4-0.2-6.2-2.4-5.8-6.9c0.1-0.7,0.3-1-0.7-1.4c-4.8-1.7-5.9-4.2-3.9-8.6c0.4-0.9,0.3-1.1-0.4-1.7
	c-2.9-2.5-3.3-4.4-1.7-7.8c0.2-0.4,1.2-1,0-1.5c-1.5-0.6-2-2.4-3.2-3.3v-3.4c1.2-1,1.7-2.9,3.4-3.5c0.7-0.2,0.5-0.7,0.2-1.3
	c-2.4-5-1.7-6.8,3.5-9.6c-1.6-1.7-2-4.1-1-6.2c1.2-2.6,3.4-3.4,6.2-3.3c-1-2.7-0.8-5,1.2-6.8s4.3-1.8,7-0.5c-0.2-1-0.2-2.1,0.1-3.2
	c0.8-2.9,3.7-4.9,6.4-3.8c1.8,0.7,2.4,0.3,3.1-1.4c0.6-1.3,1.8-2.2,3.2-2.5c2.9-0.9,4.8,0.8,6.6,3.2
	C448.3,457,449.8,454.8,452,453.7z"/>
<g id="_5weMXC.tif-4" class="st0">
	<path class="st1" d="M86.1,504.4c1.5,0,2.9,0.4,4.2,1.2c2.7,1.3,5.5,2.1,8.5,2.5c3.7,0.5,7.4,0.3,10.9-0.6c0.8-0.3,1.7-0.3,2.6,0
		c0.7,0.3,1.4,0.2,2-0.2c2.7-1.9,6-2.4,9.1-3.2c9.6-2.4,19.2-4.8,28.7-7.2c0.6-0.1,1.2-0.2,1.7-0.4c1.3-0.5,1.5-0.8,1.5-2.1
		s0-3,0-4.5v-24c0-1.8-0.3-2.2-2-2.7c-5.2-1.3-10.4-2.6-15.6-3.9c-5.4-1.3-10.8-2.6-16.2-4c-4.2-1-8.4-2.2-12.7-3.2
		c-2.7-0.6-5.5-0.8-8.2-0.6c-3.8,0.2-7.6,1.3-11,3.1c-7.4,3.7-12.8,10.5-14.7,18.6c-0.8,3-1,6.1-0.8,9.2c0.5,6.4,3.2,12.5,7.7,17.1
		c1.4,1.4,2.6,3,3.8,4.5c0.2,0.2,0.4,0.4,0.3,0.9c-0.4,1.4-0.4,2.9,0,4.4c0.3,2.1,0.3,4.2,0,6.3c-0.1,1-0.2,1.9-0.2,2.9
		c-0.1,2.1-0.5,4.1-0.8,6.1c-0.3,2.4-0.8,4.8-1.2,7.2c-0.4,1.9-0.7,3.8-0.8,5.7c-0.1,4.3,2.3,6.7,5.7,8.1c2,0.6,4,1,6,1.3
		c1.9,0.4,3.8,0.8,5.8,1c2.2,0.2,4.5,0.4,6.6-0.4s2.3-2.8,1.6-4.5c-0.6-1.3-1.5-2.4-2-3.8c-0.8-2.3-1-4.8-0.5-7.2
		c0.9-5.5,2.6-10.7,4.2-16c0.4-1.7,1.1-3.3,2-4.7c0.5-1,0.8-2.1,0.9-3.2"/>
	<path class="st1" d="M115.7,479.7c0.2-6.6-5.7-13.4-13.6-13.1c-7.3,0.4-12.8,6.6-12.5,13.9c0.4,6.9,6.1,12.4,13,12.5
		c7.2,0,13-5.7,13.1-12.9c0-0.1,0-0.2,0-0.2"/>
	<path class="st1" d="M181.5,473.2c-1.8-0.1-3.6,0.1-5.4-0.2c-1.9-0.2-3.7-0.9-5.2-1.9c-2.3-1.5-5-2.3-7.7-2.2c-0.6,0-1.1,0-1.7,0"
		/>
	<path class="st1" d="M181.5,484.2c-2.4,0.1-4.7-0.1-7.1-0.5c-1.1-0.3-2.2-0.7-3.2-1.4c-2.5-1.7-5.5-2.6-8.5-2.5c-0.4,0-0.9,0-1.3,0
		"/>
	<path class="st1" d="M181.5,495.2c-2.4,0.1-4.9-0.1-7.3-0.5c-1.1-0.3-2.1-0.7-3-1.3c-3-2-6.6-2.9-10.2-2.4"/>
</g>
</svg>
