<svg xmlns="http://www.w3.org/2000/svg" viewBox="0 0 1055 800"><defs><style>.cls-1,.cls-4{fill:#fff;}.cls-2,.cls-4,.cls-5{opacity:0.1;}.cls-3,.cls-5{fill:none;}.cls-3,.cls-4,.cls-5{stroke:#000;stroke-width:2px;}.cls-3{stroke-linecap:round;stroke-linejoin:round;}.cls-4,.cls-5{stroke-miterlimit:10;}</style></defs><g id="Calque_1" data-name="Calque 1"><rect class="cls-1" width="1055" height="800"/><g id="g1KDu2.tif" class="cls-2"><path class="cls-3" d="M120.84,155.3c0-3.61,0-7.23,0-10.84,0-6.05,0-12.1-.14-18.15-.1-3.77,0-7.54-.11-11.31a52.44,52.44,0,0,0-3.17-15.55,17,17,0,0,0-4.31-6.62A21.5,21.5,0,0,1,109,88.26a14.85,14.85,0,0,1-1.74-7.55,16,16,0,0,1,2.2-8.84c.46-.72.93-1.43,1.43-2.11A12.33,12.33,0,0,0,113,63.28a19,19,0,0,0-1.49-9,12.43,12.43,0,0,0-6.74-6.68,15.76,15.76,0,0,0-8.57-1.31,13.94,13.94,0,0,0-7.39,3.07,13.75,13.75,0,0,0-4.13,5.4"/><path class="cls-3" d="M81.7,62.1c0,2.58,1.1,4.84,2.25,7.06a31.09,31.09,0,0,1,3.19,7.19,22.49,22.49,0,0,1,.29,6c-.11,3.59-1.77,6.43-4.28,9a30.1,30.1,0,0,0-8.05,15.87,49.86,49.86,0,0,0-.8,9.2c0,4.43.08,8.87,0,13.31s-.37,9-.18,13.55c.17,4-.18,8,0,12"/><path class="cls-3" d="M89.7,114.53v41"/><path class="cls-3" d="M94.87,114.53v41"/><path class="cls-3" d="M100,114.53v41"/><path class="cls-3" d="M105.21,114.53v41"/><path class="cls-3" d="M79.35,114.53c-.26,13.59,0,27.18-.11,40.77"/><path class="cls-3" d="M84.53,114.53c-.27,12.8,0,25.61-.12,38.41,0,.79,0,1.57,0,2.36"/><path class="cls-3" d="M110.38,114.53c.27,12.8.05,25.61.12,38.41v2.36"/><path class="cls-3" d="M115.55,114.53c.27,13.59,0,27.18.12,40.77"/><path class="cls-3" d="M116.61,108.88H78.3"/></g><path class="cls-4" d="M254.45,55h3.35a7.71,7.71,0,0,1,3.95,5.76c3.57-4.7,7.59-4.44,10.12.42.4.78.53,1,1.56.66,4.24-1.41,6.92.32,7.24,4.68.1,1.41.71,1.44,1.74,1.35,5.48-.47,7.6,1.64,6.91,7-.11.85-.1,1,.83,1.11,5.52.92,7.07,4.56,4.21,9.63,4.93,2.2,5.8,4.49,3.43,9.38-.28.59-.56,1,.16,1.29,1.85.77,2.51,2.52,3.45,4v2.79a15.43,15.43,0,0,1-2.35,2.6c-1.14.81-1.46,1.28-.63,2.68a5.09,5.09,0,0,1-1.47,7c-1.12.84-1.27,1.26-.6,2.55a5.39,5.39,0,0,1-3.57,8.07c-1.14.29-1.43.4-1.22,1.71.62,3.88-1.67,6.6-5.51,6.64-1.18,0-1.45.17-1.61,1.4-.52,3.92-2.61,5.58-6.42,5.28-.68-.06-1.18-.4-1.26.66-.18,2.51-1.87,3.9-3.87,5H270.1c-2.28-2.22-4.83-2.07-7.77-1.43a29.06,29.06,0,0,1-12.42,0c-2.93-.65-5.49-.79-7.76,1.43h-2.79c-2-1.14-3.67-2.54-3.89-5-.06-.6-.14-.8-1-.78-4.61.14-6-1-6.72-5.44-.15-.94-.31-1.1-1.29-1.14-4.4-.17-6.22-2.41-5.76-6.89.06-.68.27-1-.69-1.38-4.79-1.66-5.93-4.2-3.9-8.63.4-.87.33-1.11-.39-1.72-2.94-2.46-3.29-4.41-1.71-7.8.21-.44,1.22-1,0-1.49-1.55-.64-2-2.37-3.23-3.29V99.75c1.24-1,1.69-2.86,3.41-3.47.7-.25.49-.66.2-1.28-2.35-5-1.68-6.77,3.48-9.58a5.67,5.67,0,0,1-1-6.23c1.17-2.62,3.43-3.36,6.2-3.31-1-2.66-.77-4.95,1.2-6.84s4.32-1.76,7-.49a6.63,6.63,0,0,1,.06-3.18c.84-2.94,3.7-4.88,6.37-3.83,1.84.72,2.42.28,3.06-1.37A4.45,4.45,0,0,1,244,57.65c2.94-.85,4.79.8,6.62,3.19A7.2,7.2,0,0,1,254.45,55Z"/><g id="n1Gy6z.tif" class="cls-2"><path class="cls-3" d="M405.92,90.86H398c-.23,0-.49.08-.67,0-1.09-.59-2.12-.1-3.17.11a3.52,3.52,0,0,0-2.67,3.25c0,7.6-.15,15.21,0,22.8a23.66,23.66,0,0,0,5.87,15.06,25.1,25.1,0,0,0,11.9,7.83A25.78,25.78,0,0,0,417,141q21.84,0,43.69,0a24.73,24.73,0,0,0,18.85-8.16,23.87,23.87,0,0,0,6.27-13.39c.17-1.3.05-2.73,1-3.83"/><path class="cls-3" d="M486.77,95.55a6.58,6.58,0,0,1-.76-1.91,3.8,3.8,0,0,0-2.86-2.74c-1.23-.42-2.31-.06-3.47-.05-2.81,0-5.62,0-8.43,0H410.71"/><path class="cls-3" d="M475.56,80.51a13.37,13.37,0,0,0-2.23-6.69,30,30,0,0,0-8.68-9.12,54.17,54.17,0,0,0-5.38-3.34,5,5,0,0,0-5.66.64,32.06,32.06,0,0,1-8.12,5.31,57,57,0,0,1-13.32,4.39,81.38,81.38,0,0,1-10.54,1.43c-2.87.22-5.75.26-8.62.32a16.37,16.37,0,0,0-9.49,2.85c-1.42,1-2.58,2.19-2.49,4.12"/><path class="cls-3" d="M396,90.38v-7c0-1.49.62-2.21,2.11-2.29a5.47,5.47,0,0,0,2.77-.51.39.39,0,0,1,.48,0,4.34,4.34,0,0,0,2.6.47q34.72,0,69.45,0c.9,0,1.7-.64,2.58-.31a7.59,7.59,0,0,0,2.59.28,8.64,8.64,0,0,1,1.44.1,1.78,1.78,0,0,1,1.63,2v7.18"/><path class="cls-3" d="M412.43,103.31c-1.28.33-1.43.48-1.43,1.82q0,7.38,0,14.76c0,1.28.36,1.64,1.62,1.72.19,0,.39,0,.58,0h51.16a2.62,2.62,0,0,0,.28,0c1.8-.16,1.9-.3,1.91-1.91q0-7.14,0-14.28c0-1.88-.22-2.1-2.1-2.1H412.53"/></g><g id="_5FouJC.tif" data-name="5FouJC.tif" class="cls-2"><path class="cls-3" d="M589.78,70a15.38,15.38,0,0,1-2.43,1.23,16.13,16.13,0,0,0-9.62,9.74,13.25,13.25,0,0,0-.86,4.68q0,28.58,0,57.15c0,2.33.76,3.26,3.08,3.75.19.05.38.13.56.19"/><path class="cls-3" d="M617.09,146.65a9.9,9.9,0,0,0,2-.59,3.09,3.09,0,0,0,1.58-2.64c0-.16,0-.31,0-.47V86a15.32,15.32,0,0,0-4.31-10.67,15.57,15.57,0,0,0-6.17-4.12c-.86-.32-1.59-1-2.44-1.17s-1.65.24-2.51.23q-6.21,0-12.44,0A12.5,12.5,0,0,1,590,70"/><path class="cls-3" d="M607.64,69.87a12.65,12.65,0,0,0,.29-2.81c0-3.12.05-6.25,0-9.37-.06-2.48-.23-2.57-2.61-2.6q-6.59-.12-13.18,0c-2.31,0-2.45.19-2.51,2.51-.08,3.15,0,6.3,0,9.46a13.26,13.26,0,0,0,.28,2.81"/><path class="cls-3" d="M589,96.85a4.43,4.43,0,0,0-4.1,3.29,7.25,7.25,0,0,0-.19,1.87c0,7.12,0,14.24,0,21.36,0,2,.58,3.77,2.53,4.77a3.7,3.7,0,0,0,1.77.39h19.36a4.25,4.25,0,0,0,4.3-3.75,14.94,14.94,0,0,0,.09-1.78q0-10.48,0-21a6,6,0,0,0-.39-2.43,4.44,4.44,0,0,0-4.48-2.72H589.13"/></g><path class="cls-5" d="M716.17,149.75H713.8c-1.16-.92-2.68-1.49-3.15-3.08v-1.92a5.32,5.32,0,0,1,4.25-2,28.08,28.08,0,0,0,4.29-.52c9.12-1.81,16.69-6.68,24.22-11.63.07,0,.06-.22.09-.33a2.37,2.37,0,0,0-.33-.22,5.18,5.18,0,0,0-.56-.17,26,26,0,0,1-18.42-16.95c-2.82-7.74-.76-15,3.34-21.86C734,80.2,743.61,73,755.41,68.31c6.4-2.52,13.06-4.32,19.57-6.51,6-2,11.8-4.4,16.15-9.19,1.06-1.17,1.39-.52,1.72.55a191.26,191.26,0,0,1,7,30.7c.35,2.63,1.14,8.65,1.14,9v1.92c0,2.82,0,5.64,0,8.45,0,.77-.37,3.22-.43,3.7a71.16,71.16,0,0,1-3.15,15.4c-2.8,8.06-7.08,15.1-14.52,20-10.65,7-23.74,2.85-29.29-3.13-1.73-1.86-1.73-1.86.1-3.57,14-13.09,23.44-28.92,29.55-46.74a2.37,2.37,0,0,0,.1-2.17C768.79,115.94,747.13,137.57,716.17,149.75Z"/><g id="_5weMXC.tif" data-name="5weMXC.tif" class="cls-2"><path class="cls-3" d="M903,105.72a8.07,8.07,0,0,1,4.19,1.16,27.43,27.43,0,0,0,8.46,2.5,28.2,28.2,0,0,0,10.94-.65,4.22,4.22,0,0,1,2.56,0,1.85,1.85,0,0,0,1.94-.25c2.74-1.92,6-2.41,9.12-3.21,9.57-2.43,19.15-4.8,28.73-7.19.58-.15,1.16-.24,1.72-.44,1.27-.46,1.48-.77,1.5-2.14s0-3,0-4.5V67c0-1.83-.28-2.23-2-2.68q-7.77-1.95-15.55-3.86c-5.39-1.33-10.79-2.63-16.18-4-4.23-1-8.43-2.21-12.66-3.19a26.9,26.9,0,0,0-8.26-.6,27.39,27.39,0,0,0-11,3.06,28.13,28.13,0,0,0-14.62,18.52,27,27,0,0,0-.78,9.23,28,28,0,0,0,7.68,17.15c1.36,1.44,2.59,3,3.83,4.53.17.2.43.4.26.85a8.34,8.34,0,0,0,0,4.38,23.61,23.61,0,0,1,0,6.34c-.11,1-.19,1.92-.24,2.89-.11,2.06-.52,4.07-.76,6.11-.28,2.41-.75,4.8-1.18,7.18a37.58,37.58,0,0,0-.76,5.69c-.1,4.29,2.31,6.75,5.69,8.06a33.46,33.46,0,0,0,6,1.26c1.92.37,3.85.75,5.79.95,2.22.22,4.48.44,6.65-.41s2.32-2.85,1.57-4.48c-.59-1.29-1.48-2.44-2-3.77a13.42,13.42,0,0,1-.52-7.18c.89-5.46,2.65-10.69,4.2-16a18.21,18.21,0,0,1,2-4.74,7.16,7.16,0,0,0,.87-3.21"/><path class="cls-3" d="M932.61,81.06c.25-6.59-5.67-13.41-13.61-13.09a13.18,13.18,0,0,0,.53,26.34,13,13,0,0,0,13.08-13.15"/><path class="cls-3" d="M998.45,74.52c-1.79-.09-3.57.07-5.37-.18a12.28,12.28,0,0,1-5.24-1.87,13,13,0,0,0-7.73-2.24H978.4"/><path class="cls-3" d="M998.45,85.56a33,33,0,0,1-7.08-.54,9.88,9.88,0,0,1-3.21-1.39,14,14,0,0,0-8.47-2.47c-.43,0-.86,0-1.29,0"/><path class="cls-3" d="M998.45,96.5a31.27,31.27,0,0,1-7.29-.53,8.73,8.73,0,0,1-3-1.32A14.93,14.93,0,0,0,978,92.21"/></g><g id="g1KDu2.tif-2" data-name="g1KDu2.tif" class="cls-2"><path class="cls-3" d="M632.42,354.64c0-3.61,0-7.23,0-10.84,0-6.05,0-12.1-.14-18.15-.09-3.77,0-7.54-.11-11.31A52.38,52.38,0,0,0,629,298.79a17,17,0,0,0-4.31-6.62,21.5,21.5,0,0,1-4.15-4.57,15,15,0,0,1-1.74-7.55,15.9,15.9,0,0,1,2.21-8.84c.45-.72.93-1.43,1.43-2.11a12.32,12.32,0,0,0,2.1-6.48,19,19,0,0,0-1.49-9,12.43,12.43,0,0,0-6.74-6.68,15.75,15.75,0,0,0-8.57-1.31,14.29,14.29,0,0,0-11.52,8.47"/><path class="cls-3" d="M593.29,261.44a15.64,15.64,0,0,0,2.24,7.06c1.21,2.33,2.59,4.57,3.19,7.19a22.92,22.92,0,0,1,.3,6c-.12,3.59-1.78,6.43-4.29,9a30.1,30.1,0,0,0-8.05,15.87,49.86,49.86,0,0,0-.8,9.2c0,4.43.08,8.87,0,13.31s-.37,9-.18,13.55c.17,4-.18,8,0,12"/><path class="cls-3" d="M601.28,313.87v41"/><path class="cls-3" d="M606.45,313.87v41"/><path class="cls-3" d="M611.62,313.87v41"/><path class="cls-3" d="M616.79,313.87v41"/><path class="cls-3" d="M590.94,313.87c-.27,13.59-.05,27.18-.12,40.77"/><path class="cls-3" d="M596.11,313.87c-.27,12.8-.05,25.61-.12,38.41v2.36"/><path class="cls-3" d="M622,313.87c.27,12.8,0,25.61.12,38.41,0,.79,0,1.57,0,2.36"/><path class="cls-3" d="M627.14,313.87c.26,13.59,0,27.18.11,40.77"/><path class="cls-3" d="M628.19,308.22H589.88"/></g><path class="cls-4" d="M766,254.37h3.35a7.71,7.71,0,0,1,4,5.76c3.57-4.7,7.59-4.44,10.12.42.4.78.54,1,1.56.66,4.24-1.41,6.92.32,7.24,4.68.1,1.41.71,1.44,1.74,1.35,5.48-.47,7.61,1.64,6.91,7-.11.85-.1,1,.83,1.11,5.52.92,7.07,4.56,4.21,9.63,4.94,2.2,5.8,4.49,3.43,9.38-.28.59-.55,1,.16,1.29,1.85.77,2.51,2.52,3.45,4v2.79a15.43,15.43,0,0,1-2.35,2.6c-1.14.81-1.46,1.28-.62,2.68a5.1,5.1,0,0,1-1.48,7c-1.12.84-1.27,1.26-.6,2.55a5.39,5.39,0,0,1-3.57,8.07c-1.14.29-1.43.4-1.22,1.71.62,3.88-1.66,6.6-5.51,6.64-1.18,0-1.45.17-1.61,1.4-.51,3.92-2.61,5.58-6.42,5.28-.68-.06-1.18-.4-1.26.66-.18,2.51-1.87,3.9-3.87,5.05h-2.79c-2.27-2.22-4.83-2.07-7.76-1.43a29.11,29.11,0,0,1-12.43,0c-2.93-.65-5.48-.79-7.76,1.43h-2.79c-2-1.14-3.67-2.54-3.89-5-.06-.6-.14-.8-1-.78-4.61.14-6-1-6.71-5.44-.16-.94-.31-1.1-1.3-1.14-4.39-.17-6.22-2.41-5.76-6.89.06-.68.27-1.05-.69-1.38-4.79-1.66-5.93-4.2-3.9-8.63.4-.87.33-1.11-.39-1.72-2.94-2.46-3.29-4.41-1.71-7.8.21-.44,1.22-1,0-1.49-1.55-.64-2-2.37-3.23-3.29v-3.35c1.24-1,1.69-2.86,3.41-3.47.7-.25.5-.66.21-1.28-2.36-5-1.68-6.77,3.48-9.58a5.66,5.66,0,0,1-1-6.23c1.18-2.62,3.43-3.36,6.2-3.31-1-2.66-.77-5,1.2-6.84s4.32-1.76,7-.49a6.62,6.62,0,0,1,.06-3.18c.84-2.94,3.7-4.88,6.37-3.83,1.84.72,2.42.28,3.06-1.38a4.46,4.46,0,0,1,3.16-2.51c2.94-.85,4.79.8,6.62,3.19A7.22,7.22,0,0,1,766,254.37Z"/><g id="n1Gy6z.tif-2" data-name="n1Gy6z.tif" class="cls-2"><path class="cls-3" d="M917.5,290.2h-8c-.23,0-.49.08-.67,0-1.08-.59-2.12-.1-3.16.11a3.53,3.53,0,0,0-2.68,3.25c0,7.6-.15,15.21,0,22.8A23.62,23.62,0,0,0,909,331.41a25.07,25.07,0,0,0,11.9,7.83,25.68,25.68,0,0,0,7.75,1.06q21.84,0,43.69,0a24.73,24.73,0,0,0,18.85-8.16,23.87,23.87,0,0,0,6.27-13.39c.17-1.3.06-2.73,1-3.83"/><path class="cls-3" d="M998.35,294.89a6.58,6.58,0,0,1-.76-1.91,3.79,3.79,0,0,0-2.86-2.74c-1.22-.42-2.31-.06-3.46-.05-2.81,0-5.62,0-8.43,0H922.29"/><path class="cls-3" d="M987.15,279.85a13.57,13.57,0,0,0-2.23-6.69,30,30,0,0,0-8.69-9.12,54.17,54.17,0,0,0-5.38-3.34,5,5,0,0,0-5.66.64,32.06,32.06,0,0,1-8.12,5.31A57,57,0,0,1,943.75,271a81.38,81.38,0,0,1-10.54,1.43c-2.87.22-5.74.26-8.62.32a16.37,16.37,0,0,0-9.49,2.85c-1.42,1-2.58,2.19-2.49,4.12"/><path class="cls-3" d="M907.54,289.72c0-2.33,0-4.66,0-7,0-1.49.61-2.21,2.1-2.29a5.45,5.45,0,0,0,2.77-.51.39.39,0,0,1,.48,0,4.35,4.35,0,0,0,2.6.47q34.72,0,69.45,0c.9,0,1.7-.64,2.59-.31a7.56,7.56,0,0,0,2.59.28,8.52,8.52,0,0,1,1.43.1,1.78,1.78,0,0,1,1.63,2c0,2.39,0,4.79,0,7.18"/><path class="cls-3" d="M924,302.65c-1.28.33-1.43.48-1.43,1.82q0,7.38,0,14.76c0,1.28.36,1.64,1.62,1.72h52c1.8-.16,1.91-.3,1.91-1.91q0-7.14,0-14.28c0-1.88-.22-2.1-2.1-2.1H924.11"/></g><g id="_5FouJC.tif-2" data-name="5FouJC.tif" class="cls-2"><path class="cls-3" d="M86.94,269.3a15.38,15.38,0,0,1-2.43,1.23,16.13,16.13,0,0,0-9.62,9.74A13.25,13.25,0,0,0,74,285q0,28.57,0,57.15c0,2.33.77,3.26,3.09,3.75.19,0,.38.13.56.19"/><path class="cls-3" d="M114.25,346a9.9,9.9,0,0,0,2-.59,3.11,3.11,0,0,0,1.58-2.64c0-.16,0-.31,0-.47v-57a15.32,15.32,0,0,0-4.31-10.67,15.57,15.57,0,0,0-6.17-4.12c-.86-.32-1.59-.95-2.44-1.17s-1.65.24-2.51.23q-6.21,0-12.44,0a13.11,13.11,0,0,1-2.8-.29"/><path class="cls-3" d="M104.8,269.21a12.65,12.65,0,0,0,.29-2.81c0-3.13,0-6.25,0-9.37-.06-2.48-.23-2.57-2.61-2.6q-6.58-.12-13.18,0c-2.31,0-2.45.19-2.51,2.51-.08,3.15,0,6.3,0,9.46a13.26,13.26,0,0,0,.28,2.81"/><path class="cls-3" d="M86.19,296.19a4.43,4.43,0,0,0-4.1,3.29,7.25,7.25,0,0,0-.19,1.87c0,7.12,0,14.24,0,21.36,0,2.05.58,3.77,2.53,4.77a3.7,3.7,0,0,0,1.77.39h19.36a4.25,4.25,0,0,0,4.3-3.75,14.94,14.94,0,0,0,.09-1.78q0-10.49,0-21a6.1,6.1,0,0,0-.39-2.44,4.44,4.44,0,0,0-4.48-2.71H86.29"/></g><path class="cls-5" d="M213.33,349.09H211c-1.16-.92-2.68-1.49-3.15-3.08v-1.92a5.32,5.32,0,0,1,4.25-2,29.39,29.39,0,0,0,4.29-.52c9.12-1.81,16.69-6.68,24.22-11.63.07-.05.06-.22.09-.33a2.37,2.37,0,0,0-.33-.22,5.18,5.18,0,0,0-.56-.17,26,26,0,0,1-18.42-16.95c-2.82-7.74-.77-15,3.33-21.86,6.49-10.84,16.08-18.07,27.89-22.73,6.4-2.52,13.06-4.32,19.57-6.51,6-2,11.8-4.4,16.15-9.19,1.06-1.17,1.39-.52,1.72.55a191.26,191.26,0,0,1,7,30.7c.35,2.63,1.14,8.64,1.14,9v1.92c0,2.82,0,5.64,0,8.45,0,.77-.37,3.22-.43,3.7a71.18,71.18,0,0,1-3.16,15.4c-2.79,8.06-7.07,15.1-14.51,20-10.65,7-23.75,2.85-29.29-3.13-1.73-1.86-1.73-1.86.1-3.57,14-13.09,23.44-28.92,29.55-46.74a2.37,2.37,0,0,0,.1-2.17C266,315.28,244.29,336.91,213.33,349.09Z"/><g id="_5weMXC.tif-2" data-name="5weMXC.tif" class="cls-2"><path class="cls-3" d="M400.18,305.06a8.07,8.07,0,0,1,4.19,1.16,27.43,27.43,0,0,0,8.46,2.5,28.2,28.2,0,0,0,10.94-.65,4.22,4.22,0,0,1,2.56,0,1.85,1.85,0,0,0,1.94-.25c2.74-1.92,6-2.41,9.12-3.21,9.57-2.43,19.15-4.8,28.73-7.19.57-.15,1.16-.24,1.72-.44,1.27-.46,1.48-.77,1.5-2.14s0-3,0-4.5v-24c0-1.83-.28-2.23-2-2.68q-7.77-1.95-15.55-3.86c-5.39-1.33-10.79-2.63-16.19-4-4.22-1.05-8.42-2.21-12.65-3.19a26.9,26.9,0,0,0-8.26-.6,27.39,27.39,0,0,0-11,3.06A28.18,28.18,0,0,0,389,273.63a27.23,27.23,0,0,0-.77,9.23A28,28,0,0,0,395.9,300c1.36,1.44,2.59,3,3.83,4.53.16.2.43.4.26.85a8.24,8.24,0,0,0,0,4.38,23.61,23.61,0,0,1,0,6.34c-.11.95-.19,1.92-.24,2.89-.11,2.06-.52,4.07-.76,6.11-.28,2.41-.75,4.8-1.18,7.18a37.58,37.58,0,0,0-.76,5.69c-.1,4.29,2.31,6.74,5.69,8.06a33.46,33.46,0,0,0,6,1.26c1.92.37,3.85.75,5.79.95,2.22.22,4.48.44,6.64-.41s2.33-2.85,1.58-4.48c-.59-1.29-1.48-2.44-2-3.77a13.42,13.42,0,0,1-.52-7.18c.89-5.46,2.65-10.69,4.2-16a18.29,18.29,0,0,1,2-4.73,7.16,7.16,0,0,0,.87-3.21"/><path class="cls-3" d="M429.77,280.4c.25-6.59-5.67-13.41-13.61-13.09a13.18,13.18,0,0,0,.53,26.34,13,13,0,0,0,13.08-13.15"/><path class="cls-3" d="M495.61,273.86c-1.79-.09-3.57.07-5.37-.18a12.28,12.28,0,0,1-5.24-1.87,13.05,13.05,0,0,0-7.73-2.25c-.57,0-1.14,0-1.71,0"/><path class="cls-3" d="M495.61,284.9a33,33,0,0,1-7.08-.54,9.88,9.88,0,0,1-3.21-1.39,14.06,14.06,0,0,0-8.47-2.47h-1.29"/><path class="cls-3" d="M495.61,295.84a31.27,31.27,0,0,1-7.29-.53,8.93,8.93,0,0,1-3-1.32,14.93,14.93,0,0,0-10.21-2.44"/></g><path class="cls-4" d="M632.25,653.05h3.36a7.76,7.76,0,0,1,3.95,5.76c3.57-4.7,7.58-4.44,10.11.42.41.78.54,1,1.56.66,4.24-1.41,6.92.32,7.24,4.68.1,1.41.72,1.44,1.74,1.35,5.49-.47,7.61,1.64,6.91,7-.11.85-.1,1,.83,1.11,5.52.92,7.08,4.56,4.22,9.63,4.93,2.2,5.79,4.49,3.43,9.38-.29.59-.56,1,.16,1.29,1.84.77,2.5,2.52,3.44,4v2.79a15.37,15.37,0,0,1-2.34,2.6c-1.14.81-1.47,1.28-.63,2.68a5.1,5.1,0,0,1-1.48,7c-1.12.84-1.27,1.26-.6,2.55a5.38,5.38,0,0,1-3.56,8.07c-1.14.29-1.44.4-1.23,1.71.63,3.88-1.66,6.6-5.51,6.64-1.17,0-1.45.17-1.61,1.4-.51,3.92-2.6,5.58-6.41,5.28-.69-.06-1.19-.4-1.26.66-.18,2.51-1.88,3.9-3.87,5.05h-2.8c-2.27-2.22-4.83-2.07-7.76-1.43a29.06,29.06,0,0,1-12.42,0c-2.94-.65-5.49-.79-7.77,1.43h-2.79c-2-1.14-3.66-2.54-3.89-5,0-.6-.13-.8-1-.78-4.62.14-6-1-6.72-5.44-.16-.94-.31-1.11-1.29-1.14-4.4-.17-6.22-2.41-5.77-6.89.07-.68.27-1-.69-1.38-4.79-1.66-5.93-4.2-3.9-8.63.41-.87.34-1.11-.39-1.72-2.94-2.46-3.28-4.41-1.7-7.8.2-.44,1.21-1,0-1.49-1.55-.64-2-2.37-3.23-3.29v-3.35c1.25-1,1.69-2.86,3.41-3.47.7-.25.5-.66.21-1.28-2.35-5-1.68-6.77,3.48-9.58a5.67,5.67,0,0,1-1-6.23c1.18-2.62,3.43-3.36,6.2-3.31-1-2.66-.76-4.95,1.2-6.84s4.32-1.76,7-.49a6.62,6.62,0,0,1,.06-3.18c.85-2.94,3.7-4.88,6.37-3.83,1.85.72,2.43.28,3.06-1.38a4.48,4.48,0,0,1,3.17-2.51c2.94-.85,4.78.8,6.61,3.19A7.22,7.22,0,0,1,632.25,653.05Z"/><g id="n1Gy6z.tif-3" data-name="n1Gy6z.tif" class="cls-2"><path class="cls-3" d="M783.72,688.88h-8c-.22,0-.49.08-.66,0-1.09-.59-2.13-.1-3.17.11a3.53,3.53,0,0,0-2.68,3.25c0,7.6-.14,15.21,0,22.8a23.73,23.73,0,0,0,5.88,15.06,25.17,25.17,0,0,0,11.9,7.83,25.7,25.7,0,0,0,7.76,1.06q21.84,0,43.68,0a24.75,24.75,0,0,0,18.85-8.16,23.74,23.74,0,0,0,6.27-13.39c.17-1.3.06-2.73,1-3.83"/><path class="cls-3" d="M864.58,693.57a6.6,6.6,0,0,1-.77-1.91,3.82,3.82,0,0,0-2.85-2.75c-1.23-.41-2.32,0-3.47,0-2.81,0-5.62,0-8.43,0H788.51"/><path class="cls-3" d="M853.37,678.53a13.47,13.47,0,0,0-2.23-6.69,30,30,0,0,0-8.69-9.12,55.2,55.2,0,0,0-5.37-3.34,5,5,0,0,0-5.67.64,32,32,0,0,1-8.11,5.31A57.56,57.56,0,0,1,810,669.72a81.38,81.38,0,0,1-10.54,1.43c-2.87.22-5.74.26-8.62.32a16.31,16.31,0,0,0-9.48,2.85c-1.43,1-2.59,2.19-2.49,4.12"/><path class="cls-3" d="M773.76,688.4v-7c0-1.49.62-2.21,2.11-2.29a5.49,5.49,0,0,0,2.77-.51.39.39,0,0,1,.48,0,4.32,4.32,0,0,0,2.59.47q34.72,0,69.46,0c.9,0,1.69-.64,2.58-.31a7.59,7.59,0,0,0,2.59.28,8.45,8.45,0,0,1,1.43.1,1.77,1.77,0,0,1,1.63,2c0,2.39,0,4.79,0,7.18"/><path class="cls-3" d="M790.24,701.33c-1.29.33-1.43.48-1.44,1.82q0,7.38,0,14.76c0,1.28.37,1.64,1.63,1.72h52c1.8-.16,1.9-.3,1.91-1.91q0-7.14,0-14.28c0-1.88-.23-2.1-2.1-2.1H790.33"/></g><g id="_5FouJC.tif-3" data-name="5FouJC.tif" class="cls-2"><path class="cls-3" d="M967.59,668a15.83,15.83,0,0,1-2.43,1.23,16.13,16.13,0,0,0-9.62,9.74,13.26,13.26,0,0,0-.87,4.68q0,28.57,0,57.15c0,2.33.77,3.26,3.09,3.75.19.05.37.13.56.19"/><path class="cls-3" d="M994.89,744.67a9.9,9.9,0,0,0,2-.59,3.1,3.1,0,0,0,1.59-2.64c0-.16,0-.31,0-.47V684a15.36,15.36,0,0,0-4.31-10.67,15.64,15.64,0,0,0-6.17-4.12c-.86-.32-1.6-1-2.44-1.17s-1.65.24-2.51.23q-6.22,0-12.44,0a13.27,13.27,0,0,1-2.81-.29"/><path class="cls-3" d="M985.45,667.89a14,14,0,0,0,.29-2.81c0-3.13,0-6.25,0-9.37-.05-2.48-.22-2.57-2.6-2.61q-6.58-.11-13.19,0c-2.31,0-2.44.19-2.5,2.5-.08,3.16,0,6.31,0,9.47a13.27,13.27,0,0,0,.29,2.81"/><path class="cls-3" d="M966.84,694.87a4.42,4.42,0,0,0-4.1,3.29,7.25,7.25,0,0,0-.2,1.87c0,7.12,0,14.24,0,21.36,0,2.05.59,3.77,2.53,4.77a3.74,3.74,0,0,0,1.78.39H986.2a4.24,4.24,0,0,0,4.29-3.75,15.05,15.05,0,0,0,.1-1.78V700a6.1,6.1,0,0,0-.38-2.44,4.46,4.46,0,0,0-4.48-2.71h-18.8"/></g><g id="g1KDu2.tif-3" data-name="g1KDu2.tif" class="cls-2"><path class="cls-3" d="M498.65,753.32c0-3.61,0-7.23,0-10.84,0-6.05,0-12.1-.15-18.15-.09-3.77,0-7.54-.1-11.31a52.69,52.69,0,0,0-3.17-15.55,17,17,0,0,0-4.32-6.62,21.72,21.72,0,0,1-4.14-4.57,14.85,14.85,0,0,1-1.74-7.55,15.89,15.89,0,0,1,2.2-8.84c.46-.72.93-1.43,1.43-2.11a12.44,12.44,0,0,0,2.11-6.48,19,19,0,0,0-1.5-9,12.44,12.44,0,0,0-6.73-6.68,15.77,15.77,0,0,0-8.57-1.31,13.94,13.94,0,0,0-7.39,3.07,13.66,13.66,0,0,0-4.13,5.4"/><path class="cls-3" d="M459.51,660.12a15.64,15.64,0,0,0,2.24,7.06c1.21,2.33,2.59,4.57,3.2,7.19a23.35,23.35,0,0,1,.29,6c-.11,3.59-1.78,6.43-4.28,9a30,30,0,0,0-8,15.87,49,49,0,0,0-.81,9.2c0,4.43.08,8.87,0,13.31s-.37,9-.17,13.55c.17,4-.19,8,0,12"/><path class="cls-3" d="M467.5,712.55v41"/><path class="cls-3" d="M472.67,712.55v41"/><path class="cls-3" d="M477.84,712.55v41"/><path class="cls-3" d="M483,712.55v41"/><path class="cls-3" d="M457.16,712.55c-.27,13.59-.05,27.18-.12,40.77"/><path class="cls-3" d="M462.33,712.55c-.26,12.8-.05,25.61-.12,38.41v2.36"/><path class="cls-3" d="M488.19,712.55c.26,12.8.05,25.61.11,38.41,0,.79,0,1.57,0,2.36"/><path class="cls-3" d="M493.36,712.55c.27,13.59,0,27.18.12,40.77"/><path class="cls-3" d="M494.42,706.89H456.1"/></g><path class="cls-5" d="M79.55,747.77H77.18c-1.16-.92-2.68-1.49-3.15-3.08v-1.92a5.35,5.35,0,0,1,4.25-2,29.53,29.53,0,0,0,4.3-.52c9.11-1.81,16.68-6.68,24.21-11.63.07-.05.06-.22.09-.33a2,2,0,0,0-.32-.22c-.18-.07-.38-.12-.56-.18a26,26,0,0,1-18.43-16.94c-2.82-7.75-.76-15,3.34-21.86C97.4,678.22,107,671,118.8,666.33c6.4-2.52,13-4.33,19.57-6.51,6-2,11.8-4.4,16.14-9.19,1.06-1.17,1.4-.52,1.72.55a191.26,191.26,0,0,1,7,30.7c.35,2.63,1.14,8.64,1.14,9v1.92c0,2.82,0,5.64,0,8.45,0,.77-.37,3.22-.42,3.7a71.78,71.78,0,0,1-3.16,15.4c-2.8,8.06-7.08,15.1-14.51,20-10.65,7-23.75,2.85-29.3-3.13-1.73-1.86-1.73-1.86.11-3.57,14-13.09,23.44-28.92,29.54-46.74a2.34,2.34,0,0,0,.1-2.17C132.17,714,110.51,735.59,79.55,747.77Z"/><g id="_5weMXC.tif-3" data-name="5weMXC.tif" class="cls-2"><path class="cls-3" d="M266.4,703.74a8.07,8.07,0,0,1,4.19,1.16,27.43,27.43,0,0,0,8.46,2.5,28.2,28.2,0,0,0,10.94-.65,4.21,4.21,0,0,1,2.56,0,1.87,1.87,0,0,0,1.95-.25c2.74-1.92,6-2.41,9.11-3.21,9.57-2.43,19.16-4.8,28.74-7.19.57-.15,1.16-.24,1.71-.44,1.28-.46,1.48-.77,1.5-2.14s0-3,0-4.5V665c0-1.83-.28-2.23-2-2.68q-7.75-2-15.54-3.86c-5.4-1.33-10.8-2.63-16.19-4-4.22-1-8.42-2.21-12.66-3.19a26.88,26.88,0,0,0-8.26-.6,27.44,27.44,0,0,0-11,3.06,28.16,28.16,0,0,0-14.62,18.52,27,27,0,0,0-.78,9.23,28,28,0,0,0,7.68,17.15c1.36,1.44,2.6,3,3.84,4.53.16.19.43.4.25.85a8.24,8.24,0,0,0,0,4.38,23.61,23.61,0,0,1,0,6.34c-.11,1-.19,1.92-.24,2.89-.11,2.06-.52,4.07-.75,6.11-.28,2.41-.76,4.79-1.19,7.18a37.58,37.58,0,0,0-.76,5.69c-.09,4.29,2.31,6.74,5.69,8.06a33.64,33.64,0,0,0,6,1.26c1.92.37,3.85.75,5.79.94,2.22.23,4.48.45,6.65-.4s2.32-2.85,1.57-4.49c-.59-1.28-1.48-2.43-2-3.77a13.51,13.51,0,0,1-.52-7.18c.9-5.45,2.65-10.68,4.2-16a18.68,18.68,0,0,1,2-4.73,7.15,7.15,0,0,0,.86-3.21"/><path class="cls-3" d="M296,679.08c.25-6.59-5.67-13.41-13.62-13.09a13.18,13.18,0,0,0,.54,26.34A13,13,0,0,0,296,679.18"/><path class="cls-3" d="M361.83,672.54c-1.78-.09-3.57.07-5.36-.18a12.36,12.36,0,0,1-5.25-1.87,12.93,12.93,0,0,0-7.72-2.25c-.57,0-1.15,0-1.72,0"/><path class="cls-3" d="M361.83,683.58a32.86,32.86,0,0,1-7.07-.54,9.74,9.74,0,0,1-3.22-1.4,14.1,14.1,0,0,0-8.47-2.46c-.43,0-.86,0-1.29,0"/><path class="cls-3" d="M361.83,694.52a31.87,31.87,0,0,1-7.29-.53,8.84,8.84,0,0,1-3-1.33,15,15,0,0,0-10.21-2.43"/></g><g id="n1Gy6z.tif-4" data-name="n1Gy6z.tif" class="cls-2"><path class="cls-3" d="M603.42,489.54h-7.95c-.23,0-.49.08-.67,0-1.09-.59-2.12-.1-3.17.11a3.52,3.52,0,0,0-2.67,3.25c0,7.6-.15,15.21,0,22.8a23.66,23.66,0,0,0,5.87,15.06,25.17,25.17,0,0,0,11.9,7.83,25.78,25.78,0,0,0,7.76,1.06q21.84,0,43.69,0a24.73,24.73,0,0,0,18.85-8.16,23.87,23.87,0,0,0,6.27-13.39c.17-1.3,0-2.73,1-3.83"/><path class="cls-3" d="M684.27,494.23a6.58,6.58,0,0,1-.76-1.91,3.8,3.8,0,0,0-2.86-2.74c-1.23-.42-2.31-.06-3.47-.05-2.81,0-5.62,0-8.43,0H608.21"/><path class="cls-3" d="M673.06,479.19a13.37,13.37,0,0,0-2.23-6.69,30,30,0,0,0-8.68-9.12,54.17,54.17,0,0,0-5.38-3.34,5,5,0,0,0-5.66.64A32.06,32.06,0,0,1,643,466a57,57,0,0,1-13.32,4.39,81.38,81.38,0,0,1-10.54,1.43c-2.87.22-5.75.26-8.62.32A16.37,16.37,0,0,0,601,475c-1.42,1-2.58,2.19-2.49,4.12"/><path class="cls-3" d="M593.45,489.06v-7c0-1.49.62-2.21,2.11-2.29a5.47,5.47,0,0,0,2.77-.51.39.39,0,0,1,.48,0,4.34,4.34,0,0,0,2.6.47q34.73,0,69.45,0c.9,0,1.7-.64,2.58-.31a7.59,7.59,0,0,0,2.59.28,8.64,8.64,0,0,1,1.44.1,1.78,1.78,0,0,1,1.63,2v7.18"/><path class="cls-3" d="M609.93,502c-1.28.33-1.43.48-1.43,1.82q0,7.38,0,14.76c0,1.28.36,1.64,1.62,1.72h52c1.8-.16,1.9-.3,1.91-1.91q0-7.14,0-14.28c0-1.88-.22-2.1-2.1-2.1H610"/></g><g id="_5FouJC.tif-4" data-name="5FouJC.tif" class="cls-2"><path class="cls-3" d="M787.28,468.64a15.38,15.38,0,0,1-2.43,1.23,16.13,16.13,0,0,0-9.62,9.74,13.25,13.25,0,0,0-.86,4.68q0,28.57,0,57.15c0,2.33.76,3.26,3.08,3.75.19,0,.38.13.56.19"/><path class="cls-3" d="M814.59,545.33a9.9,9.9,0,0,0,2-.59,3.09,3.09,0,0,0,1.58-2.64c0-.16,0-.31,0-.47v-57A15.32,15.32,0,0,0,813.83,474a15.57,15.57,0,0,0-6.17-4.12c-.86-.32-1.59-.95-2.44-1.17s-1.65.24-2.51.23q-6.21,0-12.44,0a13.11,13.11,0,0,1-2.8-.29"/><path class="cls-3" d="M805.14,468.55a12.65,12.65,0,0,0,.29-2.81c0-3.13.05-6.25,0-9.37-.06-2.48-.23-2.57-2.61-2.6q-6.59-.12-13.18,0c-2.31,0-2.45.19-2.51,2.51-.08,3.15,0,6.3,0,9.46a13.26,13.26,0,0,0,.28,2.81"/><path class="cls-3" d="M786.53,495.53a4.43,4.43,0,0,0-4.1,3.29,7.25,7.25,0,0,0-.19,1.87c0,7.12,0,14.24,0,21.36,0,2.05.58,3.77,2.53,4.77a3.7,3.7,0,0,0,1.77.39h19.36a4.25,4.25,0,0,0,4.3-3.75,14.94,14.94,0,0,0,.09-1.78q0-10.49,0-21a6.1,6.1,0,0,0-.39-2.44,4.44,4.44,0,0,0-4.48-2.71H786.63"/></g><path class="cls-5" d="M913.67,548.43H911.3c-1.16-.92-2.68-1.49-3.15-3.08v-1.92a5.32,5.32,0,0,1,4.25-2,29.39,29.39,0,0,0,4.29-.52c9.12-1.81,16.69-6.68,24.22-11.63.07,0,.06-.22.09-.33a1.72,1.72,0,0,0-.33-.22c-.18-.07-.37-.12-.56-.18a26,26,0,0,1-18.42-16.94c-2.82-7.74-.76-15,3.34-21.86,6.48-10.84,16.08-18.07,27.88-22.73,6.4-2.52,13.06-4.33,19.57-6.51,6-2,11.8-4.4,16.15-9.19,1.06-1.17,1.39-.52,1.72.55a191.26,191.26,0,0,1,7,30.7c.35,2.63,1.14,8.64,1.14,9v1.92c0,2.82,0,5.64,0,8.45,0,.77-.37,3.22-.43,3.7a71.16,71.16,0,0,1-3.15,15.4c-2.8,8.06-7.08,15.1-14.52,20-10.65,7-23.74,2.85-29.29-3.13-1.73-1.86-1.73-1.86.1-3.57,14-13.09,23.44-28.92,29.55-46.74a2.37,2.37,0,0,0,.1-2.17C966.29,514.62,944.63,536.25,913.67,548.43Z"/><g id="g1KDu2.tif-4" data-name="g1KDu2.tif" class="cls-2"><path class="cls-3" d="M318.34,554c0-3.61,0-7.23,0-10.84,0-6,0-12.1-.14-18.15-.1-3.77,0-7.54-.11-11.31a52.38,52.38,0,0,0-3.17-15.55,17,17,0,0,0-4.31-6.62,21.5,21.5,0,0,1-4.15-4.57,14.85,14.85,0,0,1-1.74-7.55,16,16,0,0,1,2.2-8.84c.46-.72.93-1.43,1.43-2.11a12.33,12.33,0,0,0,2.11-6.48,19,19,0,0,0-1.49-9,12.43,12.43,0,0,0-6.74-6.68,15.76,15.76,0,0,0-8.57-1.31,13.94,13.94,0,0,0-7.39,3.07,13.75,13.75,0,0,0-4.13,5.4"/><path class="cls-3" d="M279.2,460.78c0,2.58,1.1,4.84,2.25,7.06a31.09,31.09,0,0,1,3.19,7.19,22.49,22.49,0,0,1,.29,6c-.11,3.59-1.77,6.43-4.28,9a30.1,30.1,0,0,0-8,15.87,49.86,49.86,0,0,0-.8,9.2c0,4.43.08,8.87,0,13.31s-.37,9-.18,13.55c.17,4-.18,8,0,12"/><path class="cls-3" d="M287.2,513.21v41"/><path class="cls-3" d="M292.37,513.21v41"/><path class="cls-3" d="M297.54,513.21v41"/><path class="cls-3" d="M302.71,513.21v41"/><path class="cls-3" d="M276.85,513.21c-.26,13.59,0,27.18-.11,40.77"/><path class="cls-3" d="M282,513.21c-.27,12.8,0,25.61-.12,38.41,0,.79,0,1.57,0,2.36"/><path class="cls-3" d="M307.88,513.21c.27,12.8.05,25.61.12,38.41V554"/><path class="cls-3" d="M313.05,513.21c.27,13.59.05,27.18.12,40.77"/><path class="cls-3" d="M314.11,507.56H275.8"/></g><path class="cls-4" d="M452,453.71h3.35a7.71,7.71,0,0,1,3.95,5.76c3.57-4.7,7.59-4.44,10.12.42.4.78.53,1,1.56.66,4.24-1.41,6.92.32,7.24,4.68.1,1.41.71,1.44,1.74,1.35,5.48-.47,7.6,1.64,6.91,7-.11.85-.1,1,.83,1.11,5.52.92,7.07,4.56,4.21,9.63,4.93,2.2,5.8,4.49,3.43,9.38-.28.59-.56,1,.16,1.29,1.85.77,2.51,2.52,3.45,4v2.79a15.43,15.43,0,0,1-2.35,2.6c-1.14.81-1.46,1.28-.63,2.68a5.09,5.09,0,0,1-1.47,7c-1.12.84-1.27,1.26-.6,2.55a5.39,5.39,0,0,1-3.57,8.07c-1.14.29-1.43.4-1.22,1.71.62,3.88-1.67,6.6-5.51,6.64-1.18,0-1.45.17-1.61,1.4-.52,3.92-2.61,5.58-6.42,5.28-.68-.06-1.18-.4-1.26.66-.18,2.51-1.87,3.9-3.87,5H467.6c-2.28-2.22-4.83-2.07-7.77-1.43a29.06,29.06,0,0,1-12.42,0c-2.93-.65-5.49-.79-7.76,1.43h-2.79c-2-1.14-3.67-2.54-3.89-5-.06-.6-.14-.8-1-.78-4.61.14-6-1-6.72-5.44-.15-.94-.31-1.11-1.29-1.14-4.4-.17-6.22-2.41-5.76-6.89.06-.68.27-1.05-.69-1.38-4.79-1.66-5.93-4.2-3.9-8.63.4-.87.33-1.11-.39-1.72-2.94-2.46-3.29-4.41-1.71-7.8.21-.44,1.22-1,0-1.49-1.55-.64-2-2.37-3.23-3.29v-3.35c1.24-1.05,1.69-2.86,3.41-3.47.7-.25.49-.66.2-1.28-2.35-5-1.68-6.77,3.48-9.58a5.67,5.67,0,0,1-1-6.23c1.17-2.62,3.43-3.36,6.2-3.31-1-2.66-.77-4.95,1.2-6.84s4.32-1.76,7-.49a6.62,6.62,0,0,1,.06-3.18c.84-2.94,3.7-4.88,6.37-3.83,1.84.72,2.42.28,3.06-1.38a4.46,4.46,0,0,1,3.16-2.51c2.94-.85,4.79.8,6.62,3.19A7.2,7.2,0,0,1,452,453.71Z"/><g id="_5weMXC.tif-4" data-name="5weMXC.tif" class="cls-2"><path class="cls-3" d="M86.1,504.4a8.1,8.1,0,0,1,4.19,1.16,27.35,27.35,0,0,0,8.46,2.5,28.22,28.22,0,0,0,10.94-.65,4.18,4.18,0,0,1,2.55,0,1.86,1.86,0,0,0,2-.25c2.74-1.92,6-2.41,9.12-3.21,9.57-2.43,19.15-4.8,28.73-7.19.57-.15,1.16-.24,1.71-.44,1.28-.46,1.49-.77,1.5-2.14s0-3,0-4.5v-24c0-1.83-.28-2.23-2-2.68q-7.77-2-15.55-3.86c-5.39-1.33-10.79-2.63-16.19-4-4.22-1.05-8.42-2.21-12.66-3.19a26.81,26.81,0,0,0-8.25-.6,27.35,27.35,0,0,0-11,3.06A28.18,28.18,0,0,0,74.91,473a27.49,27.49,0,0,0-.78,9.23,28,28,0,0,0,7.69,17.15c1.36,1.44,2.59,3,3.83,4.53.16.19.43.4.26.85a8.24,8.24,0,0,0,0,4.38,23.61,23.61,0,0,1,0,6.34c-.11.95-.19,1.92-.24,2.89-.11,2.06-.52,4.07-.76,6.11-.28,2.41-.76,4.79-1.18,7.18a37.58,37.58,0,0,0-.76,5.69c-.1,4.29,2.31,6.74,5.68,8.06a33.74,33.74,0,0,0,6,1.26c1.92.37,3.85.75,5.79,1,2.22.22,4.47.44,6.64-.41s2.33-2.85,1.58-4.49c-.59-1.28-1.48-2.43-2-3.77a13.31,13.31,0,0,1-.52-7.18c.89-5.45,2.64-10.68,4.19-16a18.68,18.68,0,0,1,2-4.73,7.16,7.16,0,0,0,.87-3.21"/><path class="cls-3" d="M115.69,479.74c.25-6.59-5.67-13.41-13.62-13.09a13.18,13.18,0,0,0,.54,26.34,13,13,0,0,0,13.08-13.15"/><path class="cls-3" d="M181.53,473.2c-1.79-.09-3.57.07-5.37-.18a12.28,12.28,0,0,1-5.24-1.87,13.05,13.05,0,0,0-7.73-2.25c-.57,0-1.14,0-1.71,0"/><path class="cls-3" d="M181.53,484.24a33,33,0,0,1-7.08-.54,9.88,9.88,0,0,1-3.21-1.39,14.09,14.09,0,0,0-8.48-2.47c-.42,0-.85,0-1.28,0"/><path class="cls-3" d="M181.53,495.18a31.83,31.83,0,0,1-7.29-.53,8.93,8.93,0,0,1-3-1.32,14.93,14.93,0,0,0-10.21-2.44"/></g></g></svg>