<svg id="Calque_1" data-name="Calque 1" xmlns="http://www.w3.org/2000/svg" viewBox="0 0 883.8 356.57"><defs><style>.cls-1{fill:#b96c55;}.cls-2{fill:#f2cac9;}</style></defs><path class="cls-1" d="M359.08,197.11c-10.9-10.05-10.51-14.21,3.15-17.41,12.78-3,11.87-13.75,15.51-22,4.12-9.34,2.74-15.81-7.62-21.52-11.74-6.46-18.53-18.65-19.48-32-.79-11.06,1.67-22.36,9.78-31.28.21-.24.41-.7.63-.72,15.15-1,14.21-16.26,21.19-24.42,4.44-5.15,7.86-9.67,15.56-6.35,6.72,2.88,11.55-1.44,15.65-5.82,12.22-13,27.54-10.76,42.53-8.39,4.2.67,7.58.94,11.32-1,7.94-4,16-5.72,24.87-2.37,5.27,2,11.22,1.57,16.7-.12,9-2.78,17-1.2,24.35,4.45,1.56,1.2,3.44,3.06,5.07,2.95,12.21-.77,21.75,4.53,31,11.76,9.9,7.73,22.71,11.72,29.74,23.16.35.57.66,1.49,1.13,1.59,13,2.93,16.66,15.78,25.05,23.58,1.45,1.34,4.3,2.57,4.3,3.85,0,11.41,8,18.79,13.23,27.58,1.71,2.89,1,6.62-.89,9.53-2.61,4.07-2.5,7.89-.52,12.19,1.19,2.56,3.18,5.81.57,8.37-4.23,4.16-1.92,6.77,1.37,9.7,4.93,4.39,6.38,9.3,1.21,14.53-3,3.07-3.44,7.11-4.32,10.9-.59,2.55-.27,5.82-3.46,6.55-8.06,1.84-3.9,5.51-1.58,8.95,3.68,5.48,4.24,11.61-1.91,14.63-15.67,7.65-23.37,24.68-38.43,32.22-8.68,4.35-16.42,11.66-26.74,12.21-10.58.56-18.38,9.64-29.76,8.47-5.65-.58-12.44-1.6-17.66,3.55-1.1,1.08-4.1.64-5.52-1-6.79-7.65-12.61,0-17.54,2.26-4.13,1.87-1.32,8.36.38,12.67,5.83,14.86,13.64,28.71,22,42.24,5,8,4.17,10.85-5.09,10.15-28.53-2.18-55.08,6.4-81.94,13.51-13.44,3.55-26.65,8.07-40,11.9-2.26.66-5.56,2.67-7.1-.46-1.41-2.8,1.61-4.7,3.42-6.5,7.27-7.26,14.42-14.67,22-21.6,26-23.79,17.63-67.39,2.36-87.77-3.32-4.44-7.49-5.77-13.07-4.59-10.8,2.29-21.8,1.23-32.73,1.21-3.94,0-7.49-1.38-8.69-5.33-2.16-7.17.13-16-8.53-20.71-1.64-.89-.06-3.62,1.35-5.17,1.2-1.33,3.68-2.45,1.21-4.64C342.75,201.39,353.83,200.84,359.08,197.11Z" transform="translate(-45.06 -16.5)"/><path class="cls-2" d="M258.43,132.7c0,33.59.28,67.18-.19,100.75-.12,8.54,2.55,11.27,10.84,10.58,7.79-.65,15.68-.29,23.51-.1,10.44.25,14.23,5.1,14.48,18,.26,13.39-3.87,19.3-14.07,19.58-8.58.24-17.19.4-25.76,0-7-.34-9.05,2.55-9,9.2.28,19-.3,38.07.2,57.08.23,8.54-3.22,12.47-11.23,13.35-1.48.16-3,.46-4.43.59-27.22,2.35-30.27-.4-30.33-27.39,0-13.43-.66-26.89.08-40.29.54-9.62-2.13-12.85-12.31-12.71-40.32.59-80.65.25-121,.21-16,0-17.75-2.15-18.48-18C60.1,249.61,63.87,237.42,71,225.4Q128.5,128.71,185,31.47c5.48-9.42,12.51-13.84,23.24-14.52a192.41,192.41,0,0,1,39.05,1.31c7.79,1.1,11.23,5.13,11.12,13.65-.44,33.57-.18,67.16-.18,100.74ZM211.14,60.61a20.18,20.18,0,0,0-2.81,3.1Q157.66,150,107,236.36c-4.65,7.86-.23,7.55,5.38,7.54,29.85-.06,59.71-.36,89.56.2,9,.17,11.26-2.6,11.2-11.32-.36-54.45-.16-108.9-.24-163.34C212.84,66.68,214.08,63.55,211.14,60.61Z" transform="translate(-45.06 -16.5)"/><path class="cls-1" d="M242.83,143.37c0,33.59.28,67.18-.19,100.75-.12,8.54,2.55,11.27,10.84,10.58,7.79-.65,15.68-.29,23.51-.1,10.44.25,14.23,5.1,14.48,18,.26,13.39-3.87,19.3-14.07,19.58-8.58.24-17.19.4-25.76,0-7-.34-9,2.55-9,9.2.28,19-.3,38.07.2,57.08.23,8.54-3.22,12.47-11.23,13.35-1.48.16-3,.46-4.43.59C200,374.75,196.91,372,196.85,345c0-13.43-.66-26.89.08-40.29.54-9.62-2.13-12.85-12.31-12.71-40.32.59-80.65.25-121,.21-16,0-17.75-2.15-18.48-18-.64-13.94,3.13-26.13,10.28-38.15q57.48-96.67,114-193.93c5.48-9.42,12.51-13.84,23.24-14.52a192.44,192.44,0,0,1,39.05,1.31c7.78,1.1,11.23,5.13,11.12,13.65-.44,33.57-.18,67.16-.18,100.74Zm-47.3-72.09a21.74,21.74,0,0,0-2.81,3.1Q142.05,160.71,91.34,247c-4.65,7.86-.23,7.55,5.38,7.54,29.85-.06,59.72-.36,89.56.2,9,.17,11.26-2.6,11.2-11.32-.35-54.45-.15-108.9-.24-163.34C197.23,77.35,198.47,74.22,195.53,71.28Z" transform="translate(-45.06 -16.5)"/><path class="cls-2" d="M880.21,132.7c0,33.59.28,67.18-.19,100.75-.12,8.54,2.55,11.27,10.84,10.58,7.79-.65,15.68-.29,23.51-.1,10.44.25,14.23,5.1,14.48,18,.26,13.39-3.87,19.3-14.07,19.58-8.58.24-17.19.4-25.76,0-7-.34-9,2.55-9,9.2.28,19-.3,38.07.2,57.08.23,8.54-3.22,12.47-11.23,13.35-1.48.16-3,.46-4.43.59-27.22,2.35-30.27-.4-30.33-27.39,0-13.43-.66-26.89.08-40.29.54-9.62-2.13-12.85-12.31-12.71-40.32.59-80.65.25-121,.21-16,0-17.75-2.15-18.48-18-.64-13.94,3.13-26.13,10.28-38.15q57.48-96.69,114-193.93C812.28,22.05,819.31,17.63,830,17a192.41,192.41,0,0,1,39.05,1.31c7.79,1.1,11.23,5.13,11.12,13.65-.44,33.57-.18,67.16-.18,100.74ZM832.92,60.61a20.18,20.18,0,0,0-2.81,3.1L728.73,236.36c-4.65,7.86-.23,7.55,5.38,7.54,29.85-.06,59.71-.36,89.56.2,9,.17,11.26-2.6,11.2-11.32-.36-54.45-.16-108.9-.24-163.34C834.62,66.68,835.86,63.55,832.92,60.61Z" transform="translate(-45.06 -16.5)"/><path class="cls-1" d="M864.6,143.37c0,33.59.28,67.18-.19,100.75-.12,8.54,2.55,11.27,10.84,10.58,7.79-.65,15.68-.29,23.51-.1,10.44.25,14.23,5.1,14.48,18,.26,13.39-3.87,19.3-14.07,19.58-8.58.24-17.19.4-25.76,0-7-.34-9,2.55-9,9.2.28,19-.3,38.07.2,57.08.23,8.54-3.22,12.47-11.23,13.35-1.48.16-3,.46-4.43.59-27.22,2.35-30.27-.4-30.33-27.39,0-13.43-.66-26.89.08-40.29.54-9.62-2.13-12.85-12.31-12.71-40.32.59-80.65.25-121,.21-16,0-17.75-2.15-18.48-18-.64-13.94,3.13-26.13,10.28-38.15q57.48-96.67,114-193.93c5.48-9.42,12.51-13.84,23.24-14.52a192.41,192.41,0,0,1,39.05,1.31c7.79,1.1,11.23,5.13,11.12,13.65-.44,33.57-.18,67.16-.18,100.74ZM817.31,71.28a21.16,21.16,0,0,0-2.81,3.1Q763.83,160.71,713.12,247c-4.65,7.86-.23,7.55,5.38,7.54,29.85-.06,59.71-.36,89.56.2,9,.17,11.26-2.6,11.2-11.32-.36-54.45-.16-108.9-.24-163.34C819,77.35,820.25,74.22,817.31,71.28Z" transform="translate(-45.06 -16.5)"/></svg>