<?xml version="1.0" encoding="utf-8"?>
<!-- Generator: Adobe Illustrator 24.1.2, SVG Export Plug-In . SVG Version: 6.00 Build 0)  -->
<svg version="1.1" id="Calque_1" xmlns="http://www.w3.org/2000/svg" xmlns:xlink="http://www.w3.org/1999/xlink" x="0px" y="0px"
	 viewBox="0 0 1024 768" style="enable-background:new 0 0 1024 768;" xml:space="preserve">
<style type="text/css">
	.st0{opacity:0.4;}
	.st1{fill:none;stroke:#FFFFFF;stroke-width:2;stroke-linecap:round;stroke-linejoin:round;}
	.st2{opacity:0.4;fill:none;stroke:#FFFFFF;stroke-width:2;stroke-miterlimit:10;enable-background:new    ;}
</style>
<g id="g1KDu2.tif" class="st0">
	<path class="st1" d="M96.11,139.57c0-3.61,0-7.23,0-10.84c0-6.05,0-12.1-0.14-18.15c-0.1-3.77,0-7.54-0.11-11.31
		c-0.26-5.31-1.33-10.56-3.17-15.55c-0.9-2.51-2.37-4.78-4.31-6.62c-1.58-1.32-2.97-2.86-4.11-4.57c-1.24-2.32-1.84-4.92-1.74-7.55
		c-0.14-3.1,0.63-6.17,2.2-8.84c0.46-0.72,0.93-1.43,1.43-2.11c1.3-1.92,2.03-4.16,2.11-6.48c0.24-3.08-0.27-6.17-1.49-9
		c-1.27-3.03-3.7-5.43-6.74-6.68c-2.68-1.23-5.65-1.68-8.57-1.31c-2.71,0.28-5.28,1.35-7.39,3.07c-1.81,1.43-3.23,3.28-4.13,5.4"/>
	<path class="st1" d="M56.97,46.37c0,2.58,1.1,4.84,2.25,7.06c1.36,2.25,2.44,4.67,3.19,7.19c0.36,1.98,0.46,4,0.29,6
		c-0.11,3.59-1.77,6.43-4.28,9c-4.22,4.36-7.03,9.89-8.05,15.87c-0.55,3.04-0.82,6.12-0.8,9.2c0,4.43,0.08,8.87,0,13.31
		c-0.08,4.44-0.37,9-0.18,13.55c0.17,4-0.18,8,0,12"/>
	<path class="st1" d="M64.97,98.8v41"/>
	<path class="st1" d="M70.14,98.8v41"/>
	<path class="st1" d="M75.27,98.8v41"/>
	<path class="st1" d="M80.48,98.8v41"/>
	<path class="st1" d="M54.62,98.8c-0.26,13.59,0,27.18-0.11,40.77"/>
	<path class="st1" d="M59.8,98.8c-0.27,12.8,0,25.61-0.12,38.41c0,0.79,0,1.57,0,2.36"/>
	<path class="st1" d="M85.65,98.8c0.27,12.8,0.05,25.61,0.12,38.41v2.36"/>
	<path class="st1" d="M90.82,98.8c0.27,13.59,0,27.18,0.12,40.77"/>
	<path class="st1" d="M91.88,93.15H53.57"/>
</g>
<path class="st2" d="M229.72,39.27h3.35c2.16,1.18,3.63,3.32,3.95,5.76c3.57-4.7,7.59-4.44,10.12,0.42c0.4,0.78,0.53,1,1.56,0.66
	c4.24-1.41,6.92,0.32,7.24,4.68c0.1,1.41,0.71,1.44,1.74,1.35c5.48-0.47,7.6,1.64,6.91,7c-0.11,0.85-0.1,1,0.83,1.11
	c5.52,0.92,7.07,4.56,4.21,9.63c4.93,2.2,5.8,4.49,3.43,9.38c-0.28,0.59-0.56,1,0.16,1.29c1.85,0.77,2.51,2.52,3.45,4v2.79
	c-0.68,0.95-1.47,1.83-2.35,2.6c-1.14,0.81-1.46,1.28-0.63,2.68c1.51,2.34,0.85,5.46-1.47,7c-1.12,0.84-1.27,1.26-0.6,2.55
	c1.54,2.55,0.72,5.86-1.83,7.4c-0.54,0.32-1.12,0.55-1.74,0.67c-1.14,0.29-1.43,0.4-1.22,1.71c0.62,3.88-1.67,6.6-5.51,6.64
	c-1.18,0-1.45,0.17-1.61,1.4c-0.52,3.92-2.61,5.58-6.42,5.28c-0.68-0.06-1.18-0.4-1.26,0.66c-0.18,2.51-1.87,3.9-3.87,5h-2.79
	c-2.28-2.22-4.83-2.07-7.77-1.43c-4.09,0.9-8.33,0.9-12.42,0c-2.93-0.65-5.49-0.79-7.76,1.43h-2.79c-2-1.14-3.67-2.54-3.89-5
	c-0.06-0.6-0.14-0.8-1-0.78c-4.61,0.14-6-1-6.72-5.44c-0.15-0.94-0.31-1.1-1.29-1.14c-4.4-0.17-6.22-2.41-5.76-6.89
	c0.06-0.68,0.27-1-0.69-1.38c-4.79-1.66-5.93-4.2-3.9-8.63c0.4-0.87,0.33-1.11-0.39-1.72c-2.94-2.46-3.29-4.41-1.71-7.8
	c0.21-0.44,1.22-1,0-1.49c-1.55-0.64-2-2.37-3.23-3.29v-3.35c1.24-1,1.69-2.86,3.41-3.47c0.7-0.25,0.49-0.66,0.2-1.28
	c-2.35-5-1.68-6.77,3.48-9.58c-1.56-1.68-1.96-4.14-1-6.23c1.17-2.62,3.43-3.36,6.2-3.31c-1-2.66-0.77-4.95,1.2-6.84
	s4.32-1.76,7-0.49c-0.24-1.05-0.22-2.14,0.06-3.18c0.84-2.94,3.7-4.88,6.37-3.83c1.84,0.72,2.42,0.28,3.06-1.37
	c0.6-1.32,1.81-2.26,3.24-2.52c2.94-0.85,4.79,0.8,6.62,3.19C226.07,42.63,227.52,40.42,229.72,39.27z"/>
<g id="n1Gy6z.tif" class="st0">
	<path class="st1" d="M381.19,75.13h-7.92c-0.23,0-0.49,0.08-0.67,0c-1.09-0.59-2.12-0.1-3.17,0.11c-1.51,0.37-2.6,1.7-2.67,3.25
		c0,7.6-0.15,15.21,0,22.8c0.13,5.55,2.21,10.88,5.87,15.06c3.13,3.7,7.26,6.42,11.9,7.83c2.51,0.75,5.12,1.12,7.74,1.09
		c14.56,0,29.12,0,43.69,0c7.17,0.14,14.05-2.84,18.85-8.16c3.45-3.69,5.65-8.38,6.27-13.39c0.17-1.3,0.05-2.73,1-3.83"/>
	<path class="st1" d="M462.04,79.82c-0.35-0.59-0.61-1.24-0.76-1.91c-0.36-1.38-1.47-2.43-2.86-2.74c-1.23-0.42-2.31-0.06-3.47-0.05
		c-2.81,0-5.62,0-8.43,0h-60.54"/>
	<path class="st1" d="M450.83,64.78c-0.13-2.39-0.9-4.7-2.23-6.69c-2.22-3.62-5.17-6.73-8.68-9.12c-1.73-1.22-3.52-2.33-5.38-3.34
		c-1.84-0.99-4.09-0.73-5.66,0.64c-2.42,2.17-5.16,3.96-8.12,5.31c-4.24,2.01-8.72,3.48-13.32,4.39c-3.48,0.71-7,1.18-10.54,1.43
		c-2.87,0.22-5.75,0.26-8.62,0.32c-3.38-0.05-6.7,0.94-9.49,2.85c-1.42,1-2.58,2.19-2.49,4.12"/>
	<path class="st1" d="M371.27,74.65v-7c0-1.49,0.62-2.21,2.11-2.29c0.95,0.07,1.91-0.1,2.77-0.51c0.14-0.11,0.34-0.11,0.48,0
		c0.8,0.42,1.71,0.59,2.6,0.47c23.15,0,46.3,0,69.45,0c0.9,0,1.7-0.64,2.58-0.31c0.84,0.24,1.72,0.34,2.59,0.28
		c0.48-0.01,0.96,0.03,1.44,0.1c0.98,0.07,1.71,0.93,1.64,1.91c0,0.03-0.01,0.06-0.01,0.09v7.18"/>
	<path class="st1" d="M387.7,87.58c-1.28,0.33-1.43,0.48-1.43,1.82c0,4.92,0,9.84,0,14.76c0,1.28,0.36,1.64,1.62,1.72
		c0.19,0,0.39,0,0.58,0h51.16c0.09,0,0.19,0,0.28,0c1.8-0.16,1.9-0.3,1.91-1.91c0-4.76,0-9.52,0-14.28c0-1.88-0.22-2.1-2.1-2.1
		H387.8"/>
</g>
<g id="_5FouJC.tif" class="st0">
	<path class="st1" d="M565.05,54.27c-0.77,0.48-1.59,0.89-2.43,1.23c-4.49,1.66-8.02,5.23-9.62,9.74c-0.57,1.5-0.86,3.08-0.86,4.68
		c0,19.05,0,38.1,0,57.15c0,2.33,0.76,3.26,3.08,3.75c0.19,0.05,0.38,0.13,0.56,0.19"/>
	<path class="st1" d="M592.36,130.92c0.69-0.13,1.36-0.32,2-0.59c0.96-0.54,1.56-1.54,1.58-2.64c0-0.16,0-0.31,0-0.47V70.27
		c0-3.98-1.54-7.81-4.31-10.67c-1.69-1.85-3.81-3.26-6.17-4.12c-0.86-0.32-1.59-1-2.44-1.17s-1.65,0.24-2.51,0.23
		c-4.14,0-8.29,0-12.44,0c-0.94,0.02-1.88-0.07-2.8-0.27"/>
	<path class="st1" d="M582.91,54.14c0.2-0.92,0.3-1.87,0.29-2.81c0-3.12,0.05-6.25,0-9.37c-0.06-2.48-0.23-2.57-2.61-2.6
		c-4.39-0.08-8.79-0.08-13.18,0c-2.31,0-2.45,0.19-2.51,2.51c-0.08,3.15,0,6.3,0,9.46c-0.01,0.94,0.09,1.89,0.28,2.81"/>
	<path class="st1" d="M564.27,81.12c-1.94,0.08-3.6,1.41-4.1,3.29c-0.14,0.61-0.21,1.24-0.19,1.87c0,7.12,0,14.24,0,21.36
		c0,2,0.58,3.77,2.53,4.77c0.55,0.27,1.16,0.41,1.77,0.39h19.36c2.18,0.04,4.04-1.58,4.3-3.75c0.07-0.59,0.1-1.19,0.09-1.78
		c0-6.99,0-13.99,0-21c0.04-0.83-0.09-1.66-0.39-2.43c-0.74-1.79-2.55-2.89-4.48-2.72H564.4"/>
</g>
<path class="st2" d="M691.44,134.02h-2.37c-1.16-0.92-2.68-1.49-3.15-3.08v-1.92c1.03-1.29,2.6-2.03,4.25-2
	c1.44-0.06,2.88-0.24,4.29-0.52c9.12-1.81,16.69-6.68,24.22-11.63c0.07,0,0.06-0.22,0.09-0.33c-0.1-0.08-0.21-0.16-0.33-0.22
	c-0.18-0.07-0.37-0.12-0.56-0.17c-8.63-2.13-15.58-8.52-18.42-16.95c-2.82-7.74-0.76-15,3.34-21.86
	c6.47-10.87,16.08-18.07,27.88-22.76c6.4-2.52,13.06-4.32,19.57-6.51c6-2,11.8-4.4,16.15-9.19c1.06-1.17,1.39-0.52,1.72,0.55
	c3.17,10.02,5.51,20.29,7,30.7c0.35,2.63,1.14,8.65,1.14,9v1.92c0,2.82,0,5.64,0,8.45c0,0.77-0.37,3.22-0.43,3.7
	c-0.48,5.23-1.53,10.4-3.15,15.4c-2.8,8.06-7.08,15.1-14.52,20c-10.65,7-23.74,2.85-29.29-3.13c-1.73-1.86-1.73-1.86,0.1-3.57
	c14-13.09,23.44-28.92,29.55-46.74c0.38-0.66,0.42-1.47,0.1-2.17C744.06,100.21,722.4,121.84,691.44,134.02z"/>
<g id="_5weMXC.tif" class="st0">
	<path class="st1" d="M878.27,89.99c1.48,0,2.93,0.4,4.19,1.16c2.67,1.28,5.52,2.13,8.46,2.5c3.65,0.5,7.37,0.28,10.94-0.65
		c0.83-0.27,1.73-0.27,2.56,0c0.64,0.29,1.39,0.2,1.94-0.25c2.74-1.92,6-2.41,9.12-3.21c9.57-2.43,19.15-4.8,28.73-7.19
		c0.58-0.15,1.16-0.24,1.72-0.44c1.27-0.46,1.48-0.77,1.5-2.14s0-3,0-4.5v-24c0-1.83-0.28-2.23-2-2.68
		c-5.18-1.3-10.36-2.59-15.55-3.86c-5.39-1.33-10.79-2.63-16.18-4c-4.23-1-8.43-2.21-12.66-3.19c-2.71-0.63-5.49-0.83-8.26-0.6
		c-3.84,0.24-7.59,1.28-11,3.06c-7.35,3.73-12.7,10.5-14.62,18.52c-0.79,3.01-1.05,6.13-0.78,9.23c0.51,6.43,3.22,12.49,7.68,17.15
		c1.36,1.44,2.59,3,3.83,4.53c0.17,0.2,0.43,0.4,0.26,0.85c-0.39,1.43-0.39,2.95,0,4.38c0.29,2.1,0.29,4.24,0,6.34
		c-0.11,1-0.19,1.92-0.24,2.89c-0.11,2.06-0.52,4.07-0.76,6.11c-0.28,2.41-0.75,4.8-1.18,7.18c-0.4,1.87-0.65,3.78-0.76,5.69
		c-0.1,4.29,2.31,6.75,5.69,8.06c1.96,0.6,3.97,1.02,6,1.26c1.92,0.37,3.85,0.75,5.79,0.95c2.22,0.22,4.48,0.44,6.65-0.41
		s2.32-2.85,1.57-4.48c-0.59-1.29-1.48-2.44-2-3.77c-0.82-2.3-1-4.78-0.52-7.18c0.89-5.46,2.65-10.69,4.2-16
		c0.44-1.67,1.11-3.26,2-4.74c0.54-0.99,0.84-2.09,0.87-3.21"/>
	<path class="st1" d="M907.88,65.33c0.25-6.59-5.67-13.41-13.61-13.09c-7.27,0.39-12.85,6.6-12.46,13.87
		c0.37,6.93,6.05,12.38,12.99,12.47c7.18,0.04,13.04-5.74,13.08-12.92c0-0.08,0-0.15,0-0.23"/>
	<path class="st1" d="M973.72,58.79c-1.79-0.09-3.57,0.07-5.37-0.18c-1.87-0.21-3.66-0.85-5.24-1.87c-2.27-1.55-4.98-2.33-7.73-2.24
		h-1.71"/>
	<path class="st1" d="M973.72,69.83c-2.37,0.08-4.75-0.11-7.08-0.54c-1.14-0.27-2.23-0.74-3.21-1.39c-2.48-1.71-5.45-2.58-8.47-2.47
		c-0.43,0-0.86,0-1.29,0"/>
	<path class="st1" d="M973.72,80.77c-2.44,0.11-4.89-0.07-7.29-0.53c-1.07-0.25-2.09-0.69-3-1.32c-2.98-2.01-6.59-2.88-10.16-2.44"
		/>
</g>
<g id="g1KDu2.tif-2" class="st0">
	<path class="st1" d="M607.69,338.91c0-3.61,0-7.23,0-10.84c0-6.05,0-12.1-0.14-18.15c-0.09-3.77,0-7.54-0.11-11.31
		c-0.26-5.31-1.33-10.56-3.17-15.55c-0.9-2.51-2.37-4.78-4.31-6.62c-1.6-1.32-2.99-2.85-4.15-4.57c-1.23-2.32-1.83-4.92-1.74-7.55
		c-0.14-3.1,0.63-6.17,2.21-8.84c0.45-0.72,0.93-1.43,1.43-2.11c1.3-1.92,2.02-4.17,2.1-6.48c0.24-3.08-0.27-6.17-1.49-9
		c-1.27-3.03-3.7-5.43-6.74-6.68c-2.68-1.23-5.65-1.68-8.57-1.31c-5.08,0.56-9.47,3.79-11.52,8.47"/>
	<path class="st1" d="M568.56,245.71c0.17,2.5,0.94,4.92,2.24,7.06c1.21,2.33,2.59,4.57,3.19,7.19c0.36,1.98,0.46,4,0.3,6
		c-0.12,3.59-1.78,6.43-4.29,9c-4.22,4.36-7.03,9.89-8.05,15.87c-0.55,3.04-0.82,6.12-0.8,9.2c0,4.43,0.08,8.87,0,13.31
		s-0.37,9-0.18,13.55c0.17,4-0.18,8,0,12"/>
	<path class="st1" d="M576.55,298.14v41"/>
	<path class="st1" d="M581.72,298.14v41"/>
	<path class="st1" d="M586.89,298.14v41"/>
	<path class="st1" d="M592.06,298.14v41"/>
	<path class="st1" d="M566.21,298.14c-0.27,13.59-0.05,27.18-0.12,40.77"/>
	<path class="st1" d="M571.38,298.14c-0.27,12.8-0.05,25.61-0.12,38.41v2.36"/>
	<path class="st1" d="M597.27,298.14c0.27,12.8,0,25.61,0.12,38.41c0,0.79,0,1.57,0,2.36"/>
	<path class="st1" d="M602.41,298.14c0.26,13.59,0,27.18,0.11,40.77"/>
	<path class="st1" d="M603.46,292.49h-38.31"/>
</g>
<path class="st2" d="M741.27,238.64h3.35c2.18,1.17,3.67,3.31,4,5.76c3.57-4.7,7.59-4.44,10.12,0.42c0.4,0.78,0.54,1,1.56,0.66
	c4.24-1.41,6.92,0.32,7.24,4.68c0.1,1.41,0.71,1.44,1.74,1.35c5.48-0.47,7.61,1.64,6.91,7c-0.11,0.85-0.1,1,0.83,1.11
	c5.52,0.92,7.07,4.56,4.21,9.63c4.94,2.2,5.8,4.49,3.43,9.38c-0.28,0.59-0.55,1,0.16,1.29c1.85,0.77,2.51,2.52,3.45,4v2.79
	c-0.68,0.95-1.47,1.83-2.35,2.6c-1.14,0.81-1.46,1.28-0.62,2.68c1.5,2.35,0.84,5.46-1.48,7c-1.12,0.84-1.27,1.26-0.6,2.55
	c1.54,2.55,0.72,5.86-1.83,7.4c-0.54,0.32-1.12,0.55-1.74,0.67c-1.14,0.29-1.43,0.4-1.22,1.71c0.62,3.88-1.66,6.6-5.51,6.64
	c-1.18,0-1.45,0.17-1.61,1.4c-0.51,3.92-2.61,5.58-6.42,5.28c-0.68-0.06-1.18-0.4-1.26,0.66c-0.18,2.51-1.87,3.9-3.87,5.05h-2.79
	c-2.27-2.22-4.83-2.07-7.76-1.43c-4.1,0.89-8.33,0.89-12.43,0c-2.93-0.65-5.48-0.79-7.76,1.43h-2.79c-2-1.14-3.67-2.54-3.89-5
	c-0.06-0.6-0.14-0.8-1-0.78c-4.61,0.14-6-1-6.71-5.44c-0.16-0.94-0.31-1.1-1.3-1.14c-4.39-0.17-6.22-2.41-5.76-6.89
	c0.06-0.68,0.27-1.05-0.69-1.38c-4.79-1.66-5.93-4.2-3.9-8.63c0.4-0.87,0.33-1.11-0.39-1.72c-2.94-2.46-3.29-4.41-1.71-7.8
	c0.21-0.44,1.22-1,0-1.49c-1.55-0.64-2-2.37-3.23-3.29v-3.35c1.24-1,1.69-2.86,3.41-3.47c0.7-0.25,0.5-0.66,0.21-1.28
	c-2.36-5-1.68-6.77,3.48-9.58c-1.57-1.68-1.96-4.14-1-6.23c1.18-2.62,3.43-3.36,6.2-3.31c-1-2.66-0.77-5,1.2-6.84s4.32-1.76,7-0.49
	c-0.24-1.05-0.22-2.14,0.06-3.18c0.84-2.94,3.7-4.88,6.37-3.83c1.84,0.72,2.42,0.28,3.06-1.38c0.59-1.29,1.77-2.22,3.16-2.51
	c2.94-0.85,4.79,0.8,6.62,3.19C737.59,242.03,739.05,239.8,741.27,238.64z"/>
<g id="n1Gy6z.tif-2" class="st0">
	<path class="st1" d="M892.77,274.47h-8c-0.23,0-0.49,0.08-0.67,0c-1.08-0.59-2.12-0.1-3.16,0.11c-1.51,0.37-2.6,1.69-2.68,3.25
		c0,7.6-0.15,15.21,0,22.8c0.17,5.57,2.29,10.9,6.01,15.05c3.13,3.71,7.26,6.43,11.9,7.83c2.51,0.75,5.13,1.1,7.75,1.06
		c14.56,0,29.12,0,43.69,0c7.17,0.14,14.05-2.84,18.85-8.16c3.45-3.69,5.65-8.38,6.27-13.39c0.17-1.3,0.06-2.73,1-3.83"/>
	<path class="st1" d="M973.62,279.16c-0.35-0.59-0.61-1.24-0.76-1.91c-0.36-1.38-1.47-2.44-2.86-2.74
		c-1.22-0.42-2.31-0.06-3.46-0.05c-2.81,0-5.62,0-8.43,0h-60.55"/>
	<path class="st1" d="M962.42,264.12c-0.14-2.39-0.91-4.7-2.23-6.69c-2.22-3.62-5.18-6.73-8.69-9.12c-1.73-1.22-3.52-2.33-5.38-3.34
		c-1.84-0.99-4.09-0.73-5.66,0.64c-2.42,2.17-5.16,3.96-8.12,5.31c-4.24,1.99-8.72,3.45-13.32,4.35c-3.48,0.71-7,1.18-10.54,1.43
		c-2.87,0.22-5.74,0.26-8.62,0.32c-3.38-0.05-6.7,0.94-9.49,2.85c-1.42,1-2.58,2.19-2.49,4.12"/>
	<path class="st1" d="M882.81,273.99c0-2.33,0-4.66,0-7c0-1.49,0.61-2.21,2.1-2.29c0.95,0.08,1.91-0.1,2.77-0.51
		c0.14-0.11,0.34-0.11,0.48,0c0.8,0.42,1.71,0.59,2.6,0.47c23.15,0,46.3,0,69.45,0c0.9,0,1.7-0.64,2.59-0.31
		c0.84,0.24,1.72,0.34,2.59,0.28c0.48-0.01,0.96,0.03,1.43,0.1c0.98,0.07,1.71,0.93,1.64,1.91c0,0.03-0.01,0.06-0.01,0.09
		c0,2.39,0,4.79,0,7.18"/>
	<path class="st1" d="M899.27,286.92c-1.28,0.33-1.43,0.48-1.43,1.82c0,4.92,0,9.84,0,14.76c0,1.28,0.36,1.64,1.62,1.72h52
		c1.8-0.16,1.91-0.3,1.91-1.91c0-4.76,0-9.52,0-14.28c0-1.88-0.22-2.1-2.1-2.1h-51.89"/>
</g>
<g id="_5FouJC.tif-2" class="st0">
	<path class="st1" d="M62.21,253.57c-0.77,0.48-1.59,0.89-2.43,1.23c-4.49,1.66-8.02,5.23-9.62,9.74c-0.58,1.51-0.88,3.11-0.89,4.73
		c0,19.05,0,38.1,0,57.15c0,2.33,0.77,3.26,3.09,3.75c0.19,0,0.38,0.13,0.56,0.19"/>
	<path class="st1" d="M89.52,330.27c0.69-0.13,1.36-0.32,2-0.59c0.96-0.54,1.56-1.54,1.58-2.64c0-0.16,0-0.31,0-0.47v-57
		c0-3.98-1.54-7.81-4.31-10.67c-1.69-1.85-3.81-3.26-6.17-4.12c-0.86-0.32-1.59-0.95-2.44-1.17s-1.65,0.24-2.51,0.23
		c-4.14,0-8.29,0-12.44,0c-0.94,0-1.88-0.09-2.8-0.29"/>
	<path class="st1" d="M80.07,253.48c0.2-0.92,0.3-1.87,0.29-2.81c0-3.13,0-6.25,0-9.37c-0.06-2.48-0.23-2.57-2.61-2.6
		c-4.39-0.08-8.78-0.08-13.18,0c-2.31,0-2.45,0.19-2.51,2.51c-0.08,3.15,0,6.3,0,9.46c-0.01,0.94,0.09,1.89,0.28,2.81"/>
	<path class="st1" d="M61.46,280.46c-1.94,0.08-3.6,1.41-4.1,3.29c-0.14,0.61-0.21,1.24-0.19,1.87c0,7.12,0,14.24,0,21.36
		c0,2.05,0.58,3.77,2.53,4.77c0.55,0.27,1.16,0.41,1.77,0.39h19.36c2.18,0.04,4.04-1.58,4.3-3.75c0.07-0.59,0.1-1.19,0.09-1.78
		c0-6.99,0-13.99,0-21c0.04-0.83-0.09-1.66-0.39-2.44c-0.75-1.78-2.56-2.88-4.48-2.71H61.56"/>
</g>
<path class="st2" d="M188.6,333.36h-2.33c-1.16-0.92-2.68-1.49-3.15-3.08v-1.92c1.03-1.29,2.6-2.03,4.25-2
	c1.44-0.07,2.87-0.24,4.29-0.52c9.12-1.81,16.69-6.68,24.22-11.63c0.07-0.05,0.06-0.22,0.09-0.33c-0.1-0.08-0.21-0.16-0.33-0.22
	c-0.18-0.07-0.37-0.12-0.56-0.17c-8.63-2.13-15.58-8.52-18.42-16.95c-2.82-7.74-0.77-15,3.33-21.86
	c6.49-10.84,16.08-18.07,27.89-22.73c6.4-2.52,13.06-4.32,19.57-6.51c6-2,11.8-4.4,16.15-9.19c1.06-1.17,1.39-0.52,1.72,0.55
	c3.17,10.02,5.51,20.29,7,30.7c0.35,2.63,1.14,8.64,1.14,9v1.92c0,2.82,0,5.64,0,8.45c0,0.77-0.37,3.22-0.43,3.7
	c-0.48,5.23-1.54,10.4-3.16,15.4c-2.79,8.06-7.07,15.1-14.51,20c-10.65,7-23.75,2.85-29.29-3.13c-1.73-1.86-1.73-1.86,0.1-3.57
	c14-13.09,23.44-28.92,29.55-46.74c0.38-0.66,0.42-1.47,0.1-2.17C241.27,299.55,219.56,321.18,188.6,333.36z"/>
<g id="_5weMXC.tif-2" class="st0">
	<path class="st1" d="M375.45,289.33c1.48,0,2.93,0.4,4.19,1.16c2.67,1.28,5.52,2.13,8.46,2.5c3.65,0.5,7.37,0.28,10.94-0.65
		c0.83-0.27,1.73-0.27,2.56,0c0.64,0.29,1.39,0.2,1.94-0.25c2.74-1.92,6-2.41,9.12-3.21c9.57-2.43,19.15-4.8,28.73-7.19
		c0.57-0.15,1.16-0.24,1.72-0.44c1.27-0.46,1.48-0.77,1.5-2.14s0-3,0-4.5v-24c0-1.83-0.28-2.23-2-2.68
		c-5.18-1.3-10.36-2.59-15.55-3.86c-5.39-1.33-10.79-2.63-16.19-4c-4.22-1.05-8.42-2.21-12.65-3.19c-2.71-0.63-5.49-0.83-8.26-0.6
		c-3.84,0.24-7.59,1.28-11,3.06c-7.38,3.73-12.75,10.52-14.69,18.56c-0.78,3.01-1.04,6.13-0.77,9.23
		c0.51,6.43,3.22,12.48,7.67,17.14c1.36,1.44,2.59,3,3.83,4.53c0.16,0.2,0.43,0.4,0.26,0.85c-0.4,1.43-0.4,2.95,0,4.38
		c0.29,2.1,0.29,4.24,0,6.34c-0.11,0.95-0.19,1.92-0.24,2.89c-0.11,2.06-0.52,4.07-0.76,6.11c-0.28,2.41-0.75,4.8-1.18,7.18
		c-0.4,1.87-0.65,3.78-0.76,5.69c-0.1,4.29,2.31,6.74,5.69,8.06c1.96,0.6,3.97,1.02,6,1.26c1.92,0.37,3.85,0.75,5.79,0.95
		c2.22,0.22,4.48,0.44,6.64-0.41s2.33-2.85,1.58-4.48c-0.59-1.29-1.48-2.44-2-3.77c-0.82-2.3-1-4.78-0.52-7.18
		c0.89-5.46,2.65-10.69,4.2-16c0.44-1.66,1.11-3.26,2-4.73c0.54-0.99,0.84-2.09,0.87-3.21"/>
	<path class="st1" d="M405.04,264.67c0.25-6.59-5.67-13.41-13.61-13.09c-7.27,0.39-12.85,6.6-12.46,13.87
		c0.37,6.93,6.05,12.38,12.99,12.47c7.18,0.04,13.04-5.74,13.08-12.92c0-0.08,0-0.15,0-0.23"/>
	<path class="st1" d="M470.88,258.13c-1.79-0.09-3.57,0.07-5.37-0.18c-1.87-0.21-3.66-0.85-5.24-1.87
		c-2.28-1.55-4.98-2.33-7.73-2.25c-0.57,0-1.14,0-1.71,0"/>
	<path class="st1" d="M470.88,269.17c-2.37,0.08-4.75-0.11-7.08-0.54c-1.14-0.27-2.23-0.74-3.21-1.39
		c-2.49-1.71-5.45-2.58-8.47-2.47h-1.29"/>
	<path class="st1" d="M470.88,280.11c-2.44,0.11-4.89-0.07-7.29-0.53c-1.07-0.25-2.09-0.7-3-1.32c-3-2.02-6.62-2.89-10.21-2.44"/>
</g>
<path class="st2" d="M607.52,637.32h3.36c2.16,1.19,3.62,3.32,3.95,5.76c3.57-4.7,7.58-4.44,10.11,0.42c0.41,0.78,0.54,1,1.56,0.66
	c4.24-1.41,6.92,0.32,7.24,4.68c0.1,1.41,0.72,1.44,1.74,1.35c5.49-0.47,7.61,1.64,6.91,7c-0.11,0.85-0.1,1,0.83,1.11
	c5.52,0.92,7.08,4.56,4.22,9.63c4.93,2.2,5.79,4.49,3.43,9.38c-0.29,0.59-0.56,1,0.16,1.29c1.84,0.77,2.5,2.52,3.44,4v2.79
	c-0.68,0.95-1.46,1.83-2.34,2.6c-1.14,0.81-1.47,1.28-0.63,2.68c1.5,2.35,0.84,5.46-1.48,7c-1.12,0.84-1.27,1.26-0.6,2.55
	c1.54,2.54,0.73,5.85-1.81,7.39c-0.54,0.33-1.13,0.56-1.75,0.68c-1.14,0.29-1.44,0.4-1.23,1.71c0.63,3.88-1.66,6.6-5.51,6.64
	c-1.17,0-1.45,0.17-1.61,1.4c-0.51,3.92-2.6,5.58-6.41,5.28c-0.69-0.06-1.19-0.4-1.26,0.66c-0.18,2.51-1.88,3.9-3.87,5.05h-2.8
	c-2.27-2.22-4.83-2.07-7.76-1.43c-4.09,0.9-8.33,0.9-12.42,0c-2.94-0.65-5.49-0.79-7.77,1.43h-2.79c-2-1.14-3.66-2.54-3.89-5
	c0-0.6-0.13-0.8-1-0.78c-4.62,0.14-6-1-6.72-5.44c-0.16-0.94-0.31-1.11-1.29-1.14c-4.4-0.17-6.22-2.41-5.77-6.89
	c0.07-0.68,0.27-1-0.69-1.38c-4.79-1.66-5.93-4.2-3.9-8.63c0.41-0.87,0.34-1.11-0.39-1.72c-2.94-2.46-3.28-4.41-1.7-7.8
	c0.2-0.44,1.21-1,0-1.49c-1.55-0.64-2-2.37-3.23-3.29v-3.35c1.25-1,1.69-2.86,3.41-3.47c0.7-0.25,0.5-0.66,0.21-1.28
	c-2.35-5-1.68-6.77,3.48-9.58c-1.56-1.68-1.96-4.14-1-6.23c1.18-2.62,3.43-3.36,6.2-3.31c-1-2.66-0.76-4.95,1.2-6.84
	s4.32-1.76,7-0.49c-0.24-1.05-0.22-2.14,0.06-3.18c0.85-2.94,3.7-4.88,6.37-3.83c1.85,0.72,2.43,0.28,3.06-1.38
	c0.6-1.29,1.77-2.22,3.17-2.51c2.94-0.85,4.78,0.8,6.61,3.19C603.8,640.7,605.28,638.47,607.52,637.32z"/>
<g id="n1Gy6z.tif-3" class="st0">
	<path class="st1" d="M758.99,673.15h-8c-0.22,0-0.49,0.08-0.66,0c-1.09-0.59-2.13-0.1-3.17,0.11c-1.51,0.37-2.6,1.69-2.68,3.25
		c0,7.6-0.14,15.21,0,22.8c0.14,5.55,2.22,10.88,5.88,15.06c3.13,3.7,7.26,6.42,11.9,7.83c2.52,0.75,5.13,1.11,7.76,1.06
		c14.56,0,29.12,0,43.68,0c7.17,0.14,14.05-2.84,18.85-8.16c3.46-3.68,5.66-8.37,6.27-13.39c0.17-1.3,0.06-2.73,1-3.83"/>
	<path class="st1" d="M839.85,677.84c-0.36-0.59-0.61-1.24-0.77-1.91c-0.36-1.38-1.46-2.44-2.85-2.75c-1.23-0.41-2.32,0-3.47,0
		c-2.81,0-5.62,0-8.43,0h-60.55"/>
	<path class="st1" d="M828.64,662.8c-0.14-2.39-0.91-4.7-2.23-6.69c-2.22-3.62-5.18-6.73-8.69-9.12c-1.72-1.22-3.52-2.33-5.37-3.34
		c-1.84-0.99-4.1-0.74-5.67,0.64c-2.42,2.17-5.15,3.96-8.11,5.31c-4.24,2-8.7,3.47-13.3,4.39c-3.48,0.71-7,1.18-10.54,1.43
		c-2.87,0.22-5.74,0.26-8.62,0.32c-3.38-0.06-6.69,0.94-9.48,2.85c-1.43,1-2.59,2.19-2.49,4.12"/>
	<path class="st1" d="M749.03,672.67v-7c0-1.49,0.62-2.21,2.11-2.29c0.95,0.07,1.91-0.1,2.77-0.51c0.14-0.11,0.34-0.11,0.48,0
		c0.79,0.42,1.7,0.59,2.59,0.47c23.15,0,46.3,0,69.46,0c0.9,0,1.69-0.64,2.58-0.31c0.84,0.24,1.72,0.34,2.59,0.28
		c0.48-0.01,0.96,0.03,1.43,0.1c0.98,0.07,1.71,0.91,1.64,1.89c0,0.04-0.01,0.07-0.01,0.11c0,2.39,0,4.79,0,7.18"/>
	<path class="st1" d="M765.51,685.6c-1.29,0.33-1.43,0.48-1.44,1.82c0,4.92,0,9.84,0,14.76c0,1.28,0.37,1.64,1.63,1.72h52
		c1.8-0.16,1.9-0.3,1.91-1.91c0-4.76,0-9.52,0-14.28c0-1.88-0.23-2.1-2.1-2.1H765.6"/>
</g>
<g id="_5FouJC.tif-3" class="st0">
	<path class="st1" d="M942.86,652.27c-0.77,0.48-1.59,0.89-2.43,1.23c-4.49,1.66-8.02,5.23-9.62,9.74
		c-0.57,1.49-0.86,3.08-0.87,4.68c0,19.05,0,38.1,0,57.15c0,2.33,0.77,3.26,3.09,3.75c0.19,0.05,0.37,0.13,0.56,0.19"/>
	<path class="st1" d="M970.16,728.94c0.69-0.13,1.36-0.32,2-0.59c0.96-0.54,1.57-1.54,1.59-2.64c0-0.16,0-0.31,0-0.47v-56.97
		c0-3.98-1.54-7.81-4.31-10.67c-1.7-1.85-3.81-3.26-6.17-4.12c-0.86-0.32-1.6-1-2.44-1.17s-1.65,0.24-2.51,0.23
		c-4.15,0-8.29,0-12.44,0c-0.94,0-1.89-0.09-2.81-0.29"/>
	<path class="st1" d="M960.72,652.16c0.19-0.92,0.29-1.87,0.29-2.81c0-3.13,0-6.25,0-9.37c-0.05-2.48-0.22-2.57-2.6-2.61
		c-4.39-0.07-8.78-0.07-13.19,0c-2.31,0-2.44,0.19-2.5,2.5c-0.08,3.16,0,6.31,0,9.47c0,0.94,0.09,1.89,0.29,2.81"/>
	<path class="st1" d="M942.11,679.14c-1.94,0.08-3.6,1.41-4.1,3.29c-0.15,0.61-0.21,1.24-0.2,1.87c0,7.12,0,14.24,0,21.36
		c0,2.05,0.59,3.77,2.53,4.77c0.55,0.27,1.16,0.41,1.78,0.39h19.35c2.18,0.04,4.04-1.58,4.29-3.75c0.07-0.59,0.1-1.19,0.1-1.78
		v-21.02c0.04-0.83-0.09-1.66-0.38-2.44c-0.75-1.78-2.56-2.87-4.48-2.71h-18.8"/>
</g>
<g id="g1KDu2.tif-3" class="st0">
	<path class="st1" d="M473.92,737.59c0-3.61,0-7.23,0-10.84c0-6.05,0-12.1-0.15-18.15c-0.09-3.77,0-7.54-0.1-11.31
		c-0.27-5.31-1.33-10.56-3.17-15.55c-0.9-2.52-2.38-4.78-4.32-6.62c-1.59-1.32-2.98-2.86-4.14-4.57c-1.24-2.32-1.84-4.92-1.74-7.55
		c-0.15-3.1,0.62-6.17,2.2-8.84c0.46-0.72,0.93-1.43,1.43-2.11c1.29-1.92,2.02-4.17,2.11-6.48c0.24-3.08-0.28-6.17-1.5-9
		c-1.27-3.03-3.69-5.43-6.73-6.68c-2.68-1.23-5.65-1.68-8.57-1.31c-2.71,0.28-5.28,1.35-7.39,3.07c-1.81,1.42-3.23,3.28-4.13,5.4"/>
	<path class="st1" d="M434.78,644.39c0.17,2.5,0.94,4.92,2.24,7.06c1.21,2.33,2.59,4.57,3.2,7.19c0.35,1.98,0.45,4,0.29,6
		c-0.11,3.59-1.78,6.43-4.28,9c-4.21,4.36-7,9.89-8,15.87c-0.56,3.03-0.83,6.11-0.81,9.2c0,4.43,0.08,8.87,0,13.31
		s-0.37,9-0.17,13.55c0.17,4-0.19,8,0,12"/>
	<path class="st1" d="M442.77,696.82v41"/>
	<path class="st1" d="M447.94,696.82v41"/>
	<path class="st1" d="M453.11,696.82v41"/>
	<path class="st1" d="M458.27,696.82v41"/>
	<path class="st1" d="M432.43,696.82c-0.27,13.59-0.05,27.18-0.12,40.77"/>
	<path class="st1" d="M437.6,696.82c-0.26,12.8-0.05,25.61-0.12,38.41v2.36"/>
	<path class="st1" d="M463.46,696.82c0.26,12.8,0.05,25.61,0.11,38.41c0,0.79,0,1.57,0,2.36"/>
	<path class="st1" d="M468.63,696.82c0.27,13.59,0,27.18,0.12,40.77"/>
	<path class="st1" d="M469.69,691.16h-38.32"/>
</g>
<path class="st2" d="M54.82,732.04h-2.37c-1.16-0.92-2.68-1.49-3.15-3.08v-1.92c1.03-1.29,2.6-2.02,4.25-2
	c1.44-0.07,2.88-0.24,4.3-0.52c9.11-1.81,16.68-6.68,24.21-11.63c0.07-0.05,0.06-0.22,0.09-0.33c-0.1-0.08-0.21-0.16-0.32-0.22
	c-0.18-0.07-0.38-0.12-0.56-0.18c-8.64-2.12-15.59-8.51-18.43-16.94c-2.82-7.75-0.76-15,3.34-21.86
	c6.49-10.87,16.09-18.09,27.89-22.76c6.4-2.52,13-4.33,19.57-6.51c6-2,11.8-4.4,16.14-9.19c1.06-1.17,1.4-0.52,1.72,0.55
	c3.17,10.02,5.51,20.29,7,30.7c0.35,2.63,1.14,8.64,1.14,9v1.92c0,2.82,0,5.64,0,8.45c0,0.77-0.37,3.22-0.42,3.7
	c-0.49,5.23-1.55,10.4-3.16,15.4c-2.8,8.06-7.08,15.1-14.51,20c-10.65,7-23.75,2.85-29.3-3.13c-1.73-1.86-1.73-1.86,0.11-3.57
	c14-13.09,23.44-28.92,29.54-46.74c0.39-0.66,0.42-1.47,0.1-2.17C107.44,698.27,85.78,719.86,54.82,732.04z"/>
<g id="_5weMXC.tif-3" class="st0">
	<path class="st1" d="M241.67,688.01c1.48,0,2.93,0.4,4.19,1.16c2.67,1.28,5.52,2.13,8.46,2.5c3.65,0.5,7.37,0.28,10.94-0.65
		c0.83-0.27,1.73-0.27,2.56,0c0.64,0.29,1.4,0.2,1.95-0.25c2.74-1.92,6-2.41,9.11-3.21c9.57-2.43,19.16-4.8,28.74-7.19
		c0.57-0.15,1.16-0.24,1.71-0.44c1.28-0.46,1.48-0.77,1.5-2.14s0-3,0-4.5v-24.02c0-1.83-0.28-2.23-2-2.68
		c-5.17-1.33-10.35-2.62-15.54-3.86c-5.4-1.33-10.8-2.63-16.19-4c-4.22-1-8.42-2.21-12.66-3.19c-2.71-0.63-5.49-0.83-8.26-0.6
		c-3.84,0.24-7.59,1.28-11,3.06c-7.35,3.74-12.69,10.5-14.62,18.52c-0.79,3.01-1.05,6.13-0.78,9.23c0.51,6.43,3.22,12.49,7.68,17.15
		c1.36,1.44,2.6,3,3.84,4.53c0.16,0.19,0.43,0.4,0.25,0.85c-0.4,1.43-0.4,2.95,0,4.38c0.29,2.1,0.29,4.24,0,6.34
		c-0.11,1-0.19,1.92-0.24,2.89c-0.11,2.06-0.52,4.07-0.75,6.11c-0.28,2.41-0.76,4.79-1.19,7.18c-0.4,1.87-0.65,3.78-0.76,5.69
		c-0.09,4.29,2.31,6.74,5.69,8.06c1.96,0.6,3.97,1.02,6,1.26c1.92,0.37,3.85,0.75,5.79,0.94c2.22,0.23,4.48,0.45,6.65-0.4
		s2.32-2.85,1.57-4.49c-0.59-1.28-1.48-2.43-2-3.77c-0.82-2.3-1-4.78-0.52-7.18c0.9-5.45,2.65-10.68,4.2-16
		c0.45-1.66,1.12-3.25,2-4.73c0.53-0.99,0.83-2.09,0.86-3.21"/>
	<path class="st1" d="M271.27,663.35c0.25-6.59-5.67-13.41-13.62-13.09c-7.27,0.39-12.84,6.6-12.45,13.87
		c0.37,6.93,6.05,12.39,12.99,12.47c7.18,0.04,13.04-5.74,13.08-12.92c0-0.08,0-0.15,0-0.23"/>
	<path class="st1" d="M337.1,656.81c-1.78-0.09-3.57,0.07-5.36-0.18c-1.87-0.22-3.67-0.86-5.25-1.87c-2.27-1.55-4.97-2.34-7.72-2.25
		c-0.57,0-1.15,0-1.72,0"/>
	<path class="st1" d="M337.1,667.85c-2.37,0.08-4.74-0.11-7.07-0.54c-1.15-0.27-2.24-0.74-3.22-1.4c-2.49-1.7-5.46-2.57-8.47-2.46
		c-0.43,0-0.86,0-1.29,0"/>
	<path class="st1" d="M337.1,678.79c-2.44,0.1-4.89-0.07-7.29-0.53c-1.07-0.25-2.09-0.7-3-1.33c-3-2.01-6.63-2.88-10.21-2.43"/>
</g>
<g id="n1Gy6z.tif-4" class="st0">
	<path class="st1" d="M578.69,473.81h-7.95c-0.23,0-0.49,0.08-0.67,0c-1.09-0.59-2.12-0.1-3.17,0.11c-1.51,0.37-2.6,1.7-2.67,3.25
		c0,7.6-0.15,15.21,0,22.8c0.13,5.55,2.21,10.88,5.87,15.06c3.13,3.7,7.26,6.42,11.9,7.83c2.52,0.75,5.13,1.1,7.76,1.06
		c14.56,0,29.12,0,43.69,0c7.17,0.14,14.05-2.84,18.85-8.16c3.45-3.69,5.65-8.38,6.27-13.39c0.17-1.3,0-2.73,1-3.83"/>
	<path class="st1" d="M659.54,478.5c-0.35-0.59-0.61-1.24-0.76-1.91c-0.36-1.38-1.47-2.43-2.86-2.74c-1.23-0.42-2.31-0.06-3.47-0.05
		c-2.81,0-5.62,0-8.43,0h-60.54"/>
	<path class="st1" d="M648.33,463.46c-0.13-2.39-0.9-4.7-2.23-6.69c-2.22-3.62-5.17-6.73-8.68-9.12c-1.73-1.22-3.52-2.33-5.38-3.34
		c-1.84-0.99-4.09-0.73-5.66,0.64c-2.42,2.17-5.15,3.97-8.11,5.32c-4.24,2.01-8.72,3.48-13.32,4.39c-3.48,0.71-7,1.18-10.54,1.43
		c-2.87,0.22-5.75,0.26-8.62,0.32c-3.39-0.06-6.72,0.94-9.52,2.86c-1.42,1-2.58,2.19-2.49,4.12"/>
	<path class="st1" d="M568.72,473.33v-7c0-1.49,0.62-2.21,2.11-2.29c0.95,0.07,1.91-0.1,2.77-0.51c0.14-0.11,0.34-0.11,0.48,0
		c0.8,0.42,1.71,0.59,2.6,0.47c23.15,0,46.3,0,69.45,0c0.9,0,1.7-0.64,2.58-0.31c0.84,0.24,1.72,0.34,2.59,0.28
		c0.48-0.01,0.96,0.03,1.44,0.1c0.98,0.07,1.71,0.93,1.64,1.91c0,0.03-0.01,0.06-0.01,0.09v7.18"/>
	<path class="st1" d="M585.2,486.27c-1.28,0.33-1.43,0.48-1.43,1.82c0,4.92,0,9.84,0,14.76c0,1.28,0.36,1.64,1.62,1.72h52
		c1.8-0.16,1.9-0.3,1.91-1.91c0-4.76,0-9.52,0-14.28c0-1.88-0.22-2.1-2.1-2.1h-51.93"/>
</g>
<g id="_5FouJC.tif-4" class="st0">
	<path class="st1" d="M762.55,452.91c-0.77,0.48-1.59,0.89-2.43,1.23c-4.49,1.66-8.02,5.23-9.62,9.74c-0.57,1.5-0.86,3.08-0.86,4.68
		c0,19.05,0,38.1,0,57.15c0,2.33,0.76,3.26,3.08,3.75c0.19,0,0.38,0.13,0.56,0.19"/>
	<path class="st1" d="M789.86,529.6c0.69-0.13,1.36-0.32,2-0.59c0.96-0.54,1.56-1.54,1.58-2.64c0-0.16,0-0.31,0-0.47v-57
		c-0.01-3.97-1.57-7.78-4.34-10.63c-1.69-1.85-3.81-3.26-6.17-4.12c-0.86-0.32-1.59-0.95-2.44-1.17s-1.65,0.24-2.51,0.23
		c-4.14,0-8.29,0-12.44,0c-0.94,0-1.88-0.09-2.8-0.29"/>
	<path class="st1" d="M780.41,452.82c0.2-0.92,0.3-1.87,0.29-2.81c0-3.13,0.05-6.25,0-9.37c-0.06-2.48-0.23-2.57-2.61-2.6
		c-4.39-0.08-8.79-0.08-13.18,0c-2.31,0-2.45,0.19-2.51,2.51c-0.08,3.15,0,6.3,0,9.46c-0.01,0.94,0.09,1.89,0.28,2.81"/>
	<path class="st1" d="M761.8,479.8c-1.94,0.08-3.6,1.41-4.1,3.29c-0.14,0.61-0.21,1.24-0.19,1.87c0,7.12,0,14.24,0,21.36
		c0,2.05,0.58,3.77,2.53,4.77c0.55,0.27,1.16,0.41,1.77,0.39h19.36c2.18,0.04,4.04-1.58,4.3-3.75c0.07-0.59,0.1-1.19,0.09-1.78
		c0-6.99,0-13.99,0-21c0.04-0.83-0.09-1.66-0.39-2.44c-0.75-1.78-2.56-2.88-4.48-2.71H761.9"/>
</g>
<path class="st2" d="M888.94,532.7h-2.37c-1.16-0.92-2.68-1.49-3.15-3.08v-1.92c1.03-1.29,2.6-2.03,4.25-2
	c1.44-0.07,2.87-0.24,4.29-0.52c9.12-1.81,16.69-6.68,24.22-11.63c0.07,0,0.06-0.22,0.09-0.33c-0.1-0.09-0.21-0.16-0.33-0.22
	c-0.18-0.07-0.37-0.12-0.56-0.18c-8.63-2.13-15.58-8.52-18.42-16.94c-2.82-7.74-0.76-15,3.34-21.86
	c6.48-10.84,16.08-18.07,27.88-22.73c6.4-2.52,13.06-4.33,19.57-6.51c6-2,11.8-4.4,16.15-9.19c1.06-1.17,1.39-0.52,1.72,0.55
	c3.17,10.02,5.51,20.29,7,30.7c0.35,2.63,1.14,8.64,1.14,9v1.92c0,2.82,0,5.64,0,8.45c0,0.77-0.37,3.22-0.43,3.7
	c-0.48,5.23-1.53,10.4-3.15,15.4c-2.8,8.06-7.08,15.1-14.52,20c-10.65,7-23.74,2.85-29.29-3.13c-1.73-1.86-1.73-1.86,0.1-3.57
	c14-13.09,23.44-28.92,29.55-46.74c0.38-0.66,0.42-1.47,0.1-2.17C941.56,498.89,919.9,520.52,888.94,532.7z"/>
<g id="g1KDu2.tif-4" class="st0">
	<path class="st1" d="M293.61,538.27c0-3.61,0-7.23,0-10.84c0-6,0-12.1-0.14-18.15c-0.1-3.77,0-7.54-0.11-11.31
		c-0.26-5.31-1.33-10.56-3.17-15.55c-0.9-2.51-2.37-4.78-4.31-6.62c-1.6-1.32-2.99-2.85-4.15-4.57c-1.24-2.32-1.84-4.92-1.74-7.55
		c-0.14-3.1,0.63-6.17,2.2-8.84c0.46-0.72,0.93-1.43,1.43-2.11c1.3-1.92,2.03-4.16,2.11-6.48c0.24-3.08-0.27-6.17-1.49-9
		c-1.27-3.03-3.7-5.43-6.74-6.68c-2.68-1.23-5.65-1.68-8.57-1.31c-2.71,0.28-5.28,1.35-7.39,3.07c-1.81,1.43-3.23,3.28-4.13,5.4"/>
	<path class="st1" d="M254.47,445.05c0,2.58,1.1,4.84,2.25,7.06c1.36,2.25,2.44,4.67,3.19,7.19c0.36,1.98,0.46,4,0.29,6
		c-0.11,3.59-1.77,6.43-4.28,9c-4.2,4.36-6.99,9.9-8,15.87c-0.55,3.04-0.82,6.12-0.8,9.2c0,4.43,0.08,8.87,0,13.31
		s-0.37,9-0.18,13.55c0.17,4-0.18,8,0,12"/>
	<path class="st1" d="M262.47,497.48v41"/>
	<path class="st1" d="M267.64,497.48v41"/>
	<path class="st1" d="M272.81,497.48v41"/>
	<path class="st1" d="M277.98,497.48v41"/>
	<path class="st1" d="M252.12,497.48c-0.26,13.59,0,27.18-0.11,40.77"/>
	<path class="st1" d="M257.27,497.48c-0.27,12.8,0,25.61-0.12,38.41c0,0.79,0,1.57,0,2.36"/>
	<path class="st1" d="M283.15,497.48c0.27,12.8,0.05,25.61,0.12,38.41v2.38"/>
	<path class="st1" d="M288.32,497.48c0.27,13.59,0.05,27.18,0.12,40.77"/>
	<path class="st1" d="M289.38,491.83h-38.31"/>
</g>
<path class="st2" d="M427.27,437.98h3.35c2.16,1.18,3.63,3.32,3.95,5.76c3.57-4.7,7.59-4.44,10.12,0.42c0.4,0.78,0.53,1,1.56,0.66
	c4.24-1.41,6.92,0.32,7.24,4.68c0.1,1.41,0.71,1.44,1.74,1.35c5.48-0.47,7.6,1.64,6.91,7c-0.11,0.85-0.1,1,0.83,1.11
	c5.52,0.92,7.07,4.56,4.21,9.63c4.93,2.2,5.8,4.49,3.43,9.38c-0.28,0.59-0.56,1,0.16,1.29c1.85,0.77,2.51,2.52,3.45,4v2.79
	c-0.68,0.95-1.47,1.83-2.35,2.6c-1.14,0.81-1.46,1.28-0.63,2.68c1.51,2.34,0.85,5.46-1.47,7c-1.12,0.84-1.27,1.26-0.6,2.55
	c1.54,2.55,0.72,5.86-1.83,7.4c-0.54,0.32-1.12,0.55-1.74,0.67c-1.14,0.29-1.43,0.4-1.22,1.71c0.62,3.88-1.67,6.6-5.51,6.64
	c-1.18,0-1.45,0.17-1.61,1.4c-0.52,3.92-2.61,5.58-6.42,5.28c-0.68-0.06-1.18-0.4-1.26,0.66c-0.18,2.51-1.87,3.9-3.87,5h-2.84
	c-2.28-2.22-4.83-2.07-7.77-1.43c-4.09,0.9-8.33,0.9-12.42,0c-2.93-0.65-5.49-0.79-7.76,1.43h-2.79c-2-1.14-3.67-2.54-3.89-5
	c-0.06-0.6-0.14-0.8-1-0.78c-4.61,0.14-6-1-6.72-5.44c-0.15-0.94-0.31-1.11-1.29-1.14c-4.4-0.17-6.22-2.41-5.76-6.89
	c0.06-0.68,0.27-1.05-0.69-1.38c-4.79-1.66-5.93-4.2-3.9-8.63c0.4-0.87,0.33-1.11-0.39-1.72c-2.94-2.46-3.29-4.41-1.71-7.8
	c0.21-0.44,1.22-1,0-1.49c-1.55-0.64-2-2.37-3.23-3.29v-3.35c1.24-1.05,1.69-2.86,3.41-3.47c0.7-0.25,0.49-0.66,0.2-1.28
	c-2.35-5-1.68-6.77,3.48-9.58c-1.56-1.68-1.96-4.14-1-6.23c1.17-2.62,3.43-3.36,6.2-3.31c-1-2.66-0.77-4.95,1.2-6.84
	s4.32-1.76,7-0.49c-0.24-1.05-0.22-2.14,0.06-3.18c0.84-2.94,3.7-4.88,6.37-3.83c1.84,0.72,2.42,0.28,3.06-1.38
	c0.59-1.29,1.77-2.22,3.16-2.51c2.94-0.85,4.79,0.8,6.62,3.19C423.52,441.31,425.02,439.1,427.27,437.98z"/>
<g id="_5weMXC.tif-4" class="st0">
	<path class="st1" d="M61.37,488.67c1.48,0,2.93,0.4,4.19,1.16c2.67,1.29,5.52,2.13,8.46,2.5c3.65,0.5,7.37,0.28,10.94-0.65
		c0.83-0.27,1.72-0.27,2.55,0c0.66,0.32,1.44,0.22,2-0.25c2.74-1.92,6-2.41,9.12-3.21c9.57-2.43,19.15-4.8,28.73-7.19
		c0.57-0.15,1.16-0.24,1.71-0.44c1.28-0.46,1.49-0.77,1.5-2.14s0-3,0-4.5v-24c0-1.83-0.28-2.23-2-2.68
		c-5.18-1.33-10.36-2.62-15.55-3.86c-5.39-1.33-10.79-2.63-16.19-4c-4.22-1.05-8.42-2.21-12.66-3.19c-2.7-0.63-5.49-0.83-8.25-0.6
		c-3.84,0.23-7.59,1.28-11,3.06c-7.41,3.73-12.8,10.53-14.74,18.59c-0.78,3.01-1.04,6.13-0.78,9.23c0.51,6.43,3.23,12.49,7.69,17.15
		c1.36,1.44,2.59,3,3.83,4.53c0.16,0.19,0.43,0.4,0.26,0.85c-0.4,1.43-0.4,2.95,0,4.38c0.29,2.1,0.29,4.24,0,6.34
		c-0.11,0.95-0.19,1.92-0.24,2.89c-0.11,2.06-0.52,4.07-0.76,6.11c-0.28,2.41-0.76,4.79-1.18,7.18c-0.4,1.87-0.65,3.78-0.76,5.69
		c-0.1,4.29,2.31,6.74,5.68,8.06c1.96,0.6,3.97,1.02,6,1.26c1.92,0.37,3.85,0.75,5.79,1c2.22,0.22,4.47,0.44,6.64-0.41
		s2.33-2.85,1.58-4.49c-0.59-1.28-1.48-2.43-2-3.77c-0.83-2.3-1.01-4.78-0.52-7.18c0.89-5.45,2.64-10.68,4.19-16
		c0.45-1.66,1.12-3.25,2-4.73c0.54-0.99,0.84-2.09,0.87-3.21"/>
	<path class="st1" d="M90.96,464.01c0.25-6.59-5.67-13.41-13.62-13.09c-7.27,0.39-12.84,6.6-12.45,13.87
		c0.37,6.93,6.05,12.38,12.99,12.47c7.18,0.04,13.04-5.74,13.08-12.92c0-0.08,0-0.15,0-0.23"/>
	<path class="st1" d="M156.8,457.47c-1.79-0.09-3.57,0.07-5.37-0.18c-1.87-0.21-3.66-0.85-5.24-1.87c-2.28-1.55-4.98-2.33-7.73-2.25
		c-0.57,0-1.14,0-1.71,0"/>
	<path class="st1" d="M156.8,468.51c-2.37,0.08-4.75-0.11-7.08-0.54c-1.14-0.27-2.23-0.74-3.21-1.39c-2.49-1.71-5.46-2.58-8.48-2.47
		c-0.42,0-0.85,0-1.28,0"/>
	<path class="st1" d="M156.8,479.45c-2.44,0.1-4.89-0.07-7.29-0.53c-1.07-0.25-2.09-0.7-3-1.32c-3-2.02-6.62-2.89-10.21-2.44"/>
</g>
</svg>
