<?xml version="1.0" encoding="utf-8"?>
<!-- Generator: Adobe Illustrator 24.1.2, SVG Export Plug-In . SVG Version: 6.00 Build 0)  -->
<svg version="1.1" id="Calque_1" xmlns="http://www.w3.org/2000/svg" xmlns:xlink="http://www.w3.org/1999/xlink" x="0px" y="0px"
	 viewBox="0 0 906.44 759.64" style="enable-background:new 0 0 906.44 759.64;" xml:space="preserve">
<style type="text/css">
	.st0{fill:#774646;}
	.st1{fill:#FFFFFF;}
	.st2{fill:#3A444C;}
	.st3{font-family:'ArialNarrow-Bold';}
	.st4{font-size:60px;}
</style>
<path class="st0" d="M61.81,316.14c0-83.14,0-166.28,0.01-249.42c0-1.82,0.04-3.66,0.23-5.47c0.22-2.01,1.58-2.85,3.5-2.7
	c1.71,0.13,2.75,1.11,2.88,2.86c0.1,1.32,0.11,2.66,0.11,3.99c0,167.44,0,334.88,0,502.33c0,1.16,0.02,2.33-0.04,3.49
	c-0.11,2.11-1.07,3.52-3.34,3.49c-2-0.02-3.01-1.33-3.21-3.17c-0.18-1.65-0.14-3.32-0.14-4.98
	C61.81,483.08,61.81,399.61,61.81,316.14z"/>
<g>
	<path class="st0" d="M312.32,425.54c-6.96,7.89-13.84,14.61-22.83,18.65c-3.01,1.35-6.14,2.6-9.34,3.34
		c-13.46,3.12-24.23-3.41-27.79-16.72c-2.15-8.05-2.01-16.13,0.4-24.09c3.38-11.14,13.08-17.19,24.6-15.42
		c12.43,1.91,22.01,8.84,30.52,17.56c1.39,1.42,2.64,2.97,3.98,4.49c14.83-21.13,18.72-61.19,0.23-90.75
		c-2.42,2.52-4.68,5.02-7.1,7.35c-7.7,7.37-16.4,12.94-27.17,14.67c-11.13,1.79-20.69-3.6-24.54-14.16
		c-3.36-9.21-3.34-18.67-0.28-27.9c3.98-12.01,15.02-17.25,28.14-13.85c11.01,2.85,19.68,9.38,27.32,17.48
		c1.23,1.3,2.39,2.67,3.63,4.08c16.63-26.16,16.61-64.32-0.03-91.04c-5.95,6.59-12.16,12.78-19.99,17.09
		c-4.12,2.27-8.44,3.92-13.02,4.79c-12.95,2.45-23.08-3.86-26.61-16.61c-2.17-7.85-2.15-15.76,0.1-23.61
		c3.54-12.35,13.83-18.59,26.44-16.01c12.26,2.51,21.69,9.62,30.01,18.52c0.9,0.97,1.77,1.96,2.67,2.93c0.1,0.11,0.3,0.14,0.45,0.21
		c15.13-22.74,17.96-61.94-0.04-90.65c-5.56,6.22-11.36,12.03-18.58,16.22c-5.08,2.96-10.41,5.1-16.25,5.9
		c-11.21,1.54-21.02-4.4-24.39-15.19c-2.53-8.08-2.76-16.37-0.54-24.58c3.79-14.01,15.26-20.09,29.84-15.94
		c11.1,3.16,19.72,10.02,27.33,18.38c0.78,0.86,1.55,1.71,2.62,2.9c6.41-10.11,9.82-20.98,11.49-32.46c0.55-3.77,0.77-7.6,1-11.41
		c0.14-2.36-0.17-5.05,3.23-5.04c3.76,0.02,3.37,3.02,3.31,5.47c-0.4,16.04-4.03,31.26-12.26,45.13c-1.82,3.06-1.93,5.19-0.21,8.41
		c17.21,32.03,16.89,64.12-0.37,96.04c-1.21,2.23-1.63,3.68-0.25,6.17c17.92,32.38,17.65,64.91,0.14,97.34
		c-1.29,2.39-1.37,3.83-0.06,6.19c17.68,32.03,17.59,64.24,0.44,96.42c-1.49,2.79-1.63,4.59-0.06,7.5
		c17.3,32.15,17.16,64.39-0.3,96.45c-1.28,2.35-1.55,3.84-0.1,6.18c8.49,13.73,12.3,28.87,13.04,44.88
		c0.04,0.83,0.01,1.66,0.01,2.49c0,2.38-0.52,4.49-3.48,4.36c-2.61-0.12-3.04-2.03-3.07-4.25c-0.08-5.99-0.75-11.93-2.01-17.78
		c-2-9.29-5.23-18.1-10.55-26.53c-4.94,5.7-10.08,10.85-16.24,14.88c-5.34,3.49-11.03,6.07-17.37,7.16
		c-12.01,2.07-21.98-3.76-25.65-15.33c-2.52-7.94-2.62-16.07-0.54-24.1c3.53-13.68,14.82-20.03,28.72-16.42
		c10.64,2.77,19.18,8.88,26.67,16.66c1.49,1.55,2.89,3.18,4.76,5.24C328.54,486.54,328.88,456.42,312.32,425.54z"/>
	<path class="st1" d="M257.56,109.14c0.24-19.57,12.37-26.73,29.86-17.64c7.47,3.88,13.65,9.3,18.84,15.89
		c1.01,1.28,2.12,2.32,0.52,4.22c-6.84,8.09-14.44,15.17-24.71,18.58c-13.45,4.46-22.62-1.52-24.21-15.59
		C257.65,112.79,257.65,110.96,257.56,109.14z"/>
	<path class="st1" d="M257.56,522.41c0.09-19.29,12.07-26.58,29.65-17.7c7.69,3.88,13.77,9.67,19.26,16.19
		c1.31,1.56,1.5,2.65,0.17,4.25c-6.56,7.89-14.09,14.58-23.84,18.17c-13.76,5.06-23.85-1.56-25.01-16.14
		C257.67,525.69,257.65,524.2,257.56,522.41z"/>
	<path class="st1" d="M275.45,338.26c-8.57,0.02-13.54-3.43-15.98-10.55c-2.78-8.11-2.77-16.33,0.45-24.29
		c2.97-7.34,9.65-10.42,17.98-8.6c12.3,2.69,21.21,10.37,28.85,19.87c0.78,0.96,1.47,1.82,0.46,3.03
		C298.42,328.23,288.57,337.04,275.45,338.26z"/>
	<path class="st1" d="M257.58,419.24c0.12-19.4,11.91-26.66,29.33-18.02c7.86,3.9,14.1,9.78,19.64,16.48
		c1.1,1.33,1.45,2.27,0.23,3.82c-7.05,8.9-15.44,16.06-26.52,19.19c-12.29,3.47-20.93-2.9-22.4-16.02
		C257.66,422.89,257.67,421.06,257.58,419.24z"/>
	<path class="st1" d="M257.57,212.34c-0.02-19.11,12.01-26.56,29.62-17.67c7.69,3.88,13.92,9.61,19.27,16.3
		c0.78,0.97,1.95,1.91,0.71,3.44c-7.58,9.32-16.2,17.36-28.38,19.87c-12.11,2.49-19.46-3.53-20.96-16.38
		C257.65,216.24,257.67,214.57,257.57,212.34z"/>
</g>
<path class="st0" d="M550.43,541.61c-8.42-3.56-16.23-4.56-23.61-6.97c-3.91-1.27-9.47-1.58-9.57-7.13
	c-0.1-5.56,5.24-6.83,9.36-8.28c6.24-2.21,12.67-3.86,19.38-5.86c-2.69-2.84-6.14-2.99-9.17-3.99c-4.88-1.61-9.86-2.94-14.69-4.66
	c-2.53-0.9-4.96-2.43-5-5.58c-0.04-3.03,2.1-4.84,4.52-6.08c6.57-3.37,13.88-4.38,20.89-6.34c2.23-0.62,4.44-1.32,7.38-2.19
	c-5.11-2.99-10.31-3.66-15.15-5.29c-3.45-1.17-7.07-1.99-10.32-3.58c-4.96-2.42-5.2-6.86-0.77-10.24c4.07-3.09,9.05-4.01,13.8-5.46
	c3.89-1.19,7.97-1.84,12.24-4.05c-6.11-3.24-12.41-3.6-18.4-4.95c-3.24-0.73-6.48-1.44-9.42-3.02c-2.4-1.29-4.63-2.88-4.47-6.04
	c0.14-2.86,2.23-4.36,4.52-5.48c5.83-2.85,12.12-4.46,18.23-6.56c1.87-0.65,3.7-1.43,6.01-2.33c-5.16-2.97-10.61-3.72-15.7-5.46
	c-3.29-1.12-6.74-1.97-9.81-3.53c-4.66-2.37-4.81-6.76-0.54-9.85c4.56-3.3,10.05-4.19,15.31-5.65c4.43-1.23,8.89-2.31,14.27-3.69
	c-4.66-3.2-9.26-3.66-13.45-5.13c-3.59-1.26-7.31-2.17-10.88-3.5c-2.35-0.88-4.51-2.2-4.68-5.22c-0.17-3.14,1.78-4.83,4.14-6.27
	c4.32-2.63,9.23-3.64,13.98-5.08c3.47-1.05,6.97-2.05,11.21-3.3c-6.41-3.22-12.62-4.11-18.6-5.75c-3.68-1.01-7.45-1.72-10.82-3.63
	c-4.42-2.5-4.81-6.27-0.9-9.54c3.13-2.62,6.99-3.72,10.82-4.85c5.03-1.48,10.08-2.94,16.25-4.74c-6.44-3.43-12.48-4.31-18.15-6.2
	c-2.51-0.84-5.12-1.52-7.46-2.72c-5.38-2.77-5.45-7.44-0.26-10.69c3.86-2.41,8.26-3.42,12.58-4.58c5.24-1.41,10.5-2.76,16.43-4.31
	c-5.23-3.23-10.59-3.85-15.55-5.55c-3.13-1.08-6.41-1.81-9.4-3.2c-5.67-2.63-5.87-7.59-0.53-10.99c4.83-3.08,10.43-4.19,15.84-5.77
	c2.83-0.83,5.67-1.66,9.18-2.69c-3.7-2.98-7.73-3.18-11.35-4.29c-5.22-1.61-10.58-2.78-15.78-4.45c-2.54-0.81-5.04-2.29-5.19-5.43
	c-0.14-3.03,1.95-4.85,4.33-6.2c6.15-3.48,13.17-4.47,19.75-6.71c1.55-0.53,3.11-0.99,5.21-1.65c-5.22-3.27-10.73-3.94-15.89-5.58
	c-3.47-1.11-7.08-1.84-10.21-3.82c-4.12-2.6-4.42-6.11-0.74-9.27c2.45-2.11,5.49-2.99,8.5-3.96c6.89-2.22,14.15-3.16,21.44-6.15
	c-5.66-3.12-11.43-3.89-16.85-5.71c-2.36-0.79-4.79-1.38-7.06-2.35c-2.47-1.05-4.87-2.39-4.92-5.63c-0.05-3.1,1.98-4.78,4.33-6.2
	c3.16-1.9,6.71-2.83,10.2-3.86c4.6-1.36,9.22-2.67,14.9-4.3c-7.41-3.64-14.63-4.39-21.4-6.57c-2.67-0.86-5.47-1.52-7.94-2.78
	c-4.75-2.43-5.03-6.5-0.82-9.83c3.05-2.41,6.76-3.46,10.42-4.55c5.18-1.53,10.35-3.09,16.49-4.92c-7.6-3.6-14.71-4.68-21.39-7.06
	c-3.52-1.25-8.15-2.08-8.27-6.76c-0.13-5.08,4.51-6.68,8.43-7.91c7.66-2.4,15.47-4.35,23.92-6.69c-4.81-3.32-9.9-3.66-14.48-5.31
	c-3.27-1.18-6.67-2.01-9.89-3.29c-2.33-0.93-4.42-2.34-4.53-5.35c-0.1-2.93,1.73-4.52,3.91-5.89c4.72-2.98,10.14-4.01,15.38-5.57
	c2.96-0.89,5.93-1.77,10.03-2.99c-6.86-3.27-13.17-4.22-19.24-5.91c-3.52-0.98-7.13-1.68-10.32-3.54c-4.2-2.46-4.55-6.06-0.93-9.29
	c3.2-2.85,7.29-3.89,11.24-5.1c4.98-1.53,10.02-2.88,16-4.58c-6.53-3.6-12.84-4.42-18.71-6.47c-2.34-0.82-4.79-1.44-6.97-2.57
	c-5.12-2.64-5.4-7.64-0.68-11.08c3.59-2.61,7.87-3.42,12.11-4.3c4.56-0.94,9.11-1.87,13.66-2.84c2.11-0.45,4.15-0.92,5.53-2.93
	c1.25-1.82,3.08-1.98,4.76-0.61c1.69,1.39,1.49,3.19,0.48,4.95c-1.53,2.68-4.2,3.76-6.94,4.42c-5.81,1.42-11.68,2.58-17.52,3.86
	c-2.55,0.56-5.16,0.96-7.67,2.67c5.06,2.71,10.58,3.33,15.68,5.19c2.8,1.02,5.66,1.89,8.36,3.13c2.96,1.36,5.45,3.27,5.15,7.13
	c-0.3,3.76-3.3,4.84-6.06,5.79c-5.32,1.85-10.78,3.3-16.17,4.96c-1.88,0.58-3.72,1.28-5.68,2.94c6.19,1.68,12.37,3.38,18.57,5.02
	c2.9,0.77,5.76,1.62,8.37,3.1c2.55,1.45,4.76,3.22,4.56,6.54c-0.19,3.17-2.57,4.59-5.12,5.45c-5.5,1.85-11.11,3.38-16.63,5.16
	c-2.14,0.69-4.46,1.07-6.83,3.19c6.37,1.93,12.26,3.74,18.18,5.51c2.56,0.77,5.05,1.71,7.19,3.31c4.78,3.56,4.36,8.31-1.07,10.84
	c-5.3,2.46-11.12,3.29-16.69,4.88c-3.5,0.99-7,2-11.52,3.3c4.87,2.75,9.44,3.2,13.65,4.58c3.78,1.24,7.67,2.17,11.12,4.23
	c2.35,1.4,4.28,3.09,4.15,6.26c-0.13,3.25-2.31,4.77-4.85,5.64c-5.95,2.03-12.01,3.76-18.01,5.64c-1.67,0.52-3.31,1.16-5.94,2.09
	c6.26,2.84,12.06,3.36,17.46,5.15c3.3,1.1,6.67,2.03,9.84,3.43c2.78,1.23,5.29,3.08,5.06,6.68c-0.22,3.38-2.83,4.85-5.51,5.76
	c-5.48,1.87-11.08,3.42-16.63,5.08c-2.21,0.66-4.45,1.23-6.49,2.7c4.11,2.22,8.65,2.69,12.86,4.17c2.34,0.83,4.8,1.36,7.09,2.29
	c3.98,1.61,8.77,2.99,8.59,8.37c-0.17,5.11-5.02,5.6-8.71,6.72c-5.87,1.77-11.85,3.18-17.75,4.85c-1.69,0.48-3.61,0.59-5.14,2.55
	c6.16,1.85,12.15,3.44,17.99,5.48c4.42,1.54,10.1,2.55,9.99,8.75c-0.12,6.19-6.13,6.24-10.24,7.7c-5.75,2.03-11.85,3.06-18.15,5.84
	c5.2,2.59,10.38,3.14,15.29,4.5c4.16,1.16,8.35,2.2,12.21,4.17c2.62,1.34,4.77,3.2,4.63,6.5c-0.14,3.18-2.51,4.6-5.07,5.47
	c-5.96,2.02-12,3.8-18,5.7c-1.71,0.54-3.39,1.15-5.18,2.78c4.57,1.37,9.13,2.76,13.71,4.11c3.67,1.08,7.35,2.11,10.63,4.16
	c2.36,1.47,4.24,3.32,3.93,6.41c-0.29,2.91-2.49,4.41-4.85,5.15c-6.32,2-12.76,3.64-19.14,5.46c-2.54,0.72-5.06,1.51-8.11,2.42
	c4.25,2.76,8.77,3.15,12.92,4.52c3.78,1.25,7.67,2.18,11.17,4.15c2.58,1.45,4.61,3.25,4.42,6.6c-0.19,3.22-2.42,4.65-5.01,5.5
	c-6.29,2.08-12.65,3.94-18.97,5.96c-1.34,0.43-2.59,1.14-4.93,2.2c7.32,1.96,13.51,3.57,19.67,5.3c2.55,0.72,5.11,1.52,7.49,2.65
	c2.71,1.29,5.4,2.87,5.34,6.51c-0.06,3.71-2.83,5.1-5.69,6.11c-4.21,1.49-8.53,2.65-12.8,3.98c-3.31,1.03-6.62,2.12-10.55,3.38
	c4.57,2.77,9.21,3.21,13.5,4.59c3.79,1.22,7.67,2.2,11.15,4.19c2.54,1.45,4.63,3.4,4.37,6.69c-0.25,3.18-2.64,4.51-5.24,5.3
	c-6.66,2.01-13.37,3.86-20.07,5.73c-2.06,0.58-4.19,0.96-6.71,2.75c5.3,1.56,10.03,2.96,14.77,4.35c3.67,1.08,7.36,2.17,10.51,4.41
	c4.66,3.32,4.38,7.86-0.66,10.59c-5.14,2.77-10.89,3.94-16.32,5.95c-2.6,0.96-5.19,1.92-8.63,3.2c6.69,2.92,13.04,3.05,18.99,4.72
	c3.36,0.94,6.81,1.67,9.74,3.64c5.32,3.56,4.9,8.78-0.91,11.48c-5.75,2.67-12.05,3.64-18,5.7c-2,0.69-4.22,0.92-6.08,2.94
	c6.06,1.8,11.89,3.44,17.66,5.28c2.35,0.75,4.63,1.81,6.84,2.93c2.53,1.28,4.25,3.29,4.11,6.29c-0.15,3.17-2.56,4.68-5.11,5.47
	c-7.13,2.2-14.35,4.09-21.52,6.13c-1.58,0.45-3.13,0.99-5.32,1.69c4.16,2.72,8.5,3.05,12.47,4.34c4.09,1.34,8.3,2.33,12.05,4.56
	c2.45,1.45,4.07,3.36,3.85,6.43c-0.21,2.96-2.28,4.22-4.64,5.27c-6.4,2.84-13.36,3.92-19.9,6.29c-1.18,0.43-2.72,0.38-3.55,2.26
	c5.28,1.4,10.48,2.76,15.68,4.16c2.56,0.69,5.19,1.21,7.62,2.22c3.78,1.56,8.47,2.8,8.29,8.03c-0.18,5.06-4.91,5.58-8.56,6.97
	c-6.42,2.44-13.39,3.21-20.11,6.61c5.49,2.76,11.14,3.4,16.38,5.24c3.75,1.32,7.72,2.24,10.55,5.34c1.81,1.98,3.05,4.31,0.68,6.54
	c-2.46,2.32-4.04,0.5-5.54-1.62c-2.09-2.97-5.71-3.16-8.77-4.22c-5.48-1.91-11.29-2.77-16.63-5.16c-2.49-1.11-4.82-2.43-4.81-5.68
	c0-3.11,2.01-4.77,4.43-6.09c5.6-3.06,11.87-4.16,17.86-6.05C545.01,543.15,547.06,542.59,550.43,541.61z"/>
<g>
	<path class="st0" d="M780.17,522.57c4.9-0.06,9.53,1.12,14,3.07c4.63,2.02,7.15,0.61,8.27-4.43c0.77-3.46-0.56-6.22-2.86-8.57
		c-2.24-2.28-3.94,0.38-5.76,0.99c-6.52,2.2-13.03,4.02-19.98,2.22c-4.47-1.16-7.47-3.65-7.44-8.62c0.03-4.97,3.06-7.42,7.54-8.54
		c6.97-1.75,13.54,0.01,19.95,2.43c5.24,1.98,9.09-0.68,8.78-6.36c-0.3-5.5-3.71-7.67-8.74-5.61c-5.77,2.36-11.71,3.64-17.99,2.82
		c-6.17-0.81-9.77-4.35-9.58-9.43c0.18-4.72,4-8.14,9.87-8.65c6.07-0.53,11.91,0.56,17.53,2.89c4.94,2.05,8.73-0.34,8.98-5.63
		c0.26-5.52-3.74-8.31-8.87-6.31c-6.58,2.57-13.32,4.17-20.41,2.25c-4.51-1.22-7.3-3.91-7.09-8.87c0.21-5.01,3.53-7.32,7.89-8.27
		c6.74-1.46,13.21-0.02,19.48,2.49c5.56,2.23,9.47-0.75,8.83-6.78c-0.57-5.43-3.58-7.21-8.52-5.23c-6.4,2.58-12.97,4.23-19.92,2.53
		c-4.42-1.08-7.56-3.44-7.76-8.4c-0.18-4.52,2.53-7.65,7.75-8.89c6.95-1.66,13.53,0.12,19.96,2.53c4.95,1.85,7.73,0.25,8.52-5.07
		c0.5-3.35-1.12-5.82-3.29-7.94c-2.03-1.98-3.73,0.35-5.33,1.02c-5.82,2.42-11.8,3.39-18.03,2.78c-5.86-0.58-9.53-4.05-9.58-8.87
		c-0.05-4.96,3.31-8.34,9.32-9.09c6.43-0.8,12.57,0.45,18.49,2.96c4.5,1.9,8.16-0.41,8.49-5.35c0.38-5.5-3.62-8.48-8.57-6.38
		c-5.91,2.49-12,3.83-18.44,2.87c-6.02-0.9-9.37-4.23-9.3-9.16c0.07-4.79,3.73-8.22,9.65-8.83c6.25-0.65,12.24,0.57,18.01,2.94
		c4.99,2.05,9.02-0.94,8.71-6.5c-0.3-5.21-3.88-7.45-8.65-5.6c-6.74,2.62-13.63,4.33-20.89,2.24c-4.29-1.24-6.92-3.85-6.83-8.57
		c0.09-4.76,3.06-7.26,7.24-8.31c6.88-1.73,13.48-0.15,19.99,2.16c1.93,0.69,3.74,3.31,6.18,0.71c2.33-2.48,3.42-5.26,2.58-8.63
		c-1.2-4.78-3.51-5.78-8.1-3.97c-6.23,2.46-12.62,4.17-19.44,2.69c-5.55-1.2-8.49-4.23-8.45-8.83c0.03-4.58,3-7.78,8.53-8.8
		c6.6-1.22,12.84,0.51,19.04,2.59c1.8,0.61,3.43,3.34,5.68,0.89c2.09-2.27,3.5-4.82,2.92-8.08c-0.94-5.25-3.69-6.88-8.42-4.78
		c-5.43,2.41-11.1,3.35-17,3.03c-6.44-0.35-10.61-3.78-10.75-8.82c-0.15-5.46,3.67-8.81,10.63-9.38c5.94-0.48,11.57,0.77,17.02,3.02
		c4.8,1.99,8.44-0.36,8.74-5.62c0.31-5.61-3.71-8.48-8.8-6.42c-5.93,2.39-12.06,3.86-18.5,2.78c-6.08-1.03-9.25-4.44-9.08-9.39
		c0.16-4.61,3.53-7.76,9.36-8.54c6.26-0.84,12.2,0.54,18.06,2.67c1.9,0.69,3.71,3.33,6.14,0.55c2.54-2.89,3.61-6.14,2.1-9.63
		c-1.35-3.12-3.04-5.64-7.54-3.2c-6.1,3.31-12.91,4.27-19.85,2.97c-5.18-0.97-8.15-4.1-8.27-8.46c-0.12-4.58,2.48-7.65,7.73-8.92
		c6.96-1.68,13.52,0.1,19.95,2.55c4.85,1.85,7.9,0.09,8.58-5.14c0.43-3.3-1.12-5.8-3.38-7.9c-2.1-1.96-3.68,0.41-5.31,1.04
		c-5.84,2.28-11.78,3.54-18.03,2.81c-6.23-0.73-9.74-4.29-9.53-9.43c0.2-4.79,3.91-8.04,9.88-8.59c6.26-0.57,12.24,0.48,18,2.99
		c4.57,1.99,6.73,0.85,8.09-3.99c1.02-3.63-0.37-6.53-2.82-9.01c-2.28-2.3-3.92,0.4-5.71,1.05c-5.53,2-11.15,3.31-17.06,2.82
		c-6.17-0.5-10.15-3.92-10.39-8.76c-0.25-5.04,3.03-8.34,9.55-9.4c6.29-1.02,12.22,0.57,18,2.84c5.14,2.01,8.36,0.04,8.73-5.5
		c0.38-5.83-3.45-8.66-8.77-6.52c-5.93,2.39-12.03,3.84-18.48,2.74c-6.03-1.03-9.22-4.38-9.03-9.37c0.18-4.58,3.6-7.87,9.39-8.55
		c6.23-0.73,12.24,0.45,18.02,2.83c5.06,2.08,8.33,0.16,8.89-5.2c0.6-5.75-3.56-8.91-8.79-6.69c-5.61,2.38-11.45,3.39-17.52,2.86
		c-5.92-0.52-9.76-3.85-9.98-8.53c-0.25-5.17,3.11-8.59,9.43-9.51c6.27-0.92,12.21,0.51,17.98,2.75c5.58,2.16,9.47-0.83,8.79-6.88
		c-0.6-5.33-3.57-7.03-8.53-5.09c-6.41,2.5-12.96,4.25-19.92,2.48c-4.41-1.12-7.57-3.44-7.73-8.41c-0.15-4.59,2.49-7.52,7.81-8.82
		c6.97-1.71,13.52,0.11,19.94,2.52c4.86,1.83,7.93,0.02,8.46-5.23c0.27-2.64-0.84-4.76-2.31-6.87c-2.31-3.32-4.44-0.63-6.41,0.15
		c-5.68,2.25-11.5,3.21-17.56,2.72c-5.92-0.48-9.71-3.76-9.95-8.53c-0.26-5.13,3.21-8.67,9.48-9.49c6.44-0.84,12.55,0.63,18.48,3
		c4.27,1.71,6.44,0.8,7.91-3.54c1.21-3.56-0.1-6.46-2.41-9.13c-2.4-2.76-4.21,0.04-6.07,0.72c-5.7,2.07-11.48,3.45-17.57,2.75
		c-6.26-0.72-9.87-4.22-9.83-9.23c0.04-4.85,3.33-7.89,9.62-8.81c6.28-0.92,12.21,0.52,17.98,2.83c5.01,2.01,8.81-0.59,8.76-6.07
		c-0.04-5.59-3.68-8-8.79-5.97c-6.08,2.42-12.33,3.91-18.95,2.66c-5.5-1.04-8.57-4.13-8.62-8.7c-0.04-4.67,2.72-7.71,8.37-8.91
		c6.79-1.44,13.2,0.31,19.45,2.74c4.57,1.77,6.44,1.07,8.02-3.45c0.33-0.93,0.41-1.95,0.6-2.93c0.42-2.09,1.57-3.32,3.83-2.93
		c2.3,0.39,2.73,2.08,2.68,4.1c-0.08,3.3-1.38,6.19-3.39,8.66c-1.45,1.78-1.78,2.86-0.19,4.99c5.07,6.83,4.97,12.59-0.05,19.62
		c-1.25,1.75-1.47,2.65-0.03,4.57c5.11,6.8,5.11,12.72,0.13,19.66c-1.26,1.76-1.53,2.73-0.2,4.63c5.28,7.58,5.22,12.57-0.08,19.98
		c-1.14,1.59-1.27,2.48-0.03,4.17c5.3,7.25,5.36,12.92,0.13,20.02c-1.42,1.92-1.15,2.86,0.12,4.59c5.03,6.84,5.12,12.9,0,19.61
		c-1.64,2.16-1.1,3.11,0.24,4.94c4.7,6.37,4.69,12.9-0.21,19.26c-1.57,2.04-1.3,3.13,0.05,4.98c4.84,6.63,4.96,12.55,0.12,19.22
		c-1.6,2.2-1.34,3.32,0.17,5.37c4.57,6.22,4.57,12.76-0.14,18.86c-1.7,2.2-1.47,3.32,0.04,5.36c4.62,6.26,4.61,12.49,0.09,18.87
		c-1.36,1.93-2.05,3.03-0.22,5.37c4.93,6.31,4.87,12.68,0,19.23c-1.51,2.03-1.39,3.03-0.01,4.98c4.95,6.98,4.87,12.55-0.26,19.63
		c-1.33,1.84-1.28,2.77,0.08,4.57c5.06,6.73,5.07,12.84,0.05,19.65c-1.32,1.79-1.49,2.66-0.08,4.55c5.23,7.04,5.14,12.58-0.17,20.02
		c-1.2,1.68-1.13,2.54,0.05,4.19c5.21,7.25,5.3,12.37,0.05,19.55c-1.49,2.04-0.89,2.94,0.25,4.57c4.92,7.1,4.88,12.53-0.22,19.63
		c-1.27,1.76-1.39,2.73,0.01,4.59c5.1,6.76,5.18,12.95,0.12,19.62c-1.62,2.14-1.18,3.09,0.19,4.94c4.76,6.39,4.73,12.81-0.1,19.26
		c-1.43,1.91-1.61,2.93-0.04,4.98c4.98,6.51,4.89,12.87-0.21,19.62c-1.46,1.93-1.12,2.81,0.15,4.54c4.99,6.77,4.97,12.55-0.03,19.67
		c-1.24,1.76-1.41,2.73-0.03,4.63c5.24,7.25,5.19,12.53-0.23,20.02c-1.33,1.84-1.05,2.77,0.17,4.16c2.14,2.44,3.3,5.34,3.68,8.55
		c0.26,2.18-0.25,4.24-2.63,4.68c-2.39,0.44-3.6-1.12-3.95-3.45c-0.17-1.14-0.35-2.35-0.88-3.35c-1.56-2.92-3.04-5.05-7.25-2.85
		c-6.11,3.19-12.88,4.34-19.84,3.04c-5.19-0.97-8.21-4.04-8.38-8.39c-0.19-4.79,2.45-7.94,8.07-9.14c6.76-1.44,13.22,0.09,19.47,2.6
		c5.11,2.05,9.13-0.77,8.84-6.37c-0.26-5.19-3.96-7.59-8.7-5.67c-5.29,2.14-10.75,3.43-16.52,3.03c-7.2-0.5-11.34-3.99-11.17-9.46
		c0.17-5.23,4.42-8.52,11.3-8.75C778.5,522.55,779.34,522.57,780.17,522.57z"/>
	<path class="st1" d="M790.84,531.52c-5.37,2.61-10.09,3.25-15.05,2.3c-1.36-0.26-2.72-0.82-2.6-2.45c0.1-1.34,1.4-1.64,2.56-1.95
		C780.78,528.06,785.35,529.6,790.84,531.52z"/>
	<path class="st1" d="M790.91,458.53c-5.37,2.6-10.28,3.38-15.46,2.29c-1.16-0.24-2.34-0.81-2.38-2.18
		c-0.05-1.48,1.26-1.77,2.38-2.06C780.61,455.2,785.44,456.5,790.91,458.53z"/>
	<path class="st1" d="M790.88,483.11c-4.86,1.98-9.12,2.94-13.57,2.43c-1.67-0.19-4.1-0.23-4.06-2.65c0.04-2.08,2.19-2.13,3.8-2.32
		C781.68,480.01,786.06,480.77,790.88,483.11z"/>
	<path class="st1" d="M791.22,167.21c-5.54,2.35-10.1,3.21-14.94,2.42c-1.54-0.25-3.14-0.63-3.1-2.52c0.03-1.69,1.71-1.86,2.94-2.12
		C781.02,163.93,785.6,165.31,791.22,167.21z"/>
	<path class="st1" d="M790.98,386.4c-5.34,1.88-9.77,3.01-14.44,2.21c-1.39-0.24-3.26-0.48-3.32-2.34
		c-0.06-1.86,1.64-2.18,3.15-2.42C781.18,383.08,785.71,383.89,790.98,386.4z"/>
	<path class="st1" d="M790.81,70.08c-4.75,2.05-9.08,3.01-13.61,2.47c-1.66-0.2-4.14-0.24-4.01-2.66c0.1-1.9,2.2-2.2,3.88-2.34
		C781.58,67.21,785.94,67.72,790.81,70.08z"/>
	<path class="st1" d="M790.97,215.95c-5.23,2.27-9.71,3.02-14.41,2.41c-1.52-0.2-3.32-0.54-3.4-2.28c-0.09-2.13,2.03-2.42,3.58-2.6
		C781.43,212.94,785.94,213.79,790.97,215.95z"/>
	<path class="st1" d="M790.61,434.36c-4.7,2.45-9.35,2.91-14.13,2.41c-1.47-0.15-3.3-0.69-3.35-2.38c-0.05-1.72,1.71-2.23,3.25-2.43
		C781.22,431.35,785.86,432,790.61,434.36z"/>
	<path class="st1" d="M791.07,264.7c-5.55,2.02-10.14,3.24-15.01,2.2c-1.27-0.27-2.94-0.71-2.92-2.22c0.03-1.72,1.63-2.29,3.21-2.45
		C781.17,261.76,785.81,262.26,791.07,264.7z"/>
	<path class="st1" d="M790.83,288.81c-5,2.56-9.53,2.92-14.18,2.46c-1.48-0.15-3.3-0.47-3.46-2.2c-0.2-2.28,2.04-2.34,3.51-2.59
		C781.4,285.68,785.84,286.89,790.83,288.81z"/>
	<path class="st1" d="M790.89,337.52c-5.15,2.5-9.86,3.06-14.69,2.4c-1.35-0.18-3.21-0.62-3.03-2.58c0.14-1.53,1.65-1.95,2.99-2.14
		C781.03,334.51,785.67,335.28,790.89,337.52z"/>
	<path class="st1" d="M790.81,556.14c-5.23,1.93-9.82,3.22-14.67,2.14c-1.29-0.29-3.25-0.54-2.97-2.6c0.21-1.56,1.71-1.91,3.04-2.03
		C781.01,553.2,785.72,553.41,790.81,556.14z"/>
	<path class="st1" d="M790.94,191.75c-5.23,2.07-9.73,3.04-14.41,2.31c-1.32-0.2-3.29-0.4-3.34-2.34c-0.04-1.89,1.64-2.2,3.16-2.42
		C781.18,188.63,785.77,189.34,790.94,191.75z"/>
	<path class="st1" d="M790.79,507.41c-4.9,2.08-9.22,2.88-13.75,2.38c-1.67-0.18-3.81-0.5-3.85-2.38c-0.04-2.33,2.34-2.46,4.11-2.59
		C781.79,504.51,786.19,504.99,790.79,507.41z"/>
	<path class="st1" d="M790.83,142.85c-4.74,2.55-9.3,2.95-13.96,2.6c-1.65-0.13-3.75-0.54-3.7-2.52c0.05-1.92,2.09-2.26,3.8-2.43
		C781.65,140.03,786.07,140.95,790.83,142.85z"/>
	<path class="st1" d="M790.9,94.22c-5.23,2.57-9.88,3.01-14.69,2.45c-1.36-0.16-2.81-0.62-3-2.11c-0.25-2.01,1.65-2.3,2.98-2.57
		C781.06,91,785.65,92.32,790.9,94.22z"/>
	<path class="st1" d="M790.99,361.68c-5.19,2.52-9.6,3.25-14.24,2.58c-1.62-0.23-3.74-0.49-3.62-2.55c0.11-1.97,2.35-2.17,3.88-2.35
		C781.5,358.84,785.81,359.88,790.99,361.68z"/>
	<path class="st1" d="M791.21,118.83c-5.58,1.7-10.04,3.34-14.91,2.12c-1.39-0.35-3.19-0.4-3.08-2.46c0.09-1.71,1.63-1.86,2.92-2.07
		C781.08,115.64,785.77,116.36,791.21,118.83z"/>
	<path class="st1" d="M791.08,240.26c-5.48,2.28-9.99,2.95-14.66,2.35c-1.43-0.19-3.23-0.42-3.22-2.43c0.01-1.73,1.6-1.82,2.89-2.14
		C780.99,236.83,785.5,238.21,791.08,240.26z"/>
	<path class="st1" d="M791.08,313.36c-5.65,1.83-10.1,3.42-15,2.1c-1.3-0.35-2.84-0.56-2.88-2.19c-0.06-2.01,1.77-2.21,3.19-2.38
		C781.03,310.33,785.54,310.88,791.08,313.36z"/>
	<path class="st1" d="M790.71,410.19c-5.39,1.9-9.96,3.48-14.99,1.98c-1.31-0.39-2.71-0.73-2.51-2.46c0.16-1.38,1.43-1.72,2.58-1.89
		C780.72,407.1,785.48,407.5,790.71,410.19z"/>
</g>
<text transform="matrix(1 0 0 1 58.3344 704.8447)" class="st2 st3 st4">I</text>
<text transform="matrix(1 0 0 1 274.6894 704.8447)" class="st2 st3 st4">S</text>
<text transform="matrix(0.8478 0 0 1 524.6287 704.8443)" class="st2 st3 st4">Z</text>
<text transform="matrix(1 0 0 1 768.8186 704.8443)" class="st2 st3 st4">O</text>
</svg>
