<?xml version="1.0" encoding="utf-8"?>
<!-- Generator: Adobe Illustrator 24.1.2, SVG Export Plug-In . SVG Version: 6.00 Build 0)  -->
<svg version="1.1" id="Layer_1" xmlns="http://www.w3.org/2000/svg" xmlns:xlink="http://www.w3.org/1999/xlink" x="0px" y="0px"
	 viewBox="0 0 1274 649.1" style="enable-background:new 0 0 1274 649.1;" xml:space="preserve">
<style type="text/css">
	.st0{fill:#211F1F;}
	.st1{fill:#835126;}
	.st2{fill:#3A444C;}
	.st3{font-family:'ArialNarrow-BoldItalic';}
	.st4{font-size:60px;}
</style>
<g>
	<g>
		<path class="st0" d="M194.8,167.3c-10.5,1-20.7-3.5-22.7-12.5c-2-8.8,8-12.9,7.2-20.7c-1-9.7,15.2-22.6,28.6-26
			c7.4-1.9,10.3,0.8,16-2.5c4.2-2.4,8.3-5,13.5-6.4c7.3-2.1,14.9-2.6,22.4-1.5c16.4,2.5,25.1,3.2,33.8,16.1
			c4.1-3.3,13.6,2.3,18.5,4.6c6.9,3.3,10.5,10.1,13.5,15.7c6.4,11.7,7.1,16.1,1,28.8c-1.1,2.3,4.2,4.5-0.1,10.9
			c-3.5,5.4-6.4,6.5-12.6,6.5"/>
		<path class="st1" d="M249.1,166.7c-19.4,1-38.8-11.6-52.4,8.7c-6.8,8.7-4.8,18.4-7.8,28.1c-3.9,11.6-11.6,21.3-14.6,32
			c-0.5,1.4-0.9,2.9-1.4,4.4c6,45.9,28.6,113.9,78.5,112.9c46.2-0.9,65.5-56,72.1-100c-4.4-25.3-14.5-53.1-24.1-71.6
			C285,154.1,273.4,164.7,249.1,166.7z"/>
		<path class="st0" d="M248.9,143.3c-42.9,0-77.6,32.7-77.6,73.1c0.1,7.9,0.6,15.8,1.7,23.6c0.4-1.5,0.9-3,1.4-4.4
			c2.9-10.7,10.7-20.4,14.6-32c2.9-9.7,1-19.4,7.8-28.1c13.6-20.4,33-7.8,52.4-8.7c24.3-1.9,35.9-12.6,50.5,14.6
			c9.6,18.5,19.7,46.3,24.1,71.6c1.8-12.1,2.8-24.2,2.9-36.4C326.6,176,291.8,143.3,248.9,143.3z"/>
		<path class="st0" d="M332,230.4c-2.3-7.2-6.5-12.4-11.2-18.2c-4.4-5.4-6.9-10.6-7.4-17.6c-0.5-6.8,0.2-13.5-1.1-20.2
			c-0.9-4.8-3.8-9.4-6.4-13.5c-3-4.7-6.6-8.9-10.9-12.4c-7.3-6-17.1-9-25.8-4.3c-8,4.3-9.6,14.4-13.5,21.7c-0.5,1,3.2,0.3,3.4-0.3
			c4.7-5.3,13-6.5,19.7-5.5s11.9,5.6,15.4,11.2c7.5,12.3,4.4,26.7,8.6,39.9c2.3,7.3,6.7,13.8,10,20.6c4.1,8.2,4.8,17.6,2.1,26.3
			c-2.5,8.3-6.5,16.1-6,25c0.5,7.5,4.8,14.1,7.4,20.9c2.1,5.3,2.8,10.7,1.5,16.3c-1.2,4.8-3.6,9.2-5.9,13.5
			c-4.5,8-9.8,16.1-10.4,25.5c-0.5,8.1,3.5,15.8,10.4,20c2.3,1.4,5.5,2.3,8.1,1.1c3.6-1.7,4.3-5.5,4.7-9.1c0.1-0.8-1.2-0.9-1.3-0.2
			c-0.1,0.8-0.3,1.4-0.5,2.1c0-0.7-0.9-1.3-1.4-0.6c-3.8,4.4-6.1-3.8-6.8-6.5c-1.2-4.5-2.3-10.2-1.1-14.8c2.1-8,8.6-14.1,13.3-20.6
			c5.1-7,6.6-14.8,5.6-23.3c-1.1-9-4.4-17.7-4.2-26.9c0.2-8.9,2.9-17.6,4.5-26.4C334.1,246.2,334.5,238.1,332,230.4z"/>
		<path class="st0" d="M340.6,230.4c-2.3-7.2-6.5-12.4-11.2-18.2c-4.4-5.4-6.9-10.6-7.4-17.6c-0.5-6.8,0.2-13.5-1.1-20.2
			c-0.9-4.8-3.8-9.4-6.4-13.5c-3-4.7-6.6-8.9-10.9-12.4c-7.3-6-17.1-9-25.8-4.3c-8,4.3-9.6,14.4-13.5,21.7c-0.5,1,3.2,0.3,3.4-0.3
			c4.7-5.3,13-6.5,19.7-5.5s11.9,5.6,15.3,11.2c7.5,12.3,4.5,26.7,8.6,39.9c2.3,7.3,6.7,13.8,10,20.6c4.1,8.2,4.8,17.6,2.1,26.3
			c-2.5,8.3-6.5,16.1-6,25c0.5,7.5,4.8,14.1,7.4,20.9c2.1,5.3,2.8,10.7,1.5,16.3c-1.2,4.8-3.6,9.2-6,13.5c-4.5,8-9.8,16.1-10.5,25.5
			c-0.5,8.1,3.5,15.8,10.5,20c2.3,1.4,5.5,2.3,8.1,1.1c3.6-1.7,4.3-5.5,4.7-9.1c0.1-0.8-1.2-0.9-1.3-0.2c-0.1,0.8-0.3,1.4-0.5,2.1
			c0-0.7-0.9-1.3-1.4-0.6c-3.8,4.4-6.1-3.8-6.8-6.5c-1.2-4.5-2.3-10.2-1.1-14.8c2.1-8,8.6-14.1,13.3-20.6c5.1-7,6.6-14.8,5.6-23.3
			c-1.1-9-4.4-17.7-4.2-26.9c0.2-8.9,2.9-17.6,4.5-26.4C342.7,246.2,343.2,238.1,340.6,230.4z"/>
		<path class="st0" d="M351.5,230.4c-2.3-7.2-6.5-12.4-11.2-18.2c-4.4-5.4-6.9-10.6-7.4-17.6c-0.5-6.8,0.2-13.5-1.1-20.2
			c-0.9-4.8-3.8-9.4-6.4-13.5c-3-4.7-6.6-8.8-10.9-12.4c-7.3-6-17.1-9-25.8-4.3c-8,4.3-9.6,14.4-13.5,21.7c-0.5,1,3.2,0.3,3.5-0.3
			c4.7-5.3,13-6.5,19.7-5.5s11.9,5.6,15.3,11.2c7.5,12.3,4.4,26.7,8.6,39.9c2.3,7.3,6.7,13.8,10,20.6c4.1,8.2,4.8,17.6,2.1,26.3
			c-2.5,8.3-6.5,16.1-6,25c0.5,7.5,4.8,14.1,7.4,20.9c2.1,5.3,2.8,10.7,1.5,16.3c-1.2,4.8-3.6,9.2-5.9,13.5
			c-4.5,8-9.8,16.1-10.4,25.5c-0.5,8.1,3.5,15.8,10.4,20c2.3,1.4,5.5,2.3,8.1,1.1c3.6-1.7,4.3-5.5,4.8-9.1c0.1-0.8-1.2-0.9-1.3-0.2
			c-0.1,0.7-0.3,1.4-0.5,2.1c0-0.7-0.9-1.3-1.4-0.6c-3.8,4.4-6.1-3.8-6.8-6.5c-1.2-4.5-2.3-10.2-1.1-14.8c2.1-8,8.6-14.1,13.3-20.6
			c5.1-7,6.6-14.8,5.6-23.3c-1.1-9-4.4-17.7-4.2-26.9c0.2-8.9,2.9-17.6,4.5-26.4C353.6,246.2,354.1,238.1,351.5,230.4z"/>
		<path class="st0" d="M361,231.7c-2.3-7.2-6.5-12.4-11.2-18.2c-4.4-5.4-6.9-10.6-7.4-17.6c-0.5-6.8,0.2-13.5-1.1-20.2
			c-0.9-4.8-3.8-9.4-6.4-13.5c-3-4.7-6.6-8.9-10.9-12.4c-7.3-6-17.1-9-25.8-4.3c-8,4.3-9.6,14.4-13.5,21.7c-0.5,1,3.2,0.3,3.4-0.3
			c4.7-5.3,13-6.5,19.7-5.5s11.9,5.6,15.3,11.2c7.5,12.3,4.5,26.7,8.6,39.9c2.3,7.3,6.7,13.8,10,20.6c4.1,8.2,4.8,17.6,2,26.3
			c-2.5,8.3-6.5,16.1-6,25c0.5,7.5,4.8,14.1,7.4,20.9c2.1,5.3,2.8,10.7,1.5,16.3c-1.2,4.8-3.6,9.2-5.9,13.5
			c-4.5,8-9.8,16.1-10.5,25.5c-0.5,8.1,3.5,15.8,10.4,20c2.3,1.4,5.5,2.4,8.1,1.1c3.6-1.7,4.3-5.5,4.7-9.1c0.1-0.8-1.2-0.9-1.3-0.2
			c-0.1,0.8-0.3,1.4-0.5,2.1c0-0.7-0.9-1.3-1.4-0.6c-3.8,4.4-6.1-3.8-6.8-6.5c-1.2-4.5-2.3-10.2-1.1-14.8c2.1-8,8.6-14.1,13.3-20.6
			c5.1-7,6.6-14.8,5.6-23.3c-1.1-9-4.4-17.7-4.2-26.9c0.2-8.9,2.9-17.6,4.5-26.4C363.1,247.5,363.5,239.4,361,231.7z"/>
		<path class="st0" d="M234.2,163.8c-0.3-5.6-1.8-11.1-6-15.1c-3.8-3.7-9.2-5.1-14.4-5.4c-11.3-0.6-23.1,4.7-27.6,15.4
			c-4.6,11-1.9,24.2-2.1,35.8c0,2.9-0.3,5.8-0.9,8.6c-0.8,3.7-2.6,7-4,10.4c-2.8,6.8-4.7,13.8-4.8,21.2c-0.1,14.5,7.7,28.3,6.9,42.8
			c-0.8,13.2-9.1,24.7-9,38.2c0.1,7.2,2.5,14.1,6.9,19.8c4.7,6,10.7,10.9,14.7,17.5c3.5,5.8,4.1,13.4,0.4,19.2
			c-2.5,4-8,6.1-10.2,0.7c-0.5-1.2-0.8-2.4-0.9-3.7c0.2-0.8,0.4-1.6,0.8-2.4c0.2-0.6-0.3-1.1-0.9-1.1h-1c-0.5,0-0.9,0.4-0.9,0.9
			c0,0.9,0,1.8,0.1,2.8c-1.6,9,2.9,22.4,13.7,20.5c11.6-2.1,14.5-16.1,14.6-26.1c0.1-13.8-9.9-24-17.1-34.9
			c-4.4-6.6-7.3-13.7-7.4-21.7c-0.1-7.7,3.4-14.1,6.5-20.9c2.8-6.1,4.7-12.4,4-19.2c-0.8-7.5-5.1-14.1-6.7-21.4
			c-1.5-6.7-0.8-13.7,1.3-20.2s5-12.7,6.4-19.5c1.3-6.4,1-12.5-0.4-18.9c-1.2-5.7-3.2-12.1-0.2-17.6c3.3-6,11.6-8.8,18-9.4
			c5.9-0.5,14.6,0,18.5,5.1c0.8,1.1,2.7,0,1.9-1.1C234.5,164.1,234.3,163.9,234.2,163.8z"/>
		<path class="st0" d="M221.5,163.8c-0.3-5.6-1.8-11.1-6-15.1c-3.8-3.7-9.2-5.1-14.4-5.4c-11.3-0.6-23.1,4.7-27.6,15.4
			c-4.6,11-1.9,24.2-2.1,35.8c0,2.9-0.3,5.8-0.9,8.6c-0.8,3.7-2.6,7-4,10.4c-2.8,6.8-4.7,13.8-4.8,21.2c-0.1,14.5,7.7,28.3,6.9,42.8
			c-0.8,13.2-9.1,24.7-8.9,38.2c0.1,7.2,2.5,14.1,6.9,19.8c4.7,6,10.7,10.9,14.7,17.5c3.5,5.8,4.1,13.4,0.4,19.2
			c-2.6,4-8,6.1-10.3,0.7c-0.5-1.2-0.8-2.5-0.9-3.8c0.2-0.8,0.4-1.6,0.8-2.4c0.1-0.5-0.2-1-0.6-1.1c-0.1,0-0.1,0-0.2,0h-1
			c-0.5,0-0.9,0.4-0.9,0.9c0,0.9,0,1.8,0.1,2.8c-1.6,8.9,2.9,22.4,13.7,20.4c11.6-2.1,14.5-16.1,14.6-26.1
			c0.1-13.8-9.9-24-17.1-34.9c-4.4-6.6-7.3-13.7-7.4-21.7c-0.1-7.7,3.4-14.1,6.5-20.9c2.8-6.1,4.7-12.4,4-19.2
			c-0.8-7.5-5.1-14.1-6.7-21.4c-1.5-6.7-0.8-13.7,1.3-20.2s5-12.7,6.4-19.5c1.3-6.4,1-12.5-0.3-18.9c-1.2-5.7-3.2-12.1-0.2-17.6
			c3.3-6,11.6-8.8,18-9.4c5.9-0.5,14.6,0,18.5,5.1c0.8,1.1,2.7,0,1.9-1.1C221.7,164.1,221.6,163.9,221.5,163.8z"/>
		<path class="st0" d="M221.5,163.8c-0.3-5.6-1.8-11.1-6-15.1c-3.8-3.7-9.2-5.1-14.4-5.4c-11.3-0.6-23.1,4.7-27.6,15.4
			c-4.6,11-1.9,24.2-2.1,35.8c0,2.9-0.3,5.8-0.9,8.6c-0.8,3.7-2.6,7-4,10.4c-2.8,6.8-4.7,13.8-4.8,21.2c-0.1,14.5,7.7,28.3,6.9,42.8
			c-0.8,13.2-9.1,24.7-8.9,38.2c0.1,7.2,2.5,14.1,6.9,19.8c4.7,6,10.7,10.9,14.7,17.5c3.5,5.8,4.1,13.4,0.4,19.2
			c-2.6,4-8,6.1-10.3,0.7c-0.5-1.2-0.8-2.5-0.9-3.8c0.2-0.8,0.4-1.6,0.8-2.4c0.1-0.5-0.2-1-0.6-1.1c-0.1,0-0.1,0-0.2,0h-1
			c-0.5,0-0.9,0.4-0.9,0.9c0,0.9,0,1.8,0.1,2.8c-1.6,8.9,2.9,22.4,13.7,20.4c11.6-2.1,14.5-16.1,14.6-26.1
			c0.1-13.8-9.9-24-17.1-34.9c-4.4-6.6-7.3-13.7-7.4-21.7c-0.1-7.7,3.4-14.1,6.5-20.9c2.8-6.1,4.7-12.4,4-19.2
			c-0.8-7.5-5.1-14.1-6.7-21.4c-1.5-6.7-0.8-13.7,1.3-20.2s5-12.7,6.4-19.5c1.3-6.4,1-12.5-0.3-18.9c-1.2-5.7-3.2-12.1-0.2-17.6
			c3.3-6,11.6-8.8,18-9.4c5.9-0.5,14.6,0,18.5,5.1c0.8,1.1,2.7,0,1.9-1.1C221.7,164.1,221.6,163.9,221.5,163.8z"/>
		<path class="st0" d="M212.2,158.6c-0.3-5.6-1.8-11.1-6-15.1c-3.9-3.7-9.2-5.1-14.4-5.4c-11.3-0.6-23.1,4.7-27.6,15.4
			c-4.6,11-1.9,24.2-2.1,35.8c0,2.9-0.3,5.8-0.8,8.6c-0.8,3.7-2.6,7-4,10.4c-2.8,6.8-4.7,13.8-4.8,21.2c-0.1,14.5,7.7,28.3,6.8,42.8
			c-0.8,13.2-9.1,24.7-8.9,38.2c0.1,7.2,2.5,14.1,6.9,19.8c4.7,6,10.7,10.9,14.7,17.5c3.5,5.8,4.1,13.4,0.4,19.2
			c-2.5,4-8,6.1-10.3,0.7c-0.5-1.2-0.8-2.4-0.9-3.7c0.2-0.8,0.4-1.6,0.8-2.4c0.1-0.5-0.2-1-0.6-1.1c-0.1,0-0.1,0-0.2,0h-0.9
			c-0.5,0-0.9,0.4-0.9,0.9c0,1,0,1.9,0.1,2.8c-1.6,8.9,2.9,22.4,13.7,20.4c11.6-2.1,14.5-16.1,14.6-26.1c0.1-13.8-9.9-24-17.1-34.9
			c-4.4-6.6-7.3-13.7-7.4-21.7c-0.1-7.7,3.4-14.1,6.5-20.9c2.8-6.1,4.7-12.4,4-19.2c-0.8-7.5-5.1-14.1-6.7-21.4
			c-1.5-6.7-0.8-13.7,1.3-20.2c2-6.5,5-12.7,6.4-19.5c1.3-6.4,1-12.5-0.3-18.9c-1.2-5.7-3.2-12.1-0.2-17.6c3.3-6,11.6-8.8,18-9.4
			c5.9-0.5,14.6,0,18.5,5.1c0.8,1.1,2.7,0,1.9-1.1C212.4,158.9,212.3,158.8,212.2,158.6z"/>
		<path class="st0" d="M203.7,158.6c-0.3-5.6-1.9-11.1-6.1-15.1c-3.8-3.7-9.2-5.1-14.4-5.4c-11.3-0.6-23.1,4.7-27.6,15.4
			c-4.6,11-1.9,24.2-2.1,35.8c0,2.9-0.3,5.8-0.9,8.6c-0.8,3.7-2.6,7-4,10.4c-2.8,6.8-4.7,13.8-4.8,21.2c-0.1,14.5,7.7,28.3,6.9,42.8
			c-0.8,13.2-9.1,24.7-8.9,38.2c0.1,7.2,2.5,14.1,6.9,19.8c4.7,6,10.7,10.9,14.7,17.5c3.5,5.8,4.1,13.4,0.4,19.2
			c-2.5,4-8,6.1-10.3,0.7c-0.5-1.2-0.8-2.4-0.9-3.7c0.2-0.8,0.4-1.6,0.8-2.4c0.1-0.5-0.2-1-0.6-1.1c-0.1,0-0.2,0-0.2,0h-0.9
			c-0.5,0-0.9,0.4-0.9,0.9c0,0.9,0,1.8,0.1,2.8c-1.6,8.9,2.9,22.4,13.7,20.4c11.6-2.1,14.5-16.1,14.6-26.1
			c0.1-13.8-9.9-24-17.1-34.9c-4.4-6.6-7.2-13.7-7.4-21.7c-0.1-7.7,3.4-14.1,6.5-20.9c2.8-6.1,4.7-12.4,4-19.2
			c-0.8-7.5-5.1-14.1-6.7-21.4c-1.5-6.7-0.8-13.7,1.3-20.2s5-12.7,6.4-19.5c1.3-6.4,1-12.5-0.3-18.9c-1.2-5.7-3.2-12.1-0.2-17.6
			c3.3-6,11.6-8.8,18-9.4c5.9-0.5,14.6,0,18.5,5.1c0.8,1.1,2.7,0,1.9-1.1C203.9,158.9,203.8,158.8,203.7,158.6z"/>
		<path class="st0" d="M208.1,149c-0.5,0.5-1,1-1.4,1.6c-0.2,0.2-0.3,0.5-0.4,0.8c-0.1,0.3-0.1,0.5-0.1,0.8c0,0.1,0.1,0.2,0.2,0.1
			c0.1,0,0.1-0.1,0.1-0.1c0.2-1.1,1.2-1.9,2-2.7C209,149.2,208.5,148.6,208.1,149z"/>
	</g>
	<g>
		<path class="st1" d="M553.2,206c0-40.4,34.8-73.1,77.6-73.1c42.9,0,77.6,32.7,77.6,73.1s-14.2,135.3-75,136.5
			C573.9,343.7,553.2,246.4,553.2,206z"/>
		<path class="st0" d="M630.9,160c-20.7-25.9-44-1.3-51.8,7.8c-23.3,27.2,15.5,49.2,2.6,80.2c-6.5,11.6-12.9,20.7-10.3,36.2
			c2.6,15.5,16.8,22,16.8,40.1c-1.3,27.2-46.6,50.5-16.8,79c11.6,10.3,34.9,10.3,23.3,33.6c-10.4,20.7-55.6,22-56.9-5.2
			c-47.9,1.3-11.6-44-9.1-60.8c1.3-15.5-16.8-20.7-20.7-38.8c-3.9-14.2,3.9-18.1,6.5-32.3c3.9-16.8-7.8-20.7-6.5-37.5
			s12.9-23.3,10.4-42.7c-2-14.7-8.7-31.6,0.9-44.8c4.2-5.7,12.6-8.8,15.8-15.1c4.2-8.3-2.1-16.1,1.3-24.3
			c12.9-28.5,24.6-19.4,47.9-25.9c11.6-3.9,14.2-20.7,37.5-5.2c6.9,4.6,6.5,19.4,7.8,28.5"/>
		<path class="st0" d="M628.3,131.5c0-9,7.8-18.1,15.5-24.6c7.8-5.2,24.6-2.6,34.9,0c22,5.2,16.8,16.8,27.2,31
			c10.3,14.2,20.7,3.9,23.3,24.6s-2.6,27.2,6.5,44c18.1,32.3-9,49.2-11.6,80.2c-1.3,14.2,10.4,27.2,11.6,41.4
			c1.3,16.8-11.6,33.6-9,49.2c2.6,18.1,24.6,23.3,23.3,42.7c-1.3,22-11.6,7.8-27.2,11.6c-10.3,2.6-62.1,36.2-63.4,5.2
			c-1.3-18.1,25.9-20.7,28.5-34.9C690.5,389,675,376,675,361.8c0-12.9,12.9-19.4,12.9-32.3c0-14.2-11.6-22-12.9-34.9
			c-2.6-27.2,31-41.4,19.4-71.2c-5.2-14.2-11.6-19.4-14.2-33.6c-1.3-10.3,2.6-20.7-3.9-31c-9-14.2-34.9-14.2-45.3,1.3"/>
	</g>
	<g>
		<path class="st0" d="M1123.7,214.6c8.7-8.7,8.7-28.1-6.8-30.1c5.8-9.7,9.7-33-7.8-33c4.8-11.6,1.9-34.9-14.6-31
			c2.9-16.5-9.7-23.3-24.3-21.3c1.9-19.4-18.4-21.3-31-10.7c-6.8-21.3-39.8-15.5-38.8,5.8h-1c-1.9-9.7-19.4-13.6-26.2-5.8
			c-12.6-11.6-21.3-1.9-33,0c-8.7,1.9-9.7-2.9-18.4,3.9c-5.8,4.9-9.7,12.6-7.8,19.4c-16.5-3.9-31,9.7-27.2,27.2
			c-18.4,0-40.8,25.2-24.3,41.7c-8.7,10.7-12.6,34.9,5.8,34.9c-8.7,13.6-9.7,27.2,8.7,32c-8.7,15.5-14.6,38.8,12.6,35.9
			c-1.9,13.6,19.4,18.4,23.3,5.8c1.9,8.7,10.7,12.6,17.5,6.8c3.9,11.6,19.4,12.6,24.3,1.9c7.8,8.7,23.3,6.8,29.1-3.9
			c3.9,5.8,7.8,5.8,12.6,2.9l52.3-4.8c2.9,1,3.9,2.9,7.8,1.9c-1-1.9,0-4.8-1-6.8c6.8,3.9,15.5,4.8,18.4-2.9c6.8,2.9,15.5,1,18.4-6.8
			c14.5,3.9,42.7-18.4,27.2-34.9C1134.3,241.7,1136.3,217.5,1123.7,214.6z"/>
		<path class="st1" d="M916.2,216.4c0-40.4,34.8-73.1,77.6-73.1c42.9,0,77.6,32.7,77.6,73.1s-14.2,135.3-75,136.5
			C936.9,354.1,916.2,256.8,916.2,216.4z"/>
		<path class="st0" d="M898.6,222.3c-1.9,20.4,24.3,13.6,24.3-7.8c15.5,2.9,18.4-16.5,17.5-27.2c8.7,19.4,27.2-6.8,28.1-17.5
			c-1.9,21.3,25.2,14.5,29.1-1c-2.9,17.5,19.4,18.4,27.2,6.8c-2.9,16.5,12.6,14.6,23.3,14.6c-5.8,9.7-1.9,18.4,9.7,18.4
			c-2.9,7.8-1.9,17.5,6.8,17.5c0,8.7,1,34,15.5,27.2l5.8-91.2l-66-40.7l-81.5,4.8L898.6,222.3z"/>
	</g>
	<text transform="matrix(1 0 0 1 148.0358 547.9823)" class="st2 st3 st4">Ondulés</text>
	<text transform="matrix(1 0 0 1 528.147 547.9822)" class="st2 st3 st4">Bouclés</text>
	<text transform="matrix(1 0 0 1 901.8096 547.9822)" class="st2 st3 st4">Crépus</text>
</g>
</svg>
