<svg id="Layer_1" data-name="Layer 1" xmlns="http://www.w3.org/2000/svg" viewBox="0 0 1316.14 778.69"><defs><style>.cls-1{fill:none;}.cls-2{fill:#211f1f;}.cls-3{fill:#835126;}</style></defs><path class="cls-1" d="M1330.77-262.68" transform="translate(-14.66 262.7)"/><path class="cls-2" d="M1330.77-262.66a0,0,0,1,0,0,0,0,0,0,1,0,0,0Z" transform="translate(-14.66 262.7)"/><path class="cls-2" d="M85,123.52c-14,1.39-27.55-4.67-30.24-16.63C52.13,95.2,65.39,89.77,64.35,79.32c-1.29-12.94,20.27-30.1,38.09-34.61,9.79-2.48,13.64,1.07,21.31-3.28,5.65-3.2,11.06-6.6,18-8.47a71.59,71.59,0,0,1,29.85-2.05c21.86,3.34,33.38,4.21,45,21.46,5.4-4.44,18.08,3,24.56,6.06,9.16,4.37,13.9,13.37,18,20.89,8.53,15.57,9.39,21.37,1.38,38.28-1.43,3,5.53,6-.09,14.54-4.68,7.14-8.57,8.63-16.78,8.63" transform="translate(-14.66 262.7)"/><path class="cls-3" d="M157.26,122.7c-25.81,1.29-51.61-15.48-69.68,11.62-9,11.61-6.45,24.51-10.32,37.42-5.17,15.49-15.49,28.39-19.36,42.58-.61,1.91-1.21,3.88-1.8,5.89,8,61,38.08,151.44,104.38,150.12,61.47-1.24,87.14-74.43,95.93-133.06-5.85-33.66-19.27-70.56-32.05-95.21C205,105.93,189.52,120.12,157.26,122.7Z" transform="translate(-14.66 262.7)"/><path class="cls-2" d="M157,91.58c-57,0-103.24,43.53-103.24,97.24a245.75,245.75,0,0,0,2.3,31.39c.59-2,1.19-4,1.8-5.89,3.87-14.19,14.19-27.09,19.36-42.58,3.87-12.91,1.29-25.81,10.32-37.42,18.07-27.1,43.87-10.33,69.68-11.62,32.26-2.58,47.75-16.77,67.1,19.36,12.78,24.65,26.2,61.55,32.05,95.21a338.14,338.14,0,0,0,3.87-48.45C260.28,135.11,214.05,91.58,157,91.58Z" transform="translate(-14.66 262.7)"/><path class="cls-2" d="M267.42,207.38c-3.11-9.52-8.68-16.5-14.93-24.19-5.8-7.14-9.16-14.09-9.84-23.39-.65-9,.28-18-1.44-26.87-1.23-6.39-5-12.55-8.48-18a72.08,72.08,0,0,0-14.46-16.5c-9.68-8-22.71-11.92-34.35-5.66-10.67,5.73-12.77,19.13-18,28.89-.69,1.28,4.2.43,4.58-.36,6.2-7,17.32-8.6,26.23-7.26s15.84,7.39,20.42,14.85c10,16.31,5.91,35.48,11.38,53,3,9.68,8.88,18.32,13.28,27.38a46.43,46.43,0,0,1,2.75,34.94c-3.3,11-8.65,21.46-7.92,33.25.62,10,6.34,18.74,9.88,27.86,2.76,7.08,3.74,14.25,1.94,21.66-1.55,6.37-4.75,12.24-7.91,17.92-6,10.7-13,21.4-13.89,33.95a29.21,29.21,0,0,0,13.82,26.66c3.07,1.89,7.33,3.12,10.77,1.48,4.73-2.26,5.78-7.3,6.31-12.06.12-1-1.6-1.24-1.78-.24s-.36,1.84-.62,2.8c-.06-.92-1.15-1.68-1.91-.8-5,5.8-8.1-5-9.1-8.7-1.64-6-3.07-13.58-1.46-19.74,2.76-10.62,11.43-18.81,17.69-27.45,6.75-9.3,8.82-19.64,7.45-31-1.45-12-5.79-23.54-5.57-35.77.21-11.87,3.81-23.46,6-35.06C270.21,228.48,270.81,217.72,267.42,207.38Z" transform="translate(-14.66 262.7)"/><path class="cls-2" d="M278.94,207.38c-3.11-9.52-8.68-16.5-14.93-24.19-5.81-7.14-9.16-14.09-9.84-23.39-.65-9,.28-18-1.44-26.87-1.23-6.39-5-12.55-8.48-18a72.08,72.08,0,0,0-14.46-16.5c-9.69-8-22.71-11.92-34.36-5.66-10.66,5.73-12.76,19.13-18,28.89-.69,1.28,4.2.43,4.58-.36,6.2-7,17.32-8.6,26.23-7.26s15.84,7.39,20.41,14.85c10,16.31,5.92,35.48,11.38,53,3,9.68,8.88,18.32,13.29,27.38a46.43,46.43,0,0,1,2.75,34.94c-3.3,11-8.66,21.46-7.93,33.25.62,10,6.34,18.74,9.89,27.86,2.76,7.08,3.74,14.25,1.94,21.66C258.4,333.4,255.2,339.27,252,345c-6,10.7-13,21.4-13.9,33.95A29.24,29.24,0,0,0,252,405.56c3.07,1.89,7.33,3.12,10.77,1.48,4.73-2.26,5.77-7.3,6.31-12.06.12-1-1.6-1.24-1.78-.24s-.36,1.84-.62,2.8c-.06-.92-1.15-1.68-1.91-.8-5,5.8-8.1-5-9.1-8.7-1.64-6-3.07-13.58-1.47-19.74,2.77-10.62,11.44-18.81,17.7-27.45,6.75-9.3,8.82-19.64,7.45-31-1.45-12-5.79-23.54-5.57-35.77.21-11.87,3.81-23.46,6-35.06C281.72,228.48,282.33,217.72,278.94,207.38Z" transform="translate(-14.66 262.7)"/><path class="cls-2" d="M293.45,207.38c-3.12-9.52-8.69-16.5-14.94-24.19-5.8-7.14-9.15-14.09-9.83-23.39-.66-9,.27-18-1.45-26.87-1.23-6.39-5-12.55-8.47-18a72.32,72.32,0,0,0-14.46-16.5c-9.69-8-22.71-11.92-34.36-5.66-10.67,5.73-12.77,19.13-18,28.89-.69,1.28,4.21.43,4.59-.36,6.19-7,17.32-8.6,26.23-7.26s15.84,7.39,20.41,14.85c10,16.31,5.91,35.48,11.38,53,3,9.68,8.88,18.32,13.29,27.38a46.42,46.42,0,0,1,2.74,34.94c-3.3,11-8.65,21.46-7.92,33.25.62,10,6.34,18.74,9.89,27.86,2.75,7.08,3.74,14.25,1.93,21.66-1.54,6.37-4.75,12.24-7.91,17.92-6,10.7-13,21.4-13.89,33.95a29.2,29.2,0,0,0,13.83,26.66c3.06,1.89,7.32,3.12,10.76,1.48,4.74-2.26,5.78-7.3,6.32-12.06.11-1-1.61-1.24-1.79-.24a27.45,27.45,0,0,1-.62,2.8c-.06-.92-1.15-1.68-1.9-.8-5,5.8-8.1-5-9.11-8.7-1.63-6-3.07-13.58-1.46-19.74,2.77-10.62,11.44-18.81,17.7-27.45,6.74-9.3,8.81-19.64,7.45-31-1.46-12-5.79-23.54-5.58-35.77.22-11.87,3.82-23.46,6-35.06C296.23,228.48,296.83,217.72,293.45,207.38Z" transform="translate(-14.66 262.7)"/><path class="cls-2" d="M306,209.12c-3.11-9.52-8.68-16.5-14.93-24.19-5.81-7.14-9.16-14.09-9.84-23.39-.65-9,.28-18-1.44-26.87-1.23-6.38-5-12.55-8.48-17.94a72.13,72.13,0,0,0-14.46-16.51c-9.69-8-22.71-11.91-34.35-5.66-10.67,5.73-12.77,19.13-18,28.89-.69,1.28,4.2.43,4.58-.35,6.2-7,17.32-8.61,26.23-7.27s15.84,7.39,20.41,14.85c10,16.32,5.92,35.48,11.38,53,3,9.68,8.88,18.32,13.29,27.38A46.43,46.43,0,0,1,283.11,246c-3.3,11-8.65,21.46-7.93,33.25.62,10,6.34,18.74,9.89,27.86,2.76,7.08,3.74,14.25,1.94,21.67-1.55,6.36-4.75,12.23-7.91,17.91-6,10.7-13,21.41-13.9,33.95A29.23,29.23,0,0,0,279,407.3c3.07,1.89,7.33,3.13,10.77,1.48,4.73-2.25,5.77-7.3,6.31-12.06.12-1-1.6-1.24-1.78-.24s-.36,1.84-.62,2.8c-.06-.92-1.15-1.68-1.91-.8-5,5.81-8.1-5-9.1-8.7-1.64-6-3.07-13.57-1.47-19.74,2.77-10.62,11.44-18.81,17.7-27.45,6.75-9.3,8.82-19.64,7.45-31-1.45-12-5.79-23.54-5.57-35.76.21-11.88,3.81-23.47,6-35.06C308.78,230.22,309.39,219.47,306,209.12Z" transform="translate(-14.66 262.7)"/><path class="cls-2" d="M137.42,118.89c-.36-7.51-2.46-14.8-8-20.12-5.12-4.86-12.24-6.82-19.13-7.19-15-.8-30.72,6.21-36.66,20.51-6.09,14.67-2.51,32.16-2.81,47.55a65.85,65.85,0,0,1-1.14,11.46c-1,4.93-3.4,9.26-5.29,13.88-3.7,9.05-6.29,18.38-6.35,28.21-.1,19.34,10.29,37.64,9.14,56.94C66.07,287.72,55.06,303,55.26,320.89a44.71,44.71,0,0,0,9.12,26.33c6.2,8,14.26,14.53,19.55,23.25,4.69,7.73,5.48,17.76.54,25.54-3.37,5.31-10.62,8.09-13.63.95A17.6,17.6,0,0,1,69.66,392a22.36,22.36,0,0,1,1-3.19c.31-.74-.45-1.52-1.16-1.52H68.22a1.22,1.22,0,0,0-1.2,1.2c0,1.16,0,2.46.16,3.79C65,404.2,71.06,422.07,85.35,419.5c15.49-2.79,19.34-21.43,19.4-34.7.08-18.4-13.19-31.95-22.73-46.38-5.82-8.81-9.65-18.21-9.78-28.89-.13-10.19,4.48-18.79,8.67-27.76,3.79-8.11,6.31-16.48,5.29-25.51-1.12-10-6.77-18.71-8.87-28.43-2-8.94-1-18.21,1.71-26.86s6.63-16.9,8.51-25.91c1.79-8.57,1.31-16.66-.47-25.16-1.59-7.6-4.21-16.14-.25-23.44,4.36-8,15.38-11.67,23.88-12.45,7.85-.73,19.4,0,24.67,6.84,1.11,1.44,3.6,0,2.47-1.45C137.72,119.22,137.57,119.06,137.42,118.89Z" transform="translate(-14.66 262.7)"/><path class="cls-2" d="M120.52,118.89c-.36-7.51-2.46-14.8-8-20.12-5.12-4.86-12.24-6.82-19.13-7.19-15-.8-30.72,6.21-36.66,20.51-6.09,14.67-2.52,32.16-2.81,47.55a66.84,66.84,0,0,1-1.14,11.46c-1,4.93-3.4,9.26-5.29,13.88-3.71,9.05-6.3,18.38-6.35,28.21-.1,19.34,10.29,37.64,9.13,56.94-1,17.59-12.06,32.85-11.87,50.76a44.85,44.85,0,0,0,9.12,26.33c6.2,8,14.26,14.53,19.56,23.25,4.69,7.73,5.48,17.76.54,25.54C64.2,401.32,57,404.1,53.94,397A17.26,17.26,0,0,1,52.76,392a22.36,22.36,0,0,1,1-3.19,1.21,1.21,0,0,0-1.16-1.52H51.32a1.22,1.22,0,0,0-1.2,1.2c0,1.16,0,2.46.16,3.79-2.14,11.88,3.88,29.75,18.17,27.18,15.49-2.79,19.34-21.43,19.4-34.7.08-18.4-13.19-31.95-22.73-46.38-5.83-8.81-9.65-18.21-9.78-28.89-.13-10.19,4.48-18.79,8.67-27.76,3.78-8.11,6.31-16.48,5.29-25.51-1.13-10-6.77-18.71-8.88-28.43-1.94-8.94-1-18.21,1.72-26.86s6.63-16.9,8.5-25.91c1.79-8.57,1.32-16.66-.46-25.16-1.59-7.6-4.21-16.14-.25-23.44,4.36-8,15.38-11.67,23.88-12.45,7.85-.73,19.4,0,24.67,6.84,1.11,1.44,3.6,0,2.47-1.45C120.81,119.22,120.66,119.06,120.52,118.89Z" transform="translate(-14.66 262.7)"/><path class="cls-2" d="M120.52,118.89c-.36-7.51-2.46-14.8-8-20.12-5.12-4.86-12.24-6.82-19.13-7.19-15-.8-30.72,6.21-36.66,20.51-6.09,14.67-2.52,32.16-2.81,47.55a66.84,66.84,0,0,1-1.14,11.46c-1,4.93-3.4,9.26-5.29,13.88-3.71,9.05-6.3,18.38-6.35,28.21-.1,19.34,10.29,37.64,9.13,56.94-1,17.59-12.06,32.85-11.87,50.76a44.85,44.85,0,0,0,9.12,26.33c6.2,8,14.26,14.53,19.56,23.25,4.69,7.73,5.48,17.76.54,25.54C64.2,401.32,57,404.1,53.94,397A17.26,17.26,0,0,1,52.76,392a22.36,22.36,0,0,1,1-3.19,1.21,1.21,0,0,0-1.16-1.52H51.32a1.22,1.22,0,0,0-1.2,1.2c0,1.16,0,2.46.16,3.79-2.14,11.88,3.88,29.75,18.17,27.18,15.49-2.79,19.34-21.43,19.4-34.7.08-18.4-13.19-31.95-22.73-46.38-5.83-8.81-9.65-18.21-9.78-28.89-.13-10.19,4.48-18.79,8.67-27.76,3.78-8.11,6.31-16.48,5.29-25.51-1.13-10-6.77-18.71-8.88-28.43-1.94-8.94-1-18.21,1.72-26.86s6.63-16.9,8.5-25.91c1.79-8.57,1.32-16.66-.46-25.16-1.59-7.6-4.21-16.14-.25-23.44,4.36-8,15.38-11.67,23.88-12.45,7.85-.73,19.4,0,24.67,6.84,1.11,1.44,3.6,0,2.47-1.45C120.81,119.22,120.66,119.06,120.52,118.89Z" transform="translate(-14.66 262.7)"/><path class="cls-2" d="M108.16,112c-.36-7.51-2.46-14.8-8-20.12C95,87,87.86,85.08,81,84.71c-15-.8-30.72,6.21-36.66,20.51-6.09,14.67-2.52,32.16-2.82,47.55a65.84,65.84,0,0,1-1.13,11.46c-1,4.93-3.4,9.26-5.29,13.88-3.71,9-6.3,18.38-6.35,28.21C28.63,225.66,39,244,37.86,263.26,36.8,280.85,25.79,296.11,26,314a44.71,44.71,0,0,0,9.12,26.33c6.2,8,14.26,14.53,19.56,23.25,4.69,7.73,5.48,17.76.54,25.54-3.37,5.31-10.62,8.09-13.64.95a18,18,0,0,1-1.18-4.91,22.12,22.12,0,0,1,1-3.2,1.21,1.21,0,0,0-1.16-1.52H39a1.21,1.21,0,0,0-1.2,1.2,36.13,36.13,0,0,0,.16,3.79c-2.14,11.88,3.88,29.75,18.17,27.18,15.49-2.79,19.34-21.42,19.39-34.7.09-18.4-13.19-31.95-22.72-46.38-5.83-8.81-9.65-18.21-9.79-28.89-.13-10.19,4.49-18.79,8.68-27.76,3.78-8.11,6.3-16.48,5.28-25.51-1.12-10-6.76-18.71-8.87-28.43-1.94-8.94-1-18.21,1.72-26.86s6.62-16.9,8.5-25.91c1.79-8.57,1.31-16.66-.46-25.16-1.59-7.6-4.21-16.14-.25-23.44,4.36-8,15.37-11.67,23.88-12.45,7.85-.73,19.39,0,24.67,6.84,1.1,1.44,3.59,0,2.47-1.45C108.45,112.35,108.3,112.19,108.16,112Z" transform="translate(-14.66 262.7)"/><path class="cls-2" d="M96.83,112c-.37-7.51-2.47-14.8-8.06-20.12C83.66,87,76.53,85.08,69.64,84.71c-15-.8-30.72,6.21-36.65,20.51-6.09,14.67-2.52,32.16-2.82,47.55A64.9,64.9,0,0,1,29,164.23c-1,4.93-3.4,9.26-5.29,13.88-3.7,9-6.29,18.38-6.35,28.21-.1,19.34,10.3,37.64,9.14,56.94C25.47,280.85,14.46,296.11,14.66,314a44.71,44.71,0,0,0,9.12,26.33c6.2,8,14.26,14.53,19.55,23.25,4.69,7.73,5.49,17.76.55,25.54-3.38,5.31-10.63,8.09-13.64.95a17.62,17.62,0,0,1-1.18-4.91,21,21,0,0,1,1-3.2,1.21,1.21,0,0,0-1.17-1.52H27.63a1.21,1.21,0,0,0-1.2,1.2c0,1.16,0,2.46.15,3.79-2.14,11.88,3.89,29.75,18.17,27.18,15.49-2.79,19.34-21.42,19.4-34.7C64.23,359.53,51,346,41.42,331.55c-5.82-8.81-9.64-18.21-9.78-28.89-.13-10.19,4.49-18.79,8.67-27.76,3.79-8.11,6.31-16.48,5.29-25.51-1.12-10-6.76-18.71-8.87-28.43-1.94-8.94-1-18.21,1.71-26.86s6.63-16.9,8.51-25.91c1.79-8.57,1.31-16.66-.46-25.16-1.59-7.6-4.22-16.14-.26-23.44,4.36-8,15.38-11.67,23.88-12.45,7.86-.73,19.4,0,24.67,6.84,1.11,1.44,3.6,0,2.47-1.45C97.12,112.35,97,112.19,96.83,112Z" transform="translate(-14.66 262.7)"/><path class="cls-2" d="M102.73,99.14a16.77,16.77,0,0,0-1.83,2.12,4.34,4.34,0,0,0-.55,1.07,2,2,0,0,0-.09,1.08.23.23,0,0,0,.45,0c.32-1.5,1.64-2.59,2.7-3.59.45-.43-.26-1.13-.68-.68Z" transform="translate(-14.66 262.7)"/><path class="cls-3" d="M522.28,188.45c0-53.7,46.22-97.23,103.24-97.23s103.24,43.53,103.24,97.23S709.83,368.34,629,370C549.75,371.55,522.28,242.16,522.28,188.45Z" transform="translate(-14.66 262.7)"/><path class="cls-2" d="M625.52,127.29C598,92.88,567,125.58,556.69,137.62c-31,36.13,20.65,65.38,3.44,106.68-8.6,15.48-17.21,27.53-13.76,48.18s22.36,29.25,22.36,53.34c-1.72,36.13-61.94,67.1-22.36,105,15.48,13.76,46.45,13.76,31,44.73-13.77,27.53-74,29.25-75.71-6.88-63.66,1.72-15.49-58.5-12.05-80.87,1.72-20.65-22.36-27.53-27.53-51.62-5.16-18.93,5.17-24.09,8.61-43,5.16-22.36-10.33-27.53-8.61-49.89s17.21-31,13.77-56.78c-2.6-19.54-11.54-42.09,1.25-59.52,5.56-7.57,16.79-11.67,21.05-20.05,5.62-11-2.85-21.46,1.79-32.28,17.2-37.85,32.69-25.81,63.66-34.41,15.49-5.16,18.93-27.53,49.9-6.88,9.17,6.11,8.6,25.81,10.32,37.85" transform="translate(-14.66 262.7)"/><path class="cls-2" d="M622.07,89.44c0-12,10.33-24.09,20.65-32.69,10.33-6.88,32.69-3.44,46.46,0,29.25,6.88,22.37,22.37,36.13,41.29s27.53,5.16,31,32.7-3.45,36.13,8.6,58.5c24.09,43-12,65.38-15.49,106.68-1.72,18.93,13.77,36.13,15.49,55.06,1.72,22.37-15.49,44.74-12,65.38,3.45,24.09,32.7,31,31,56.78-1.72,29.26-15.48,10.33-36.13,15.49-13.76,3.44-82.59,48.18-84.31,6.88-1.72-24.09,34.41-27.53,37.86-46.45,3.43-17.21-17.21-34.42-17.21-53.34,0-17.21,17.21-25.81,17.21-43,0-18.93-15.49-29.25-17.21-46.46-3.44-36.13,41.29-55.06,25.81-94.63-6.89-18.93-15.49-25.81-18.93-44.74-1.72-13.76,3.44-27.53-5.16-41.29-12-18.93-46.46-18.93-60.22,1.71" transform="translate(-14.66 262.7)"/><path class="cls-2" d="M1267.36,185.57c11.62-11.62,11.62-37.42-9-40,7.74-12.9,12.9-43.87-10.32-43.87,6.45-15.49,2.58-46.46-19.36-41.29,3.87-21.94-12.9-31-32.26-28.39,2.58-25.81-24.52-28.39-41.29-14.2-9-28.39-52.91-20.65-51.62,7.74h-1.29c-2.58-12.9-25.81-18.06-34.84-7.74-16.78-15.48-28.39-2.58-43.88,0-11.61,2.58-12.9-3.87-24.52,5.16-7.74,6.46-12.9,16.78-10.32,25.81-21.94-5.16-41.29,12.91-36.13,36.13-24.52,0-54.2,33.55-32.26,55.49-11.61,14.2-16.78,46.46,7.74,46.46-11.61,18.06-12.9,36.13,11.62,42.58-11.62,20.65-19.36,51.62,16.77,47.75-2.58,18.06,25.81,24.51,31,7.74,2.58,11.61,14.2,16.77,23.23,9,5.16,15.49,25.81,16.78,32.26,2.58,10.32,11.62,31,9,38.71-5.16,5.16,7.74,10.32,7.74,16.78,3.87L1168,288.8c3.87,1.29,5.16,3.87,10.32,2.58-1.29-2.58,0-6.45-1.29-9,9,5.16,20.65,6.45,24.52-3.87,9,3.87,20.65,1.29,24.52-9,19.35,5.16,56.78-24.52,36.13-46.45C1281.56,221.7,1284.14,189.44,1267.36,185.57Z" transform="translate(-14.66 262.7)"/><path class="cls-3" d="M991.46,188c0-53.7,46.22-97.24,103.24-97.24s103.24,43.54,103.24,97.24-18.93,179.89-99.8,181.51C1018.93,371.08,991.46,241.68,991.46,188Z" transform="translate(-14.66 262.7)"/><path class="cls-2" d="M968,195.89c-2.59,27.1,32.26,18.07,32.26-10.32,20.64,3.87,24.51-21.94,23.22-36.13,11.62,25.8,36.13-9,37.43-23.23-2.59,28.39,33.55,19.35,38.71-1.3-3.87,23.24,25.81,24.53,36.13,9-3.87,21.94,16.78,19.36,31,19.36-7.74,12.9-2.58,24.51,12.9,24.51-3.87,10.33-2.58,23.23,9,23.23,0,11.62,1.29,45.17,20.64,36.13l7.75-121.3-87.75-54.19-108.4,6.45Z" transform="translate(-14.66 262.7)"/></svg>