<?xml version="1.0" encoding="utf-8"?>
<!-- Generator: Adobe Illustrator 24.1.2, SVG Export Plug-In . SVG Version: 6.00 Build 0)  -->
<svg version="1.1" id="Calque_1" xmlns="http://www.w3.org/2000/svg" xmlns:xlink="http://www.w3.org/1999/xlink" x="0px" y="0px"
	 viewBox="0 0 2269.08 633.32" style="enable-background:new 0 0 2269.08 633.32;" xml:space="preserve">
<style type="text/css">
	.st0{fill:none;}
	.st1{fill:#F0F1F2;}
	.st2{fill:#9FD9FE;}
	.st3{fill:#FFFFFF;stroke:#F0F1F2;stroke-width:4;stroke-miterlimit:10;}
	.st4{fill:#CAEFFF;}
	.st5{fill:#94CBEA;}
	.st6{fill:#202C34;}
	.st7{fill:#3A444C;}
	.st8{font-family:'ArialNarrow-BoldItalic';}
	.st9{font-size:43.6437px;}
	.st10{font-size:60px;}
</style>
<g>
	<g>
		<g>
			<g>
				<path class="st0" d="M1632.16,122.83l9.35,92.66c7.18-7.57,49.4-13.38,100.43-13.38c50.77,0,92.83,5.75,100.32,13.26l9.32-92.41
					c-11.25,11.22-56.06,19.62-109.65,19.62C1688.15,142.57,1643.19,134.12,1632.16,122.83z"/>
				<path class="st0" d="M1642.02,220.55l20.79,206.12c7.71-5.72,40.2-10.02,79.13-10.02c38.74,0,71.11,4.25,79.02,9.94
					l20.78-205.94c-8.77,7.27-50.1,12.78-99.79,12.78C1692.02,233.44,1650.52,227.89,1642.02,220.55z"/>
				<g>
					<path class="st0" d="M1642.02,220.55l20.79,206.12c7.71-5.72,40.2-10.02,79.13-10.02c38.74,0,71.11,4.25,79.02,9.94
						l20.78-205.94c-8.77,7.27-50.1,12.78-99.79,12.78C1692.02,233.44,1650.52,227.89,1642.02,220.55z"/>
					<path class="st0" d="M1632.16,122.83l9.35,92.66c7.18-7.57,49.4-13.38,100.43-13.38c50.77,0,92.83,5.75,100.32,13.26
						l9.32-92.41c-11.25,11.22-56.06,19.62-109.65,19.62C1688.15,142.57,1643.19,134.12,1632.16,122.83z"/>
					<path class="st1" d="M1854.32,116.49l-0.09-0.01c-2.27-13.44-51.66-24.17-112.28-24.17c-62.06,0-112.37,11.25-112.37,25.13
						c0,0.07,0.01,0.14,0.01,0.21h-0.01l0.03,0.27c0.01,0.1,0.02,0.19,0.03,0.29l31.45,311.78l0.12-0.01
						c2.28,6.66,37.56,11.95,80.75,11.95c44.66,0,80.87-5.65,80.87-12.63c0-0.16-0.03-0.31-0.06-0.47l0.06,0.01l31.24-309.65
						c0.17-0.57,0.27-1.15,0.27-1.74c0-0.21-0.02-0.41-0.03-0.61L1854.32,116.49z M1820.96,426.59c-7.9-5.68-40.27-9.94-79.02-9.94
						c-38.93,0-71.42,4.3-79.13,10.02l-20.79-206.12c8.5,7.32,50,12.88,99.92,12.88c49.69,0,91.03-5.51,99.79-12.78L1820.96,426.59z
						 M1842.27,215.37c-7.49-7.51-49.55-13.26-100.32-13.26c-51.03,0-93.26,5.81-100.43,13.38l-9.35-92.66
						c11.02,11.29,55.98,19.75,109.78,19.75c53.58,0,98.4-8.39,109.65-19.62L1842.27,215.37z"/>
				</g>
			</g>
			<path class="st2" d="M1742,233.44c-49.92,0-91.42-5.56-99.92-12.88l20.79,206.12c7.71-5.72,40.2-10.02,79.13-10.02
				c38.74,0,71.12,4.25,79.02,9.94l20.78-205.94C1833.03,227.94,1791.69,233.44,1742,233.44z"/>
			<ellipse class="st3" cx="1741.9" cy="117.44" rx="112.33" ry="25.13"/>
			<ellipse class="st4" cx="1742.08" cy="218.22" rx="100.54" ry="16.11"/>
			<ellipse class="st5" cx="1741.87" cy="426.67" rx="79.03" ry="15.47"/>
			<path class="st6" d="M1768.07,319.52c-17.36-1.95-37.78,8.27-50.25-13.14C1732.66,318.39,1752.7,309.67,1768.07,319.52z"/>
		</g>
		<g>
			<g>
				<path class="st0" d="M1944.2,122.83l9.35,92.66c7.18-7.57,49.4-13.38,100.43-13.38c50.77,0,92.83,5.75,100.32,13.26l9.32-92.42
					c-11.25,11.22-56.06,19.62-109.65,19.62C2000.18,142.57,1955.22,134.12,1944.2,122.83z"/>
				<path class="st0" d="M1954.05,220.55l20.79,206.12c7.71-5.72,40.2-10.02,79.13-10.02c38.74,0,71.12,4.25,79.02,9.94
					l20.78-205.94c-8.77,7.27-50.1,12.78-99.79,12.78C2004.05,233.44,1962.55,227.89,1954.05,220.55z"/>
				<g>
					<path class="st0" d="M1954.05,220.55l20.79,206.12c7.71-5.72,40.2-10.02,79.13-10.02c38.74,0,71.12,4.25,79.02,9.94
						l20.78-205.94c-8.77,7.27-50.1,12.78-99.79,12.78C2004.05,233.44,1962.55,227.89,1954.05,220.55z"/>
					<path class="st0" d="M1944.2,122.83l9.35,92.66c7.18-7.57,49.4-13.38,100.43-13.38c50.77,0,92.83,5.75,100.32,13.26l9.32-92.42
						c-11.25,11.22-56.06,19.62-109.65,19.62C2000.18,142.57,1955.22,134.12,1944.2,122.83z"/>
					<path class="st1" d="M2166.35,116.49l-0.09-0.01c-2.27-13.44-51.66-24.17-112.29-24.17c-62.06,0-112.37,11.25-112.37,25.13
						c0,0.07,0.01,0.14,0.01,0.21h-0.01l0.03,0.27c0.01,0.1,0.02,0.19,0.03,0.29l31.45,311.78l0.12-0.01
						c2.28,6.66,37.56,11.95,80.75,11.95c44.66,0,80.87-5.65,80.87-12.63c0-0.16-0.03-0.31-0.06-0.47l0.06,0.01l31.24-309.65
						c0.17-0.57,0.27-1.15,0.27-1.74c0-0.21-0.02-0.41-0.03-0.61L2166.35,116.49z M2132.99,426.59c-7.9-5.68-40.27-9.94-79.02-9.94
						c-38.93,0-71.42,4.3-79.13,10.02l-20.79-206.12c8.5,7.32,50,12.88,99.92,12.88c49.69,0,91.03-5.51,99.79-12.78L2132.99,426.59z
						 M2154.3,215.37c-7.49-7.51-49.55-13.26-100.32-13.26c-51.03,0-93.26,5.81-100.43,13.38l-9.35-92.66
						c11.02,11.29,55.98,19.75,109.78,19.75c53.58,0,98.4-8.39,109.65-19.62L2154.3,215.37z"/>
				</g>
			</g>
			<path class="st2" d="M2054.04,233.44c-49.92,0-91.42-5.56-99.92-12.88l20.79,206.12c7.71-5.72,40.2-10.02,79.13-10.02
				c38.74,0,71.12,4.25,79.02,9.94l20.78-205.94C2145.06,227.94,2103.73,233.44,2054.04,233.44z"/>
			<ellipse class="st3" cx="2053.93" cy="117.44" rx="112.33" ry="25.13"/>
			<ellipse class="st4" cx="2054.12" cy="218.22" rx="100.54" ry="16.11"/>
			<ellipse class="st5" cx="2053.92" cy="426.67" rx="79.03" ry="15.47"/>
			<path class="st6" d="M2090.73,372.49c-15.3,8.45-26.07,28.57-48.61,18.3C2061.17,392.02,2072.5,373.33,2090.73,372.49z"/>
		</g>
		<g>
			<g>
				<path class="st0" d="M1320.13,122.83l9.35,92.66c7.18-7.57,49.4-13.38,100.43-13.38c50.77,0,92.83,5.75,100.32,13.26l9.32-92.42
					c-11.25,11.22-56.06,19.62-109.65,19.62C1376.11,142.57,1331.15,134.12,1320.13,122.83z"/>
				<path class="st0" d="M1329.99,220.55l20.79,206.12c7.71-5.72,40.2-10.02,79.13-10.02c38.74,0,71.11,4.25,79.02,9.94
					l20.78-205.94c-8.77,7.27-50.1,12.78-99.79,12.78C1379.99,233.44,1338.49,227.89,1329.99,220.55z"/>
				<g>
					<path class="st0" d="M1329.99,220.55l20.79,206.12c7.71-5.72,40.2-10.02,79.13-10.02c38.74,0,71.11,4.25,79.02,9.94
						l20.78-205.94c-8.77,7.27-50.1,12.78-99.79,12.78C1379.99,233.44,1338.49,227.89,1329.99,220.55z"/>
					<path class="st0" d="M1320.13,122.83l9.35,92.66c7.18-7.57,49.4-13.38,100.43-13.38c50.77,0,92.83,5.75,100.32,13.26
						l9.32-92.42c-11.25,11.22-56.06,19.62-109.65,19.62C1376.11,142.57,1331.15,134.12,1320.13,122.83z"/>
					<path class="st1" d="M1542.28,116.49l-0.09-0.01c-2.27-13.44-51.66-24.17-112.28-24.17c-62.06,0-112.37,11.25-112.37,25.13
						c0,0.07,0.01,0.14,0.01,0.21h-0.01l0.03,0.27c0.01,0.1,0.02,0.19,0.03,0.29l31.45,311.78l0.12-0.01
						c2.28,6.66,37.56,11.95,80.75,11.95c44.66,0,80.87-5.65,80.87-12.63c0-0.16-0.03-0.31-0.06-0.47l0.06,0.01l31.24-309.65
						c0.17-0.57,0.27-1.15,0.27-1.74c0-0.21-0.01-0.41-0.03-0.61L1542.28,116.49z M1508.93,426.59c-7.9-5.68-40.27-9.94-79.02-9.94
						c-38.93,0-71.42,4.3-79.13,10.02l-20.79-206.12c8.5,7.32,50,12.88,99.92,12.88c49.69,0,91.03-5.51,99.79-12.78L1508.93,426.59z
						 M1530.23,215.37c-7.49-7.51-49.55-13.26-100.32-13.26c-51.03,0-93.26,5.81-100.43,13.38l-9.35-92.66
						c11.02,11.29,55.98,19.75,109.78,19.75c53.58,0,98.4-8.39,109.65-19.62L1530.23,215.37z"/>
				</g>
			</g>
			<path class="st2" d="M1429.97,233.44c-49.92,0-91.42-5.56-99.92-12.88l20.79,206.12c7.71-5.72,40.2-10.02,79.13-10.02
				c38.74,0,71.12,4.25,79.02,9.94l20.78-205.94C1521,227.94,1479.65,233.44,1429.97,233.44z"/>
			<ellipse class="st3" cx="1429.86" cy="117.44" rx="112.33" ry="25.13"/>
			<ellipse class="st4" cx="1430.05" cy="218.22" rx="100.54" ry="16.11"/>
			<ellipse class="st5" cx="1429.84" cy="426.67" rx="79.03" ry="15.47"/>
			<path class="st6" d="M1455.38,260c-16.55,5.59-30.72,23.49-51.08,9.39C1422.82,273.99,1437.29,257.59,1455.38,260z"/>
		</g>
		<text transform="matrix(1 0 0 1 1375.0449 525.2765)" class="st7 st8 st9">Faible</text>
		<text transform="matrix(1 0 0 1 1660.7168 525.2765)" class="st7 st8 st9">Moyenne</text>
		<text transform="matrix(1 0 0 1 1994.1172 527.6329)" class="st7 st8 st9">Élevée</text>
	</g>
	<g>
		<text transform="matrix(1 0 0 1 102.73 144.075)" class="st7 st8 st10">Comment connaître sa porosité ?</text>
		<text transform="matrix(1 0 0 1 102.7303 277.3946)" class="st7 st8 st10">1. Après s’être lavé, prendre un cheveu </text>
		<text transform="matrix(1 0 0 1 102.7303 357.3946)" class="st7 st8 st10">2. Remplir un verre d’eau</text>
		<text transform="matrix(1 0 0 1 102.7303 437.3946)" class="st7 st8 st10">3. Mettre le cheveu au fond du verre </text>
		<text transform="matrix(1 0 0 1 102.7303 517.3946)" class="st7 st8 st10">4. Comparer le résultat après 5 minutes</text>
	</g>
</g>
</svg>
