<?xml version="1.0" encoding="utf-8"?>
<!-- Generator: Adobe Illustrator 24.1.2, SVG Export Plug-In . SVG Version: 6.00 Build 0)  -->
<svg version="1.1" id="Calque_1" xmlns="http://www.w3.org/2000/svg" xmlns:xlink="http://www.w3.org/1999/xlink" x="0px" y="0px"
	 viewBox="0 0 2507.5 735.9" style="enable-background:new 0 0 2507.5 735.9;" xml:space="preserve">
<style type="text/css">
	.st0{fill:none;}
	.st1{fill:#F0F1F2;}
	.st2{fill:#9FD9FE;}
	.st3{fill:#FFFFFF;stroke:#F0F1F2;stroke-width:4;stroke-miterlimit:10;}
	.st4{fill:#CAEFFF;}
	.st5{fill:#94CBEA;}
	.st6{fill:#202C34;}
	.st7{fill:#383A3A;}
	.st8{font-family:'Arial-BoldItalicMT';}
	.st9{font-size:60px;}
	.st10{letter-spacing:1;}
	.st11{fill:#3A444C;}
</style>
<path class="st0" d="M1684.4,102l12.8,127.4c9.9-10.4,67.9-18.4,138.1-18.4c69.8,0,127.6,7.9,137.9,18.2l12.8-127
	c-15.5,15.4-77.1,27-150.7,27C1761.4,129.1,1699.6,117.5,1684.4,102z"/>
<path class="st0" d="M1698,236.3l28.6,283.4c10.6-7.9,55.3-13.8,108.8-13.8c53.3,0,97.8,5.8,108.6,13.7l28.6-283.1
	c-12,10-68.9,17.6-137.2,17.6C1766.7,254,1709.7,246.4,1698,236.3z"/>
<path class="st0" d="M1698,236.3l28.6,283.4c10.6-7.9,55.3-13.8,108.8-13.8c53.3,0,97.8,5.8,108.6,13.7l28.6-283.1
	c-12,10-68.9,17.6-137.2,17.6C1766.7,254,1709.7,246.4,1698,236.3z"/>
<path class="st0" d="M1684.4,102l12.8,127.4c9.9-10.4,67.9-18.4,138.1-18.4c69.8,0,127.6,7.9,137.9,18.2l12.8-127
	c-15.5,15.4-77.1,27-150.7,27C1761.4,129.1,1699.6,117.5,1684.4,102z"/>
<path class="st1" d="M1989.8,93.3h-0.1c-3.1-18.5-71-33.2-154.4-33.2c-85.3,0-154.5,15.5-154.5,34.6c0,0.1,0,0.2,0,0.3l0,0v0.4
	c0,0.1,0,0.3,0,0.4l43.3,428.6h0.2c3.1,9.2,51.6,16.4,111,16.4c61.4,0,111.2-7.8,111.2-17.4c0-0.2,0-0.4-0.1-0.6h0.1L1989.5,97
	c0.2-0.8,0.4-1.6,0.4-2.4c0-0.3,0-0.6,0-0.8L1989.8,93.3z M1944,519.6c-10.9-7.8-55.4-13.7-108.6-13.7c-53.5,0-98.2,5.9-108.8,13.8
	L1698,236.3c11.7,10.1,68.7,17.7,137.4,17.7c68.3,0,125.1-7.6,137.2-17.6L1944,519.6z M1973.3,229.2
	c-10.3-10.3-68.1-18.2-137.9-18.2c-70.2,0-128.2,8-138.1,18.4L1684.4,102c15.2,15.5,77,27.1,150.9,27.1c73.7,0,135.3-11.5,150.7-27
	L1973.3,229.2z"/>
<path class="st2" d="M1835.4,254c-68.6,0-125.7-7.6-137.4-17.7l28.6,283.4c10.6-7.9,55.3-13.8,108.8-13.8
	c53.3,0,97.8,5.8,108.6,13.7l28.6-283.1C1960.6,246.5,1903.7,254,1835.4,254z"/>
<ellipse class="st3" cx="1835.3" cy="94.6" rx="154.4" ry="34.5"/>
<ellipse class="st4" cx="1835.6" cy="233.1" rx="138.2" ry="22.1"/>
<ellipse class="st5" cx="1835.3" cy="519.7" rx="108.7" ry="21.3"/>
<path class="st6" d="M1871.3,372.4c-23.9-2.7-51.9,11.4-69.1-18.1C1822.6,370.8,1850.1,358.8,1871.3,372.4z"/>
<path class="st0" d="M2113.4,102l12.9,127.4c9.9-10.4,67.9-18.4,138.1-18.4c69.8,0,127.6,7.9,137.9,18.2l12.8-127
	c-15.5,15.4-77.1,27-150.8,27C2190.4,129.1,2128.6,117.5,2113.4,102z"/>
<path class="st0" d="M2127,236.3l28.6,283.4c10.6-7.9,55.3-13.8,108.8-13.8c53.3,0,97.8,5.8,108.6,13.7l28.6-283.1
	c-12.1,10-68.9,17.6-137.2,17.6C2195.7,254,2138.6,246.4,2127,236.3z"/>
<path class="st0" d="M2127,236.3l28.6,283.4c10.6-7.9,55.3-13.8,108.8-13.8c53.3,0,97.8,5.8,108.6,13.7l28.6-283.1
	c-12.1,10-68.9,17.6-137.2,17.6C2195.7,254,2138.6,246.4,2127,236.3z"/>
<path class="st0" d="M2113.4,102l12.9,127.4c9.9-10.4,67.9-18.4,138.1-18.4c69.8,0,127.6,7.9,137.9,18.2l12.8-127
	c-15.5,15.4-77.1,27-150.8,27C2190.4,129.1,2128.6,117.5,2113.4,102z"/>
<path class="st1" d="M2418.8,93.3h-0.1c-3.1-18.5-71-33.2-154.4-33.2c-85.3,0-154.5,15.5-154.5,34.6c0,0.1,0,0.2,0,0.3l0,0v0.4
	c0,0.1,0,0.3,0,0.4l43.3,428.6h0.2c3.1,9.2,51.6,16.4,111,16.4c61.4,0,111.2-7.8,111.2-17.4c0-0.2,0-0.4-0.1-0.6h0.1L2418.4,97
	c0.2-0.8,0.4-1.6,0.4-2.4c0-0.3,0-0.6-0.1-0.8L2418.8,93.3z M2373,519.6c-10.9-7.8-55.4-13.7-108.6-13.7
	c-53.5,0-98.2,5.9-108.8,13.8L2127,236.3c11.7,10.1,68.7,17.7,137.4,17.7c68.3,0,125.1-7.6,137.2-17.6L2373,519.6z M2402.3,229.2
	c-10.3-10.3-68.1-18.2-137.9-18.2c-70.1,0-128.2,8-138.1,18.4L2113.4,102c15.2,15.5,77,27.1,150.9,27.1c73.7,0,135.3-11.5,150.8-27
	L2402.3,229.2z"/>
<path class="st2" d="M2264.4,254c-68.6,0-125.7-7.6-137.4-17.7l28.6,283.4c10.6-7.9,55.3-13.8,108.8-13.8
	c53.3,0,97.8,5.8,108.6,13.7l28.6-283.1C2389.6,246.5,2332.7,254,2264.4,254z"/>
<ellipse class="st3" cx="2264.3" cy="94.6" rx="154.4" ry="34.5"/>
<ellipse class="st4" cx="2264.5" cy="233.1" rx="138.2" ry="22.1"/>
<ellipse class="st5" cx="2264.2" cy="519.7" rx="108.7" ry="21.3"/>
<path class="st6" d="M2314.9,445.2c-21,11.6-35.8,39.3-66.8,25.1C2274.2,472.1,2289.8,446.4,2314.9,445.2z"/>
<path class="st0" d="M1255.5,102l12.8,127.4c9.9-10.4,67.9-18.4,138.1-18.4c69.8,0,127.6,7.9,137.9,18.2l12.8-127
	c-15.5,15.4-77.1,27-150.7,27C1332.4,129.1,1270.6,117.5,1255.5,102z"/>
<path class="st0" d="M1269,236.3l28.6,283.4c10.6-7.9,55.3-13.8,108.8-13.8c53.3,0,97.8,5.8,108.6,13.7l28.6-283.1
	c-12,10-68.9,17.6-137.2,17.6C1337.7,254,1280.7,246.4,1269,236.3z"/>
<path class="st0" d="M1269,236.3l28.6,283.4c10.6-7.9,55.3-13.8,108.8-13.8c53.3,0,97.8,5.8,108.6,13.7l28.6-283.1
	c-12,10-68.9,17.6-137.2,17.6C1337.7,254,1280.7,246.4,1269,236.3z"/>
<path class="st0" d="M1255.5,102l12.8,127.4c9.9-10.4,67.9-18.4,138.1-18.4c69.8,0,127.6,7.9,137.9,18.2l12.8-127
	c-15.5,15.4-77.1,27-150.7,27C1332.4,129.1,1270.6,117.5,1255.5,102z"/>
<path class="st1" d="M1560.9,93.3h-0.1c-3.1-18.5-71-33.2-154.4-33.2c-85.3,0-154.5,15.5-154.5,34.6c0,0.1,0,0.2,0,0.3l0,0v0.4
	c0,0.1,0,0.3,0,0.4l43.3,428.6h0.2c3.1,9.2,51.6,16.4,111,16.4c61.4,0,111.2-7.8,111.2-17.4c0-0.2,0-0.4-0.1-0.6h0.1l43-425.7
	c0.2-0.8,0.4-1.6,0.4-2.4c0-0.3,0-0.6,0-0.8L1560.9,93.3z M1515,519.6c-10.8-7.8-55.4-13.7-108.6-13.7c-53.5,0-98.2,5.9-108.8,13.8
	L1269,236.3c11.7,10.1,68.7,17.7,137.4,17.7c68.3,0,125.2-7.6,137.2-17.6L1515,519.6z M1544.3,229.2
	c-10.3-10.3-68.1-18.2-137.9-18.2c-70.2,0-128.2,8-138.1,18.4L1255.5,102c15.2,15.5,77,27.1,150.9,27.1c73.7,0,135.3-11.5,150.7-27
	L1544.3,229.2z"/>
<path class="st2" d="M1406.5,254c-68.6,0-125.7-7.6-137.4-17.7l28.6,283.4c10.6-7.9,55.3-13.8,108.8-13.8
	c53.3,0,97.8,5.8,108.6,13.7l28.6-283.1C1531.6,246.5,1474.8,254,1406.5,254z"/>
<ellipse class="st3" cx="1406.3" cy="94.6" rx="154.4" ry="34.5"/>
<ellipse class="st4" cx="1406.6" cy="233.1" rx="138.2" ry="22.1"/>
<ellipse class="st5" cx="1406.3" cy="519.7" rx="108.7" ry="21.3"/>
<path class="st6" d="M1441.4,290.6c-22.8,7.7-42.2,32.3-70.2,12.9C1396.6,309.8,1416.5,287.3,1441.4,290.6z"/>
<text transform="matrix(1 0 0 1 1330.9554 655.2464)" class="st7 st8 st9 st10">Faible</text>
<text transform="matrix(1 0 0 1 1723.6854 655.2464)" class="st7 st8 st9 st10">Moyenne</text>
<text transform="matrix(1 0 0 1 2182.0354 658.4864)" class="st7 st8 st9 st10">Élevée</text>
<text transform="matrix(1 0 0 1 62.1554 154.3964)" class="st11 st8 st9 st10">Comment connaître sa porosité ?</text>
<path class="st11" d="M68,300.9l1.3-7.5c5.3-2.6,10-6.4,13.8-11h4.2l-7.4,43.2h-6.9l5.1-29.8C75,298.2,71.6,299.9,68,300.9L68,300.9
	z"/>
<path class="st11" d="M94.5,317.5h6.8l-1.4,8.1h-6.8L94.5,317.5z"/>
<path class="st11" d="M144.1,316.1h-14l-4.3,9.5h-7.4l20-43h8l5.7,43h-6.9L144.1,316.1z M143.2,308.9l-2-17.3l-7.8,17.3H143.2z"/>
<path class="st11" d="M162.9,294.5h6.6l-0.6,3.2c1.1-1.2,2.5-2.2,3.9-3c1.2-0.6,2.4-0.9,3.7-0.9c2.5,0,4.9,1.2,6.3,3.3
	c1.6,2.2,2.4,5.6,2.4,10c0,5.7-1.4,10.5-4.3,14.4c-2.3,3.2-5.1,4.8-8.3,4.8c-3.3,0-5.8-1.7-7.5-5l-2.8,16.1h-6.9L162.9,294.5z
	 M167.1,312.3c-0.1,2,0.4,4,1.4,5.7c0.7,1.2,1.9,1.9,3.3,2c1.1,0,2.2-0.5,3-1.3c1.2-1.3,2.1-3,2.6-4.7c0.8-2.3,1.2-4.7,1.2-7.1
	c0.1-1.9-0.4-3.7-1.4-5.3c-0.7-1.1-2-1.8-3.4-1.9c-1.1,0-2.2,0.5-3,1.3c-1.2,1.3-2.1,2.8-2.6,4.5C167.5,307.7,167.1,310,167.1,312.3
	z"/>
<path class="st11" d="M194.2,294.5h6.5l-1,6c2.4-4.5,5-6.7,7.9-6.7c1.1,0,2.2,0.3,3.2,0.9l-2.7,6.9c-0.6-0.3-1.3-0.4-2-0.4
	c-1.1,0-2.2,0.4-3.1,1.1c-1.5,1.1-2.6,2.7-3.3,4.4c-1.1,3-1.9,6.1-2.3,9.3l-1.7,9.8h-6.9L194.2,294.5z"/>
<path class="st11" d="M234.8,312.6h-17.3v0.8c-0.1,1.8,0.4,3.5,1.5,5c0.8,1.2,2.1,1.9,3.5,1.9c2.3,0,4-1.5,5.4-4.3l6.2,1.3
	c-0.9,2.7-2.6,5-4.8,6.8c-1.9,1.5-4.3,2.3-6.8,2.3c-3.2,0-6.3-1.4-8.3-3.9c-2.2-2.6-3.3-6.1-3.3-10.5c-0.1-4.5,1.2-8.9,3.8-12.6
	c2.3-3.5,6.3-5.6,10.5-5.5c2.9-0.1,5.6,1.2,7.4,3.4c1.9,2.3,2.8,5.6,2.8,9.9C235.3,309,235.1,310.8,234.8,312.6z M229,307.5v-0.8
	c0-2.4-0.4-4.1-1.3-5.2c-0.8-1.1-2-1.7-3.4-1.7c-1.5,0.1-2.9,0.8-3.8,2c-1.3,1.7-2.1,3.7-2.3,5.8L229,307.5z M220.2,281.7h6.6
	l3.1,8.8h-4.7L220.2,281.7z"/>
<path class="st11" d="M237.9,316.9l6.7-1.3c0.4,1.4,1.1,2.7,2.2,3.7c1,0.7,2.3,1.1,3.6,1c1.2,0.1,2.5-0.3,3.5-1
	c0.8-0.5,1.3-1.4,1.3-2.4c0-0.6-0.2-1.1-0.6-1.6c-0.8-0.7-1.8-1.2-2.8-1.5c-4.1-1.7-6.7-3-7.7-3.9c-1.6-1.6-2.5-3.8-2.4-6
	c-0.1-2.7,1.1-5.4,3.1-7.2c2.1-1.9,4.9-2.8,8.5-2.8c6.1,0,9.6,2.7,10.6,8.1l-6.4,1.4c-0.7-2.5-2.5-3.7-5.3-3.7
	c-1.1-0.1-2.1,0.2-3,0.8c-0.6,0.5-1,1.3-1,2.1c0,0.7,0.3,1.3,0.8,1.8c1.2,0.8,2.6,1.4,4,1.8c3.3,1.2,5.5,2.3,6.6,3.4
	c1.6,1.5,2.5,3.7,2.5,5.9c0.1,2.9-1.1,5.8-3.2,7.8c-2.3,2.1-5.3,3.2-8.5,3.1C243.6,326.3,239.4,323.2,237.9,316.9z"/>
<path class="st11" d="M281.8,316.9l6.7-1.3c0.4,1.4,1.1,2.7,2.2,3.7c1,0.7,2.3,1.1,3.6,1c1.2,0.1,2.5-0.3,3.5-1
	c0.8-0.5,1.3-1.4,1.3-2.4c0-0.6-0.2-1.1-0.6-1.6c-0.8-0.7-1.8-1.2-2.8-1.5c-4.1-1.7-6.7-3-7.7-3.9c-1.6-1.6-2.4-3.8-2.4-6
	c-0.1-2.7,1.1-5.4,3.1-7.2c2.1-1.9,4.9-2.8,8.5-2.8c6.1,0,9.6,2.7,10.6,8.1l-6.4,1.4c-0.8-2.5-2.5-3.7-5.3-3.7
	c-1.1-0.1-2.1,0.2-3,0.8c-0.6,0.5-1,1.3-1,2.1c0,0.7,0.3,1.3,0.8,1.8c1.3,0.8,2.6,1.4,4,1.8c3.3,1.2,5.5,2.3,6.6,3.4
	c1.6,1.5,2.5,3.7,2.5,5.9c0.1,2.9-1.1,5.8-3.2,7.8c-2.3,2.1-5.3,3.3-8.5,3.1C287.6,326.3,283.3,323.2,281.8,316.9z"/>
<path class="st11" d="M318.6,282.6h7l-1.2,6.7c-0.7,3.9-1.7,6.7-3.2,8.3c-1.4,1.6-3.5,2.5-5.6,2.5l0.7-3.9c1-0.3,2-0.8,2.6-1.7
	c0.8-1.1,1.3-2.4,1.5-3.8h-3.2L318.6,282.6z"/>
<path class="st11" d="M351.5,312.6h-17.4v0.8c-0.1,1.8,0.4,3.5,1.5,5c0.8,1.2,2.1,1.9,3.5,1.9c2.3,0,4.1-1.4,5.4-4.3l6.2,1.3
	c-1,2.7-2.6,5-4.8,6.8c-1.9,1.5-4.3,2.3-6.7,2.3c-3.2,0.1-6.3-1.4-8.3-3.9c-2.2-2.6-3.3-6.1-3.3-10.5c-0.1-4.5,1.2-8.9,3.8-12.6
	c2.3-3.5,6.3-5.6,10.5-5.5c2.9-0.1,5.6,1.2,7.4,3.4c1.9,2.3,2.8,5.6,2.8,9.9C352,309,351.8,310.8,351.5,312.6z M343.6,285.3
	l-4.2,5.2h-5.7l7.2-8.8h6.5l2.9,8.8h-4.8L343.6,285.3z M345.6,307.5v-0.8c0.1-1.8-0.3-3.7-1.3-5.2c-0.8-1.1-2-1.7-3.4-1.7
	c-1.5,0.1-2.9,0.8-3.8,2c-1.3,1.7-2.1,3.7-2.3,5.8L345.6,307.5z"/>
<path class="st11" d="M356.8,300.7l1.1-6.2h3.6l0.9-5l8-5.9l-2,10.9h4.4l-1.1,6.2h-4.4l-2.4,13c-0.4,2.3-0.6,3.7-0.6,4.1
	c0,0.6,0.2,1.1,0.6,1.5c0.6,0.4,1.2,0.6,1.9,0.5c0.3,0,1.1-0.1,2.4-0.2l-1.1,6.2c-1.2,0.3-2.4,0.4-3.7,0.4c-1.9,0.2-3.9-0.4-5.4-1.6
	c-1.3-1.3-1.9-3-1.8-4.8c0.2-2.2,0.5-4.4,0.9-6.6l2.3-12.5L356.8,300.7z"/>
<path class="st11" d="M378,294.5h6.5l-1,6c2.4-4.5,5-6.7,7.9-6.7c1.1,0,2.2,0.3,3.2,0.9l-2.6,6.9c-1.7-0.7-3.6-0.5-5,0.7
	c-1.5,1.1-2.6,2.6-3.3,4.4c-1.1,3-1.8,6.1-2.3,9.3l-1.7,9.8h-7L378,294.5z"/>
<path class="st11" d="M418.6,312.6h-17.3v0.8c-0.1,1.8,0.4,3.5,1.5,5c0.8,1.2,2.1,1.9,3.5,1.9c2.3,0,4.1-1.4,5.4-4.3l6.2,1.3
	c-1,2.7-2.6,5-4.8,6.8c-1.9,1.5-4.3,2.3-6.8,2.3c-3.2,0.1-6.3-1.4-8.3-3.9c-2.2-2.6-3.3-6.1-3.3-10.5c-0.1-4.5,1.2-8.9,3.8-12.6
	c2.3-3.5,6.3-5.6,10.5-5.5c2.9-0.1,5.6,1.2,7.4,3.4c1.9,2.3,2.8,5.6,2.8,9.9C419.1,309,419,310.8,418.6,312.6z M412.8,307.5v-0.8
	c0.1-1.8-0.3-3.7-1.3-5.2c-0.8-1.1-2-1.7-3.4-1.7c-1.5,0.1-2.9,0.8-3.8,2c-1.3,1.7-2.1,3.7-2.3,5.8L412.8,307.5z"/>
<path class="st11" d="M437.8,325.6l7.3-43h6.9l-7.4,43H437.8z"/>
<path class="st11" d="M462.6,303.3l-6.7-0.7c0.6-2.6,2.1-4.9,4.2-6.6c2.2-1.6,4.9-2.4,7.6-2.2c3.1,0,5.5,0.8,7.2,2.3
	c1.7,1.6,2.6,3.8,2.5,6.1c0,1-0.1,1.9-0.2,2.9c-0.2,1-0.8,3.8-1.8,8.3c-0.7,2.5-1.1,5.2-1.3,7.8c0,1.5,0.3,3,0.7,4.5h-6.9
	c-0.3-1.2-0.5-2.3-0.5-3.5c-0.9,1.3-2,2.4-3.4,3.1c-1.1,0.7-2.5,1.1-3.8,1.1c-2,0-3.8-0.9-5-2.5c-1.4-1.9-2.1-4.2-2-6.6
	c0-3.1,0.8-5.6,2.4-7.3s4.2-2.7,8-3.1c2.2-0.1,4.5-0.5,6.6-1.2c0.3-0.9,0.5-1.9,0.5-2.8c0-0.9-0.3-1.7-1-2.3
	c-0.7-0.6-1.7-0.9-2.6-0.9C464.9,299.5,462.9,301.1,462.6,303.3z M468.9,311.1c-0.5,0.2-1.1,0.3-1.6,0.4c-3.1,0.5-5.2,1.1-6.2,1.9
	c-1,0.8-1.5,1.9-1.5,3.2c0,0.9,0.3,1.8,0.8,2.5c0.5,0.6,1.3,1,2.2,1c0.9,0,1.8-0.3,2.6-0.8c0.9-0.6,1.5-1.3,2-2.2
	c0.7-1.5,1.2-3.1,1.5-4.7L468.9,311.1z"/>
<path class="st11" d="M494.5,325.6h-5.9l-5.2-31.1h6.8L492,308c0.5,3.5,0.8,6,0.9,7.3l1.5-3.5l2-4.3l6.3-13.1h7.4L494.5,325.6z"/>
<path class="st11" d="M535.3,312.6H518v0.8c-0.1,1.8,0.4,3.5,1.5,5c0.8,1.2,2.1,1.9,3.5,1.9c2.3,0,4-1.4,5.4-4.3l6.2,1.3
	c-0.9,2.7-2.6,5-4.8,6.8c-1.9,1.5-4.3,2.3-6.8,2.3c-3.2,0-6.3-1.4-8.3-3.9c-2.2-2.6-3.3-6.1-3.3-10.5c-0.1-4.5,1.2-8.9,3.8-12.6
	c2.3-3.5,6.3-5.6,10.5-5.5c2.9-0.1,5.6,1.2,7.4,3.4c1.9,2.3,2.8,5.6,2.8,9.9C535.8,309,535.6,310.8,535.3,312.6z M529.5,307.5v-0.8
	c0-2.4-0.4-4.1-1.3-5.2c-0.8-1.1-2-1.7-3.4-1.7c-1.5,0.1-2.9,0.8-3.8,2c-1.3,1.7-2.1,3.7-2.3,5.8L529.5,307.5z M526.3,281.8h7.4
	l-7.8,8.8h-4.6L526.3,281.8z"/>
<path class="st11" d="M540.8,317.5h7l-1.2,6.7c-0.7,3.9-1.7,6.7-3.2,8.3c-1.4,1.6-3.5,2.5-5.6,2.5l0.7-3.9c1-0.3,1.9-0.9,2.6-1.7
	c0.8-1.1,1.3-2.4,1.4-3.8h-3.2L540.8,317.5z"/>
<path class="st11" d="M574.6,294.5h6.5l-0.6,3.2c1.1-1.2,2.5-2.2,3.9-3c1.2-0.6,2.4-0.9,3.7-0.9c2.5,0,4.9,1.2,6.3,3.3
	c1.6,2.2,2.4,5.6,2.4,10c0,5.7-1.4,10.5-4.3,14.4c-2.3,3.2-5.1,4.8-8.3,4.8c-3.3,0-5.8-1.7-7.5-5l-2.8,16.2h-6.9L574.6,294.5z
	 M578.7,312.3c-0.1,2,0.4,4,1.4,5.7c0.7,1.2,1.9,1.9,3.3,2c1.1,0,2.2-0.5,3-1.3c1.3-1.3,2.2-2.9,2.6-4.7c0.8-2.3,1.2-4.7,1.2-7.1
	c0.1-1.9-0.4-3.7-1.4-5.3c-0.7-1.1-2-1.8-3.3-1.9c-1.1,0-2.2,0.5-3,1.3c-1.2,1.3-2.1,2.8-2.6,4.5C579.2,307.7,578.8,310,578.7,312.3
	z"/>
<path class="st11" d="M605.8,294.5h6.5l-1,6c2.4-4.5,5-6.7,7.9-6.7c1.1,0,2.2,0.3,3.2,0.9l-2.6,6.9c-1.7-0.7-3.6-0.5-5,0.7
	c-1.5,1.1-2.6,2.6-3.3,4.4c-1.1,3-1.8,6.1-2.3,9.3l-1.7,9.8h-6.9L605.8,294.5z"/>
<path class="st11" d="M646.4,312.6h-17.3v0.8c-0.1,1.8,0.4,3.5,1.5,5c0.8,1.2,2.1,1.9,3.5,1.9c2.3,0,4.1-1.4,5.4-4.3l6.2,1.3
	c-1,2.7-2.6,5-4.8,6.8c-1.9,1.5-4.3,2.3-6.8,2.3c-3.2,0-6.3-1.4-8.3-3.9c-2.2-2.6-3.3-6.1-3.3-10.5c-0.1-4.5,1.2-8.9,3.8-12.6
	c2.3-3.5,6.3-5.6,10.5-5.5c2.9-0.1,5.6,1.2,7.4,3.4c1.9,2.3,2.8,5.6,2.8,9.9C646.9,309,646.8,310.8,646.4,312.6z M640.6,307.5v-0.8
	c0.1-1.8-0.3-3.7-1.3-5.2c-0.8-1.1-2-1.7-3.4-1.7c-1.5,0.1-2.9,0.8-3.8,2c-1.3,1.7-2.1,3.7-2.3,5.8L640.6,307.5z"/>
<path class="st11" d="M655.8,294.5h6.6l-0.7,4c1.3-1.5,2.9-2.7,4.7-3.7c1.4-0.7,2.9-1,4.4-1c1.9-0.1,3.7,0.7,4.9,2.1
	c1.3,1.7,2,3.7,1.8,5.9c-0.1,2.1-0.4,4.1-0.8,6.2l-3,17.6h-6.9l3-17.6c0.3-1.6,0.5-3.2,0.7-4.8c0.1-0.9-0.2-1.8-0.8-2.6
	c-0.5-0.6-1.3-0.9-2.1-0.9c-1.1,0-2.1,0.4-2.9,1.1c-1.3,1-2.4,2.3-3.1,3.8c-1,2.6-1.7,5.4-2,8.2l-2.2,12.8h-6.9L655.8,294.5z"/>
<path class="st11" d="M704.9,325.6h-6.5l0.6-3.4c-1,1.3-2.2,2.4-3.7,3.2c-1.2,0.6-2.5,0.9-3.9,0.9c-2.5,0-4.8-1.2-6.2-3.3
	c-1.6-2.2-2.4-5.4-2.4-9.8c-0.1-4.8,1.1-9.5,3.5-13.6c2.3-3.9,5.3-5.9,8.9-5.9c3.4,0,5.9,1.6,7.6,5l2.9-16.1h6.9L704.9,325.6z
	 M689.5,312.9c-0.1,1.8,0.4,3.7,1.3,5.2c0.7,1.1,1.9,1.8,3.3,1.9c1.2,0,2.2-0.5,3.1-1.3c1.2-1.2,2.1-2.8,2.6-4.5
	c0.7-2.1,1.1-4.4,1.1-6.6c0.1-2-0.4-3.9-1.4-5.6c-0.7-1.2-1.9-2-3.3-2.1c-1.1,0.1-2.2,0.5-2.9,1.3c-1.2,1.3-2.1,2.9-2.6,4.6
	C689.9,308.2,689.5,310.5,689.5,312.9z"/>
<path class="st11" d="M718.2,294.5h6.5l-1,6c2.4-4.5,5-6.7,7.9-6.7c1.1,0,2.2,0.3,3.2,0.9l-2.6,6.9c-1.7-0.7-3.6-0.5-5,0.7
	c-1.5,1.1-2.6,2.6-3.3,4.4c-1.1,3-1.8,6.1-2.3,9.3l-1.7,9.8h-6.9L718.2,294.5z"/>
<path class="st11" d="M758.8,312.6h-17.3v0.8c-0.1,1.8,0.4,3.5,1.5,5c0.8,1.2,2.1,1.9,3.5,1.9c2.3,0,4.1-1.4,5.4-4.3l6.2,1.3
	c-1,2.7-2.6,5-4.8,6.8c-1.9,1.5-4.3,2.3-6.8,2.3c-3.2,0.1-6.3-1.4-8.3-3.9c-2.2-2.6-3.3-6.1-3.3-10.5c-0.1-4.5,1.2-8.9,3.8-12.6
	c2.3-3.5,6.3-5.6,10.5-5.4c2.9-0.1,5.6,1.2,7.4,3.4c1.9,2.3,2.8,5.6,2.8,9.9C759.3,309,759.1,310.8,758.8,312.6z M753,307.5v-0.8
	c0.1-1.8-0.3-3.7-1.3-5.2c-0.8-1.1-2-1.7-3.4-1.7c-1.5,0.1-2.9,0.8-3.8,2c-1.3,1.7-2.1,3.7-2.3,5.8L753,307.5z"/>
<path class="st11" d="M782.7,294.5h6.9l-3.2,18.4c-0.3,1.4-0.4,2.8-0.5,4.1c0,0.9,0.3,1.7,0.8,2.4c0.5,0.6,1.2,1,2,1
	c1,0,2-0.4,2.8-1c1.3-0.9,2.3-2.2,3-3.6c0.9-2,1.6-4.2,1.9-6.4l2.8-14.8h7l-5.8,31.1h-6.5l0.8-4.2c-2.8,3.3-5.8,4.9-9.1,4.9
	c-1.9,0.1-3.7-0.7-4.9-2.2c-1.3-1.7-1.9-3.8-1.8-5.9c0.1-2.1,0.4-4.3,0.8-6.4L782.7,294.5z"/>
<path class="st11" d="M814.8,294.5h6.6l-0.7,4c1.3-1.5,2.9-2.7,4.7-3.7c1.4-0.7,2.9-1,4.4-1c1.9-0.1,3.7,0.7,4.9,2.1
	c1.3,1.7,2,3.7,1.8,5.9c-0.1,2.1-0.4,4.1-0.8,6.2l-3,17.6h-6.9l3-17.6c0.3-1.6,0.5-3.2,0.7-4.8c0.1-0.9-0.2-1.8-0.8-2.6
	c-0.5-0.6-1.3-0.9-2.1-0.9c-1.1,0-2.1,0.4-2.9,1.1c-1.3,1-2.4,2.3-3.1,3.8c-1,2.6-1.7,5.4-2,8.2l-2.2,12.8h-6.9L814.8,294.5z"/>
<path class="st11" d="M873.3,313.9l6.7,1.4c-0.8,3.2-2.5,6.1-4.9,8.3c-2.1,1.8-4.7,2.8-7.5,2.8c-3,0.1-5.8-1.2-7.7-3.5
	c-1.9-2.3-2.9-5.6-2.9-9.8c-0.1-3.5,0.6-7,2-10.2c1.1-2.7,3-5.1,5.4-6.8c2.1-1.5,4.6-2.3,7.2-2.3c2.7-0.1,5.2,0.9,7.1,2.8
	c2,2.1,3.1,4.8,3.1,7.6l-6.6,0.9c-0.3-3.4-1.7-5.1-4.1-5.1c-1.2,0-2.4,0.5-3.3,1.4c-1.3,1.4-2.3,3.1-2.8,4.9
	c-0.8,2.5-1.2,5.1-1.2,7.7c-0.1,1.5,0.3,3,1.1,4.3c0.6,0.9,1.6,1.5,2.7,1.5c1.2,0,2.4-0.6,3.2-1.4
	C872.1,317.1,872.9,315.5,873.3,313.9z"/>
<path class="st11" d="M891.8,325.6h-6.9l7.3-43h6.9l-2.6,15.3c1.3-1.3,2.8-2.4,4.5-3.3c1.3-0.6,2.7-0.9,4.2-0.9
	c1.9-0.1,3.6,0.7,4.8,2.1c1.3,1.6,2,3.7,1.8,5.8c-0.1,1.9-0.3,3.8-0.7,5.7l-3.1,18.2h-6.9l3.2-18.5c0.2-1.3,0.4-2.6,0.5-3.9
	c0.1-0.9-0.2-1.8-0.8-2.5c-0.5-0.6-1.3-0.9-2.1-0.9c-1.2,0-2.4,0.6-3.3,1.4c-1.4,1.3-2.5,3-3.2,4.8c-0.7,2.4-1.2,4.8-1.5,7.2
	L891.8,325.6z"/>
<path class="st11" d="M941.1,312.6h-17.3v0.8c-0.1,1.8,0.4,3.5,1.5,5c0.8,1.2,2.1,1.9,3.5,1.9c2.3,0,4-1.5,5.4-4.3l6.2,1.3
	c-0.9,2.7-2.6,5-4.8,6.8c-1.9,1.5-4.3,2.3-6.8,2.3c-3.2,0-6.3-1.4-8.3-3.9c-2.2-2.6-3.3-6.1-3.3-10.5c-0.1-4.5,1.2-8.9,3.8-12.6
	c2.3-3.5,6.3-5.6,10.5-5.5c2.9-0.1,5.6,1.2,7.4,3.4c1.9,2.3,2.8,5.6,2.8,9.9C941.6,309,941.4,310.8,941.1,312.6z M935.3,307.5v-0.8
	c0-2.4-0.4-4.1-1.3-5.2c-0.8-1.1-2-1.7-3.4-1.7c-1.5,0.1-2.9,0.8-3.8,2c-1.3,1.7-2.1,3.7-2.3,5.8L935.3,307.5z"/>
<path class="st11" d="M957.9,325.6H952l-5.1-31.1h6.8l1.8,13.6c0.5,3.5,0.8,6,0.9,7.3l1.5-3.5l2-4.3l6.3-13.1h7.4L957.9,325.6z"/>
<path class="st11" d="M998.7,312.6h-17.3v0.8c-0.1,1.8,0.4,3.5,1.5,5c0.8,1.2,2.1,1.9,3.5,1.9c2.3,0,4-1.4,5.4-4.3l6.2,1.3
	c-0.9,2.7-2.6,5-4.8,6.8c-1.9,1.5-4.3,2.3-6.8,2.3c-3.2,0-6.3-1.4-8.3-3.9c-2.2-2.6-3.3-6.1-3.3-10.5c-0.1-4.5,1.2-8.9,3.8-12.6
	c2.3-3.5,6.3-5.6,10.5-5.5c2.9-0.1,5.6,1.2,7.4,3.4c1.9,2.3,2.8,5.6,2.8,9.9C999.2,309,999.1,310.8,998.7,312.6z M992.9,307.5v-0.8
	c0.1-1.8-0.3-3.7-1.3-5.2c-0.8-1.1-2-1.7-3.4-1.7c-1.5,0.1-2.9,0.8-3.8,2c-1.3,1.7-2.1,3.7-2.3,5.8L992.9,307.5z"/>
<path class="st11" d="M1007.5,294.5h6.9l-3.2,18.4c-0.3,1.4-0.4,2.8-0.6,4.1c0,0.9,0.3,1.7,0.8,2.4c0.5,0.6,1.2,1,2,1
	c1,0,2-0.4,2.8-1c1.3-0.9,2.3-2.2,3-3.6c0.9-2,1.6-4.2,1.9-6.4l2.8-14.8h6.9l-5.8,31.1h-6.5l0.8-4.2c-2.8,3.3-5.8,4.9-9.1,4.9
	c-1.9,0.1-3.7-0.7-4.9-2.2c-1.3-1.7-1.9-3.8-1.8-5.9c0.1-2.1,0.4-4.3,0.8-6.4L1007.5,294.5z"/>
<path class="st11" d="M75.2,368l-6.8-1.2c0.6-4.1,1.9-7.2,3.9-9.2c4.2-4.1,10.9-4.1,15.1,0c2,2.3,3.1,5.3,2.9,8.4
	c0,2.8-0.8,5.6-2.1,8c-1.9,3-4,5.8-6.4,8.4c-2.2,2.4-4.2,4.9-6,7.5h12.2l-1.3,7.7H65.1c0.3-3.2,1.4-6.3,3-9.1c2.4-3.6,5.1-7,8-10.1
	c2.1-2.3,4-4.8,5.8-7.3c1-1.5,1.5-3.2,1.6-5c0.1-1.3-0.3-2.6-1.1-3.6c-0.6-0.8-1.6-1.3-2.6-1.3C77.5,361.1,75.9,363.4,75.2,368z"/>
<path class="st11" d="M94.5,389.5h6.8l-1.4,8.1h-6.8L94.5,389.5z"/>
<path class="st11" d="M130.6,397.6h-7.2l7.4-43h15.6c2.2-0.1,4.4,0.3,6.5,1.1c1.5,0.8,2.7,2.1,3.5,3.7c1,2,1.4,4.2,1.3,6.5
	c0,3.8-0.9,6.9-2.8,9.1c-2,2.4-4.9,3.9-8,4.3c1.2,1.4,2.1,2.9,2.9,4.6c2,4.5,3.7,9,5.1,13.7h-7.8c-0.3-1.2-1.4-4.5-3.1-9.9
	c-0.6-2-1.5-4-2.6-5.8c-0.4-0.7-1-1.2-1.7-1.6c-1-0.4-2-0.5-3-0.4h-3L130.6,397.6z M134.8,373.4h3.8c2.5,0.1,5-0.1,7.4-0.7
	c1.3-0.5,2.4-1.4,3.2-2.5c0.8-1.2,1.3-2.6,1.3-4.1c0.1-1.4-0.5-2.7-1.6-3.5c-0.6-0.5-2-0.7-4.1-0.7h-8L134.8,373.4z"/>
<path class="st11" d="M185,384.6h-17.3v0.8c-0.1,1.8,0.4,3.5,1.5,5c0.8,1.2,2.1,1.9,3.5,1.9c2.3,0,4-1.4,5.4-4.3l6.2,1.3
	c-0.9,2.7-2.6,5-4.8,6.8c-1.9,1.5-4.3,2.3-6.8,2.3c-3.2,0-6.3-1.4-8.3-3.9c-2.2-2.6-3.3-6.1-3.3-10.5c-0.1-4.5,1.2-8.9,3.8-12.6
	c2.3-3.5,6.3-5.6,10.5-5.5c2.9-0.1,5.6,1.2,7.4,3.4c1.9,2.3,2.8,5.6,2.8,9.9C185.4,381,185.3,382.8,185,384.6z M179.1,379.5v-0.8
	c0.1-1.8-0.3-3.7-1.3-5.2c-0.8-1.1-2-1.7-3.4-1.7c-1.5,0.1-2.9,0.8-3.8,2c-1.3,1.7-2.1,3.7-2.3,5.8L179.1,379.5z"/>
<path class="st11" d="M193.7,366.5h6.5l-0.7,3.8c2.6-3,5.3-4.5,8.1-4.5c3.8,0,5.9,1.8,6.5,5.5c0.9-1.6,2.3-3,3.9-3.9
	c1.5-1,3.3-1.5,5.1-1.5c1.8-0.1,3.5,0.6,4.8,1.9c1.3,1.5,1.9,3.4,1.8,5.4c-0.1,1.9-0.3,3.7-0.7,5.5l-3.2,19h-6.9l3.2-19
	c0.4-2.4,0.6-3.7,0.6-4c0.1-0.8-0.2-1.5-0.7-2.1c-0.5-0.5-1.2-0.8-1.9-0.7c-1.7,0-3.2,1-4.6,3.1c-1.1,1.6-2,4.5-2.7,8.6l-2.4,14.2
	h-6.9l3.2-18.8c0.3-1.4,0.5-2.8,0.5-4.2c0-0.8-0.2-1.5-0.7-2.1c-0.5-0.5-1.2-0.8-1.9-0.8c-1.2,0.1-2.3,0.6-3.1,1.4
	c-1.2,1.1-2.1,2.5-2.6,4.1c-0.6,2-1,4-1.3,6l-2.5,14.3h-6.9L193.7,366.5z"/>
<path class="st11" d="M239.2,366.5h6.6l-0.6,3.2c1.1-1.2,2.5-2.2,3.9-3c1.2-0.6,2.4-0.9,3.7-0.9c2.5,0,4.9,1.2,6.3,3.3
	c1.6,2.2,2.4,5.6,2.4,10c0,5.7-1.4,10.5-4.3,14.4c-2.3,3.2-5.1,4.8-8.3,4.8c-3.3,0-5.8-1.7-7.5-5l-2.8,16.1h-6.9L239.2,366.5z
	 M243.3,384.3c-0.1,2,0.4,4,1.4,5.7c0.7,1.2,1.9,1.9,3.3,2c1.1,0,2.2-0.5,3-1.3c1.2-1.3,2.2-2.9,2.6-4.7c0.8-2.3,1.2-4.7,1.2-7.1
	c0.1-1.9-0.4-3.7-1.4-5.3c-0.7-1.1-2-1.8-3.4-1.9c-1.1,0-2.2,0.5-3,1.3c-1.2,1.3-2.1,2.8-2.6,4.5C243.8,379.7,243.4,382,243.3,384.3
	z"/>
<path class="st11" d="M265.7,397.6l7.4-43h6.9l-7.4,43H265.7z"/>
<path class="st11" d="M286.1,366.5h6.9l-5.3,31.1h-6.9L286.1,366.5z M288.1,354.6h6.9l-1.3,7.7h-6.9L288.1,354.6z"/>
<path class="st11" d="M300.6,366.5h6.5l-1,6c2.4-4.5,5-6.7,7.9-6.7c1.1,0,2.2,0.3,3.2,0.9l-2.6,6.9c-1.7-0.7-3.6-0.5-5,0.7
	c-1.5,1.1-2.6,2.6-3.3,4.4c-1.1,3-1.8,6.1-2.3,9.3l-1.7,9.8h-6.9L300.6,366.5z"/>
<path class="st11" d="M336.3,366.5h6.9l-3.1,18.4c-0.3,1.4-0.5,2.8-0.6,4.1c0,0.9,0.3,1.7,0.8,2.4c0.5,0.6,1.2,1,2,1
	c1,0,2-0.4,2.8-1c1.3-0.9,2.3-2.2,3-3.6c1-2.1,1.6-4.2,2-6.5l2.8-14.8h6.9l-5.8,31.1h-6.5l0.8-4.2c-2.8,3.3-5.8,4.9-9.1,4.9
	c-1.9,0.1-3.7-0.7-4.9-2.2c-1.3-1.7-1.9-3.8-1.8-5.9c0.1-2.1,0.4-4.3,0.8-6.4L336.3,366.5z"/>
<path class="st11" d="M368.4,366.5h6.6l-0.7,4c1.3-1.5,2.9-2.7,4.7-3.7c1.4-0.7,2.9-1,4.4-1c1.9-0.1,3.7,0.7,4.9,2.1
	c1.3,1.7,2,3.7,1.8,5.9c-0.1,2.1-0.4,4.1-0.8,6.2l-3,17.6h-6.9l3-17.6c0.4-2.6,0.7-4.2,0.7-4.8c0.1-0.9-0.2-1.8-0.8-2.6
	c-0.5-0.6-1.3-0.9-2.1-0.9c-1.1,0-2.1,0.4-2.9,1.1c-1.3,1-2.4,2.3-3.1,3.8c-1,2.6-1.6,5.4-2,8.2l-2.2,12.8h-6.9L368.4,366.5z"/>
<path class="st11" d="M422.5,397.6h-5.9l-5.1-31.1h6.8L420,380c0.5,3.5,0.8,6,0.9,7.3l1.5-3.5l2-4.3l6.3-13.1h7.4L422.5,397.6z"/>
<path class="st11" d="M463.3,384.6H446v0.8c-0.1,1.8,0.4,3.5,1.5,5c0.8,1.2,2.1,1.9,3.5,1.9c2.3,0,4-1.4,5.4-4.3l6.2,1.3
	c-0.9,2.7-2.6,5-4.8,6.8c-1.9,1.5-4.3,2.3-6.8,2.3c-3.2,0-6.3-1.4-8.3-3.9c-2.2-2.6-3.3-6.1-3.3-10.5c-0.1-4.5,1.2-8.9,3.8-12.6
	c2.3-3.5,6.3-5.6,10.5-5.5c2.9-0.1,5.6,1.2,7.4,3.4c1.9,2.3,2.8,5.6,2.8,9.9C463.8,381,463.6,382.8,463.3,384.6z M457.5,379.5v-0.8
	c0-2.4-0.4-4.1-1.3-5.2c-0.8-1.1-2-1.7-3.4-1.7c-1.5,0.1-2.9,0.8-3.8,2c-1.3,1.7-2.1,3.7-2.3,5.8L457.5,379.5z"/>
<path class="st11" d="M472.1,366.5h6.5l-1,6c2.4-4.5,5-6.7,7.9-6.7c1.1,0,2.2,0.3,3.2,0.9l-2.6,6.9c-0.6-0.3-1.3-0.4-2-0.4
	c-1.1,0-2.2,0.4-3.1,1.1c-1.5,1.1-2.6,2.7-3.3,4.4c-1.1,3-1.9,6.1-2.3,9.3l-1.7,9.8h-6.9L472.1,366.5z"/>
<path class="st11" d="M492.6,366.5h6.5l-1,6c2.4-4.5,5-6.7,7.9-6.7c1.1,0,2.2,0.3,3.2,0.9l-2.6,6.9c-1.7-0.7-3.6-0.5-5,0.7
	c-1.5,1.1-2.6,2.7-3.3,4.4c-1.1,3-1.8,6.1-2.3,9.3l-1.7,9.8h-6.9L492.6,366.5z"/>
<path class="st11" d="M533.2,384.6h-17.3v0.8c-0.1,1.8,0.4,3.5,1.5,5c0.8,1.2,2.1,1.9,3.5,1.9c2.3,0,4-1.5,5.4-4.3l6.2,1.3
	c-0.9,2.7-2.6,5-4.8,6.8c-1.9,1.5-4.3,2.3-6.8,2.3c-3.2,0.1-6.3-1.4-8.3-3.9c-2.2-2.6-3.3-6.1-3.3-10.5c-0.1-4.5,1.2-8.9,3.8-12.6
	c2.3-3.5,6.3-5.6,10.5-5.5c2.9-0.1,5.6,1.2,7.4,3.4c1.9,2.3,2.8,5.6,2.8,9.9C533.7,381,533.6,382.8,533.2,384.6z M527.4,379.5v-0.8
	c0-2.4-0.4-4.1-1.3-5.2c-0.8-1.1-2-1.7-3.4-1.7c-1.5,0.1-2.9,0.8-3.8,2c-1.3,1.7-2.1,3.7-2.3,5.8L527.4,379.5z"/>
<path class="st11" d="M575.4,397.6h-6.5l0.6-3.4c-1,1.3-2.2,2.4-3.7,3.2c-1.2,0.6-2.5,0.9-3.9,0.9c-2.5,0-4.8-1.2-6.2-3.3
	c-1.6-2.2-2.4-5.4-2.4-9.8c-0.1-4.8,1.1-9.5,3.5-13.6c2.3-3.9,5.3-5.9,9-5.9c3.3,0,5.9,1.6,7.6,5l2.9-16.1h6.9L575.4,397.6z
	 M560,384.9c-0.1,1.8,0.4,3.7,1.3,5.2c0.7,1.1,1.9,1.8,3.3,1.9c1.2,0,2.2-0.5,3.1-1.3c1.2-1.2,2.1-2.8,2.6-4.5
	c0.7-2.1,1.1-4.4,1.1-6.6c0.1-2-0.4-3.9-1.4-5.6c-0.7-1.2-1.9-2-3.3-2.1c-1.1,0.1-2.2,0.5-2.9,1.3c-1.2,1.3-2.1,2.9-2.6,4.6
	C560.4,380.2,560,382.5,560,384.9z"/>
<path class="st11" d="M590.9,354.6h7l-1.2,6.7c-0.7,3.9-1.7,6.7-3.2,8.3c-1.4,1.6-3.5,2.5-5.6,2.5l0.7-3.9c1-0.3,2-0.8,2.7-1.7
	c0.8-1.1,1.3-2.4,1.5-3.8h-3.2L590.9,354.6z"/>
<path class="st11" d="M623.8,384.6h-17.3v0.8c-0.1,1.8,0.4,3.5,1.5,5c0.8,1.2,2.1,1.9,3.5,1.9c2.3,0,4-1.4,5.4-4.3l6.2,1.3
	c-0.9,2.7-2.6,5-4.8,6.8c-1.9,1.5-4.3,2.3-6.8,2.3c-3.2,0-6.3-1.4-8.3-3.9c-2.2-2.6-3.3-6.1-3.3-10.5c-0.1-4.5,1.2-8.9,3.8-12.6
	c2.3-3.5,6.3-5.6,10.5-5.4c2.9-0.1,5.6,1.2,7.4,3.4c1.9,2.3,2.8,5.6,2.8,9.9C624.3,381,624.1,382.8,623.8,384.6z M618,379.5v-0.8
	c0-2.4-0.4-4.1-1.3-5.2c-0.8-1.1-2-1.7-3.4-1.7c-1.5,0.1-2.9,0.8-3.8,2c-1.3,1.7-2.1,3.7-2.3,5.8L618,379.5z"/>
<path class="st11" d="M637.5,375.3l-6.7-0.7c0.6-2.6,2.1-4.9,4.2-6.6c2.2-1.6,4.9-2.4,7.6-2.2c3.1,0,5.5,0.8,7.2,2.3
	c1.7,1.6,2.6,3.8,2.5,6.1c0,1-0.1,1.9-0.2,2.9c-0.2,1-0.8,3.8-1.8,8.3c-0.7,2.5-1.1,5.2-1.3,7.8c0,1.5,0.3,3,0.7,4.5h-6.9
	c-0.3-1.2-0.5-2.3-0.5-3.5c-0.9,1.3-2,2.4-3.4,3.1c-1.1,0.7-2.4,1.1-3.8,1.1c-2,0-3.8-0.9-5-2.5c-1.4-1.9-2.1-4.2-2-6.6
	c0-3.1,0.8-5.6,2.4-7.3s4.2-2.7,8-3.1c2.2-0.1,4.5-0.5,6.6-1.2c0.3-0.9,0.5-1.9,0.5-2.8c0-0.9-0.3-1.7-1-2.3
	c-0.7-0.6-1.7-0.9-2.6-0.9C639.8,371.5,637.8,373.1,637.5,375.3z M643.8,383.1c-0.5,0.2-1.1,0.3-1.6,0.4c-3.1,0.5-5.2,1.1-6.2,1.9
	c-1,0.8-1.5,1.9-1.5,3.2c0,0.9,0.3,1.8,0.8,2.5c0.5,0.6,1.3,1,2.2,1c0.9,0,1.8-0.3,2.6-0.8c0.9-0.6,1.5-1.3,2-2.2
	c0.7-1.5,1.2-3.1,1.5-4.7L643.8,383.1z"/>
<path class="st11" d="M661.3,366.5h6.9l-3.2,18.4c-0.3,1.4-0.4,2.8-0.5,4.1c0,0.9,0.3,1.7,0.8,2.4c0.5,0.6,1.2,1,2,1
	c1,0,2-0.4,2.8-1c1.3-0.9,2.3-2.2,3-3.6c0.9-2.1,1.6-4.2,2-6.5l2.8-14.8h6.9l-5.7,31.1h-6.5l0.8-4.2c-2.9,3.3-5.9,4.9-9.1,4.9
	c-1.9,0.1-3.7-0.7-4.9-2.2c-1.3-1.7-1.9-3.8-1.8-5.9c0.1-2.1,0.4-4.3,0.8-6.4L661.3,366.5z"/>
<path class="st11" d="M64.7,458.4l6.6-1c0.1,1.7,0.6,3.3,1.5,4.8c0.7,0.9,1.8,1.4,2.9,1.3c1.5,0,2.9-0.7,3.8-1.9
	c1.1-1.4,1.7-3.2,1.6-5c0.1-1.5-0.4-3-1.3-4.3c-0.8-1-2.1-1.5-3.4-1.5c-0.4,0-0.7,0-1.1,0.1l1.2-7l0.7,0.1c1.6,0.1,3.1-0.5,4.2-1.7
	c1.1-1.3,1.6-3,1.5-4.7c0.1-1.2-0.3-2.4-1-3.3c-0.6-0.8-1.5-1.2-2.5-1.2c-2.2,0-3.7,2-4.5,5.9l-6.3-1.5c0.6-2.8,1.9-5.5,3.7-7.7
	c1.9-2.2,4.7-3.4,7.6-3.4c2.7-0.1,5.3,1,7.1,3c1.9,2.3,2.9,5.2,2.7,8.2c0,2.2-0.5,4.3-1.7,6.1c-1,1.7-2.6,3.1-4.4,3.9
	c1.4,0.9,2.5,2.1,3.2,3.6c0.8,1.5,1.2,3.3,1.1,5c0,3.3-1.1,6.6-3.1,9.2c-2.1,3.1-5.6,4.9-9.4,4.9c-2.7,0.1-5.4-1-7.3-3
	C66.3,465.3,65.1,462.3,64.7,458.4z"/>
<path class="st11" d="M94.5,461.5h6.8l-1.4,8.1h-6.8L94.5,461.5z"/>
<path class="st11" d="M143.7,469.6h-6.9l-1.2-35.9l-5.6,35.9h-6.5l7.4-43h10.4l1.1,30.1l11.9-30.1h10.4l-7.2,42.9h-6.6l6.8-35.6
	L143.7,469.6z"/>
<path class="st11" d="M190.4,456.6h-17.3v0.8c-0.1,1.8,0.4,3.5,1.5,5c0.8,1.2,2.1,1.9,3.5,1.9c2.3,0,4-1.4,5.4-4.3l6.2,1.3
	c-0.9,2.7-2.6,5-4.8,6.8c-1.9,1.5-4.3,2.3-6.8,2.3c-3.2,0-6.3-1.4-8.3-3.9c-2.2-2.6-3.3-6.1-3.3-10.5c-0.1-4.5,1.2-8.9,3.8-12.6
	c2.3-3.5,6.3-5.6,10.5-5.5c2.9-0.1,5.6,1.2,7.4,3.4c1.9,2.3,2.8,5.6,2.8,9.9C190.9,453,190.8,454.8,190.4,456.6z M184.6,451.5v-0.8
	c0.1-1.8-0.3-3.7-1.3-5.2c-0.8-1.1-2-1.7-3.4-1.7c-1.5,0.1-2.9,0.8-3.8,2c-1.3,1.7-2.1,3.7-2.3,5.8L184.6,451.5z"/>
<path class="st11" d="M195.8,444.7l1.1-6.2h3.6l0.9-5l8-5.9l-2,10.9h4.4l-1.1,6.2h-4.4l-2.4,13c-0.4,2.3-0.6,3.7-0.6,4.1
	c0,0.6,0.2,1.1,0.6,1.5c0.6,0.4,1.2,0.6,1.9,0.5c0.3,0,1.1-0.1,2.4-0.2l-1.1,6.2c-1.2,0.3-2.4,0.4-3.7,0.4c-1.9,0.1-3.9-0.4-5.4-1.7
	c-1.3-1.3-1.9-3-1.8-4.8c0.2-2.2,0.5-4.4,0.9-6.6l2.3-12.5L195.8,444.7z"/>
<path class="st11" d="M213.6,444.7l1.1-6.2h3.6l0.9-5l8-5.9l-2,10.9h4.4l-1.1,6.2h-4.4l-2.4,13c-0.4,2.3-0.6,3.7-0.6,4.1
	c0,0.6,0.2,1.1,0.6,1.5c0.6,0.4,1.2,0.6,1.9,0.5c0.3,0,1.1-0.1,2.4-0.2l-1.1,6.2c-1.2,0.3-2.4,0.4-3.7,0.4c-1.9,0.2-3.9-0.4-5.4-1.7
	c-1.3-1.3-1.9-3-1.8-4.8c0.2-2.2,0.5-4.4,0.9-6.6l2.2-12.5H213.6z"/>
<path class="st11" d="M234.8,438.5h6.5l-1,6c2.4-4.5,5-6.7,7.9-6.7c1.1,0,2.2,0.3,3.2,0.9l-2.6,6.9c-1.7-0.7-3.6-0.5-5,0.7
	c-1.5,1.1-2.6,2.6-3.3,4.4c-1.1,3-1.8,6.1-2.3,9.3l-1.7,9.8h-7L234.8,438.5z"/>
<path class="st11" d="M275.4,456.6h-17.3v0.8c-0.1,1.8,0.4,3.5,1.5,5c0.8,1.2,2.1,1.9,3.5,1.9c2.3,0,4.1-1.4,5.4-4.3l6.2,1.3
	c-1,2.7-2.6,5-4.8,6.8c-1.9,1.5-4.3,2.3-6.8,2.3c-3.2,0-6.3-1.4-8.3-3.9c-2.2-2.6-3.3-6.1-3.3-10.5c-0.1-4.5,1.2-8.9,3.8-12.6
	c2.3-3.5,6.3-5.6,10.5-5.5c2.9-0.1,5.6,1.2,7.4,3.4c1.9,2.3,2.8,5.6,2.8,9.9C275.9,453,275.8,454.8,275.4,456.6z M269.6,451.5v-0.8
	c0.1-1.8-0.3-3.7-1.3-5.2c-0.8-1.1-2-1.7-3.4-1.7c-1.5,0.1-2.9,0.8-3.8,2c-1.3,1.7-2.1,3.7-2.3,5.8L269.6,451.5z"/>
<path class="st11" d="M294.6,469.6l7.4-43h6.9l-7.4,43H294.6z"/>
<path class="st11" d="M334.5,456.6h-17.3v0.8c-0.1,1.8,0.4,3.5,1.5,5c0.8,1.2,2.1,1.9,3.5,1.9c2.3,0,4-1.5,5.4-4.3l6.2,1.3
	c-0.9,2.7-2.6,5-4.8,6.8c-1.9,1.5-4.3,2.3-6.8,2.3c-3.2,0-6.3-1.4-8.3-3.9c-2.2-2.6-3.3-6.1-3.3-10.5c-0.1-4.5,1.2-8.9,3.8-12.6
	c2.3-3.5,6.3-5.6,10.5-5.5c2.9-0.1,5.6,1.2,7.4,3.4c1.9,2.3,2.8,5.6,2.8,9.9C335,453,334.8,454.8,334.5,456.6z M328.7,451.5v-0.8
	c0-2.4-0.4-4.1-1.3-5.2c-0.8-1.1-2-1.7-3.4-1.7c-1.5,0.1-2.9,0.8-3.8,2c-1.3,1.7-2.1,3.7-2.3,5.8L328.7,451.5z"/>
<path class="st11" d="M370.9,457.9l6.7,1.3c-0.8,3.2-2.5,6.1-4.9,8.3c-2.1,1.8-4.7,2.8-7.5,2.8c-3,0.1-5.8-1.2-7.7-3.5
	c-1.9-2.3-2.9-5.6-2.9-9.8c-0.1-3.5,0.6-7,2-10.2c1.1-2.7,3-5.1,5.4-6.8c2.1-1.5,4.6-2.3,7.2-2.3c2.6-0.1,5.2,0.9,7.1,2.8
	c2,2.1,3.1,4.8,3.1,7.6l-6.6,0.9c-0.3-3.4-1.7-5.1-4.1-5.1c-1.2,0-2.4,0.5-3.3,1.4c-1.4,1.4-2.3,3.1-2.8,5c-0.8,2.5-1.2,5.1-1.2,7.7
	c-0.1,1.5,0.3,3,1.1,4.3c0.6,0.9,1.6,1.5,2.7,1.5c1.2,0,2.4-0.5,3.2-1.4C369.6,461.1,370.5,459.6,370.9,457.9z"/>
<path class="st11" d="M389.3,469.6h-6.9l7.4-43h6.9l-2.6,15.3c1.3-1.3,2.8-2.4,4.5-3.3c1.3-0.6,2.7-0.9,4.2-0.9
	c1.9-0.1,3.6,0.7,4.9,2.1c1.3,1.6,2,3.7,1.9,5.8c-0.1,1.9-0.3,3.8-0.7,5.7l-3.1,18.2h-6.9L402,451c0.2-1.3,0.4-2.6,0.5-3.9
	c0.1-0.9-0.2-1.8-0.8-2.5c-0.5-0.6-1.3-0.9-2.1-0.9c-1.2,0-2.4,0.6-3.3,1.4c-1.4,1.3-2.5,3-3.2,4.8c-0.7,2.4-1.2,4.8-1.6,7.2
	L389.3,469.6z"/>
<path class="st11" d="M438.7,456.6h-17.3v0.8c-0.1,1.8,0.4,3.5,1.5,5c0.8,1.2,2.1,1.9,3.5,1.9c2.3,0,4-1.4,5.4-4.3l6.2,1.3
	c-0.9,2.7-2.6,5-4.8,6.8c-1.9,1.5-4.3,2.3-6.8,2.3c-3.2,0-6.3-1.4-8.3-3.9c-2.2-2.6-3.3-6.1-3.3-10.5c-0.1-4.5,1.2-8.9,3.8-12.6
	c2.3-3.5,6.3-5.6,10.5-5.5c2.9-0.1,5.6,1.2,7.4,3.4c1.9,2.3,2.8,5.6,2.8,9.9C439.2,453,439,454.8,438.7,456.6z M432.9,451.5v-0.8
	c0.1-1.8-0.3-3.7-1.3-5.2c-0.8-1.1-2-1.7-3.4-1.7c-1.5,0.1-2.9,0.8-3.8,2c-1.3,1.7-2.1,3.7-2.3,5.8L432.9,451.5z"/>
<path class="st11" d="M455.5,469.6h-5.9l-5.1-31.1h6.8L453,452c0.5,3.5,0.8,6,0.9,7.3l1.5-3.5l2-4.3l6.3-13.1h7.4L455.5,469.6z"/>
<path class="st11" d="M496.3,456.6H479v0.8c-0.1,1.8,0.4,3.5,1.5,5c0.8,1.2,2.1,1.9,3.5,1.9c2.3,0,4.1-1.4,5.4-4.3l6.2,1.3
	c-1,2.7-2.6,5-4.8,6.8c-1.9,1.5-4.3,2.3-6.8,2.3c-3.2,0-6.3-1.4-8.3-3.9c-2.2-2.6-3.3-6.1-3.3-10.5c-0.1-4.5,1.2-8.9,3.8-12.6
	c2.3-3.5,6.3-5.6,10.5-5.5c2.9-0.1,5.6,1.2,7.4,3.4c1.9,2.3,2.8,5.6,2.8,9.9C496.8,453,496.7,454.8,496.3,456.6z M490.5,451.5v-0.8
	c0.1-1.8-0.3-3.7-1.3-5.2c-0.8-1.1-2-1.7-3.4-1.7c-1.5,0.1-2.9,0.8-3.8,2c-1.3,1.7-2.1,3.7-2.3,5.8L490.5,451.5z"/>
<path class="st11" d="M505.1,438.5h6.9l-3.2,18.4c-0.3,1.4-0.5,2.8-0.6,4.1c0,0.9,0.3,1.7,0.8,2.4c0.5,0.6,1.2,1,2,1
	c1,0,2-0.4,2.8-1c1.3-0.9,2.3-2.2,3-3.6c0.9-2,1.6-4.2,1.9-6.4l2.8-14.8h6.9l-5.8,31.1h-6.5l0.8-4.2c-2.8,3.3-5.8,4.9-9.1,4.9
	c-1.9,0.1-3.7-0.7-4.9-2.2c-1.3-1.7-1.9-3.8-1.8-5.9c0.1-2.1,0.4-4.3,0.8-6.4L505.1,438.5z"/>
<path class="st11" d="M556.7,447.3l-6.7-0.7c0.6-2.6,2.1-4.9,4.2-6.6c2.2-1.6,4.9-2.4,7.6-2.2c3.1,0,5.5,0.8,7.2,2.3
	c1.7,1.6,2.6,3.8,2.5,6.1c0,1-0.1,1.9-0.2,2.9c-0.2,1-0.7,3.8-1.8,8.3c-0.7,2.5-1.1,5.2-1.3,7.8c0,1.5,0.3,3,0.7,4.5h-6.9
	c-0.3-1.2-0.5-2.3-0.5-3.5c-0.9,1.3-2,2.4-3.4,3.2c-1.1,0.7-2.5,1.1-3.8,1.1c-2,0-3.8-0.9-5-2.5c-1.4-1.9-2.1-4.2-2-6.6
	c0-3.1,0.8-5.6,2.4-7.3s4.3-2.7,8-3.1c2.2-0.1,4.5-0.5,6.6-1.2c0.3-0.9,0.5-1.9,0.5-2.8c0-0.9-0.3-1.7-1-2.3
	c-0.7-0.6-1.7-0.9-2.6-0.9C558.9,443.5,557,445.1,556.7,447.3z M563,455.1c-0.5,0.2-1.1,0.3-1.6,0.4c-3.2,0.5-5.2,1.1-6.2,1.9
	c-1,0.8-1.5,1.9-1.5,3.2c0,0.9,0.3,1.8,0.8,2.5c0.5,0.6,1.3,1,2.2,1c0.9,0,1.9-0.3,2.6-0.8c0.9-0.6,1.5-1.3,2-2.2
	c0.7-1.5,1.2-3.1,1.5-4.7L563,455.1z"/>
<path class="st11" d="M580.5,438.5h6.9l-3.2,18.4c-0.3,1.4-0.4,2.8-0.5,4.1c0,0.9,0.3,1.7,0.8,2.4c0.5,0.6,1.2,1,2,1
	c1,0,2-0.4,2.8-1c1.3-0.9,2.3-2.2,3-3.6c0.9-2,1.6-4.2,1.9-6.4l2.9-14.9h6.9l-5.8,31.1h-6.5l0.8-4.2c-2.8,3.3-5.8,4.9-9.1,4.9
	c-1.9,0.1-3.7-0.7-4.9-2.2c-1.3-1.7-1.9-3.8-1.8-5.9c0.1-2.1,0.4-4.3,0.8-6.4L580.5,438.5z"/>
<path class="st11" d="M640.1,438.5l-1,6.1h-4.9l-4.3,25H623l4.3-25h-3.8l1.1-6.1h3.8l0.5-3.2c0.2-2.1,0.8-4.1,1.6-6
	c0.6-1.1,1.4-1.9,2.5-2.5c1.2-0.6,2.5-0.9,3.8-0.9c2.3,0,4.6,0.5,6.7,1.4l-1.3,6c-1.3-0.6-2.6-0.9-4-1c-0.6,0-1.2,0.2-1.6,0.7
	c-0.5,1-0.8,2.1-0.9,3.2l-0.4,2.2L640.1,438.5z"/>
<path class="st11" d="M641.2,456.7c-0.1-4.6,1.1-9.1,3.5-13c2.4-3.8,6.6-6.1,11.1-5.9c3.3-0.1,6.5,1.2,8.7,3.7
	c2.2,2.5,3.2,5.9,3.2,10.3c0.1,4.7-1.3,9.3-4,13.1c-2.4,3.5-6.4,5.5-10.6,5.4c-3.3,0.1-6.4-1.2-8.6-3.7
	C642.3,464.2,641.2,460.9,641.2,456.7z M660.9,450.7c0.1-1.7-0.4-3.4-1.5-4.8c-0.9-1.1-2.3-1.8-3.7-1.8c-1.3,0-2.5,0.5-3.5,1.3
	c-1.3,1.2-2.3,2.8-2.9,4.5c-0.8,2.1-1.2,4.4-1.2,6.6c-0.1,1.9,0.4,3.8,1.5,5.4c0.9,1.2,2.3,1.9,3.7,1.9c1.9,0,3.5-1,4.8-3
	C660,457.8,661,454.2,660.9,450.7z"/>
<path class="st11" d="M677.1,438.5h6.6l-0.7,4c1.3-1.5,2.9-2.7,4.7-3.7c1.4-0.7,2.9-1,4.4-1c1.9-0.1,3.7,0.7,4.9,2.1
	c1.3,1.7,2,3.7,1.8,5.9c-0.1,2.1-0.4,4.1-0.8,6.2l-3,17.6h-6.9l3-17.6c0.3-1.6,0.5-3.2,0.7-4.8c0.1-0.9-0.2-1.8-0.8-2.6
	c-0.5-0.6-1.3-0.9-2.1-0.9c-1.1,0-2.1,0.4-2.9,1.1c-1.3,1-2.4,2.3-3.1,3.8c-1,2.6-1.7,5.4-2.1,8.2l-2.2,12.8h-6.9L677.1,438.5z"/>
<path class="st11" d="M726.2,469.6h-6.5l0.6-3.4c-1,1.3-2.2,2.4-3.7,3.2c-1.2,0.6-2.5,0.9-3.9,0.9c-2.5,0-4.8-1.2-6.2-3.3
	c-1.6-2.2-2.4-5.4-2.4-9.8c-0.1-4.8,1.1-9.5,3.5-13.6c2.3-3.9,5.3-5.9,8.9-5.9c3.4,0,5.9,1.6,7.6,5l2.9-16.1h6.9L726.2,469.6z
	 M710.8,456.9c-0.1,1.8,0.4,3.7,1.3,5.2c0.7,1.1,1.9,1.8,3.3,1.8c1.2,0,2.2-0.5,3.1-1.3c1.2-1.2,2.1-2.8,2.6-4.5
	c0.7-2.1,1.1-4.4,1.1-6.6c0.1-2-0.4-3.9-1.4-5.6c-0.7-1.2-1.9-2-3.3-2.1c-1.1,0.1-2.2,0.5-2.9,1.3c-1.2,1.3-2.1,2.9-2.6,4.6
	C711.2,452.2,710.8,454.5,710.8,456.9L710.8,456.9z"/>
<path class="st11" d="M772.8,469.6h-6.5l0.6-3.4c-1,1.3-2.2,2.4-3.7,3.2c-1.2,0.6-2.5,0.9-3.9,0.9c-2.5,0-4.8-1.2-6.2-3.3
	c-1.6-2.2-2.4-5.4-2.4-9.8c-0.1-4.8,1.1-9.5,3.5-13.6c2.3-3.9,5.3-5.9,8.9-5.9c3.4,0,5.9,1.6,7.6,5l2.9-16.1h6.9L772.8,469.6z
	 M757.4,456.9c-0.1,1.8,0.4,3.7,1.3,5.2c0.7,1.1,1.9,1.8,3.3,1.8c1.2,0,2.2-0.5,3.1-1.3c1.2-1.2,2.1-2.8,2.6-4.5
	c0.7-2.1,1.1-4.4,1.1-6.6c0.1-2-0.4-3.9-1.4-5.6c-0.7-1.2-1.9-2-3.3-2.1c-1.1,0.1-2.2,0.5-2.9,1.3c-1.2,1.3-2.1,2.9-2.6,4.6
	C757.8,452.2,757.4,454.5,757.4,456.9L757.4,456.9z"/>
<path class="st11" d="M786.1,438.5h6.9l-3.2,18.4c-0.3,1.4-0.4,2.8-0.5,4.1c0,0.9,0.3,1.7,0.8,2.4c0.5,0.6,1.2,1,2,1
	c1,0,2-0.4,2.8-1c1.3-0.9,2.3-2.2,3-3.6c0.9-2,1.6-4.2,1.9-6.4l2.8-14.8h6.9l-5.8,31.1h-6.5l0.8-4.2c-2.8,3.3-5.8,4.9-9.1,4.9
	c-1.9,0.1-3.7-0.7-4.9-2.2c-1.3-1.7-1.9-3.8-1.8-5.9c0.1-2.1,0.4-4.3,0.8-6.4L786.1,438.5z"/>
<path class="st11" d="M840.7,469.6h-5.9l-5.2-31.1h6.8l1.8,13.6c0.5,3.5,0.8,6,0.9,7.3l1.5-3.5l2-4.3l6.3-13.1h7.4L840.7,469.6z"/>
<path class="st11" d="M881.5,456.6h-17.3v0.8c-0.1,1.8,0.4,3.5,1.5,5c0.8,1.2,2.1,1.9,3.5,1.9c2.3,0,4-1.4,5.4-4.3l6.2,1.3
	c-0.9,2.7-2.6,5-4.8,6.8c-2,1.5-4.3,2.3-6.8,2.3c-3.2,0-6.3-1.4-8.3-3.9c-2.2-2.6-3.3-6.1-3.3-10.5c-0.1-4.5,1.2-8.9,3.8-12.6
	c2.3-3.5,6.3-5.6,10.5-5.5c2.9-0.1,5.6,1.2,7.4,3.4c1.9,2.3,2.8,5.6,2.8,9.9C882,453,881.8,454.8,881.5,456.6z M875.7,451.5v-0.8
	c0.1-1.8-0.3-3.7-1.3-5.2c-0.8-1.1-2-1.7-3.4-1.7c-1.5,0.1-2.9,0.8-3.8,2c-1.3,1.7-2.1,3.7-2.3,5.8L875.7,451.5z"/>
<path class="st11" d="M890.3,438.5h6.5l-1,6c2.4-4.5,5-6.7,7.9-6.7c1.1,0,2.2,0.3,3.2,0.9l-2.6,6.9c-0.6-0.3-1.3-0.4-2-0.4
	c-1.1,0-2.2,0.4-3.1,1.1c-1.5,1.1-2.6,2.7-3.3,4.4c-1.1,3-1.9,6.1-2.3,9.3l-1.7,9.8H885L890.3,438.5z"/>
<path class="st11" d="M910.9,438.5h6.5l-1,6c2.4-4.5,5-6.7,7.9-6.7c1.1,0,2.2,0.3,3.2,0.9l-2.6,6.9c-1.7-0.7-3.6-0.5-5,0.7
	c-1.5,1.1-2.6,2.7-3.3,4.4c-1.1,3-1.8,6.1-2.3,9.3l-1.7,9.8h-6.9L910.9,438.5z"/>
<path class="st11" d="M951.5,456.6h-17.3v0.8c-0.1,1.8,0.4,3.5,1.5,5c0.8,1.1,2.1,1.8,3.5,1.9c2.3,0,4-1.5,5.4-4.3l6.2,1.3
	c-0.9,2.7-2.6,5-4.8,6.8c-1.9,1.5-4.3,2.3-6.7,2.3c-3.2,0.1-6.3-1.4-8.3-3.9c-2.2-2.6-3.3-6.1-3.3-10.5c-0.1-4.5,1.2-8.9,3.8-12.6
	c2.3-3.5,6.3-5.6,10.5-5.5c2.9-0.1,5.6,1.2,7.4,3.4c1.9,2.3,2.8,5.6,2.8,9.9C952,453,951.8,454.8,951.5,456.6z M945.6,451.5v-0.8
	c0-2.4-0.4-4.1-1.3-5.2c-0.8-1.1-2-1.7-3.4-1.7c-1.5,0.1-2.9,0.8-3.8,2c-1.3,1.7-2.1,3.7-2.3,5.8L945.6,451.5z"/>
<path class="st11" d="M77.3,532.8H63.5l1.2-7l19.1-27.2h5.9l-4.6,27h4.3l-1.2,7.2h-4.3l-1.5,8.8h-6.5L77.3,532.8z M78.6,525.7
	l2.3-13.4l-9.3,13.4H78.6z"/>
<path class="st11" d="M94.5,533.5h6.8l-1.4,8.1h-6.8L94.5,533.5z"/>
<path class="st11" d="M148.7,526.1l7.3,1.3c-1.5,5-3.6,8.7-6.5,11.2c-2.7,2.4-6.3,3.8-9.9,3.7c-3.9,0.1-7.6-1.6-10-4.6
	c-2.5-3.1-3.7-7.7-3.7-13.9c-0.1-4.8,0.8-9.6,2.7-14c1.4-3.6,3.8-6.7,6.9-9c2.6-1.9,5.8-2.9,9-2.9c3.4-0.1,6.7,1.2,9.1,3.6
	c2.4,2.4,3.9,5.8,4.3,10.3l-6.9,0.8c-0.4-2.6-1.2-4.4-2.3-5.5c-1.2-1.1-2.7-1.7-4.3-1.6c-1.9,0-3.8,0.8-5.2,2c-2,1.8-3.5,4-4.3,6.6
	c-1.2,3.2-1.8,6.7-1.8,10.2c0,3.5,0.7,6.1,2,8c1.1,1.7,3,2.8,5,2.8c1.9,0,3.8-0.8,5.1-2.2C147,531,148.2,528.6,148.7,526.1z"/>
<path class="st11" d="M161.2,528.7c-0.1-4.6,1.1-9.1,3.5-13c2.4-3.8,6.6-6.1,11.1-5.9c3.3-0.1,6.5,1.2,8.7,3.7
	c2.2,2.5,3.2,5.9,3.2,10.3c0.1,4.7-1.3,9.3-4,13.1c-2.4,3.5-6.4,5.5-10.5,5.4c-3.3,0.1-6.4-1.2-8.6-3.7
	C162.3,536.2,161.2,532.9,161.2,528.7z M180.8,522.7c0.1-1.7-0.4-3.4-1.5-4.8c-0.9-1.1-2.3-1.8-3.7-1.8c-1.3,0-2.5,0.5-3.5,1.3
	c-1.3,1.2-2.3,2.8-2.9,4.5c-0.8,2.1-1.2,4.4-1.2,6.6c-0.1,1.9,0.4,3.8,1.5,5.4c0.9,1.2,2.3,1.9,3.7,1.9c1.9,0,3.5-1,4.8-3
	C180,529.8,180.9,526.2,180.8,522.7z"/>
<path class="st11" d="M196.4,510.5h6.5l-0.7,3.8c2.6-3,5.3-4.5,8.1-4.5c3.8,0,5.9,1.8,6.5,5.5c0.9-1.6,2.3-3,3.9-3.9
	c1.5-1,3.3-1.5,5.1-1.5c1.8-0.1,3.5,0.6,4.8,1.9c1.3,1.5,1.9,3.4,1.8,5.3c-0.1,1.9-0.3,3.7-0.7,5.5l-3.2,19h-6.9l3.2-19
	c0.4-2.4,0.6-3.7,0.6-4c0-0.8-0.2-1.5-0.7-2.1c-0.5-0.5-1.2-0.8-1.9-0.7c-1.7,0-3.2,1-4.6,3.1c-1.1,1.6-2,4.5-2.7,8.6l-2.4,14.2
	h-6.9l3.2-18.8c0.3-1.4,0.5-2.8,0.6-4.2c0-0.8-0.2-1.5-0.7-2.1c-0.5-0.5-1.2-0.8-1.9-0.8c-1.2,0.1-2.3,0.6-3.2,1.4
	c-1.2,1.1-2.1,2.6-2.6,4.2c-0.6,2-1,4-1.4,6l-2.5,14.3h-6.9L196.4,510.5z"/>
<path class="st11" d="M241.9,510.5h6.6l-0.6,3.2c1.1-1.2,2.5-2.2,3.9-3c1.2-0.6,2.4-0.9,3.7-0.8c2.5,0,4.9,1.2,6.3,3.3
	c1.6,2.2,2.4,5.6,2.4,10c0,5.7-1.4,10.5-4.3,14.4c-2.3,3.2-5.1,4.8-8.3,4.8c-3.3,0-5.8-1.7-7.5-5l-2.8,16.1h-6.9L241.9,510.5z
	 M246,528.3c-0.1,2,0.4,4,1.4,5.7c0.7,1.2,1.9,1.9,3.3,2c1.1,0,2.2-0.5,3-1.3c1.3-1.3,2.2-2.9,2.6-4.7c0.8-2.3,1.2-4.7,1.2-7.1
	c0.1-1.9-0.4-3.7-1.4-5.3c-0.7-1.1-2-1.8-3.4-1.8c-1.1,0-2.2,0.5-3,1.3c-1.2,1.3-2.1,2.8-2.6,4.5C246.5,523.7,246,526,246,528.3z"/>
<path class="st11" d="M278,519.3l-6.7-0.7c0.6-2.6,2.1-4.9,4.2-6.6c2.2-1.6,4.9-2.4,7.6-2.2c3.1,0,5.5,0.8,7.2,2.3
	c1.7,1.6,2.6,3.8,2.5,6.1c0,1-0.1,1.9-0.2,2.9c-0.2,1-0.7,3.8-1.8,8.3c-0.7,2.5-1.1,5.2-1.3,7.8c0,1.5,0.3,3,0.7,4.5h-6.9
	c-0.3-1.2-0.5-2.3-0.5-3.5c-0.9,1.3-2,2.4-3.4,3.2c-1.1,0.7-2.5,1.1-3.8,1.1c-2,0-3.8-0.9-5-2.5c-1.4-1.9-2.1-4.2-2-6.6
	c0-3.1,0.8-5.6,2.4-7.3c1.6-1.7,4.3-2.7,8-3.1c2.2-0.1,4.5-0.5,6.6-1.2c0.3-0.9,0.5-1.9,0.5-2.8c0-0.9-0.3-1.7-1-2.3
	c-0.7-0.6-1.7-0.9-2.6-0.9C280.3,515.5,278.3,517.1,278,519.3z M284.4,527.1c-0.5,0.2-1.1,0.3-1.6,0.4c-3.1,0.5-5.2,1.1-6.2,1.9
	c-1,0.8-1.5,1.9-1.5,3.2c0,0.9,0.3,1.8,0.9,2.5c0.5,0.6,1.3,1,2.2,1c0.9,0,1.8-0.3,2.6-0.8c0.9-0.6,1.5-1.3,2-2.2
	c0.7-1.5,1.2-3.1,1.4-4.8L284.4,527.1z"/>
<path class="st11" d="M301.9,510.5h6.5l-1,6c2.4-4.5,5-6.7,7.9-6.7c1.1,0,2.2,0.3,3.2,0.9l-2.6,6.9c-0.6-0.3-1.3-0.4-2-0.4
	c-1.1,0-2.2,0.4-3.1,1.1c-1.5,1.1-2.6,2.7-3.3,4.4c-1.1,3-1.9,6.1-2.3,9.3l-1.7,9.8h-6.9L301.9,510.5z"/>
<path class="st11" d="M342.5,528.6h-17.3v0.8c-0.1,1.8,0.4,3.5,1.5,5c0.8,1.2,2.1,1.9,3.5,1.9c2.3,0,4-1.4,5.4-4.3l6.2,1.3
	c-0.9,2.7-2.6,5-4.8,6.8c-1.9,1.5-4.3,2.3-6.8,2.3c-3.2,0-6.3-1.4-8.3-3.9c-2.2-2.6-3.3-6.1-3.3-10.5c-0.1-4.5,1.2-8.9,3.8-12.6
	c2.3-3.5,6.3-5.6,10.5-5.5c2.9-0.1,5.6,1.2,7.4,3.4c1.9,2.3,2.8,5.6,2.8,9.9C343,525,342.8,526.8,342.5,528.6z M336.7,523.5v-0.8
	c0-2.4-0.4-4.1-1.3-5.2c-0.8-1.1-2-1.7-3.4-1.7c-1.5,0.1-2.9,0.8-3.8,2c-1.3,1.7-2.1,3.7-2.3,5.8L336.7,523.5z"/>
<path class="st11" d="M351.3,510.5h6.5l-1,6c2.4-4.5,5-6.7,7.9-6.7c1.1,0,2.2,0.3,3.2,0.9l-2.6,6.9c-1.7-0.7-3.6-0.5-5,0.7
	c-1.5,1.1-2.6,2.6-3.3,4.4c-1.1,3-1.8,6.1-2.3,9.3l-1.7,9.8H346L351.3,510.5z"/>
<path class="st11" d="M382.3,541.6l7.4-43h6.9l-7.4,43H382.3z"/>
<path class="st11" d="M422.1,528.6h-17.3v0.8c-0.1,1.8,0.4,3.5,1.5,5c0.8,1.2,2.1,1.9,3.5,1.9c2.3,0,4-1.4,5.4-4.3l6.2,1.3
	c-0.9,2.7-2.6,5-4.8,6.8c-1.9,1.5-4.3,2.3-6.8,2.3c-3.2,0-6.3-1.4-8.3-3.9c-2.2-2.6-3.3-6.1-3.3-10.5c-0.1-4.5,1.2-8.9,3.8-12.6
	c2.3-3.5,6.3-5.6,10.5-5.5c2.9-0.1,5.6,1.2,7.4,3.4c1.9,2.3,2.8,5.6,2.8,9.9C422.6,525,422.4,526.8,422.1,528.6z M416.3,523.5v-0.8
	c0.1-1.8-0.3-3.7-1.3-5.2c-0.8-1.1-2-1.7-3.4-1.7c-1.5,0.1-2.9,0.8-3.8,2c-1.3,1.7-2.1,3.7-2.3,5.8L416.3,523.5z"/>
<path class="st11" d="M446,510.5h6.5l-1,6c2.4-4.5,5-6.7,7.9-6.7c1.1,0,2.2,0.3,3.2,0.9l-2.6,6.9c-1.7-0.7-3.6-0.5-5,0.7
	c-1.5,1.1-2.6,2.7-3.3,4.4c-1.1,3-1.8,6.1-2.3,9.3l-1.7,9.8h-6.9L446,510.5z"/>
<path class="st11" d="M486.6,528.6h-17.3v0.8c-0.1,1.8,0.4,3.5,1.5,5c0.8,1.2,2.1,1.9,3.5,1.9c2.3,0,4-1.5,5.4-4.3l6.2,1.3
	c-0.9,2.7-2.6,5-4.8,6.8c-1.9,1.5-4.3,2.3-6.8,2.3c-3.2,0.1-6.3-1.4-8.3-3.9c-2.2-2.6-3.3-6.1-3.3-10.5c-0.1-4.5,1.2-8.9,3.8-12.6
	c2.3-3.5,6.3-5.6,10.5-5.5c2.9-0.1,5.6,1.2,7.4,3.4c1.9,2.3,2.8,5.6,2.8,9.9C487.1,525,487,526.8,486.6,528.6z M480.8,523.5v-0.8
	c0-2.4-0.4-4.1-1.3-5.2c-0.8-1.1-2-1.7-3.4-1.7c-1.5,0.1-2.9,0.8-3.8,2c-1.3,1.7-2.1,3.7-2.3,5.8L480.8,523.5z M477.7,497.8h7.4
	l-7.8,8.8h-4.6L477.7,497.8z"/>
<path class="st11" d="M489.7,532.9l6.7-1.3c0.4,1.4,1.1,2.7,2.2,3.7c1,0.7,2.3,1.1,3.6,1c1.2,0.1,2.4-0.3,3.5-1
	c0.8-0.5,1.3-1.4,1.3-2.4c0-0.6-0.2-1.1-0.5-1.6c-0.8-0.7-1.8-1.2-2.8-1.5c-4.1-1.7-6.7-3-7.7-3.9c-1.6-1.6-2.5-3.8-2.4-6
	c-0.1-2.7,1.1-5.4,3.1-7.2c2.1-1.9,4.9-2.8,8.5-2.8c6.1,0,9.6,2.7,10.6,8.1l-6.4,1.3c-0.7-2.5-2.5-3.7-5.3-3.7
	c-1.1-0.1-2.1,0.2-3,0.8c-0.6,0.5-1,1.3-1,2.1c0,0.7,0.3,1.3,0.8,1.8c1.2,0.8,2.6,1.4,4,1.8c3.3,1.2,5.5,2.3,6.7,3.4
	c1.6,1.5,2.5,3.7,2.5,5.9c0.1,2.9-1.1,5.8-3.2,7.8c-2.3,2.1-5.3,3.3-8.5,3.1C495.4,542.3,491.2,539.2,489.7,532.9z"/>
<path class="st11" d="M524.2,510.5h6.9l-3.2,18.4c-0.3,1.4-0.5,2.8-0.6,4.1c0,0.9,0.3,1.7,0.8,2.4c0.5,0.6,1.2,1,2,1
	c1,0,2-0.4,2.8-1c1.3-0.9,2.3-2.2,3-3.6c0.9-2,1.6-4.2,1.9-6.4l2.8-14.8h6.9l-5.8,31.1h-6.5l0.8-4.2c-2.8,3.3-5.8,4.9-9.1,4.9
	c-1.9,0.1-3.7-0.7-4.9-2.2c-1.3-1.7-1.9-3.8-1.8-5.9c0.1-2.1,0.4-4.3,0.8-6.4L524.2,510.5z"/>
<path class="st11" d="M551,541.6l7.4-43h6.9l-7.4,43H551z"/>
<path class="st11" d="M567.4,516.7l1.1-6.2h3.6l0.9-5l8-5.9l-2,10.9h4.3l-1.1,6.2h-4.4l-2.4,13c-0.4,2.3-0.6,3.7-0.6,4.1
	c0,0.6,0.2,1.1,0.6,1.5c0.6,0.4,1.2,0.6,1.9,0.5c0.3,0,1.1-0.1,2.4-0.2l-1.2,6.2c-1.2,0.3-2.4,0.4-3.7,0.4c-1.9,0.2-3.9-0.4-5.4-1.7
	c-1.3-1.3-1.9-3-1.8-4.8c0.2-2.2,0.5-4.4,0.9-6.6l2.3-12.5L567.4,516.7z"/>
<path class="st11" d="M593.6,519.3l-6.7-0.7c0.6-2.6,2.1-4.9,4.2-6.6c2.2-1.6,4.9-2.4,7.5-2.2c3.1,0,5.5,0.8,7.2,2.3
	c1.7,1.6,2.6,3.8,2.5,6.1c0,1-0.1,1.9-0.2,2.9c-0.2,1-0.7,3.8-1.8,8.3c-0.7,2.5-1.1,5.2-1.3,7.8c0,1.5,0.3,3,0.7,4.5h-6.9
	c-0.3-1.2-0.5-2.3-0.5-3.5c-0.9,1.3-2,2.4-3.4,3.2c-1.2,0.7-2.5,1.1-3.8,1.1c-2,0-3.8-0.9-5-2.5c-1.4-1.9-2.1-4.2-2-6.6
	c0-3.1,0.8-5.6,2.4-7.3c1.6-1.7,4.3-2.7,8-3.1c2.2-0.1,4.5-0.5,6.6-1.2c0.3-0.9,0.5-1.9,0.5-2.8c0-0.9-0.3-1.7-1-2.3
	c-0.7-0.6-1.7-0.9-2.6-0.9C595.8,515.5,593.9,517.1,593.6,519.3z M599.9,527.1c-0.5,0.2-1.1,0.3-1.6,0.4c-3.2,0.5-5.2,1.1-6.2,1.9
	c-1,0.7-1.6,1.9-1.5,3.2c0,0.9,0.3,1.8,0.9,2.5c0.5,0.6,1.3,1,2.2,1c0.9,0,1.9-0.3,2.6-0.8c0.9-0.6,1.5-1.3,2-2.2
	c0.7-1.5,1.2-3.1,1.4-4.7L599.9,527.1z"/>
<path class="st11" d="M614,516.7l1.1-6.2h3.6l0.9-5l8-5.9l-2,10.9h4.3l-1.1,6.2h-4.4l-2.4,13c-0.4,2.3-0.6,3.7-0.6,4.1
	c0,0.6,0.2,1.1,0.6,1.5c0.6,0.4,1.2,0.6,1.9,0.5c0.3,0,1.1-0.1,2.4-0.2l-1.2,6.2c-1.2,0.3-2.4,0.4-3.7,0.4c-1.9,0.1-3.9-0.4-5.4-1.7
	c-1.3-1.3-1.9-3-1.8-4.8c0.2-2.2,0.5-4.4,0.9-6.6l2.3-12.5L614,516.7z"/>
<path class="st11" d="M655.3,519.3l-6.7-0.7c0.6-2.6,2.1-4.9,4.2-6.6c2.2-1.6,4.9-2.4,7.6-2.2c3.1,0,5.5,0.8,7.2,2.3
	c1.7,1.6,2.6,3.8,2.5,6.1c0,1-0.1,1.9-0.2,2.9c-0.2,1-0.7,3.8-1.8,8.3c-0.7,2.5-1.1,5.2-1.3,7.8c0,1.5,0.3,3,0.7,4.5h-6.9
	c-0.3-1.2-0.5-2.3-0.5-3.5c-0.9,1.3-2,2.4-3.4,3.2c-1.1,0.7-2.5,1.1-3.8,1.1c-2,0-3.8-0.9-5-2.5c-1.4-1.9-2.1-4.2-2-6.6
	c0-3.1,0.8-5.6,2.4-7.3c1.6-1.7,4.2-2.7,8-3.1c2.2-0.1,4.5-0.5,6.6-1.2c0.3-0.9,0.5-1.9,0.5-2.8c0-0.9-0.3-1.7-1-2.3
	c-0.7-0.6-1.7-0.9-2.6-0.9C657.6,515.5,655.6,517.1,655.3,519.3z M661.7,527.1c-0.5,0.2-1.1,0.3-1.6,0.4c-3.2,0.5-5.2,1.1-6.2,1.9
	c-1,0.8-1.5,1.9-1.5,3.2c0,0.9,0.3,1.8,0.8,2.5c0.5,0.6,1.3,1,2.2,1c0.9,0,1.9-0.3,2.6-0.8c0.9-0.6,1.5-1.3,2-2.2
	c0.7-1.5,1.2-3.1,1.5-4.7L661.7,527.1z"/>
<path class="st11" d="M679.4,510.5h6.6l-0.6,3.2c1.1-1.2,2.5-2.2,3.9-3c1.2-0.6,2.4-0.9,3.7-0.8c2.5,0,4.9,1.2,6.3,3.3
	c1.6,2.2,2.4,5.6,2.4,10c0,5.7-1.4,10.5-4.3,14.4c-2.4,3.2-5.1,4.8-8.3,4.8c-3.3,0-5.8-1.7-7.5-5l-2.8,16.1h-6.8L679.4,510.5z
	 M683.6,528.3c-0.1,2,0.4,4,1.4,5.7c0.7,1.2,1.9,1.9,3.3,2c1.1,0,2.2-0.5,3-1.3c1.2-1.3,2.2-2.9,2.6-4.7c0.8-2.3,1.2-4.7,1.2-7.1
	c0.1-1.9-0.4-3.7-1.3-5.3c-0.7-1.1-2-1.8-3.3-1.8c-1.1,0-2.2,0.5-3,1.3c-1.2,1.3-2.1,2.8-2.6,4.5C684,523.7,683.6,526,683.6,528.3z"
	/>
<path class="st11" d="M710.7,510.5h6.4l-1,6c2.4-4.5,5-6.7,7.9-6.7c1.1,0,2.2,0.3,3.2,0.9l-2.6,6.9c-0.6-0.3-1.3-0.4-2-0.4
	c-1.1,0-2.2,0.4-3.1,1.1c-1.5,1.1-2.6,2.7-3.3,4.4c-1.1,3-1.9,6.1-2.3,9.3l-1.7,9.8h-6.9L710.7,510.5z"/>
<path class="st11" d="M751.3,528.6H734v0.8c-0.1,1.8,0.4,3.5,1.5,5c0.8,1.2,2.1,1.9,3.5,1.9c2.3,0,4-1.5,5.4-4.3l6.2,1.3
	c-0.9,2.7-2.6,5-4.8,6.8c-1.9,1.5-4.3,2.3-6.8,2.3c-3.2,0-6.3-1.4-8.3-3.9c-2.2-2.6-3.3-6.1-3.3-10.5c-0.1-4.5,1.3-8.9,3.8-12.6
	c2.3-3.5,6.3-5.6,10.5-5.5c2.9-0.1,5.6,1.2,7.4,3.4c1.9,2.3,2.8,5.6,2.8,9.9C751.8,525,751.6,526.8,751.3,528.6z M745.4,523.5v-0.8
	c0-2.4-0.4-4.1-1.3-5.2c-0.8-1.1-2-1.7-3.4-1.7c-1.5,0.1-2.9,0.8-3.8,2c-1.3,1.7-2.1,3.7-2.3,5.8L745.4,523.5z M736.7,497.7h6.6
	l3.1,8.8h-4.7L736.7,497.7z"/>
<path class="st11" d="M754.4,532.9l6.7-1.3c0.4,1.4,1.1,2.7,2.2,3.7c1,0.7,2.3,1.1,3.6,1c1.2,0.1,2.5-0.3,3.5-1
	c0.8-0.5,1.3-1.4,1.3-2.4c0-0.6-0.2-1.1-0.5-1.6c-0.8-0.7-1.8-1.2-2.8-1.5c-4.1-1.7-6.7-3-7.7-3.9c-1.6-1.6-2.5-3.8-2.4-6
	c-0.1-2.7,1.1-5.4,3.1-7.2c2.1-1.9,4.9-2.8,8.5-2.8c6.1,0,9.6,2.7,10.6,8.1l-6.4,1.3c-0.7-2.5-2.5-3.7-5.3-3.7
	c-1.1-0.1-2.1,0.2-3,0.8c-0.6,0.5-1,1.3-1,2.1c0,0.7,0.3,1.3,0.8,1.8c1.2,0.8,2.6,1.4,4,1.8c3.3,1.2,5.6,2.3,6.7,3.4
	c1.6,1.5,2.5,3.7,2.5,5.9c0.1,2.9-1.1,5.8-3.2,7.8c-2.3,2.1-5.3,3.3-8.5,3.1C760.1,542.3,755.9,539.2,754.4,532.9z"/>
<path class="st11" d="M800.4,529.3l6.7-0.7v0.9c-0.1,1.6,0.3,3.2,1.1,4.5c0.6,0.9,1.7,1.5,2.8,1.5c1.6,0,3.1-0.9,4.5-2.8
	c1.3-1.9,2-4.5,2-7.9c0.1-1.6-0.3-3.2-1.1-4.5c-0.7-1-1.8-1.5-2.9-1.5c-0.9,0-1.8,0.3-2.6,0.8c-1,0.6-1.8,1.4-2.4,2.3l-5.7-0.5
	l5.3-21.9h17.7l-1.3,7.7h-11.7l-1.6,6.6c0.6-0.4,1.3-0.6,2-0.8c0.7-0.2,1.3-0.3,2-0.3c2.6,0,5,1.2,6.6,3.2c1.8,2.2,2.7,5.2,2.7,8.9
	c0,3.2-0.7,6.3-2,9.2c-1.1,2.6-2.9,4.8-5.1,6.4c-1.9,1.4-4.2,2.1-6.5,2.1c-2.9,0-5.6-1.2-7.3-3.5
	C801.4,536.5,800.4,533.3,800.4,529.3z"/>
<path class="st11" d="M847.9,510.5h6.5l-0.7,3.8c2.6-3,5.3-4.5,8.1-4.5c3.8,0,5.9,1.8,6.5,5.5c0.9-1.6,2.3-3,3.9-3.9
	c1.5-1,3.3-1.5,5.1-1.5c1.8-0.1,3.5,0.6,4.8,1.9c1.3,1.5,1.9,3.4,1.8,5.3c-0.1,1.9-0.3,3.7-0.7,5.5l-3.2,19h-6.9l3.3-19
	c0.4-2.4,0.6-3.7,0.6-4c0.1-0.8-0.2-1.5-0.7-2.1c-0.5-0.5-1.2-0.8-1.9-0.7c-1.7,0-3.2,1-4.6,3.1c-1.1,1.6-2,4.5-2.7,8.6l-2.4,14.2
	h-6.9l3.2-18.8c0.3-1.4,0.5-2.8,0.6-4.2c0-0.8-0.2-1.5-0.7-2.1c-0.5-0.5-1.2-0.8-1.9-0.8c-1.2,0.1-2.3,0.6-3.2,1.4
	c-1.2,1.1-2.1,2.6-2.6,4.2c-0.6,2-1,4-1.3,6l-2.5,14.3h-6.9L847.9,510.5z"/>
<path class="st11" d="M893.6,510.5h6.9l-5.3,31.1h-6.9L893.6,510.5z M895.6,498.6h6.9l-1.3,7.7h-6.9L895.6,498.6z"/>
<path class="st11" d="M908.8,510.5h6.6l-0.7,4c1.3-1.5,2.9-2.7,4.7-3.7c1.4-0.7,2.9-1,4.4-1c1.9-0.1,3.7,0.7,4.9,2.1
	c1.3,1.7,2,3.7,1.8,5.9c-0.1,2.1-0.4,4.1-0.8,6.2l-3,17.6h-6.9l3-17.6c0.4-2.6,0.7-4.2,0.7-4.8c0.1-0.9-0.2-1.8-0.8-2.6
	c-0.5-0.6-1.3-0.9-2.1-0.9c-1.1,0-2.1,0.4-2.9,1.1c-1.3,1-2.4,2.3-3.1,3.8c-1,2.6-1.6,5.4-2,8.2l-2.2,12.8h-6.9L908.8,510.5z"/>
<path class="st11" d="M939.7,510.5h6.9l-3.2,18.4c-0.3,1.4-0.4,2.8-0.5,4.1c0,0.9,0.3,1.7,0.8,2.4c0.5,0.6,1.2,1,2,1
	c1,0,2-0.4,2.8-1c1.3-0.9,2.3-2.2,3-3.6c0.9-2,1.6-4.2,1.9-6.4l2.8-14.8h6.9l-5.8,31.1h-6.5l0.8-4.2c-2.8,3.3-5.8,4.9-9.1,4.9
	c-1.9,0.1-3.7-0.7-4.9-2.2c-1.3-1.7-1.9-3.8-1.8-5.9c0.1-2.1,0.4-4.3,0.8-6.4L939.7,510.5z"/>
<path class="st11" d="M967.8,516.7l1.1-6.2h3.6l0.9-5l8-5.9l-2,10.9h4.4l-1.1,6.2h-4.4l-2.4,13c-0.4,2.3-0.6,3.7-0.6,4.1
	c0,0.6,0.2,1.1,0.6,1.5c0.6,0.4,1.2,0.6,1.9,0.5c0.3,0,1.1-0.1,2.4-0.2l-1.1,6.2c-1.2,0.3-2.4,0.4-3.7,0.4c-2.4,0-4.2-0.5-5.4-1.7
	c-1.3-1.3-1.9-3-1.8-4.8c0.2-2.2,0.5-4.4,0.9-6.6l2.3-12.5L967.8,516.7z"/>
<path class="st11" d="M1009,528.6h-17.3v0.8c-0.1,1.8,0.4,3.5,1.5,5c0.8,1.2,2.1,1.9,3.5,1.9c2.3,0,4-1.4,5.4-4.3l6.2,1.3
	c-0.9,2.7-2.6,5-4.8,6.8c-1.9,1.5-4.3,2.3-6.8,2.3c-3.2,0-6.3-1.4-8.3-3.9c-2.2-2.6-3.3-6.1-3.3-10.5c-0.1-4.5,1.2-8.9,3.8-12.6
	c2.3-3.5,6.3-5.6,10.5-5.5c2.9-0.1,5.6,1.2,7.4,3.4c1.9,2.3,2.8,5.6,2.8,9.9C1009.5,525,1009.4,526.8,1009,528.6z M1003.2,523.5
	v-0.8c0-2.4-0.4-4.1-1.3-5.2c-0.8-1.1-2-1.7-3.4-1.7c-1.5,0.1-2.9,0.8-3.8,2c-1.3,1.7-2.1,3.7-2.3,5.8L1003.2,523.5z"/>
<path class="st11" d="M1012.1,532.9l6.7-1.3c0.4,1.4,1.1,2.7,2.2,3.7c1,0.7,2.3,1.1,3.6,1c1.2,0.1,2.5-0.3,3.5-1
	c0.8-0.5,1.3-1.4,1.3-2.4c0-0.6-0.2-1.1-0.6-1.6c-0.8-0.7-1.8-1.2-2.8-1.5c-4.1-1.7-6.7-3-7.7-3.9c-1.6-1.6-2.4-3.8-2.4-6
	c-0.1-2.7,1.1-5.4,3.1-7.2c2.1-1.9,4.9-2.8,8.5-2.8c6.1,0,9.6,2.7,10.6,8.1l-6.4,1.3c-0.7-2.5-2.5-3.7-5.3-3.7
	c-1.1-0.1-2.1,0.2-3,0.8c-0.6,0.5-1,1.3-1,2.1c0,0.7,0.3,1.3,0.8,1.8c1.2,0.8,2.6,1.4,4,1.8c3.3,1.2,5.5,2.3,6.7,3.4
	c1.6,1.5,2.5,3.7,2.5,5.9c0.1,2.9-1.1,5.8-3.2,7.8c-2.3,2.1-5.3,3.3-8.5,3.1C1017.8,542.3,1013.6,539.2,1012.1,532.9z"/>
</svg>
