<?xml version="1.0" encoding="utf-8"?>
<!-- Generator: Adobe Illustrator 24.1.2, SVG Export Plug-In . SVG Version: 6.00 Build 0)  -->
<svg version="1.1" id="Calque_1" xmlns="http://www.w3.org/2000/svg" xmlns:xlink="http://www.w3.org/1999/xlink" x="0px" y="0px"
	 viewBox="0 0 1154.99 1266.64" style="enable-background:new 0 0 1154.99 1266.64;" xml:space="preserve">
<style type="text/css">
	.st0{fill:none;}
	.st1{fill:#F0F1F2;}
	.st2{fill:#9FD9FE;}
	.st3{fill:#FFFFFF;stroke:#F0F1F2;stroke-width:4;stroke-miterlimit:10;}
	.st4{fill:#CAEFFF;}
	.st5{fill:#94CBEA;}
	.st6{fill:#202C34;}
	.st7{fill:#3A444C;}
	.st8{font-family:'ArialNarrow-BoldItalic';}
	.st9{font-size:50.4773px;}
	.st10{letter-spacing:1;}
	.st11{font-size:60px;}
</style>
<g>
	<g>
		<g>
			<path class="st0" d="M449.92,699.94l10.81,107.17c8.3-8.75,57.14-15.47,116.16-15.47c58.72,0,107.37,6.65,116.03,15.34
				L703.7,700.1c-13.01,12.98-64.84,22.69-126.82,22.69C514.67,722.78,462.67,713,449.92,699.94z"/>
			<path class="st0" d="M461.32,812.97l24.05,238.39c8.92-6.62,46.5-11.59,91.52-11.59c44.81,0,82.25,4.92,91.39,11.5l24.03-238.18
				c-10.14,8.41-57.95,14.78-115.42,14.78C519.15,827.88,471.15,821.45,461.32,812.97z"/>
			<g>
				<path class="st0" d="M461.32,812.97l24.05,238.39c8.92-6.62,46.5-11.59,91.52-11.59c44.81,0,82.25,4.92,91.39,11.5l24.03-238.18
					c-10.14,8.41-57.95,14.78-115.42,14.78C519.15,827.88,471.15,821.45,461.32,812.97z"/>
				<path class="st0" d="M449.92,699.94l10.81,107.17c8.3-8.75,57.14-15.47,116.16-15.47c58.72,0,107.37,6.65,116.03,15.34
					L703.7,700.1c-13.01,12.98-64.84,22.69-126.82,22.69C514.67,722.78,462.67,713,449.92,699.94z"/>
				<path class="st1" d="M706.86,692.61l-0.1-0.01c-2.62-15.54-59.75-27.96-129.86-27.96c-71.78,0-129.97,13.01-129.97,29.07
					c0,0.08,0.01,0.16,0.01,0.24l-0.01,0l0.03,0.31c0.01,0.11,0.02,0.22,0.03,0.34l36.38,360.6l0.14-0.01
					c2.64,7.7,43.44,13.82,93.39,13.82c51.65,0,93.53-6.54,93.53-14.61c0-0.18-0.03-0.36-0.07-0.54l0.07,0.01l36.13-358.13
					c0.2-0.66,0.31-1.33,0.31-2.01c0-0.24-0.02-0.47-0.04-0.71L706.86,692.61z M668.28,1051.27c-9.14-6.57-46.58-11.5-91.39-11.5
					c-45.02,0-82.6,4.97-91.52,11.59l-24.05-238.39c9.83,8.47,57.83,14.9,115.57,14.9c57.47,0,105.28-6.37,115.42-14.78
					L668.28,1051.27z M692.92,806.98c-8.66-8.69-57.31-15.34-116.03-15.34c-59.02,0-107.86,6.72-116.16,15.47l-10.81-107.17
					c12.75,13.06,64.75,22.84,126.97,22.84c61.97,0,113.81-9.7,126.82-22.69L692.92,806.98z"/>
			</g>
		</g>
		<path class="st2" d="M576.96,827.88c-57.74,0-105.74-6.43-115.57-14.9l24.05,238.39c8.92-6.62,46.5-11.59,91.52-11.59
			c44.81,0,82.26,4.92,91.39,11.5l24.03-238.18C682.24,821.51,634.43,827.88,576.96,827.88z"/>
		<ellipse class="st3" cx="576.84" cy="693.71" rx="129.92" ry="29.07"/>
		<ellipse class="st4" cx="577.05" cy="810.27" rx="116.28" ry="18.63"/>
		<ellipse class="st5" cx="576.81" cy="1051.36" rx="91.41" ry="17.89"/>
		<path class="st6" d="M607.11,927.43c-20.08-2.25-43.69,9.56-58.12-15.2C566.15,926.12,589.33,916.04,607.11,927.43z"/>
	</g>
	<g>
		<g>
			<path class="st0" d="M810.81,699.94l10.81,107.17c8.3-8.75,57.14-15.47,116.16-15.47c58.72,0,107.37,6.65,116.03,15.34
				l10.78-106.89c-13.01,12.98-64.84,22.69-126.82,22.69C875.56,722.78,823.56,713,810.81,699.94z"/>
			<path class="st0" d="M822.21,812.97l24.05,238.39c8.92-6.62,46.5-11.59,91.52-11.59c44.81,0,82.26,4.92,91.39,11.5l24.03-238.18
				c-10.14,8.41-57.95,14.78-115.42,14.78C880.04,827.88,832.04,821.45,822.21,812.97z"/>
			<g>
				<path class="st0" d="M822.21,812.97l24.05,238.39c8.92-6.62,46.5-11.59,91.52-11.59c44.81,0,82.26,4.92,91.39,11.5l24.03-238.18
					c-10.14,8.41-57.95,14.78-115.42,14.78C880.04,827.88,832.04,821.45,822.21,812.97z"/>
				<path class="st0" d="M810.81,699.94l10.81,107.17c8.3-8.75,57.14-15.47,116.16-15.47c58.72,0,107.37,6.65,116.03,15.34
					l10.78-106.89c-13.01,12.98-64.84,22.69-126.82,22.69C875.56,722.78,823.56,713,810.81,699.94z"/>
				<path class="st1" d="M1067.75,692.61l-0.1-0.01c-2.62-15.54-59.75-27.96-129.87-27.96c-71.78,0-129.97,13.01-129.97,29.07
					c0,0.08,0.01,0.16,0.01,0.24l-0.01,0l0.03,0.31c0.01,0.11,0.02,0.22,0.03,0.34l36.38,360.6l0.14-0.01
					c2.64,7.7,43.44,13.82,93.39,13.82c51.65,0,93.53-6.54,93.53-14.61c0-0.18-0.03-0.36-0.07-0.54l0.07,0.01l36.13-358.13
					c0.2-0.66,0.31-1.33,0.31-2.01c0-0.24-0.02-0.47-0.04-0.71L1067.75,692.61z M1029.17,1051.27c-9.14-6.57-46.58-11.5-91.39-11.5
					c-45.02,0-82.6,4.97-91.52,11.59l-24.05-238.39c9.83,8.47,57.83,14.9,115.57,14.9c57.47,0,105.28-6.37,115.42-14.78
					L1029.17,1051.27z M1053.81,806.98c-8.66-8.69-57.31-15.34-116.03-15.34c-59.02,0-107.86,6.72-116.16,15.47l-10.81-107.17
					c12.75,13.06,64.75,22.84,126.97,22.84c61.97,0,113.81-9.7,126.82-22.69L1053.81,806.98z"/>
			</g>
		</g>
		<path class="st2" d="M937.85,827.88c-57.74,0-105.74-6.43-115.57-14.9l24.05,238.39c8.92-6.62,46.5-11.59,91.52-11.59
			c44.81,0,82.26,4.92,91.39,11.5l24.03-238.18C1043.13,821.51,995.32,827.88,937.85,827.88z"/>
		<ellipse class="st3" cx="937.73" cy="693.71" rx="129.92" ry="29.07"/>
		<ellipse class="st4" cx="937.95" cy="810.27" rx="116.28" ry="18.63"/>
		<ellipse class="st5" cx="937.71" cy="1051.36" rx="91.41" ry="17.89"/>
		<path class="st6" d="M980.29,988.7c-17.69,9.77-30.15,33.04-56.22,21.16C946.1,1011.29,959.2,989.67,980.29,988.7z"/>
	</g>
	<g>
		<g>
			<path class="st0" d="M89.03,699.94l10.81,107.17c8.3-8.75,57.14-15.47,116.16-15.47c58.72,0,107.37,6.65,116.03,15.34
				l10.78-106.89c-13.01,12.98-64.84,22.69-126.82,22.69C153.78,722.78,101.78,713,89.03,699.94z"/>
			<path class="st0" d="M100.43,812.97l24.05,238.39c8.92-6.62,46.5-11.59,91.52-11.59c44.81,0,82.25,4.92,91.39,11.5l24.03-238.18
				c-10.14,8.41-57.95,14.78-115.42,14.78C158.26,827.88,110.26,821.45,100.43,812.97z"/>
			<g>
				<path class="st0" d="M100.43,812.97l24.05,238.39c8.92-6.62,46.5-11.59,91.52-11.59c44.81,0,82.25,4.92,91.39,11.5l24.03-238.18
					c-10.14,8.41-57.95,14.78-115.42,14.78C158.26,827.88,110.26,821.45,100.43,812.97z"/>
				<path class="st0" d="M89.03,699.94l10.81,107.17c8.3-8.75,57.14-15.47,116.16-15.47c58.72,0,107.37,6.65,116.03,15.34
					l10.78-106.89c-13.01,12.98-64.84,22.69-126.82,22.69C153.78,722.78,101.78,713,89.03,699.94z"/>
				<path class="st1" d="M345.96,692.61l-0.1-0.01c-2.62-15.54-59.75-27.96-129.86-27.96c-71.78,0-129.97,13.01-129.97,29.07
					c0,0.08,0.01,0.16,0.01,0.24l-0.01,0l0.03,0.31c0.01,0.11,0.02,0.22,0.03,0.34l36.38,360.6l0.14-0.01
					c2.64,7.7,43.44,13.82,93.39,13.82c51.65,0,93.53-6.54,93.53-14.61c0-0.18-0.03-0.36-0.07-0.54l0.07,0.01l36.13-358.13
					c0.2-0.66,0.31-1.33,0.31-2.01c0-0.24-0.01-0.47-0.04-0.71L345.96,692.61z M307.39,1051.27c-9.14-6.57-46.58-11.5-91.39-11.5
					c-45.02,0-82.6,4.97-91.52,11.59l-24.05-238.39c9.83,8.47,57.83,14.9,115.57,14.9c57.47,0,105.28-6.37,115.42-14.78
					L307.39,1051.27z M332.03,806.98c-8.66-8.69-57.31-15.34-116.03-15.34c-59.02,0-107.86,6.72-116.16,15.47L89.03,699.94
					C101.78,713,153.78,722.78,216,722.78c61.97,0,113.81-9.7,126.82-22.69L332.03,806.98z"/>
			</g>
		</g>
		<path class="st2" d="M216.07,827.88c-57.74,0-105.74-6.43-115.57-14.9l24.05,238.39c8.92-6.62,46.5-11.59,91.52-11.59
			c44.81,0,82.26,4.92,91.39,11.5l24.03-238.18C321.35,821.51,273.53,827.88,216.07,827.88z"/>
		<ellipse class="st3" cx="215.94" cy="693.71" rx="129.92" ry="29.07"/>
		<ellipse class="st4" cx="216.16" cy="810.27" rx="116.28" ry="18.63"/>
		<ellipse class="st5" cx="215.92" cy="1051.36" rx="91.41" ry="17.89"/>
		<path class="st6" d="M245.46,858.59c-19.14,6.47-35.53,27.17-59.08,10.86C207.8,874.77,224.53,855.81,245.46,858.59z"/>
	</g>
	<text transform="matrix(1 0 0 1 152.5429 1165.4053)" class="st7 st8 st9 st10">Faible</text>
	<text transform="matrix(1 0 0 1 482.9448 1165.4053)" class="st7 st8 st9 st10">Moyenne</text>
	<text transform="matrix(1 0 0 1 868.5479 1168.1309)" class="st7 st8 st9 st10">Élevée</text>
</g>
<text transform="matrix(1 0 0 1 86.0267 150.7663)" class="st7 st8 st11 st10">Comment connaître sa porosité ?</text>
<text transform="matrix(1 0 0 1 86.027 284.086)"><tspan x="0" y="0" class="st7 st8 st11 st10">1. Après s’être lavé, prendre un cheveu </tspan><tspan x="0" y="80" class="st7 st8 st11 st10">2. Remplir un verre d’eau</tspan><tspan x="0" y="160" class="st7 st8 st11 st10">3. Mettre le cheveu au fond du verre </tspan><tspan x="0" y="240" class="st7 st8 st11 st10">4. Comparer le résultat après 5 minutes</tspan></text>
</svg>
