<svg id="Calque_1" data-name="Calque 1" xmlns="http://www.w3.org/2000/svg" viewBox="0 0 2358.54 618.87"><defs><style>.cls-1{fill:none;}.cls-2{fill:#f0f1f2;}.cls-3{fill:#9fd9fe;}.cls-4{fill:#fff;stroke:#f0f1f2;stroke-miterlimit:10;stroke-width:4px;}.cls-5{fill:#caefff;}.cls-6{fill:#94cbea;}.cls-7{fill:#202c34;}.cls-8{font-size:60px;font-family:ArialNarrow-BoldItalic, Arial Narrow;font-weight:700;font-style:italic;letter-spacing:0.02em;}.cls-8,.cls-9{fill:#383a3a;}</style></defs><path class="cls-1" d="M1649.46,81.46l12.85,127.39c9.87-10.4,67.92-18.39,138.07-18.39,69.8,0,127.63,7.91,137.93,18.23l12.81-127c-15.46,15.44-77.07,27-150.74,27C1726.42,108.61,1664.62,97,1649.46,81.46Z" transform="translate(-27.18 -37.5)"/><path class="cls-1" d="M1663,215.81l28.59,283.36c10.6-7.86,55.27-13.77,108.78-13.77,53.27,0,97.77,5.85,108.63,13.67L1937.57,216c-12,10-68.88,17.58-137.19,17.58C1731.75,233.53,1674.7,225.88,1663,215.81Z" transform="translate(-27.18 -37.5)"/><path class="cls-1" d="M1663,215.81l28.59,283.36c10.6-7.86,55.27-13.77,108.78-13.77,53.27,0,97.77,5.85,108.63,13.67L1937.57,216c-12,10-68.88,17.58-137.19,17.58C1731.75,233.53,1674.7,225.88,1663,215.81Z" transform="translate(-27.18 -37.5)"/><path class="cls-1" d="M1649.46,81.46l12.85,127.39c9.87-10.4,67.92-18.39,138.07-18.39,69.8,0,127.63,7.91,137.93,18.23l12.81-127c-15.46,15.44-77.07,27-150.74,27C1726.42,108.61,1664.62,97,1649.46,81.46Z" transform="translate(-27.18 -37.5)"/><path class="cls-2" d="M1954.87,72.74h-.12c-3.12-18.47-71-33.23-154.37-33.23-85.32,0-154.49,15.47-154.49,34.56,0,.09,0,.18,0,.28h0l0,.36c0,.14,0,.27,0,.4l43.24,428.63.17,0c3.13,9.16,51.63,16.43,111,16.43,61.4,0,111.17-7.78,111.17-17.37a2.74,2.74,0,0,0-.08-.64h.08l43-425.69a8.15,8.15,0,0,0,.37-2.38,7.58,7.58,0,0,0,0-.84ZM1909,499.07c-10.86-7.82-55.36-13.67-108.63-13.67-53.51,0-98.18,5.91-108.78,13.77L1663,215.81c11.69,10.07,68.74,17.72,137.37,17.72,68.31,0,125.14-7.58,137.19-17.58Zm29.3-290.38c-10.3-10.32-68.13-18.23-137.93-18.23-70.15,0-128.2,8-138.07,18.39L1649.46,81.46c15.16,15.52,77,27.15,150.92,27.15,73.67,0,135.28-11.53,150.74-27Z" transform="translate(-27.18 -37.5)"/><path class="cls-3" d="M1800.47,233.53c-68.63,0-125.69-7.65-137.37-17.72l28.59,283.36c10.6-7.86,55.27-13.77,108.78-13.77,53.26,0,97.77,5.85,108.63,13.67L1937.66,216C1925.61,226,1868.78,233.53,1800.47,233.53Z" transform="translate(-27.18 -37.5)"/><ellipse class="cls-4" cx="1773.14" cy="36.55" rx="154.43" ry="34.55"/><ellipse class="cls-5" cx="1773.4" cy="175.1" rx="138.22" ry="22.14"/><ellipse class="cls-6" cx="1773.11" cy="461.67" rx="108.66" ry="21.26"/><path class="cls-7" d="M1836.31,351.86c-23.87-2.67-51.94,11.36-69.09-18.06C1787.61,350.31,1815.17,338.32,1836.31,351.86Z" transform="translate(-27.18 -37.5)"/><path class="cls-1" d="M2078.44,81.46l12.85,127.39c9.86-10.4,67.92-18.39,138.07-18.39,69.8,0,127.63,7.91,137.92,18.23l12.82-127c-15.46,15.44-77.08,27-150.74,27C2155.4,108.61,2093.59,97,2078.44,81.46Z" transform="translate(-27.18 -37.5)"/><path class="cls-1" d="M2092,215.81l28.59,283.36c10.59-7.86,55.27-13.77,108.78-13.77,53.26,0,97.77,5.85,108.63,13.67L2366.55,216c-12.05,10-68.89,17.58-137.19,17.58C2160.73,233.53,2103.67,225.88,2092,215.81Z" transform="translate(-27.18 -37.5)"/><path class="cls-1" d="M2092,215.81l28.59,283.36c10.59-7.86,55.27-13.77,108.78-13.77,53.26,0,97.77,5.85,108.63,13.67L2366.55,216c-12.05,10-68.89,17.58-137.19,17.58C2160.73,233.53,2103.67,225.88,2092,215.81Z" transform="translate(-27.18 -37.5)"/><path class="cls-1" d="M2078.44,81.46l12.85,127.39c9.86-10.4,67.92-18.39,138.07-18.39,69.8,0,127.63,7.91,137.92,18.23l12.82-127c-15.46,15.44-77.08,27-150.74,27C2155.4,108.61,2093.59,97,2078.44,81.46Z" transform="translate(-27.18 -37.5)"/><path class="cls-2" d="M2383.85,72.74h-.13c-3.11-18.47-71-33.23-154.36-33.23C2144,39.5,2074.87,55,2074.87,74.06c0,.09,0,.18,0,.28h0l0,.36c0,.14,0,.27,0,.4l43.24,428.63.16,0c3.14,9.16,51.64,16.43,111,16.43,61.4,0,111.17-7.78,111.17-17.37a2.74,2.74,0,0,0-.09-.64h.09l42.94-425.69a8.16,8.16,0,0,0,.38-2.38,7.58,7.58,0,0,0,0-.84ZM2338,499.07c-10.86-7.82-55.37-13.67-108.63-13.67-53.51,0-98.19,5.91-108.78,13.77L2092,215.81c11.68,10.07,68.74,17.72,137.37,17.72,68.3,0,125.14-7.58,137.19-17.58Zm29.29-290.38c-10.29-10.32-68.12-18.23-137.92-18.23-70.15,0-128.21,8-138.07,18.39L2078.44,81.46c15.15,15.52,77,27.15,150.92,27.15,73.66,0,135.28-11.53,150.74-27Z" transform="translate(-27.18 -37.5)"/><path class="cls-3" d="M2229.45,233.53c-68.63,0-125.69-7.65-137.37-17.72l28.58,283.36c10.6-7.86,55.28-13.77,108.79-13.77,53.26,0,97.77,5.85,108.63,13.67L2366.64,216C2354.59,226,2297.75,233.53,2229.45,233.53Z" transform="translate(-27.18 -37.5)"/><ellipse class="cls-4" cx="2202.11" cy="36.55" rx="154.43" ry="34.55"/><ellipse class="cls-5" cx="2202.37" cy="175.1" rx="138.22" ry="22.14"/><ellipse class="cls-6" cx="2202.09" cy="461.67" rx="108.66" ry="21.26"/><path class="cls-7" d="M2279.89,424.69c-21,11.6-35.84,39.27-66.83,25.15C2239.24,451.54,2254.81,425.84,2279.89,424.69Z" transform="translate(-27.18 -37.5)"/><path class="cls-1" d="M1220.49,81.46l12.85,127.39c9.86-10.4,67.92-18.39,138.07-18.39,69.8,0,127.63,7.91,137.92,18.23l12.82-127c-15.47,15.44-77.08,27-150.74,27C1297.45,108.61,1235.64,97,1220.49,81.46Z" transform="translate(-27.18 -37.5)"/><path class="cls-1" d="M1234,215.81l28.58,283.36c10.6-7.86,55.28-13.77,108.79-13.77,53.26,0,97.77,5.85,108.63,13.67L1508.6,216c-12,10-68.89,17.58-137.19,17.58C1302.78,233.53,1245.72,225.88,1234,215.81Z" transform="translate(-27.18 -37.5)"/><path class="cls-1" d="M1234,215.81l28.58,283.36c10.6-7.86,55.28-13.77,108.79-13.77,53.26,0,97.77,5.85,108.63,13.67L1508.6,216c-12,10-68.89,17.58-137.19,17.58C1302.78,233.53,1245.72,225.88,1234,215.81Z" transform="translate(-27.18 -37.5)"/><path class="cls-1" d="M1220.49,81.46l12.85,127.39c9.86-10.4,67.92-18.39,138.07-18.39,69.8,0,127.63,7.91,137.92,18.23l12.82-127c-15.47,15.44-77.08,27-150.74,27C1297.45,108.61,1235.64,97,1220.49,81.46Z" transform="translate(-27.18 -37.5)"/><path class="cls-2" d="M1525.89,72.74h-.12c-3.11-18.47-71-33.23-154.36-33.23-85.33,0-154.49,15.47-154.49,34.56,0,.09,0,.18,0,.28h0l0,.36c0,.14,0,.27,0,.4l43.24,428.63.16,0c3.14,9.16,51.64,16.43,111,16.43,61.39,0,111.17-7.78,111.17-17.37a2.74,2.74,0,0,0-.09-.64h.09l42.94-425.69a8.15,8.15,0,0,0,.37-2.38,7.63,7.63,0,0,0,0-.84ZM1480,499.07c-10.86-7.82-55.37-13.67-108.63-13.67-53.51,0-98.19,5.91-108.79,13.77L1234,215.81c11.68,10.07,68.74,17.72,137.37,17.72,68.3,0,125.14-7.58,137.19-17.58Zm29.29-290.38c-10.29-10.32-68.12-18.23-137.92-18.23-70.15,0-128.21,8-138.07,18.39L1220.49,81.46c15.15,15.52,77,27.15,150.92,27.15,73.66,0,135.27-11.53,150.74-27Z" transform="translate(-27.18 -37.5)"/><path class="cls-3" d="M1371.49,233.53c-68.62,0-125.68-7.65-137.36-17.72l28.58,283.36c10.6-7.86,55.27-13.77,108.78-13.77,53.27,0,97.78,5.85,108.64,13.67L1508.69,216C1496.64,226,1439.8,233.53,1371.49,233.53Z" transform="translate(-27.18 -37.5)"/><ellipse class="cls-4" cx="1344.16" cy="36.55" rx="154.43" ry="34.55"/><ellipse class="cls-5" cx="1344.42" cy="175.1" rx="138.22" ry="22.14"/><ellipse class="cls-6" cx="1344.14" cy="461.67" rx="108.66" ry="21.26"/><path class="cls-7" d="M1406.43,270c-22.75,7.7-42.23,32.3-70.23,12.91C1361.67,289.26,1381.55,266.73,1406.43,270Z" transform="translate(-27.18 -37.5)"/><text class="cls-8" transform="translate(1268.8 597.23)">Faible</text><text class="cls-8" transform="translate(1661.53 597.23)">Moyenne</text><text class="cls-8" transform="translate(2119.88 600.47)">Élevée</text><text class="cls-8" transform="translate(0 133.38)">Comment connaître sa porosité ?</text><path class="cls-9" d="M33,317.4l1.29-7.5a41.86,41.86,0,0,0,13.82-11h4.17l-7.43,43.21H37.91L43,312.3a27.81,27.81,0,0,1-4.94,3.08A27.9,27.9,0,0,1,33,317.4Z" transform="translate(-27.18 -37.5)"/><path class="cls-9" d="M59.56,334h6.8L65,342.07h-6.8Z" transform="translate(-27.18 -37.5)"/><path class="cls-9" d="M109.11,332.58h-14l-4.27,9.49H83.45l20-42.95h8l5.71,42.95h-6.87Zm-.92-7.15-2-17.29-7.79,17.29Z" transform="translate(-27.18 -37.5)"/><path class="cls-9" d="M128,311h6.55l-.55,3.19a14.56,14.56,0,0,1,3.93-3,8.63,8.63,0,0,1,3.73-.85,7.45,7.45,0,0,1,6.31,3.34q2.42,3.35,2.41,10.05,0,8.57-4.26,14.36-3.53,4.77-8.28,4.77-4.95,0-7.52-4.95l-2.8,16.11h-6.88Zm4.17,17.86a9.64,9.64,0,0,0,1.43,5.66,4,4,0,0,0,3.3,2,4.49,4.49,0,0,0,3-1.27,11.05,11.05,0,0,0,2.63-4.71,21.55,21.55,0,0,0,1.19-7.07,9,9,0,0,0-1.36-5.34,4,4,0,0,0-3.34-1.85,4.63,4.63,0,0,0-3,1.26A10.76,10.76,0,0,0,133.3,322,20.55,20.55,0,0,0,132.15,328.82Z" transform="translate(-27.18 -37.5)"/><path class="cls-9" d="M159.21,311h6.47l-1,6q3.61-6.74,7.89-6.74a7.35,7.35,0,0,1,3.23.88L173.13,318a4.83,4.83,0,0,0-2-.41,5,5,0,0,0-3,1.08,10.67,10.67,0,0,0-3.33,4.37,46.33,46.33,0,0,0-2.29,9.25l-1.7,9.76h-6.88Z" transform="translate(-27.18 -37.5)"/><path class="cls-9" d="M199.83,329.12H182.51v.79a7.9,7.9,0,0,0,1.47,5,4.34,4.34,0,0,0,3.51,1.88q3.4,0,5.36-4.34l6.19,1.26a15.44,15.44,0,0,1-4.84,6.8,11,11,0,0,1-6.77,2.25,10.39,10.39,0,0,1-8.27-3.88q-3.3-3.88-3.3-10.53a21.77,21.77,0,0,1,3.75-12.64,12,12,0,0,1,10.49-5.47,9.08,9.08,0,0,1,7.37,3.45q2.82,3.44,2.83,9.94A29,29,0,0,1,199.83,329.12ZM194,324l0-.82a8.58,8.58,0,0,0-1.31-5.24,4.07,4.07,0,0,0-3.38-1.7,5,5,0,0,0-3.82,2,11.22,11.22,0,0,0-2.3,5.8Zm-8.76-25.84h6.63l3.06,8.76h-4.67Z" transform="translate(-27.18 -37.5)"/><path class="cls-9" d="M202.91,333.37l6.68-1.29a7.6,7.6,0,0,0,2.22,3.68,5.73,5.73,0,0,0,3.58,1,5.52,5.52,0,0,0,3.46-1,3,3,0,0,0,1.31-2.4,2.32,2.32,0,0,0-.55-1.58,9,9,0,0,0-2.82-1.5q-6.18-2.49-7.67-3.92a8.08,8.08,0,0,1-2.37-6,9.35,9.35,0,0,1,3.1-7.23q3.1-2.85,8.5-2.85,9.14,0,10.6,8.12l-6.35,1.35c-.75-2.46-2.52-3.7-5.34-3.7a4.7,4.7,0,0,0-3,.83,2.53,2.53,0,0,0-1,2.08,2.33,2.33,0,0,0,.79,1.78,16.12,16.12,0,0,0,4,1.79c3.3,1.17,5.52,2.32,6.65,3.43a8,8,0,0,1,2.49,5.92,10.45,10.45,0,0,1-3.19,7.82,11.63,11.63,0,0,1-8.47,3.1Q205.17,342.77,202.91,333.37Z" transform="translate(-27.18 -37.5)"/><path class="cls-9" d="M246.83,333.37l6.68-1.29a7.61,7.61,0,0,0,2.23,3.68,5.71,5.71,0,0,0,3.57,1,5.5,5.5,0,0,0,3.46-1,3,3,0,0,0,1.32-2.4,2.33,2.33,0,0,0-.56-1.58,9,9,0,0,0-2.81-1.5q-6.18-2.49-7.68-3.92a8.08,8.08,0,0,1-2.37-6,9.36,9.36,0,0,1,3.11-7.23q3.1-2.85,8.49-2.85,9.15,0,10.61,8.12l-6.36,1.35c-.74-2.46-2.52-3.7-5.33-3.7a4.73,4.73,0,0,0-3,.83,2.56,2.56,0,0,0-1,2.08,2.34,2.34,0,0,0,.8,1.78,15.93,15.93,0,0,0,4,1.79c3.3,1.17,5.52,2.32,6.65,3.43a8,8,0,0,1,2.49,5.92,10.49,10.49,0,0,1-3.19,7.82,11.64,11.64,0,0,1-8.47,3.1Q249.1,342.77,246.83,333.37Z" transform="translate(-27.18 -37.5)"/><path class="cls-9" d="M283.63,299.12h7l-1.15,6.69q-1,5.88-3.2,8.27a7.59,7.59,0,0,1-5.61,2.47l.67-3.89A5.1,5.1,0,0,0,284,311a8.81,8.81,0,0,0,1.45-3.76h-3.17Z" transform="translate(-27.18 -37.5)"/><path class="cls-9" d="M316.48,329.12H299.17v.79a7.9,7.9,0,0,0,1.46,5,4.36,4.36,0,0,0,3.52,1.88q3.39,0,5.36-4.34l6.18,1.26a15.29,15.29,0,0,1-4.84,6.8,11,11,0,0,1-6.76,2.25,10.41,10.41,0,0,1-8.28-3.88q-3.3-3.88-3.3-10.53a21.77,21.77,0,0,1,3.75-12.64,12,12,0,0,1,10.49-5.47,9.07,9.07,0,0,1,7.37,3.45q2.83,3.44,2.83,9.94A29,29,0,0,1,316.48,329.12Zm-7.81-27.3L304.44,307h-5.68l7.16-8.79h6.45l2.91,8.79h-4.75Zm2,22.17,0-.82a8.65,8.65,0,0,0-1.3-5.24,4.09,4.09,0,0,0-3.39-1.7,5,5,0,0,0-3.82,2,11.3,11.3,0,0,0-2.3,5.8Z" transform="translate(-27.18 -37.5)"/><path class="cls-9" d="M321.85,317.2,323,311h3.57l.87-5,8-5.88-2,10.86h4.35l-1.06,6.24h-4.42l-2.41,13c-.42,2.34-.63,3.7-.63,4.07a2,2,0,0,0,.56,1.56,2.83,2.83,0,0,0,1.92.51c.29,0,1.08-.07,2.38-.21L333,342.36a16.59,16.59,0,0,1-3.7.41c-2.4,0-4.19-.54-5.39-1.64a6.18,6.18,0,0,1-1.78-4.8,49.17,49.17,0,0,1,.94-6.62l2.29-12.51Z" transform="translate(-27.18 -37.5)"/><path class="cls-9" d="M343.06,311h6.46l-1,6q3.62-6.74,7.88-6.74a7.32,7.32,0,0,1,3.23.88L357,318a4.89,4.89,0,0,0-2-.41,5,5,0,0,0-3.06,1.08,10.84,10.84,0,0,0-3.33,4.37,45.79,45.79,0,0,0-2.28,9.25l-1.71,9.76h-6.88Z" transform="translate(-27.18 -37.5)"/><path class="cls-9" d="M383.67,329.12H366.36v.79a7.9,7.9,0,0,0,1.46,5,4.36,4.36,0,0,0,3.52,1.88q3.39,0,5.36-4.34l6.18,1.26a15.35,15.35,0,0,1-4.83,6.8,11.07,11.07,0,0,1-6.77,2.25,10.41,10.41,0,0,1-8.28-3.88q-3.3-3.88-3.29-10.53a21.77,21.77,0,0,1,3.75-12.64,12,12,0,0,1,10.48-5.47,9.07,9.07,0,0,1,7.37,3.45q2.83,3.44,2.83,9.94A29,29,0,0,1,383.67,329.12ZM377.84,324l0-.82a8.58,8.58,0,0,0-1.3-5.24,4.09,4.09,0,0,0-3.39-1.7,5,5,0,0,0-3.82,2,11.3,11.3,0,0,0-2.3,5.8Z" transform="translate(-27.18 -37.5)"/><path class="cls-9" d="M402.87,342.07l7.35-42.95h6.92l-7.39,42.95Z" transform="translate(-27.18 -37.5)"/><path class="cls-9" d="M427.63,319.77l-6.74-.7a12,12,0,0,1,4.19-6.56,12.21,12.21,0,0,1,7.56-2.26q4.67,0,7.18,2.31a7.94,7.94,0,0,1,2.51,6.13,18.26,18.26,0,0,1-.24,2.85c-.16,1-.74,3.77-1.76,8.28a41.15,41.15,0,0,0-1.27,7.78,16.35,16.35,0,0,0,.69,4.47h-6.88a18.65,18.65,0,0,1-.51-3.54,10.54,10.54,0,0,1-3.37,3.15,7.57,7.57,0,0,1-3.8,1.09,6.27,6.27,0,0,1-5-2.46,10,10,0,0,1-2-6.56q0-4.72,2.4-7.27t8-3.07a26.93,26.93,0,0,0,6.59-1.2,10.23,10.23,0,0,0,.55-2.85,2.9,2.9,0,0,0-1-2.27,3.82,3.82,0,0,0-2.63-.86A4.11,4.11,0,0,0,427.63,319.77Zm6.34,7.8a13.89,13.89,0,0,1-1.63.38c-3.15.46-5.22,1.09-6.23,1.88a3.84,3.84,0,0,0-1.5,3.17,3.68,3.68,0,0,0,.85,2.51,2.77,2.77,0,0,0,2.17,1,4.73,4.73,0,0,0,2.62-.8,5.65,5.65,0,0,0,2-2.25,19.4,19.4,0,0,0,1.45-4.74Z" transform="translate(-27.18 -37.5)"/><path class="cls-9" d="M459.49,342.07h-5.93L448.42,311h6.76L457,324.52c.47,3.52.77,6,.88,7.33l1.53-3.46,2-4.31L467.69,311h7.44Z" transform="translate(-27.18 -37.5)"/><path class="cls-9" d="M500.32,329.12H483v.79a8,8,0,0,0,1.46,5A4.36,4.36,0,0,0,488,336.8c2.27,0,4.05-1.45,5.36-4.34l6.18,1.26a15.35,15.35,0,0,1-4.83,6.8,11,11,0,0,1-6.77,2.25,10.38,10.38,0,0,1-8.27-3.88q-3.3-3.88-3.3-10.53a21.77,21.77,0,0,1,3.75-12.64,12,12,0,0,1,10.49-5.47A9.1,9.1,0,0,1,498,313.7q2.82,3.44,2.82,9.94A28.2,28.2,0,0,1,500.32,329.12ZM494.49,324l0-.82a8.58,8.58,0,0,0-1.3-5.24,4.08,4.08,0,0,0-3.38-1.7,5,5,0,0,0-3.83,2,11.3,11.3,0,0,0-2.3,5.8Zm-3.13-25.75h7.38L490.92,307h-4.57Z" transform="translate(-27.18 -37.5)"/><path class="cls-9" d="M505.81,334h6.94l-1.14,6.71c-.67,3.93-1.73,6.68-3.2,8.27a7.58,7.58,0,0,1-5.59,2.46l.67-3.9a5.05,5.05,0,0,0,2.67-1.67,8.5,8.5,0,0,0,1.43-3.75H504.4Z" transform="translate(-27.18 -37.5)"/><path class="cls-9" d="M539.59,311h6.56l-.56,3.19a14.71,14.71,0,0,1,3.93-3,8.66,8.66,0,0,1,3.73-.85,7.46,7.46,0,0,1,6.32,3.34q2.4,3.35,2.41,10.05,0,8.57-4.27,14.36-3.51,4.77-8.27,4.77-5,0-7.53-4.95l-2.79,16.11h-6.89Zm4.18,17.86a9.64,9.64,0,0,0,1.42,5.66,4,4,0,0,0,3.3,2,4.45,4.45,0,0,0,3-1.27,11.16,11.16,0,0,0,2.64-4.71,21.54,21.54,0,0,0,1.18-7.07,9,9,0,0,0-1.35-5.34,4,4,0,0,0-3.35-1.85,4.63,4.63,0,0,0-3,1.26,10.66,10.66,0,0,0-2.62,4.55A20.29,20.29,0,0,0,543.77,328.82Z" transform="translate(-27.18 -37.5)"/><path class="cls-9" d="M570.83,311h6.46l-1,6c2.42-4.49,5-6.74,7.89-6.74a7.32,7.32,0,0,1,3.23.88L584.75,318a4.89,4.89,0,0,0-2-.41,5,5,0,0,0-3.06,1.08,10.75,10.75,0,0,0-3.33,4.37,45.79,45.79,0,0,0-2.28,9.25l-1.71,9.76H565.5Z" transform="translate(-27.18 -37.5)"/><path class="cls-9" d="M611.44,329.12H594.13v.79a7.9,7.9,0,0,0,1.46,5,4.36,4.36,0,0,0,3.52,1.88q3.39,0,5.36-4.34l6.18,1.26a15.35,15.35,0,0,1-4.83,6.8,11.07,11.07,0,0,1-6.77,2.25,10.41,10.41,0,0,1-8.28-3.88q-3.3-3.88-3.29-10.53a21.7,21.7,0,0,1,3.75-12.64,12,12,0,0,1,10.48-5.47,9.07,9.07,0,0,1,7.37,3.45q2.83,3.44,2.83,9.94A29,29,0,0,1,611.44,329.12ZM605.61,324l0-.82a8.65,8.65,0,0,0-1.3-5.24,4.09,4.09,0,0,0-3.39-1.7,5,5,0,0,0-3.82,2,11.3,11.3,0,0,0-2.3,5.8Z" transform="translate(-27.18 -37.5)"/><path class="cls-9" d="M620.81,311h6.56l-.67,4a17.39,17.39,0,0,1,4.66-3.71,9.81,9.81,0,0,1,4.36-1,6.16,6.16,0,0,1,4.91,2.14,8.68,8.68,0,0,1,1.84,5.86,47.18,47.18,0,0,1-.75,6.18l-3,17.64h-6.92l3-17.64a45.09,45.09,0,0,0,.67-4.74,3.7,3.7,0,0,0-.8-2.57,2.7,2.7,0,0,0-2.09-.89,4.77,4.77,0,0,0-2.86,1.11,10,10,0,0,0-3.12,3.77,36.49,36.49,0,0,0-2,8.19l-2.21,12.77h-6.88Z" transform="translate(-27.18 -37.5)"/><path class="cls-9" d="M670,342.07h-6.54l.62-3.39a12.25,12.25,0,0,1-3.66,3.18,8.3,8.3,0,0,1-3.87.91,7.43,7.43,0,0,1-6.23-3.25q-2.41-3.25-2.41-9.78a26.15,26.15,0,0,1,3.49-13.6q3.48-5.88,8.94-5.89,5,0,7.58,4.95l2.9-16.08h6.89Zm-15.39-12.68a8.74,8.74,0,0,0,1.35,5.24,3.93,3.93,0,0,0,3.27,1.84,4.73,4.73,0,0,0,3.08-1.27,10.3,10.3,0,0,0,2.62-4.49,20.21,20.21,0,0,0,1.12-6.64,9.48,9.48,0,0,0-1.45-5.57,4.06,4.06,0,0,0-3.31-2.07,4.5,4.5,0,0,0-2.94,1.34,10.78,10.78,0,0,0-2.62,4.65A21.84,21.84,0,0,0,654.57,329.39Z" transform="translate(-27.18 -37.5)"/><path class="cls-9" d="M683.2,311h6.46l-1,6q3.61-6.74,7.88-6.74a7.32,7.32,0,0,1,3.23.88L697.12,318a4.89,4.89,0,0,0-2-.41,5,5,0,0,0-3.06,1.08,10.84,10.84,0,0,0-3.33,4.37,45.79,45.79,0,0,0-2.28,9.25l-1.71,9.76h-6.88Z" transform="translate(-27.18 -37.5)"/><path class="cls-9" d="M723.81,329.12H706.5v.79a7.9,7.9,0,0,0,1.46,5,4.36,4.36,0,0,0,3.52,1.88q3.39,0,5.36-4.34l6.18,1.26a15.35,15.35,0,0,1-4.83,6.8,11.07,11.07,0,0,1-6.77,2.25,10.41,10.41,0,0,1-8.28-3.88q-3.28-3.88-3.29-10.53a21.77,21.77,0,0,1,3.75-12.64,12,12,0,0,1,10.48-5.47,9.07,9.07,0,0,1,7.37,3.45q2.84,3.44,2.83,9.94A29,29,0,0,1,723.81,329.12ZM718,324l0-.82a8.58,8.58,0,0,0-1.3-5.24,4.09,4.09,0,0,0-3.39-1.7,5,5,0,0,0-3.82,2,11.3,11.3,0,0,0-2.3,5.8Z" transform="translate(-27.18 -37.5)"/><path class="cls-9" d="M747.69,311h6.93l-3.16,18.36a35.31,35.31,0,0,0-.55,4.13,3.48,3.48,0,0,0,.83,2.39,2.56,2.56,0,0,0,2,1,4.68,4.68,0,0,0,2.76-1,9.86,9.86,0,0,0,3-3.59,24.81,24.81,0,0,0,1.94-6.43L764.24,311h6.93l-5.77,31.11h-6.48l.77-4.22q-4.22,4.92-9.09,4.92a6,6,0,0,1-4.89-2.15,8.92,8.92,0,0,1-1.81-5.93,47.41,47.41,0,0,1,.82-6.39Z" transform="translate(-27.18 -37.5)"/><path class="cls-9" d="M779.81,311h6.55l-.67,4a17.54,17.54,0,0,1,4.66-3.71,9.85,9.85,0,0,1,4.37-1,6.18,6.18,0,0,1,4.91,2.14,8.73,8.73,0,0,1,1.84,5.86,47.79,47.79,0,0,1-.76,6.18l-3,17.64H790.8l3-17.64a45.09,45.09,0,0,0,.67-4.74,3.7,3.7,0,0,0-.8-2.57,2.68,2.68,0,0,0-2.09-.89,4.77,4.77,0,0,0-2.86,1.11,10,10,0,0,0-3.12,3.77,37.06,37.06,0,0,0-2,8.19l-2.21,12.77h-6.88Z" transform="translate(-27.18 -37.5)"/><path class="cls-9" d="M838.33,330.35,845,331.7a17,17,0,0,1-4.94,8.31,11.23,11.23,0,0,1-7.46,2.76,9.57,9.57,0,0,1-7.67-3.45Q822,335.86,822,329.5a24.89,24.89,0,0,1,2-10.18,15.44,15.44,0,0,1,5.36-6.77,12.62,12.62,0,0,1,7.22-2.3,9.69,9.69,0,0,1,7.12,2.76,11.47,11.47,0,0,1,3.13,7.64l-6.56.85q-.46-5.07-4.1-5.07a5,5,0,0,0-3.28,1.38,11.22,11.22,0,0,0-2.83,4.92,23.79,23.79,0,0,0-1.22,7.74,7,7,0,0,0,1.13,4.26,3.32,3.32,0,0,0,2.71,1.48,4.71,4.71,0,0,0,3.21-1.42A9.8,9.8,0,0,0,838.33,330.35Z" transform="translate(-27.18 -37.5)"/><path class="cls-9" d="M856.79,342.07H849.9l7.36-42.95h6.91l-2.63,15.29a17,17,0,0,1,4.48-3.25,10.2,10.2,0,0,1,4.19-.91,6.16,6.16,0,0,1,4.86,2.11,8.52,8.52,0,0,1,1.84,5.8,36.94,36.94,0,0,1-.67,5.72l-3.13,18.19h-6.89l3.19-18.55a30.77,30.77,0,0,0,.5-3.86,3.59,3.59,0,0,0-.82-2.52,2.74,2.74,0,0,0-2.14-.91,4.79,4.79,0,0,0-3.29,1.44,12,12,0,0,0-3.2,4.83,50.37,50.37,0,0,0-1.55,7.23Z" transform="translate(-27.18 -37.5)"/><path class="cls-9" d="M906.16,329.12H888.84v.79a7.9,7.9,0,0,0,1.47,5,4.34,4.34,0,0,0,3.51,1.88q3.4,0,5.36-4.34l6.19,1.26a15.44,15.44,0,0,1-4.84,6.8,11,11,0,0,1-6.77,2.25,10.39,10.39,0,0,1-8.27-3.88q-3.3-3.88-3.3-10.53a21.77,21.77,0,0,1,3.75-12.64,12,12,0,0,1,10.49-5.47,9.08,9.08,0,0,1,7.37,3.45q2.82,3.44,2.83,9.94A29,29,0,0,1,906.16,329.12ZM900.33,324l0-.82a8.58,8.58,0,0,0-1.31-5.24,4.07,4.07,0,0,0-3.38-1.7,5,5,0,0,0-3.82,2,11.22,11.22,0,0,0-2.3,5.8Z" transform="translate(-27.18 -37.5)"/><path class="cls-9" d="M922.93,342.07H917L911.86,311h6.76l1.82,13.56c.47,3.52.77,6,.88,7.33l1.52-3.46,2-4.31L931.13,311h7.44Z" transform="translate(-27.18 -37.5)"/><path class="cls-9" d="M963.76,329.12H946.45v.79a8,8,0,0,0,1.46,5,4.36,4.36,0,0,0,3.52,1.88c2.27,0,4.05-1.45,5.36-4.34l6.18,1.26a15.35,15.35,0,0,1-4.83,6.8,11,11,0,0,1-6.77,2.25,10.41,10.41,0,0,1-8.28-3.88q-3.29-3.88-3.29-10.53a21.77,21.77,0,0,1,3.75-12.64A12,12,0,0,1,954,310.25a9.1,9.1,0,0,1,7.37,3.45q2.82,3.44,2.82,9.94A28.2,28.2,0,0,1,963.76,329.12ZM957.93,324l0-.82a8.58,8.58,0,0,0-1.3-5.24,4.08,4.08,0,0,0-3.38-1.7,5,5,0,0,0-3.83,2,11.3,11.3,0,0,0-2.3,5.8Z" transform="translate(-27.18 -37.5)"/><path class="cls-9" d="M972.52,311h6.93l-3.16,18.36a35.31,35.31,0,0,0-.55,4.13,3.48,3.48,0,0,0,.83,2.39,2.56,2.56,0,0,0,2,1,4.68,4.68,0,0,0,2.76-1,9.86,9.86,0,0,0,3-3.59,24.81,24.81,0,0,0,1.94-6.43L989.08,311H996l-5.77,31.11h-6.48l.77-4.22q-4.21,4.92-9.09,4.92a6,6,0,0,1-4.89-2.15,9,9,0,0,1-1.81-5.93,49.19,49.19,0,0,1,.82-6.39Z" transform="translate(-27.18 -37.5)"/><path class="cls-9" d="M40.19,384.51l-6.77-1.23q.88-6.15,3.9-9.24a9.92,9.92,0,0,1,7.41-3.1,9.94,9.94,0,0,1,7.65,3.14,11.91,11.91,0,0,1,2.9,8.41,16.41,16.41,0,0,1-2.14,8,54.56,54.56,0,0,1-6.45,8.4,69.3,69.3,0,0,0-6,7.5H52.88l-1.32,7.68H30.17a23,23,0,0,1,3-9.11,85,85,0,0,1,7.94-10.17,72.13,72.13,0,0,0,5.8-7.32,10.08,10.08,0,0,0,1.64-5,5.53,5.53,0,0,0-1.07-3.59,3.27,3.27,0,0,0-2.62-1.3C42.51,377.54,40.93,379.86,40.19,384.51Z" transform="translate(-27.18 -37.5)"/><path class="cls-9" d="M59.56,406h6.8L65,414.07h-6.8Z" transform="translate(-27.18 -37.5)"/><path class="cls-9" d="M95.65,414.07H88.43l7.34-42.95h15.65a14.29,14.29,0,0,1,6.48,1.14,8.48,8.48,0,0,1,3.47,3.69,13.82,13.82,0,0,1,1.33,6.44q0,5.72-2.79,9.15a12.33,12.33,0,0,1-8,4.26,19,19,0,0,1,2.87,4.59,120.51,120.51,0,0,1,5.14,13.68h-7.79q-.47-1.81-3.14-9.88a25.15,25.15,0,0,0-2.58-5.83,4.83,4.83,0,0,0-1.73-1.63,7.09,7.09,0,0,0-3-.44h-3Zm4.16-24.23h3.82q5.45,0,7.37-.69a6.51,6.51,0,0,0,3.19-2.53,7,7,0,0,0,1.28-4.07,4,4,0,0,0-1.61-3.55c-.63-.47-2-.7-4.11-.7h-8Z" transform="translate(-27.18 -37.5)"/><path class="cls-9" d="M150,401.12H132.67v.79a8,8,0,0,0,1.46,5,4.36,4.36,0,0,0,3.52,1.88c2.27,0,4-1.45,5.36-4.34l6.18,1.26a15.35,15.35,0,0,1-4.83,6.8,11,11,0,0,1-6.77,2.25,10.41,10.41,0,0,1-8.28-3.88Q126,407,126,400.36a21.77,21.77,0,0,1,3.75-12.64,12,12,0,0,1,10.49-5.47,9.1,9.1,0,0,1,7.37,3.45q2.82,3.44,2.82,9.94A28.2,28.2,0,0,1,150,401.12ZM144.15,396l0-.82a8.58,8.58,0,0,0-1.3-5.24,4.08,4.08,0,0,0-3.38-1.7,5,5,0,0,0-3.83,2,11.3,11.3,0,0,0-2.3,5.8Z" transform="translate(-27.18 -37.5)"/><path class="cls-9" d="M158.74,383h6.53l-.68,3.78q3.87-4.49,8.1-4.49,5.66,0,6.55,5.48a11.14,11.14,0,0,1,3.9-3.94,9.72,9.72,0,0,1,5.09-1.54,6.17,6.17,0,0,1,4.79,1.93,7.59,7.59,0,0,1,1.77,5.35,38.05,38.05,0,0,1-.67,5.54l-3.25,19h-6.93l3.26-19c.41-2.39.61-3.73.61-4.05a2.89,2.89,0,0,0-.68-2.06,2.49,2.49,0,0,0-1.88-.72q-2.53,0-4.56,3.1c-1.08,1.62-2,4.48-2.69,8.57l-2.4,14.17h-6.92l3.22-18.81a33.78,33.78,0,0,0,.56-4.19,2.87,2.87,0,0,0-.74-2.08,2.45,2.45,0,0,0-1.86-.76,4.89,4.89,0,0,0-3.16,1.42,9.56,9.56,0,0,0-2.58,4.15,44.11,44.11,0,0,0-1.35,6l-2.47,14.3h-6.88Z" transform="translate(-27.18 -37.5)"/><path class="cls-9" d="M204.19,383h6.56l-.56,3.19a14.56,14.56,0,0,1,3.93-3,8.63,8.63,0,0,1,3.73-.85,7.45,7.45,0,0,1,6.31,3.34q2.42,3.35,2.41,10.05,0,8.57-4.26,14.36-3.52,4.77-8.28,4.77-5,0-7.52-4.95l-2.8,16.11h-6.88Zm4.17,17.86a9.64,9.64,0,0,0,1.43,5.66,4,4,0,0,0,3.3,2,4.47,4.47,0,0,0,3-1.27,11.05,11.05,0,0,0,2.63-4.71,21.55,21.55,0,0,0,1.19-7.07,8.88,8.88,0,0,0-1.36-5.34,4,4,0,0,0-3.34-1.85,4.59,4.59,0,0,0-3,1.26,10.56,10.56,0,0,0-2.62,4.55A20.3,20.3,0,0,0,208.36,400.82Z" transform="translate(-27.18 -37.5)"/><path class="cls-9" d="M230.74,414.07l7.35-42.95H245l-7.39,42.95Z" transform="translate(-27.18 -37.5)"/><path class="cls-9" d="M251.11,383H258l-5.33,31.11h-6.89Zm2-11.84H260l-1.32,7.62h-6.88Z" transform="translate(-27.18 -37.5)"/><path class="cls-9" d="M265.67,383h6.46l-1,6c2.42-4.49,5-6.74,7.89-6.74a7.32,7.32,0,0,1,3.23.88L279.59,390a4.89,4.89,0,0,0-2-.41,5,5,0,0,0-3.06,1.08,10.75,10.75,0,0,0-3.33,4.37,45.79,45.79,0,0,0-2.28,9.25l-1.71,9.76h-6.88Z" transform="translate(-27.18 -37.5)"/><path class="cls-9" d="M301.36,383h6.92l-3.15,18.36a36.31,36.31,0,0,0-.56,4.13,3.53,3.53,0,0,0,.83,2.39,2.56,2.56,0,0,0,2,1,4.68,4.68,0,0,0,2.75-1,9.89,9.89,0,0,0,3.05-3.59,24.86,24.86,0,0,0,1.93-6.43L317.91,383h6.92l-5.77,31.11h-6.48l.77-4.22q-4.2,4.92-9.08,4.92a6,6,0,0,1-4.89-2.15,8.92,8.92,0,0,1-1.81-5.93,47.41,47.41,0,0,1,.82-6.39Z" transform="translate(-27.18 -37.5)"/><path class="cls-9" d="M333.47,383H340l-.68,4a17.7,17.7,0,0,1,4.66-3.71,9.88,9.88,0,0,1,4.37-1,6.17,6.17,0,0,1,4.91,2.14,8.68,8.68,0,0,1,1.84,5.86,47.18,47.18,0,0,1-.75,6.18l-3,17.64h-6.93l3-17.64a45.09,45.09,0,0,0,.67-4.74,3.75,3.75,0,0,0-.8-2.57,2.7,2.7,0,0,0-2.09-.89,4.75,4.75,0,0,0-2.86,1.11,10,10,0,0,0-3.12,3.77,35.94,35.94,0,0,0-2.05,8.19L335,414.07h-6.89Z" transform="translate(-27.18 -37.5)"/><path class="cls-9" d="M387.49,414.07h-5.93L376.42,383h6.76L385,396.52c.47,3.52.77,6,.88,7.33l1.53-3.46,2-4.31L395.69,383h7.44Z" transform="translate(-27.18 -37.5)"/><path class="cls-9" d="M428.32,401.12H411v.79a8,8,0,0,0,1.46,5A4.36,4.36,0,0,0,416,408.8c2.27,0,4.05-1.45,5.36-4.34l6.18,1.26a15.35,15.35,0,0,1-4.83,6.8,11,11,0,0,1-6.77,2.25,10.38,10.38,0,0,1-8.27-3.88q-3.3-3.88-3.3-10.53a21.77,21.77,0,0,1,3.75-12.64,12,12,0,0,1,10.49-5.47A9.1,9.1,0,0,1,426,385.7q2.82,3.44,2.82,9.94A28.2,28.2,0,0,1,428.32,401.12ZM422.49,396l0-.82a8.58,8.58,0,0,0-1.3-5.24,4.08,4.08,0,0,0-3.38-1.7,5,5,0,0,0-3.83,2,11.3,11.3,0,0,0-2.3,5.8Z" transform="translate(-27.18 -37.5)"/><path class="cls-9" d="M437.08,383h6.47l-1,6q3.62-6.74,7.89-6.74a7.35,7.35,0,0,1,3.23.88L451,390a4.81,4.81,0,0,0-2-.41,5,5,0,0,0-3.06,1.08,10.67,10.67,0,0,0-3.33,4.37,45.79,45.79,0,0,0-2.28,9.25l-1.71,9.76h-6.88Z" transform="translate(-27.18 -37.5)"/><path class="cls-9" d="M457.65,383h6.47l-1,6q3.62-6.74,7.89-6.74a7.32,7.32,0,0,1,3.23.88L471.57,390a4.81,4.81,0,0,0-2-.41,5,5,0,0,0-3.06,1.08,10.67,10.67,0,0,0-3.33,4.37,45.79,45.79,0,0,0-2.28,9.25l-1.71,9.76h-6.88Z" transform="translate(-27.18 -37.5)"/><path class="cls-9" d="M498.27,401.12H481v.79a7.9,7.9,0,0,0,1.47,5,4.36,4.36,0,0,0,3.51,1.88q3.4,0,5.37-4.34l6.18,1.26a15.29,15.29,0,0,1-4.84,6.8,11,11,0,0,1-6.76,2.25,10.41,10.41,0,0,1-8.28-3.88q-3.3-3.88-3.3-10.53a21.77,21.77,0,0,1,3.75-12.64,12,12,0,0,1,10.49-5.47,9.07,9.07,0,0,1,7.37,3.45q2.83,3.44,2.83,9.94A29,29,0,0,1,498.27,401.12ZM492.44,396l0-.82a8.58,8.58,0,0,0-1.31-5.24,4.06,4.06,0,0,0-3.38-1.7,5,5,0,0,0-3.82,2,11.22,11.22,0,0,0-2.3,5.8Z" transform="translate(-27.18 -37.5)"/><path class="cls-9" d="M540.42,414.07h-6.55l.62-3.39a12.35,12.35,0,0,1-3.65,3.18,8.37,8.37,0,0,1-3.88.91,7.43,7.43,0,0,1-6.23-3.25q-2.41-3.25-2.41-9.78a26.15,26.15,0,0,1,3.49-13.6q3.48-5.88,8.94-5.89,5,0,7.58,4.95l2.9-16.08h6.9ZM525,401.39a8.75,8.75,0,0,0,1.34,5.24,4,4,0,0,0,3.27,1.84,4.73,4.73,0,0,0,3.08-1.27,10.2,10.2,0,0,0,2.62-4.49,20,20,0,0,0,1.12-6.64A9.48,9.48,0,0,0,535,390.5a4.06,4.06,0,0,0-3.31-2.07,4.5,4.5,0,0,0-2.94,1.34,10.78,10.78,0,0,0-2.62,4.65A21.83,21.83,0,0,0,525,401.39Z" transform="translate(-27.18 -37.5)"/><path class="cls-9" d="M556,371.12h7l-1.14,6.69q-1,5.88-3.21,8.27a7.59,7.59,0,0,1-5.61,2.47l.67-3.89a5,5,0,0,0,2.66-1.66,8.8,8.8,0,0,0,1.46-3.76h-3.18Z" transform="translate(-27.18 -37.5)"/><path class="cls-9" d="M588.81,401.12H571.5v.79a8,8,0,0,0,1.46,5,4.36,4.36,0,0,0,3.52,1.88c2.27,0,4-1.45,5.36-4.34l6.18,1.26a15.35,15.35,0,0,1-4.83,6.8,11,11,0,0,1-6.77,2.25,10.38,10.38,0,0,1-8.27-3.88q-3.3-3.88-3.3-10.53a21.77,21.77,0,0,1,3.75-12.64,12,12,0,0,1,10.49-5.47,9.08,9.08,0,0,1,7.37,3.45q2.82,3.44,2.82,9.94A28.2,28.2,0,0,1,588.81,401.12ZM583,396l0-.82a8.58,8.58,0,0,0-1.3-5.24,4.08,4.08,0,0,0-3.38-1.7,5,5,0,0,0-3.83,2,11.3,11.3,0,0,0-2.3,5.8Z" transform="translate(-27.18 -37.5)"/><path class="cls-9" d="M602.53,391.77l-6.74-.7a12,12,0,0,1,4.19-6.56,12.21,12.21,0,0,1,7.56-2.26q4.66,0,7.18,2.31a7.94,7.94,0,0,1,2.51,6.13,18.26,18.26,0,0,1-.24,2.85c-.16,1-.74,3.77-1.76,8.28A41.15,41.15,0,0,0,614,409.6a16.35,16.35,0,0,0,.69,4.47h-6.88a18.65,18.65,0,0,1-.51-3.54,10.54,10.54,0,0,1-3.37,3.15,7.57,7.57,0,0,1-3.8,1.09,6.27,6.27,0,0,1-5-2.46,10,10,0,0,1-2-6.56q0-4.72,2.4-7.27t8-3.07a26.93,26.93,0,0,0,6.59-1.2,10.23,10.23,0,0,0,.55-2.85,2.9,2.9,0,0,0-1-2.27,3.82,3.82,0,0,0-2.63-.86A4.11,4.11,0,0,0,602.53,391.77Zm6.34,7.8a13.89,13.89,0,0,1-1.63.38c-3.15.46-5.22,1.09-6.23,1.88a3.84,3.84,0,0,0-1.5,3.17,3.68,3.68,0,0,0,.85,2.51,2.77,2.77,0,0,0,2.17,1,4.73,4.73,0,0,0,2.62-.8,5.65,5.65,0,0,0,2-2.25,19.4,19.4,0,0,0,1.45-4.74Z" transform="translate(-27.18 -37.5)"/><path class="cls-9" d="M626.38,383h6.92l-3.15,18.36a36.31,36.31,0,0,0-.56,4.13,3.53,3.53,0,0,0,.83,2.39,2.56,2.56,0,0,0,2,1,4.68,4.68,0,0,0,2.75-1,9.89,9.89,0,0,0,3-3.59,25.26,25.26,0,0,0,1.93-6.43L642.93,383h6.92l-5.77,31.11H637.6l.77-4.22q-4.2,4.92-9.08,4.92a6,6,0,0,1-4.89-2.15,8.93,8.93,0,0,1-1.82-5.93,48,48,0,0,1,.83-6.39Z" transform="translate(-27.18 -37.5)"/><path class="cls-9" d="M29.7,474.85l6.59-1a9.64,9.64,0,0,0,1.5,4.75A3.53,3.53,0,0,0,40.66,480a4.85,4.85,0,0,0,3.84-1.89,7.52,7.52,0,0,0,1.58-5,6.24,6.24,0,0,0-1.3-4.26,4.23,4.23,0,0,0-3.35-1.48,5.42,5.42,0,0,0-1.09.12l1.2-7,.7.06a5.27,5.27,0,0,0,4.16-1.65,6.86,6.86,0,0,0,1.47-4.7,5,5,0,0,0-1-3.32,3.14,3.14,0,0,0-2.51-1.17c-2.16,0-3.66,2-4.52,5.89l-6.3-1.52a17.46,17.46,0,0,1,3.72-7.71,10.06,10.06,0,0,1,7.62-3.4A9.16,9.16,0,0,1,52,446a11.69,11.69,0,0,1,2.74,8.16,11.4,11.4,0,0,1-1.65,6.12,9.73,9.73,0,0,1-4.38,3.87,9.14,9.14,0,0,1,3.22,3.56,10.66,10.66,0,0,1,1.14,5A15,15,0,0,1,50,481.88a11.32,11.32,0,0,1-9.38,4.92,9.68,9.68,0,0,1-7.26-3Q30.37,480.74,29.7,474.85Z" transform="translate(-27.18 -37.5)"/><path class="cls-9" d="M59.56,478h6.8L65,486.07h-6.8Z" transform="translate(-27.18 -37.5)"/><path class="cls-9" d="M108.7,486.07h-6.9l-1.26-35.89L95,486.07H88.43l7.34-42.95H106.1l1.09,30.09,11.88-30.09h10.42l-7.23,42.95h-6.62l6.84-35.63Z" transform="translate(-27.18 -37.5)"/><path class="cls-9" d="M155.46,473.12H138.15v.79a8,8,0,0,0,1.46,5,4.36,4.36,0,0,0,3.52,1.88q3.39,0,5.36-4.34l6.18,1.26a15.35,15.35,0,0,1-4.83,6.8,11,11,0,0,1-6.77,2.25,10.41,10.41,0,0,1-8.28-3.88q-3.28-3.88-3.29-10.53a21.77,21.77,0,0,1,3.75-12.64,12,12,0,0,1,10.49-5.47,9.06,9.06,0,0,1,7.36,3.45q2.84,3.44,2.83,9.94A29,29,0,0,1,155.46,473.12ZM149.63,468l0-.82a8.58,8.58,0,0,0-1.3-5.24,4.09,4.09,0,0,0-3.39-1.7,5,5,0,0,0-3.82,2,11.3,11.3,0,0,0-2.3,5.8Z" transform="translate(-27.18 -37.5)"/><path class="cls-9" d="M160.83,461.2,162,455h3.56l.87-5,8-5.88-2,10.86h4.36l-1.06,6.24h-4.43l-2.41,13c-.42,2.34-.63,3.7-.63,4.07a2,2,0,0,0,.56,1.56,2.83,2.83,0,0,0,1.92.51c.29,0,1.08-.07,2.38-.21L172,486.36a16.43,16.43,0,0,1-3.69.41c-2.41,0-4.2-.54-5.39-1.64a6.19,6.19,0,0,1-1.79-4.8,49.17,49.17,0,0,1,.94-6.62l2.29-12.51Z" transform="translate(-27.18 -37.5)"/><path class="cls-9" d="M178.65,461.2l1.11-6.24h3.57l.87-5,8-5.88-2,10.86h4.35l-1.06,6.24h-4.42l-2.41,13c-.42,2.34-.63,3.7-.63,4.07a2,2,0,0,0,.56,1.56,2.83,2.83,0,0,0,1.92.51c.29,0,1.08-.07,2.38-.21l-1.15,6.24a16.43,16.43,0,0,1-3.69.41c-2.4,0-4.19-.54-5.39-1.64a6.18,6.18,0,0,1-1.78-4.8,49.17,49.17,0,0,1,.94-6.62l2.29-12.51Z" transform="translate(-27.18 -37.5)"/><path class="cls-9" d="M199.86,455h6.46l-1,6q3.63-6.74,7.89-6.74a7.32,7.32,0,0,1,3.23.88L213.78,462a4.89,4.89,0,0,0-2-.41,5,5,0,0,0-3.06,1.08,10.75,10.75,0,0,0-3.33,4.37,45.79,45.79,0,0,0-2.28,9.25l-1.71,9.76h-6.88Z" transform="translate(-27.18 -37.5)"/><path class="cls-9" d="M240.47,473.12H223.16v.79a7.9,7.9,0,0,0,1.46,5,4.36,4.36,0,0,0,3.52,1.88q3.39,0,5.36-4.34l6.18,1.26a15.35,15.35,0,0,1-4.83,6.8,11.07,11.07,0,0,1-6.77,2.25,10.41,10.41,0,0,1-8.28-3.88q-3.3-3.88-3.29-10.53a21.77,21.77,0,0,1,3.75-12.64,12,12,0,0,1,10.48-5.47,9.07,9.07,0,0,1,7.37,3.45q2.83,3.44,2.83,9.94A29,29,0,0,1,240.47,473.12ZM234.64,468l0-.82a8.65,8.65,0,0,0-1.3-5.24,4.09,4.09,0,0,0-3.39-1.7,5,5,0,0,0-3.82,2,11.3,11.3,0,0,0-2.3,5.8Z" transform="translate(-27.18 -37.5)"/><path class="cls-9" d="M259.67,486.07,267,443.12h6.92l-7.39,42.95Z" transform="translate(-27.18 -37.5)"/><path class="cls-9" d="M299.52,473.12H282.2v.79a7.9,7.9,0,0,0,1.47,5,4.34,4.34,0,0,0,3.51,1.88q3.4,0,5.36-4.34l6.19,1.26a15.44,15.44,0,0,1-4.84,6.8,11,11,0,0,1-6.77,2.25,10.39,10.39,0,0,1-8.27-3.88q-3.3-3.88-3.3-10.53a21.77,21.77,0,0,1,3.75-12.64,12,12,0,0,1,10.49-5.47,9.08,9.08,0,0,1,7.37,3.45q2.82,3.44,2.83,9.94A29,29,0,0,1,299.52,473.12ZM293.69,468l0-.82a8.58,8.58,0,0,0-1.31-5.24,4.07,4.07,0,0,0-3.38-1.7,5,5,0,0,0-3.82,2,11.22,11.22,0,0,0-2.3,5.8Z" transform="translate(-27.18 -37.5)"/><path class="cls-9" d="M335.91,474.35l6.68,1.35a17,17,0,0,1-4.93,8.31,11.25,11.25,0,0,1-7.46,2.76,9.61,9.61,0,0,1-7.68-3.45q-2.92-3.46-2.93-9.82a24.89,24.89,0,0,1,2-10.18,15.58,15.58,0,0,1,5.36-6.77,12.67,12.67,0,0,1,7.23-2.3,9.65,9.65,0,0,1,7.11,2.76,11.48,11.48,0,0,1,3.14,7.64l-6.56.85c-.32-3.38-1.68-5.07-4.11-5.07a5,5,0,0,0-3.28,1.38,11.32,11.32,0,0,0-2.82,4.92,23.79,23.79,0,0,0-1.22,7.74,7,7,0,0,0,1.13,4.26,3.31,3.31,0,0,0,2.71,1.48,4.71,4.71,0,0,0,3.21-1.42A9.79,9.79,0,0,0,335.91,474.35Z" transform="translate(-27.18 -37.5)"/><path class="cls-9" d="M354.37,486.07h-6.88l7.35-42.95h6.92l-2.63,15.29a17,17,0,0,1,4.48-3.25,10.17,10.17,0,0,1,4.19-.91,6.14,6.14,0,0,1,4.85,2.11,8.52,8.52,0,0,1,1.85,5.8,38.25,38.25,0,0,1-.67,5.72l-3.14,18.19h-6.88L367,467.52a32.93,32.93,0,0,0,.5-3.86,3.59,3.59,0,0,0-.82-2.52,2.74,2.74,0,0,0-2.14-.91,4.79,4.79,0,0,0-3.29,1.44,12,12,0,0,0-3.2,4.83,50.37,50.37,0,0,0-1.55,7.23Z" transform="translate(-27.18 -37.5)"/><path class="cls-9" d="M403.74,473.12H386.43v.79a8,8,0,0,0,1.46,5,4.36,4.36,0,0,0,3.52,1.88c2.27,0,4-1.45,5.36-4.34l6.18,1.26a15.35,15.35,0,0,1-4.83,6.8,11,11,0,0,1-6.77,2.25,10.41,10.41,0,0,1-8.28-3.88q-3.29-3.88-3.29-10.53a21.77,21.77,0,0,1,3.75-12.64A12,12,0,0,1,394,454.25a9.1,9.1,0,0,1,7.37,3.45q2.82,3.44,2.82,9.94A28.2,28.2,0,0,1,403.74,473.12ZM397.91,468l0-.82a8.58,8.58,0,0,0-1.3-5.24,4.08,4.08,0,0,0-3.38-1.7,5,5,0,0,0-3.83,2,11.3,11.3,0,0,0-2.3,5.8Z" transform="translate(-27.18 -37.5)"/><path class="cls-9" d="M420.52,486.07h-5.94L409.44,455h6.77L418,468.52q.71,5.28.88,7.33l1.52-3.46,2-4.31L428.72,455h7.44Z" transform="translate(-27.18 -37.5)"/><path class="cls-9" d="M461.35,473.12H444v.79a7.9,7.9,0,0,0,1.46,5A4.36,4.36,0,0,0,449,480.8q3.39,0,5.36-4.34l6.18,1.26a15.35,15.35,0,0,1-4.83,6.8,11.07,11.07,0,0,1-6.77,2.25,10.41,10.41,0,0,1-8.28-3.88q-3.3-3.88-3.29-10.53a21.77,21.77,0,0,1,3.75-12.64,12,12,0,0,1,10.48-5.47A9.07,9.07,0,0,1,459,457.7q2.83,3.44,2.83,9.94A29,29,0,0,1,461.35,473.12ZM455.52,468l0-.82a8.65,8.65,0,0,0-1.3-5.24,4.09,4.09,0,0,0-3.39-1.7,5,5,0,0,0-3.82,2,11.3,11.3,0,0,0-2.3,5.8Z" transform="translate(-27.18 -37.5)"/><path class="cls-9" d="M470.11,455H477l-3.15,18.36a35.31,35.31,0,0,0-.55,4.13,3.52,3.52,0,0,0,.82,2.39,2.58,2.58,0,0,0,2,1,4.66,4.66,0,0,0,2.75-1,9.89,9.89,0,0,0,3.05-3.59,24.86,24.86,0,0,0,1.93-6.43L486.66,455h6.93l-5.78,31.11h-6.47l.77-4.22q-4.22,4.92-9.09,4.92a6,6,0,0,1-4.89-2.15,8.92,8.92,0,0,1-1.81-5.93,47.41,47.41,0,0,1,.82-6.39Z" transform="translate(-27.18 -37.5)"/><path class="cls-9" d="M521.69,463.77l-6.74-.7a11.9,11.9,0,0,1,4.19-6.56,12.21,12.21,0,0,1,7.56-2.26q4.66,0,7.17,2.31a7.9,7.9,0,0,1,2.51,6.13,19.49,19.49,0,0,1-.23,2.85q-.24,1.51-1.77,8.28a42,42,0,0,0-1.27,7.78,16.35,16.35,0,0,0,.69,4.47h-6.87a18.65,18.65,0,0,1-.51-3.54,10.54,10.54,0,0,1-3.37,3.15,7.57,7.57,0,0,1-3.8,1.09,6.27,6.27,0,0,1-5-2.46,10,10,0,0,1-2-6.56q0-4.72,2.41-7.27t8-3.07a27,27,0,0,0,6.6-1.2,10.52,10.52,0,0,0,.54-2.85,2.92,2.92,0,0,0-1-2.27,3.82,3.82,0,0,0-2.63-.86A4.11,4.11,0,0,0,521.69,463.77Zm6.33,7.8a13.42,13.42,0,0,1-1.63.38c-3.14.46-5.22,1.09-6.22,1.88a3.84,3.84,0,0,0-1.5,3.17,3.64,3.64,0,0,0,.85,2.51,2.77,2.77,0,0,0,2.16,1,4.76,4.76,0,0,0,2.63-.8,5.65,5.65,0,0,0,2-2.25,19.86,19.86,0,0,0,1.45-4.74Z" transform="translate(-27.18 -37.5)"/><path class="cls-9" d="M545.53,455h6.93l-3.16,18.36a35.31,35.31,0,0,0-.55,4.13,3.48,3.48,0,0,0,.83,2.39,2.56,2.56,0,0,0,2,1,4.68,4.68,0,0,0,2.76-1,9.86,9.86,0,0,0,3-3.59,24.81,24.81,0,0,0,1.94-6.43L562.09,455H569l-5.77,31.11h-6.48l.77-4.22q-4.21,4.92-9.08,4.92a6.06,6.06,0,0,1-4.9-2.15,9,9,0,0,1-1.81-5.93,49.19,49.19,0,0,1,.82-6.39Z" transform="translate(-27.18 -37.5)"/><path class="cls-9" d="M605.14,455l-1.06,6.15h-4.89l-4.28,25H588l4.27-25h-3.83l1-6.15h3.84l.54-3.2a22,22,0,0,1,1.6-6,6.14,6.14,0,0,1,2.48-2.52,7.84,7.84,0,0,1,3.84-.89,18.27,18.27,0,0,1,6.72,1.4l-1.32,6a11.48,11.48,0,0,0-4.05-1,2,2,0,0,0-1.62.74,8.87,8.87,0,0,0-.93,3.25l-.38,2.2Z" transform="translate(-27.18 -37.5)"/><path class="cls-9" d="M606.23,473.15a23.55,23.55,0,0,1,3.45-13,12.47,12.47,0,0,1,11.11-5.89,11,11,0,0,1,8.68,3.69c2.16,2.47,3.24,5.89,3.24,10.29a21.37,21.37,0,0,1-4,13.14,12.53,12.53,0,0,1-10.53,5.4,11,11,0,0,1-8.61-3.66Q606.23,479.45,606.23,473.15Zm19.65-6a7.35,7.35,0,0,0-1.45-4.83,4.59,4.59,0,0,0-3.69-1.76,5.61,5.61,0,0,0-3.52,1.29,10.35,10.35,0,0,0-2.88,4.48,18.29,18.29,0,0,0-1.23,6.62,8.57,8.57,0,0,0,1.51,5.42,4.6,4.6,0,0,0,3.75,1.94q2.82,0,4.78-3A17.94,17.94,0,0,0,625.88,467.14Z" transform="translate(-27.18 -37.5)"/><path class="cls-9" d="M642.08,455h6.56l-.67,4a17.39,17.39,0,0,1,4.66-3.71,9.81,9.81,0,0,1,4.36-1,6.16,6.16,0,0,1,4.91,2.14,8.68,8.68,0,0,1,1.84,5.86,47.18,47.18,0,0,1-.75,6.18l-3,17.64h-6.92l3-17.64a45.09,45.09,0,0,0,.67-4.74,3.75,3.75,0,0,0-.8-2.57,2.7,2.7,0,0,0-2.09-.89,4.77,4.77,0,0,0-2.86,1.11,10,10,0,0,0-3.12,3.77,36.49,36.49,0,0,0-2,8.19l-2.21,12.77h-6.88Z" transform="translate(-27.18 -37.5)"/><path class="cls-9" d="M691.23,486.07h-6.54l.62-3.39a12.25,12.25,0,0,1-3.66,3.18,8.31,8.31,0,0,1-3.88.91,7.43,7.43,0,0,1-6.22-3.25q-2.41-3.25-2.42-9.78a26.24,26.24,0,0,1,3.49-13.6q3.5-5.88,9-5.89,5,0,7.58,4.95L692,443.12h6.9Zm-15.39-12.68a8.74,8.74,0,0,0,1.35,5.24,3.93,3.93,0,0,0,3.27,1.84,4.73,4.73,0,0,0,3.08-1.27,10.3,10.3,0,0,0,2.62-4.49,20.21,20.21,0,0,0,1.12-6.64,9.56,9.56,0,0,0-1.45-5.57,4.06,4.06,0,0,0-3.31-2.07,4.5,4.5,0,0,0-2.94,1.34,10.78,10.78,0,0,0-2.62,4.65A21.84,21.84,0,0,0,675.84,473.39Z" transform="translate(-27.18 -37.5)"/><path class="cls-9" d="M737.85,486.07h-6.54l.62-3.39a12.25,12.25,0,0,1-3.66,3.18,8.31,8.31,0,0,1-3.88.91,7.43,7.43,0,0,1-6.22-3.25q-2.42-3.25-2.42-9.78a26.24,26.24,0,0,1,3.49-13.6q3.5-5.88,9-5.89,5,0,7.58,4.95l2.89-16.08h6.9Zm-15.39-12.68a8.74,8.74,0,0,0,1.35,5.24,3.93,3.93,0,0,0,3.27,1.84,4.73,4.73,0,0,0,3.08-1.27,10.3,10.3,0,0,0,2.62-4.49,20.21,20.21,0,0,0,1.12-6.64,9.56,9.56,0,0,0-1.45-5.57,4.06,4.06,0,0,0-3.31-2.07,4.5,4.5,0,0,0-2.94,1.34,10.78,10.78,0,0,0-2.62,4.65A21.84,21.84,0,0,0,722.46,473.39Z" transform="translate(-27.18 -37.5)"/><path class="cls-9" d="M751.09,455H758l-3.15,18.36a36.31,36.31,0,0,0-.56,4.13,3.53,3.53,0,0,0,.83,2.39,2.56,2.56,0,0,0,2,1,4.68,4.68,0,0,0,2.75-1,9.89,9.89,0,0,0,3.05-3.59,25.26,25.26,0,0,0,1.93-6.43L767.64,455h6.92l-5.77,31.11h-6.48l.77-4.22q-4.2,4.92-9.08,4.92a6,6,0,0,1-4.89-2.15,8.93,8.93,0,0,1-1.82-5.93,48,48,0,0,1,.83-6.39Z" transform="translate(-27.18 -37.5)"/><path class="cls-9" d="M805.72,486.07h-5.93L794.65,455h6.76l1.82,13.56c.47,3.52.77,6,.88,7.33l1.53-3.46,2-4.31L813.92,455h7.44Z" transform="translate(-27.18 -37.5)"/><path class="cls-9" d="M846.55,473.12H829.24v.79a8,8,0,0,0,1.46,5,4.36,4.36,0,0,0,3.52,1.88c2.27,0,4-1.45,5.36-4.34l6.18,1.26a15.35,15.35,0,0,1-4.83,6.8,11,11,0,0,1-6.77,2.25,10.38,10.38,0,0,1-8.27-3.88q-3.3-3.88-3.3-10.53a21.77,21.77,0,0,1,3.75-12.64,12,12,0,0,1,10.49-5.47,9.1,9.1,0,0,1,7.37,3.45q2.82,3.44,2.82,9.94A28.2,28.2,0,0,1,846.55,473.12ZM840.72,468l0-.82a8.58,8.58,0,0,0-1.3-5.24,4.08,4.08,0,0,0-3.38-1.7,5,5,0,0,0-3.83,2,11.3,11.3,0,0,0-2.3,5.8Z" transform="translate(-27.18 -37.5)"/><path class="cls-9" d="M855.31,455h6.47l-1,6q3.62-6.74,7.89-6.74a7.35,7.35,0,0,1,3.23.88L869.23,462a4.81,4.81,0,0,0-2-.41,5,5,0,0,0-3.06,1.08,10.67,10.67,0,0,0-3.33,4.37,45.79,45.79,0,0,0-2.28,9.25l-1.71,9.76H850Z" transform="translate(-27.18 -37.5)"/><path class="cls-9" d="M875.88,455h6.47l-1,6q3.61-6.74,7.89-6.74a7.32,7.32,0,0,1,3.23.88L889.8,462a4.81,4.81,0,0,0-2-.41,5,5,0,0,0-3.06,1.08,10.67,10.67,0,0,0-3.33,4.37,45.79,45.79,0,0,0-2.28,9.25l-1.71,9.76h-6.88Z" transform="translate(-27.18 -37.5)"/><path class="cls-9" d="M916.5,473.12H899.18v.79a7.9,7.9,0,0,0,1.47,5,4.36,4.36,0,0,0,3.51,1.88q3.4,0,5.37-4.34l6.18,1.26a15.29,15.29,0,0,1-4.84,6.8,11,11,0,0,1-6.76,2.25,10.41,10.41,0,0,1-8.28-3.88q-3.3-3.88-3.3-10.53a21.77,21.77,0,0,1,3.75-12.64,12,12,0,0,1,10.49-5.47,9.07,9.07,0,0,1,7.37,3.45q2.83,3.44,2.83,9.94A29,29,0,0,1,916.5,473.12ZM910.67,468l0-.82a8.58,8.58,0,0,0-1.31-5.24,4.06,4.06,0,0,0-3.38-1.7,5,5,0,0,0-3.82,2,11.22,11.22,0,0,0-2.3,5.8Z" transform="translate(-27.18 -37.5)"/><path class="cls-9" d="M42.37,549.31H28.53l1.21-7L48.8,515.12h5.93l-4.63,27h4.27l-1.23,7.15H48.87l-1.5,8.76h-6.5Zm1.23-7.15,2.3-13.39-9.28,13.39Z" transform="translate(-27.18 -37.5)"/><path class="cls-9" d="M59.56,550h6.8L65,558.07h-6.8Z" transform="translate(-27.18 -37.5)"/><path class="cls-9" d="M113.77,542.6l7.29,1.32q-2.19,7.46-6.49,11.17a14.75,14.75,0,0,1-9.94,3.71,12.19,12.19,0,0,1-10-4.62q-3.7-4.63-3.7-13.88a34.15,34.15,0,0,1,2.69-14,21.25,21.25,0,0,1,6.87-9,15.41,15.41,0,0,1,9-2.94,12.48,12.48,0,0,1,9.13,3.6q3.64,3.6,4.29,10.31l-6.94.82c-.41-2.59-1.17-4.43-2.29-5.5a5.93,5.93,0,0,0-4.32-1.61,8.4,8.4,0,0,0-5.24,2,14.91,14.91,0,0,0-4.29,6.58,28.31,28.31,0,0,0-1.76,10.15c0,3.45.68,6.11,2,7.95a6,6,0,0,0,5,2.77,7.48,7.48,0,0,0,5.15-2.18A13.48,13.48,0,0,0,113.77,542.6Z" transform="translate(-27.18 -37.5)"/><path class="cls-9" d="M126.19,545.15a23.55,23.55,0,0,1,3.46-13,12.47,12.47,0,0,1,11.11-5.89,11,11,0,0,1,8.68,3.69c2.16,2.47,3.24,5.89,3.24,10.29a21.37,21.37,0,0,1-4,13.14,12.54,12.54,0,0,1-10.53,5.4,11,11,0,0,1-8.61-3.66Q126.2,551.45,126.19,545.15Zm19.66-6a7.35,7.35,0,0,0-1.45-4.83,4.59,4.59,0,0,0-3.69-1.76,5.61,5.61,0,0,0-3.52,1.29,10.26,10.26,0,0,0-2.88,4.48,18.29,18.29,0,0,0-1.23,6.62,8.57,8.57,0,0,0,1.51,5.42,4.6,4.6,0,0,0,3.75,1.94c1.87,0,3.47-1,4.78-3A17.94,17.94,0,0,0,145.85,539.14Z" transform="translate(-27.18 -37.5)"/><path class="cls-9" d="M161.44,527H168l-.68,3.78q3.87-4.49,8.1-4.49,5.66,0,6.54,5.48a11.17,11.17,0,0,1,3.91-3.94,9.68,9.68,0,0,1,5.08-1.54,6.21,6.21,0,0,1,4.8,1.93,7.59,7.59,0,0,1,1.77,5.35,39.56,39.56,0,0,1-.67,5.54l-3.26,19h-6.92l3.25-19c.41-2.39.62-3.73.62-4a2.85,2.85,0,0,0-.69-2.06,2.47,2.47,0,0,0-1.88-.72q-2.53,0-4.56,3.1c-1.07,1.62-2,4.48-2.68,8.57l-2.4,14.17h-6.92l3.22-18.81a33,33,0,0,0,.55-4.19,2.87,2.87,0,0,0-.73-2.08,2.47,2.47,0,0,0-1.87-.76,4.85,4.85,0,0,0-3.15,1.42,9.57,9.57,0,0,0-2.59,4.15,43,43,0,0,0-1.34,6L163,558.07h-6.89Z" transform="translate(-27.18 -37.5)"/><path class="cls-9" d="M206.88,527h6.56l-.56,3.19a14.87,14.87,0,0,1,3.93-3,8.67,8.67,0,0,1,3.74-.85,7.46,7.46,0,0,1,6.31,3.34q2.41,3.35,2.41,10,0,8.57-4.27,14.36-3.51,4.77-8.27,4.77-5,0-7.53-4.95l-2.79,16.11h-6.89Zm4.18,17.86a9.64,9.64,0,0,0,1.42,5.66,4,4,0,0,0,3.3,2,4.49,4.49,0,0,0,3-1.27,11.27,11.27,0,0,0,2.63-4.71,21.54,21.54,0,0,0,1.18-7.07,9,9,0,0,0-1.35-5.34,4,4,0,0,0-3.35-1.85,4.63,4.63,0,0,0-3,1.26,10.66,10.66,0,0,0-2.62,4.55A20.29,20.29,0,0,0,211.06,544.82Z" transform="translate(-27.18 -37.5)"/><path class="cls-9" d="M243.07,535.77l-6.73-.7a11.9,11.9,0,0,1,4.19-6.56,12.21,12.21,0,0,1,7.56-2.26q4.66,0,7.17,2.31a7.94,7.94,0,0,1,2.51,6.13,18.26,18.26,0,0,1-.24,2.85q-.22,1.51-1.76,8.28a41.15,41.15,0,0,0-1.27,7.78,16.35,16.35,0,0,0,.69,4.47h-6.87a18.65,18.65,0,0,1-.51-3.54,10.57,10.57,0,0,1-3.38,3.15,7.54,7.54,0,0,1-3.79,1.09,6.28,6.28,0,0,1-5-2.46,10,10,0,0,1-2-6.56q0-4.72,2.4-7.27c1.59-1.7,4.24-2.72,8-3.07a26.93,26.93,0,0,0,6.59-1.2,10.23,10.23,0,0,0,.55-2.85,2.92,2.92,0,0,0-1-2.27,3.84,3.84,0,0,0-2.63-.86A4.12,4.12,0,0,0,243.07,535.77Zm6.34,7.8a13.89,13.89,0,0,1-1.63.38q-4.72.69-6.22,1.88a3.84,3.84,0,0,0-1.5,3.17,3.64,3.64,0,0,0,.85,2.51,2.77,2.77,0,0,0,2.16,1,4.76,4.76,0,0,0,2.63-.8,5.65,5.65,0,0,0,2-2.25,20.34,20.34,0,0,0,1.45-4.74Z" transform="translate(-27.18 -37.5)"/><path class="cls-9" d="M266.92,527h6.47l-1,6q3.61-6.74,7.89-6.74a7.39,7.39,0,0,1,3.23.88L280.84,534a4.83,4.83,0,0,0-2-.41,5,5,0,0,0-3.06,1.08,10.73,10.73,0,0,0-3.32,4.37,46.33,46.33,0,0,0-2.29,9.25l-1.7,9.76h-6.89Z" transform="translate(-27.18 -37.5)"/><path class="cls-9" d="M307.54,545.12H290.22v.79a7.9,7.9,0,0,0,1.47,5,4.33,4.33,0,0,0,3.51,1.88c2.27,0,4.05-1.45,5.36-4.34l6.18,1.26a15.35,15.35,0,0,1-4.83,6.8,11,11,0,0,1-6.77,2.25,10.38,10.38,0,0,1-8.27-3.88q-3.3-3.89-3.3-10.53a21.77,21.77,0,0,1,3.75-12.64,12,12,0,0,1,10.49-5.47,9.08,9.08,0,0,1,7.37,3.45q2.82,3.43,2.82,9.94A29.06,29.06,0,0,1,307.54,545.12ZM301.71,540l0-.82a8.58,8.58,0,0,0-1.3-5.24,4.08,4.08,0,0,0-3.38-1.7,5,5,0,0,0-3.83,2,11.3,11.3,0,0,0-2.3,5.8Z" transform="translate(-27.18 -37.5)"/><path class="cls-9" d="M316.29,527h6.47l-1,6c2.42-4.49,5-6.74,7.89-6.74a7.32,7.32,0,0,1,3.23.88L330.22,534a4.89,4.89,0,0,0-2-.41,5,5,0,0,0-3.06,1.08,10.75,10.75,0,0,0-3.33,4.37,45.79,45.79,0,0,0-2.28,9.25l-1.71,9.76H311Z" transform="translate(-27.18 -37.5)"/><path class="cls-9" d="M347.3,558.07l7.36-43h6.91l-7.38,43Z" transform="translate(-27.18 -37.5)"/><path class="cls-9" d="M387.15,545.12H369.84v.79a8,8,0,0,0,1.46,5,4.36,4.36,0,0,0,3.52,1.88q3.39,0,5.36-4.34l6.18,1.26a15.35,15.35,0,0,1-4.83,6.8,11,11,0,0,1-6.77,2.25,10.41,10.41,0,0,1-8.28-3.88q-3.28-3.89-3.29-10.53a21.77,21.77,0,0,1,3.75-12.64,12,12,0,0,1,10.49-5.47,9.06,9.06,0,0,1,7.36,3.45q2.83,3.43,2.83,9.94A28.2,28.2,0,0,1,387.15,545.12ZM381.32,540l0-.82a8.58,8.58,0,0,0-1.3-5.24,4.09,4.09,0,0,0-3.39-1.7,5,5,0,0,0-3.82,2,11.3,11.3,0,0,0-2.3,5.8Z" transform="translate(-27.18 -37.5)"/><path class="cls-9" d="M411,527h6.47l-1,6q3.61-6.74,7.89-6.74a7.32,7.32,0,0,1,3.23.88L425,534a4.81,4.81,0,0,0-2-.41,5,5,0,0,0-3.06,1.08,10.67,10.67,0,0,0-3.33,4.37,45.79,45.79,0,0,0-2.28,9.25l-1.71,9.76h-6.88Z" transform="translate(-27.18 -37.5)"/><path class="cls-9" d="M451.65,545.12H434.33v.79a7.9,7.9,0,0,0,1.47,5,4.36,4.36,0,0,0,3.51,1.88q3.4,0,5.37-4.34l6.18,1.26a15.36,15.36,0,0,1-4.84,6.8,11,11,0,0,1-6.76,2.25,10.41,10.41,0,0,1-8.28-3.88q-3.3-3.89-3.3-10.53a21.77,21.77,0,0,1,3.75-12.64,12,12,0,0,1,10.49-5.47,9.07,9.07,0,0,1,7.37,3.45q2.83,3.43,2.83,9.94A29,29,0,0,1,451.65,545.12ZM445.82,540l0-.82a8.58,8.58,0,0,0-1.31-5.24,4.06,4.06,0,0,0-3.38-1.7,5,5,0,0,0-3.82,2A11.22,11.22,0,0,0,435,540Zm-3.14-25.75h7.39L442.24,523h-4.57Z" transform="translate(-27.18 -37.5)"/><path class="cls-9" d="M454.73,549.37l6.68-1.29a7.53,7.53,0,0,0,2.23,3.68,5.69,5.69,0,0,0,3.57,1,5.5,5.5,0,0,0,3.46-1,3,3,0,0,0,1.32-2.4,2.33,2.33,0,0,0-.56-1.58,9,9,0,0,0-2.81-1.5c-4.13-1.66-6.68-3-7.68-3.92a8.08,8.08,0,0,1-2.37-6,9.35,9.35,0,0,1,3.1-7.23q3.1-2.85,8.5-2.85,9.13,0,10.6,8.12l-6.35,1.35c-.75-2.46-2.52-3.7-5.34-3.7a4.72,4.72,0,0,0-3,.83,2.53,2.53,0,0,0-1,2.08,2.36,2.36,0,0,0,.79,1.78,16.08,16.08,0,0,0,4.05,1.79c3.3,1.17,5.51,2.32,6.65,3.43a8,8,0,0,1,2.49,5.92,10.46,10.46,0,0,1-3.2,7.82,11.62,11.62,0,0,1-8.46,3.1Q457,558.77,454.73,549.37Z" transform="translate(-27.18 -37.5)"/><path class="cls-9" d="M489.21,527h6.93L493,545.32a35.31,35.31,0,0,0-.55,4.13,3.52,3.52,0,0,0,.82,2.39,2.58,2.58,0,0,0,2,1,4.63,4.63,0,0,0,2.75-1,9.79,9.79,0,0,0,3.05-3.59,24.86,24.86,0,0,0,1.93-6.43L505.76,527h6.93l-5.77,31.11h-6.48l.77-4.22q-4.21,4.92-9.09,4.92a6,6,0,0,1-4.89-2.15,8.92,8.92,0,0,1-1.81-5.93,47.41,47.41,0,0,1,.82-6.39Z" transform="translate(-27.18 -37.5)"/><path class="cls-9" d="M516,558.07l7.35-43h6.92l-7.39,43Z" transform="translate(-27.18 -37.5)"/><path class="cls-9" d="M532.44,533.2l1.12-6.24h3.56l.87-5,8-5.88-2,10.86h4.35l-1,6.24h-4.43l-2.41,13c-.42,2.34-.63,3.7-.63,4.07a2,2,0,0,0,.56,1.56,2.83,2.83,0,0,0,1.92.51c.29,0,1.08-.07,2.38-.21l-1.14,6.24a16.43,16.43,0,0,1-3.69.41c-2.41,0-4.2-.54-5.39-1.64a6.19,6.19,0,0,1-1.79-4.8,49.17,49.17,0,0,1,.94-6.62L536,533.2Z" transform="translate(-27.18 -37.5)"/><path class="cls-9" d="M558.6,535.77l-6.73-.7a11.9,11.9,0,0,1,4.19-6.56,12.21,12.21,0,0,1,7.56-2.26q4.67,0,7.17,2.31a7.9,7.9,0,0,1,2.51,6.13,19.49,19.49,0,0,1-.23,2.85q-.24,1.51-1.77,8.28A42,42,0,0,0,570,553.6a16.35,16.35,0,0,0,.69,4.47h-6.87a18.65,18.65,0,0,1-.51-3.54,10.57,10.57,0,0,1-3.38,3.15,7.54,7.54,0,0,1-3.79,1.09,6.28,6.28,0,0,1-5-2.46,10,10,0,0,1-2-6.56q0-4.72,2.4-7.27c1.59-1.7,4.24-2.72,8-3.07a26.93,26.93,0,0,0,6.59-1.2,10.23,10.23,0,0,0,.55-2.85,2.92,2.92,0,0,0-1-2.27,3.84,3.84,0,0,0-2.63-.86A4.12,4.12,0,0,0,558.6,535.77Zm6.34,7.8a13.89,13.89,0,0,1-1.63.38q-4.72.69-6.22,1.88a3.84,3.84,0,0,0-1.5,3.17,3.64,3.64,0,0,0,.85,2.51,2.77,2.77,0,0,0,2.16,1,4.76,4.76,0,0,0,2.63-.8,5.65,5.65,0,0,0,2-2.25,19.86,19.86,0,0,0,1.45-4.74Z" transform="translate(-27.18 -37.5)"/><path class="cls-9" d="M579.06,533.2l1.12-6.24h3.56l.87-5,8-5.88-2,10.86H595L594,533.2h-4.43l-2.41,13c-.42,2.34-.63,3.7-.63,4.07a2,2,0,0,0,.56,1.56,2.83,2.83,0,0,0,1.92.51c.29,0,1.08-.07,2.38-.21l-1.14,6.24a16.43,16.43,0,0,1-3.69.41c-2.41,0-4.2-.54-5.39-1.64a6.19,6.19,0,0,1-1.79-4.8,49.17,49.17,0,0,1,.94-6.62l2.29-12.51Z" transform="translate(-27.18 -37.5)"/><path class="cls-9" d="M620.35,535.77l-6.74-.7a12,12,0,0,1,4.19-6.56,12.21,12.21,0,0,1,7.56-2.26q4.67,0,7.17,2.31a7.9,7.9,0,0,1,2.51,6.13,18.19,18.19,0,0,1-.23,2.85q-.24,1.51-1.76,8.28a41.42,41.42,0,0,0-1.28,7.78,16.35,16.35,0,0,0,.69,4.47h-6.87a18.65,18.65,0,0,1-.51-3.54,10.54,10.54,0,0,1-3.37,3.15,7.57,7.57,0,0,1-3.8,1.09,6.27,6.27,0,0,1-5-2.46,10,10,0,0,1-2-6.56c0-3.15.81-5.57,2.41-7.27s4.23-2.72,8-3.07a27,27,0,0,0,6.59-1.2,10.52,10.52,0,0,0,.54-2.85,2.92,2.92,0,0,0-1-2.27,3.82,3.82,0,0,0-2.63-.86A4.11,4.11,0,0,0,620.35,535.77Zm6.34,7.8a14.12,14.12,0,0,1-1.64.38c-3.14.46-5.22,1.09-6.22,1.88a3.84,3.84,0,0,0-1.5,3.17,3.64,3.64,0,0,0,.85,2.51,2.77,2.77,0,0,0,2.17,1,4.76,4.76,0,0,0,2.62-.8,5.65,5.65,0,0,0,2-2.25,19.86,19.86,0,0,0,1.45-4.74Z" transform="translate(-27.18 -37.5)"/><path class="cls-9" d="M644.46,527H651l-.56,3.19a14.56,14.56,0,0,1,3.93-3,8.63,8.63,0,0,1,3.73-.85,7.45,7.45,0,0,1,6.31,3.34q2.42,3.35,2.42,10,0,8.57-4.27,14.36-3.52,4.77-8.28,4.77-4.95,0-7.52-4.95L644,569.93H637.1Zm4.17,17.86a9.64,9.64,0,0,0,1.43,5.66,4,4,0,0,0,3.3,2,4.47,4.47,0,0,0,3-1.27,11.05,11.05,0,0,0,2.63-4.71,21.55,21.55,0,0,0,1.19-7.07,8.88,8.88,0,0,0-1.36-5.34,4,4,0,0,0-3.34-1.85,4.59,4.59,0,0,0-3,1.26,10.56,10.56,0,0,0-2.62,4.55A20.3,20.3,0,0,0,648.63,544.82Z" transform="translate(-27.18 -37.5)"/><path class="cls-9" d="M675.69,527h6.47l-1,6q3.61-6.74,7.89-6.74a7.35,7.35,0,0,1,3.23.88L689.61,534a4.83,4.83,0,0,0-2-.41,5,5,0,0,0-3,1.08,10.67,10.67,0,0,0-3.33,4.37,46.33,46.33,0,0,0-2.29,9.25l-1.7,9.76h-6.88Z" transform="translate(-27.18 -37.5)"/><path class="cls-9" d="M716.31,545.12H699v.79a7.9,7.9,0,0,0,1.47,5A4.34,4.34,0,0,0,704,552.8q3.4,0,5.36-4.34l6.19,1.26a15.44,15.44,0,0,1-4.84,6.8,11,11,0,0,1-6.77,2.25,10.39,10.39,0,0,1-8.27-3.88q-3.3-3.89-3.3-10.53a21.77,21.77,0,0,1,3.75-12.64,12,12,0,0,1,10.49-5.47A9.08,9.08,0,0,1,714,529.7q2.82,3.43,2.83,9.94A29,29,0,0,1,716.31,545.12ZM710.48,540l0-.82a8.58,8.58,0,0,0-1.31-5.24,4.07,4.07,0,0,0-3.38-1.7,5,5,0,0,0-3.82,2,11.22,11.22,0,0,0-2.3,5.8Zm-8.76-25.84h6.63l3.06,8.76h-4.67Z" transform="translate(-27.18 -37.5)"/><path class="cls-9" d="M719.39,549.37l6.68-1.29a7.6,7.6,0,0,0,2.22,3.68,5.73,5.73,0,0,0,3.58,1,5.47,5.47,0,0,0,3.45-1,3,3,0,0,0,1.32-2.4,2.32,2.32,0,0,0-.55-1.58,9,9,0,0,0-2.82-1.5q-6.18-2.49-7.67-3.92a8.08,8.08,0,0,1-2.37-6,9.35,9.35,0,0,1,3.1-7.23q3.1-2.85,8.5-2.85,9.13,0,10.6,8.12l-6.36,1.35c-.74-2.46-2.51-3.7-5.33-3.7a4.7,4.7,0,0,0-3,.83,2.53,2.53,0,0,0-1,2.08,2.33,2.33,0,0,0,.79,1.78,16.12,16.12,0,0,0,4,1.79c3.3,1.17,5.52,2.32,6.65,3.43a8,8,0,0,1,2.49,5.92,10.45,10.45,0,0,1-3.19,7.82,11.63,11.63,0,0,1-8.47,3.1Q721.65,558.77,719.39,549.37Z" transform="translate(-27.18 -37.5)"/><path class="cls-9" d="M765.39,545.76l6.71-.73,0,.88a7.5,7.5,0,0,0,1.11,4.5,3.37,3.37,0,0,0,2.78,1.48q2.44,0,4.47-2.84t2-7.91a7.42,7.42,0,0,0-1.14-4.54,3.5,3.5,0,0,0-2.92-1.5,5.06,5.06,0,0,0-2.64.76,8.78,8.78,0,0,0-2.44,2.32l-5.68-.53L773,515.71h17.74l-1.32,7.67h-11.7L776.1,530a9.55,9.55,0,0,1,2-.84,7.31,7.31,0,0,1,2-.28,8.13,8.13,0,0,1,6.57,3.25q2.66,3.25,2.65,8.94a21.36,21.36,0,0,1-2,9.2,15.5,15.5,0,0,1-5.11,6.4,11.35,11.35,0,0,1-6.48,2.12,9.26,9.26,0,0,1-7.35-3.48Q765.43,551.83,765.39,545.76Z" transform="translate(-27.18 -37.5)"/><path class="cls-9" d="M812.92,527h6.52l-.67,3.78q3.87-4.49,8.09-4.49,5.65,0,6.55,5.48a11.22,11.22,0,0,1,3.9-3.94,9.74,9.74,0,0,1,5.09-1.54,6.17,6.17,0,0,1,4.79,1.93,7.55,7.55,0,0,1,1.78,5.35,38.49,38.49,0,0,1-.68,5.54l-3.25,19h-6.92l3.25-19c.41-2.39.61-3.73.61-4a2.89,2.89,0,0,0-.68-2.06,2.49,2.49,0,0,0-1.88-.72q-2.53,0-4.56,3.1c-1.08,1.62-2,4.48-2.69,8.57l-2.39,14.17h-6.93l3.22-18.81a33.78,33.78,0,0,0,.56-4.19,2.87,2.87,0,0,0-.73-2.08,2.47,2.47,0,0,0-1.87-.76,4.85,4.85,0,0,0-3.15,1.42,9.57,9.57,0,0,0-2.59,4.15,44.11,44.11,0,0,0-1.35,6l-2.47,14.3h-6.88Z" transform="translate(-27.18 -37.5)"/><path class="cls-9" d="M858.66,527h6.88l-5.33,31.11h-6.88Zm2-11.84h6.91l-1.31,7.62h-6.89Z" transform="translate(-27.18 -37.5)"/><path class="cls-9" d="M873.83,527h6.56l-.68,4a17.7,17.7,0,0,1,4.66-3.71,9.88,9.88,0,0,1,4.37-1,6.17,6.17,0,0,1,4.91,2.14,8.68,8.68,0,0,1,1.84,5.86,47.18,47.18,0,0,1-.75,6.18l-3,17.64h-6.93l3-17.64a45.09,45.09,0,0,0,.67-4.74,3.75,3.75,0,0,0-.8-2.57,2.7,2.7,0,0,0-2.09-.89,4.75,4.75,0,0,0-2.86,1.11,10,10,0,0,0-3.12,3.77,36.49,36.49,0,0,0-2,8.19l-2.21,12.77h-6.88Z" transform="translate(-27.18 -37.5)"/><path class="cls-9" d="M904.72,527h6.92l-3.15,18.36a36.31,36.31,0,0,0-.56,4.13,3.53,3.53,0,0,0,.83,2.39,2.56,2.56,0,0,0,2,1,4.68,4.68,0,0,0,2.75-1,9.89,9.89,0,0,0,3.05-3.59,25.26,25.26,0,0,0,1.93-6.43L921.27,527h6.92l-5.77,31.11h-6.48l.77-4.22q-4.2,4.92-9.08,4.92a6,6,0,0,1-4.89-2.15,8.93,8.93,0,0,1-1.82-5.93,48,48,0,0,1,.83-6.39Z" transform="translate(-27.18 -37.5)"/><path class="cls-9" d="M932.82,533.2l1.12-6.24h3.57l.86-5,8-5.88-2,10.86h4.36l-1.06,6.24h-4.42l-2.42,13c-.41,2.34-.62,3.7-.62,4.07a2,2,0,0,0,.55,1.56,2.87,2.87,0,0,0,1.92.51c.29,0,1.09-.07,2.39-.21L944,558.36a16.43,16.43,0,0,1-3.69.41c-2.4,0-4.2-.54-5.39-1.64a6.19,6.19,0,0,1-1.79-4.8,49.86,49.86,0,0,1,.95-6.62l2.29-12.51Z" transform="translate(-27.18 -37.5)"/><path class="cls-9" d="M974.08,545.12H956.76v.79a7.9,7.9,0,0,0,1.47,5,4.33,4.33,0,0,0,3.51,1.88c2.27,0,4-1.45,5.36-4.34l6.18,1.26a15.35,15.35,0,0,1-4.83,6.8,11,11,0,0,1-6.77,2.25,10.38,10.38,0,0,1-8.27-3.88q-3.3-3.89-3.3-10.53a21.77,21.77,0,0,1,3.75-12.64,12,12,0,0,1,10.49-5.47,9.08,9.08,0,0,1,7.37,3.45q2.82,3.43,2.82,9.94A29.06,29.06,0,0,1,974.08,545.12ZM968.25,540l0-.82a8.58,8.58,0,0,0-1.31-5.24,4.08,4.08,0,0,0-3.38-1.7,5,5,0,0,0-3.83,2,11.39,11.39,0,0,0-2.3,5.8Z" transform="translate(-27.18 -37.5)"/><path class="cls-9" d="M977.16,549.37l6.68-1.29a7.53,7.53,0,0,0,2.22,3.68,5.73,5.73,0,0,0,3.58,1,5.47,5.47,0,0,0,3.45-1,3,3,0,0,0,1.32-2.4,2.32,2.32,0,0,0-.55-1.58,9,9,0,0,0-2.82-1.5q-6.18-2.49-7.67-3.92a8.09,8.09,0,0,1-2.38-6,9.36,9.36,0,0,1,3.11-7.23q3.1-2.85,8.5-2.85,9.14,0,10.6,8.12l-6.36,1.35c-.74-2.46-2.52-3.7-5.33-3.7a4.75,4.75,0,0,0-3,.83,2.55,2.55,0,0,0-1,2.08,2.33,2.33,0,0,0,.79,1.78,16.12,16.12,0,0,0,4,1.79c3.3,1.17,5.52,2.32,6.65,3.43a8,8,0,0,1,2.49,5.92,10.45,10.45,0,0,1-3.19,7.82,11.63,11.63,0,0,1-8.47,3.1Q979.42,558.77,977.16,549.37Z" transform="translate(-27.18 -37.5)"/></svg>